<svg width="469" height="443" viewBox="0 0 469 443" fill="none" xmlns="http://www.w3.org/2000/svg">
  <rect width="280" height="280" rx="140" fill="#002D1F"/>
  <g clip-path="url(#clip0)">
    <path
      d="M59.041 157.578C66.7989 165.336 79.3768 165.336 87.1346 157.578C94.8924 149.82 94.8924 137.242 87.1346 129.485L83.6229 132.996C89.4413 138.815 89.4413 148.248 83.6229 154.066C77.8046 159.885 68.3711 159.885 62.5527 154.066L59.041 157.578Z"
      fill="#00E9A3"/>
    <path
      d="M66.0645 150.555C69.9433 154.434 76.2323 154.434 80.1112 150.555C83.9901 146.676 83.9901 140.387 80.1112 136.508L76.5996 140.02C78.539 141.959 78.539 145.104 76.5996 147.043C74.66 148.983 71.5156 148.983 69.5761 147.043L66.0645 150.555Z"
      fill="#00E9A3"/>
    <path
      d="M94.158 122.461C86.4002 114.703 73.8223 114.703 66.0645 122.461C58.3066 130.219 58.3066 142.797 66.0645 150.555L69.5761 147.043C63.7578 141.224 63.7578 131.791 69.5761 125.973C75.3945 120.154 84.828 120.154 90.6463 125.973L94.158 122.461Z"
      fill="#00E9A3"/>
    <path
      d="M87.1338 129.485C83.2549 125.606 76.9658 125.606 73.087 129.485C69.208 133.364 69.208 139.653 73.087 143.532L76.5986 140.02C74.6592 138.08 74.6592 134.936 76.5986 132.996C78.5381 131.057 81.6825 131.057 83.6221 132.996L87.1338 129.485Z"
      fill="#00E9A3"/>
    <path
      d="M94.158 122.461C86.4002 114.703 73.8223 114.703 66.0645 122.461C58.3066 130.219 58.3066 142.797 66.0645 150.555L69.5761 147.043C63.7578 141.224 63.7578 131.791 69.5761 125.973C75.3945 120.154 84.828 120.154 90.6463 125.973L94.158 122.461Z"
      fill="white" fill-opacity="0.8"/>
    <path
      d="M87.1338 129.485C83.2549 125.606 76.9658 125.606 73.087 129.485C69.208 133.364 69.208 139.653 73.087 143.532L76.5986 140.02C74.6592 138.08 74.6592 134.936 76.5986 132.996C78.5381 131.057 81.6825 131.057 83.6221 132.996L87.1338 129.485Z"
      fill="white" fill-opacity="0.8"/>
    <path
      d="M117.414 142.799C117.414 145.275 115.647 146.503 113.954 146.503C112.113 146.503 110.885 145.201 110.885 143.138V133.381H107.055V143.73C107.055 147.635 109.277 149.846 112.473 149.846C114.906 149.846 116.62 148.566 117.361 146.746H117.53V149.635H121.245V133.381H117.414V142.799ZM124.588 155.73H128.418V147.074H128.577C129.18 148.259 130.439 149.92 133.233 149.92C137.063 149.92 139.931 146.884 139.931 141.529C139.931 136.111 136.979 133.17 133.222 133.17C130.355 133.17 129.159 134.895 128.577 136.069H128.355V133.381H124.588V155.73ZM128.344 141.508C128.344 138.355 129.699 136.313 132.164 136.313C134.714 136.313 136.026 138.482 136.026 141.508C136.026 144.556 134.693 146.778 132.164 146.778C129.72 146.778 128.344 144.661 128.344 141.508ZM155.461 137.677C154.932 134.926 152.731 133.17 148.922 133.17C145.007 133.17 142.34 135.096 142.351 138.101C142.34 140.471 143.8 142.037 146.922 142.683L149.694 143.265C151.186 143.593 151.885 144.196 151.885 145.116C151.885 146.227 150.678 147.063 148.858 147.063C147.102 147.063 145.959 146.302 145.631 144.841L141.896 145.201C142.372 148.185 144.88 149.952 148.869 149.952C152.932 149.952 155.8 147.846 155.811 144.767C155.8 142.45 154.308 141.032 151.239 140.365L148.467 139.773C146.816 139.402 146.16 138.831 146.171 137.889C146.16 136.789 147.377 136.027 148.975 136.027C150.742 136.027 151.673 136.99 151.969 138.059L155.461 137.677ZM166.489 133.381H163.284V129.487H159.453V133.381H157.146V136.344H159.453V145.381C159.432 148.439 161.654 149.942 164.532 149.857C165.622 149.825 166.373 149.614 166.786 149.476L166.14 146.481C165.929 146.534 165.495 146.63 165.019 146.63C164.055 146.63 163.284 146.291 163.284 144.746V136.344H166.489V133.381ZM173.774 149.963C176.324 149.963 177.848 148.767 178.546 147.402H178.673V149.635H182.356V138.757C182.356 134.461 178.853 133.17 175.753 133.17C172.335 133.17 169.711 134.694 168.864 137.656L172.44 138.164C172.822 137.053 173.9 136.101 175.774 136.101C177.552 136.101 178.525 137.011 178.525 138.609V138.672C178.525 139.773 177.372 139.826 174.504 140.132C171.351 140.471 168.335 141.413 168.335 145.074C168.335 148.27 170.673 149.963 173.774 149.963ZM174.769 147.148C173.17 147.148 172.028 146.418 172.028 145.011C172.028 143.54 173.309 142.926 175.023 142.683C176.028 142.545 178.038 142.291 178.536 141.889V143.804C178.536 145.614 177.075 147.148 174.769 147.148ZM198.458 137.677C197.928 134.926 195.727 133.17 191.918 133.17C188.003 133.17 185.336 135.096 185.347 138.101C185.336 140.471 186.797 142.037 189.918 142.683L192.691 143.265C194.183 143.593 194.881 144.196 194.881 145.116C194.881 146.227 193.674 147.063 191.855 147.063C190.098 147.063 188.955 146.302 188.628 144.841L184.892 145.201C185.368 148.185 187.876 149.952 191.866 149.952C195.928 149.952 198.797 147.846 198.806 144.767C198.797 142.45 197.304 141.032 194.235 140.365L191.463 139.773C189.812 139.402 189.156 138.831 189.167 137.889C189.156 136.789 190.373 136.027 191.971 136.027C193.738 136.027 194.67 136.99 194.966 138.059L198.458 137.677ZM205.2 140.111C205.2 137.762 206.66 136.408 208.713 136.408C210.724 136.408 211.909 137.688 211.909 139.879V149.635H215.74V139.286C215.74 135.36 213.517 133.17 210.142 133.17C207.644 133.17 206.057 134.302 205.305 136.143H205.116V127.964H201.369V149.635H205.2V140.111Z"
      fill="white"/>
  </g>
  <rect x="189" y="163" width="280" height="280" rx="140" fill="white"/>
  <path
    d="M293.618 283.807H318.892V285.801H295.935V300.808H317.523V302.802H295.935V319.277H319.155V321.271H293.618V283.807ZM321.156 283.807H323.841L335.741 300.283L347.904 283.807L364.447 262.88L337.268 302.015L351.274 321.271H348.483L335.741 303.746L322.947 321.271H320.208L334.319 302.015L321.157 283.807H321.156ZM352.275 285.801V283.807H381.075V285.801H367.807V321.27H365.49V285.801H352.275H352.275ZM262 283.807H264.896L304.829 343.12L288.326 321.271L264.422 286.641L264.316 321.271H262V283.807ZM380.843 318.675C380.368 318.675 380.014 318.311 380.014 317.841C380.014 317.37 380.368 317.006 380.842 317.006C381.321 317.006 381.67 317.37 381.67 317.841C381.67 318.311 381.321 318.675 380.842 318.675H380.843ZM383.119 316.48H384.359C384.376 317.147 384.867 317.594 385.587 317.594C386.393 317.594 386.85 317.113 386.85 316.211V310.499H388.112V316.216C388.112 317.841 387.165 318.777 385.598 318.777C384.128 318.777 383.119 317.869 383.119 316.48H383.119ZM389.762 316.408H391.013C391.12 317.174 391.875 317.661 392.963 317.661C393.977 317.661 394.721 317.14 394.721 316.424C394.721 315.808 394.248 315.438 393.171 315.187L392.123 314.935C390.653 314.594 389.982 313.887 389.982 312.7C389.982 311.261 391.165 310.303 392.94 310.303C394.591 310.303 395.798 311.261 395.87 312.621H394.642C394.524 311.877 393.87 311.412 392.923 311.412C391.925 311.412 391.261 311.888 391.261 312.616C391.261 313.193 391.689 313.523 392.749 313.77L393.645 313.988C395.312 314.374 396 315.046 396 316.261C396 317.807 394.793 318.777 392.867 318.777C391.064 318.777 389.852 317.852 389.762 316.407V316.408Z"
    fill="black"/>
  <defs>
    <clipPath id="clip0">
      <rect width="162" height="46.8818" fill="white" transform="translate(59 116.559)"/>
    </clipPath>
  </defs>
</svg>
