<svg width="512" height="497" viewBox="0 0 512 497" fill="none" xmlns="http://www.w3.org/2000/svg">
<rect x="25" width="280" height="280" rx="140" fill="#002D1F"/>
<g clip-path="url(#clip0_1032_588)">
<path d="M84.041 157.578C91.7989 165.336 104.377 165.336 112.135 157.578C119.892 149.82 119.892 137.242 112.135 129.485L108.623 132.996C114.441 138.815 114.441 148.248 108.623 154.066C102.805 159.885 93.3711 159.885 87.5527 154.066L84.041 157.578Z" fill="#00E9A3"/>
<path d="M91.0645 150.555C94.9433 154.434 101.232 154.434 105.111 150.555C108.99 146.676 108.99 140.387 105.111 136.508L101.6 140.02C103.539 141.959 103.539 145.104 101.6 147.043C99.66 148.983 96.5156 148.983 94.5761 147.043L91.0645 150.555Z" fill="#00E9A3"/>
<path d="M119.158 122.461C111.4 114.703 98.8223 114.703 91.0645 122.461C83.3066 130.219 83.3066 142.797 91.0645 150.555L94.5761 147.043C88.7578 141.224 88.7578 131.791 94.5761 125.973C100.395 120.154 109.828 120.154 115.646 125.973L119.158 122.461Z" fill="#00E9A3"/>
<path d="M112.134 129.485C108.255 125.606 101.966 125.606 98.087 129.485C94.208 133.364 94.208 139.653 98.087 143.532L101.599 140.02C99.6592 138.08 99.6592 134.936 101.599 132.996C103.538 131.057 106.683 131.057 108.622 132.996L112.134 129.485Z" fill="#00E9A3"/>
<path d="M119.158 122.461C111.4 114.703 98.8223 114.703 91.0645 122.461C83.3066 130.219 83.3066 142.797 91.0645 150.555L94.5761 147.043C88.7578 141.224 88.7578 131.791 94.5761 125.973C100.395 120.154 109.828 120.154 115.646 125.973L119.158 122.461Z" fill="white" fill-opacity="0.8"/>
<path d="M112.134 129.485C108.255 125.606 101.966 125.606 98.087 129.485C94.208 133.364 94.208 139.653 98.087 143.532L101.599 140.02C99.6592 138.08 99.6592 134.936 101.599 132.996C103.538 131.057 106.683 131.057 108.622 132.996L112.134 129.485Z" fill="white" fill-opacity="0.8"/>
<path d="M142.414 142.799C142.414 145.275 140.647 146.503 138.954 146.503C137.113 146.503 135.885 145.201 135.885 143.138V133.381H132.055V143.73C132.055 147.635 134.277 149.846 137.473 149.846C139.906 149.846 141.62 148.566 142.361 146.746H142.53V149.635H146.245V133.381H142.414V142.799ZM149.588 155.73H153.418V147.074H153.577C154.18 148.259 155.439 149.92 158.233 149.92C162.063 149.92 164.931 146.884 164.931 141.529C164.931 136.111 161.979 133.17 158.222 133.17C155.355 133.17 154.159 134.895 153.577 136.069H153.355V133.381H149.588V155.73ZM153.344 141.508C153.344 138.355 154.699 136.313 157.164 136.313C159.714 136.313 161.026 138.482 161.026 141.508C161.026 144.556 159.693 146.778 157.164 146.778C154.72 146.778 153.344 144.661 153.344 141.508ZM180.461 137.677C179.932 134.926 177.731 133.17 173.922 133.17C170.007 133.17 167.34 135.096 167.351 138.101C167.34 140.471 168.8 142.037 171.922 142.683L174.694 143.265C176.186 143.593 176.885 144.196 176.885 145.116C176.885 146.227 175.678 147.063 173.858 147.063C172.102 147.063 170.959 146.302 170.631 144.841L166.896 145.201C167.372 148.185 169.88 149.952 173.869 149.952C177.932 149.952 180.8 147.846 180.811 144.767C180.8 142.45 179.308 141.032 176.239 140.365L173.467 139.773C171.816 139.402 171.16 138.831 171.171 137.889C171.16 136.789 172.377 136.027 173.975 136.027C175.742 136.027 176.673 136.99 176.969 138.059L180.461 137.677ZM191.489 133.381H188.284V129.487H184.453V133.381H182.146V136.344H184.453V145.381C184.432 148.439 186.654 149.942 189.532 149.857C190.622 149.825 191.373 149.614 191.786 149.476L191.14 146.481C190.929 146.534 190.495 146.63 190.019 146.63C189.055 146.63 188.284 146.291 188.284 144.746V136.344H191.489V133.381ZM198.774 149.963C201.324 149.963 202.848 148.767 203.546 147.402H203.673V149.635H207.356V138.757C207.356 134.461 203.853 133.17 200.753 133.17C197.335 133.17 194.711 134.694 193.864 137.656L197.44 138.164C197.822 137.053 198.9 136.101 200.774 136.101C202.552 136.101 203.525 137.011 203.525 138.609V138.672C203.525 139.773 202.372 139.826 199.504 140.132C196.351 140.471 193.335 141.413 193.335 145.074C193.335 148.27 195.673 149.963 198.774 149.963ZM199.769 147.148C198.17 147.148 197.028 146.418 197.028 145.011C197.028 143.54 198.308 142.926 200.023 142.683C201.028 142.545 203.038 142.291 203.536 141.889V143.804C203.536 145.614 202.075 147.148 199.769 147.148ZM223.458 137.677C222.928 134.926 220.727 133.17 216.918 133.17C213.003 133.17 210.336 135.096 210.347 138.101C210.336 140.471 211.797 142.037 214.918 142.683L217.691 143.265C219.183 143.593 219.881 144.196 219.881 145.116C219.881 146.227 218.674 147.063 216.855 147.063C215.098 147.063 213.955 146.302 213.628 144.841L209.892 145.201C210.368 148.185 212.876 149.952 216.866 149.952C220.928 149.952 223.797 147.846 223.806 144.767C223.797 142.45 222.304 141.032 219.235 140.365L216.463 139.773C214.812 139.402 214.156 138.831 214.167 137.889C214.156 136.789 215.373 136.027 216.971 136.027C218.738 136.027 219.67 136.99 219.966 138.059L223.458 137.677ZM230.2 140.111C230.2 137.762 231.66 136.408 233.713 136.408C235.724 136.408 236.909 137.688 236.909 139.879V149.635H240.74V139.286C240.74 135.36 238.517 133.17 235.142 133.17C232.644 133.17 231.057 134.302 230.305 136.143H230.116V127.964H226.369V149.635H230.2V140.111Z" fill="white"/>
</g>
<rect x="232" y="127" width="280" height="280" rx="140" fill="#FFEFDA"/>
<g clip-path="url(#clip1_1032_588)">
<path d="M426.246 274.462L426.628 273.134C427.082 271.555 426.913 270.095 426.151 269.022C425.449 268.034 424.281 267.452 422.861 267.384L395.977 267.041C395.893 267.04 395.811 267.018 395.738 266.979C395.664 266.939 395.601 266.883 395.553 266.814C395.506 266.743 395.476 266.662 395.465 266.578C395.455 266.493 395.464 266.407 395.492 266.327C395.538 266.194 395.622 266.078 395.733 265.992C395.844 265.907 395.977 265.856 396.117 265.847L423.25 265.5C426.469 265.351 429.954 262.722 431.174 259.515L432.721 255.445C432.784 255.273 432.799 255.086 432.763 254.906C431.006 246.95 423.953 241 415.52 241C407.75 241 401.152 246.049 398.786 253.067C397.187 251.858 395.193 251.303 393.205 251.511C389.477 251.884 386.48 254.906 386.111 258.659C386.016 259.596 386.085 260.543 386.316 261.456C380.226 261.635 375.343 266.658 375.343 272.832C375.344 273.383 375.384 273.933 375.464 274.479C375.481 274.605 375.543 274.72 375.638 274.804C375.734 274.888 375.856 274.934 375.982 274.935L425.615 274.941C425.62 274.941 425.625 274.941 425.629 274.941C425.77 274.939 425.905 274.891 426.017 274.805C426.128 274.718 426.208 274.598 426.246 274.462Z" fill="#F6821F"/>
<path d="M435.203 255.74C434.954 255.74 434.705 255.746 434.458 255.759C434.418 255.762 434.379 255.77 434.342 255.785C434.277 255.807 434.218 255.845 434.171 255.895C434.124 255.945 434.09 256.005 434.071 256.072L433.014 259.748C432.559 261.328 432.728 262.786 433.491 263.859C434.192 264.849 435.361 265.429 436.78 265.497L442.511 265.843C442.592 265.846 442.671 265.868 442.742 265.906C442.813 265.945 442.873 266 442.92 266.067C442.967 266.138 442.998 266.22 443.008 266.305C443.019 266.39 443.009 266.477 442.98 266.558C442.934 266.69 442.85 266.806 442.74 266.891C442.629 266.977 442.496 267.027 442.357 267.038L436.402 267.384C433.169 267.534 429.685 270.162 428.466 273.369L428.036 274.501C428.018 274.548 428.011 274.599 428.016 274.649C428.022 274.7 428.039 274.748 428.067 274.79C428.094 274.833 428.132 274.868 428.175 274.893C428.219 274.918 428.268 274.932 428.319 274.934C428.324 274.934 428.329 274.934 428.334 274.934H448.825C448.944 274.935 449.06 274.897 449.156 274.825C449.251 274.754 449.321 274.653 449.354 274.537C449.717 273.233 449.9 271.885 449.899 270.531C449.897 262.363 443.318 255.74 435.203 255.74Z" fill="#FBAD41"/>
<path d="M311.352 281.048H314.847V290.662H320.956V293.745H311.352V281.048Z" fill="#222222"/>
<path d="M324.576 287.433V287.397C324.576 283.751 327.495 280.793 331.387 280.793C335.279 280.793 338.161 283.714 338.161 287.36V287.397C338.161 291.043 335.242 293.999 331.351 293.999C327.461 293.999 324.576 291.079 324.576 287.433ZM334.594 287.433V287.397C334.594 285.567 333.279 283.968 331.351 283.968C329.441 283.968 328.162 285.528 328.162 287.36V287.397C328.162 289.227 329.477 290.826 331.387 290.826C333.315 290.826 334.594 289.265 334.594 287.433Z" fill="#222222"/>
<path d="M342.44 288.177V281.047H345.99V288.104C345.99 289.934 346.909 290.807 348.314 290.807C349.719 290.807 350.638 289.973 350.638 288.195V281.047H354.188V288.084C354.188 292.184 351.864 293.979 348.278 293.979C344.692 293.979 342.44 292.149 342.44 288.175" fill="#222222"/>
<path d="M359.537 281.048H364.402C368.907 281.048 371.519 283.66 371.519 287.324V287.361C371.519 291.024 368.871 293.746 364.33 293.746H359.537V281.048ZM364.457 290.624C366.547 290.624 367.933 289.465 367.933 287.413V287.377C367.933 285.346 366.547 284.166 364.457 284.166H363.033V290.625L364.457 290.624Z" fill="#222222"/>
<path d="M376.6 281.048H386.689V284.132H380.095V286.29H386.059V289.21H380.095V293.745H376.6V281.048Z" fill="#222222"/>
<path d="M391.554 281.048H395.049V290.662H401.158V293.745H391.554V281.048Z" fill="#222222"/>
<path d="M410.292 280.957H413.66L419.03 293.745H415.283L414.363 291.477H409.498L408.597 293.745H404.922L410.292 280.957ZM413.354 288.739L411.949 285.129L410.525 288.739H413.354Z" fill="#222222"/>
<path d="M423.533 281.047H429.497C431.426 281.047 432.758 281.556 433.605 282.426C434.345 283.152 434.723 284.134 434.723 285.384V285.419C434.723 287.36 433.693 288.648 432.128 289.319L435.137 293.746H431.1L428.56 289.899H427.029V293.746H423.533V281.047ZM429.335 287.143C430.524 287.143 431.21 286.562 431.21 285.637V285.601C431.21 284.603 430.489 284.096 429.316 284.096H427.029V287.145L429.335 287.143Z" fill="#222222"/>
<path d="M439.767 281.048H449.91V284.041H443.227V285.963H449.281V288.739H443.227V290.753H450V293.745H439.767V281.048Z" fill="#222222"/>
<path d="M303.698 288.921C303.209 290.036 302.179 290.825 300.81 290.825C298.899 290.825 297.585 289.229 297.585 287.396V287.36C297.585 285.53 298.864 283.967 300.774 283.967C302.214 283.967 303.31 284.859 303.773 286.072H307.458C306.868 283.05 304.23 280.794 300.81 280.794C296.918 280.794 294 283.753 294 287.396V287.433C294 291.079 296.882 294 300.774 294C304.103 294 306.705 291.83 307.391 288.922L303.698 288.921Z" fill="#222222"/>
</g>
<rect y="217" width="280" height="280" rx="140" fill="white"/>
<rect y="217" width="280" height="280" rx="140" fill="#FFE7E7"/>
<path d="M162.01 338.723V369.066H171.346V364.429H168.261V334.101L162.009 334.101L162.01 338.723Z" fill="#FF282D"/>
<path d="M80.9355 364.429H84.1094V349.79H80.9355V345.764L84.1094 345.255V341.18C84.1094 336.243 85.21 334.101 91.6587 334.101C93.0515 334.101 94.7023 334.302 96.1477 334.556L95.291 339.518C94.3122 339.367 93.8267 339.34 93.2079 339.34C90.936 339.34 90.3616 339.561 90.3616 341.728V345.255H95.0789V349.79H90.3616V364.43H93.5023V369.065L80.9357 369.066V364.429H80.9355Z" fill="#FF282D"/>
<path d="M158.829 362.964C157.851 363.166 156.996 363.142 156.377 363.156C153.805 363.218 154.027 362.393 154.027 360.025V349.79H158.923V345.255H154.027V334.101H147.775V361.291C147.775 366.629 149.125 369.065 155.007 369.065C156.4 369.065 158.314 368.716 159.759 368.413L158.829 362.964Z" fill="#FF282D"/>
<path d="M197.668 364.454C198.982 364.454 200.046 365.474 200.046 366.757C200.046 368.039 198.981 369.058 197.668 369.058C196.354 369.058 195.296 368.039 195.296 366.757C195.296 365.474 196.354 364.454 197.668 364.454ZM197.668 368.697C198.759 368.697 199.648 367.822 199.648 366.757C199.648 365.691 198.759 364.843 197.668 364.843C196.576 364.843 195.693 365.691 195.693 366.757C195.693 367.822 196.576 368.697 197.668 368.697ZM198.106 367.888L197.627 367.204H197.297V367.888H196.765V365.625H197.735C198.308 365.625 198.665 365.908 198.665 366.408C198.665 366.776 198.476 367.026 198.18 367.111L198.759 367.888H198.106V367.888ZM197.297 366.75H197.722C197.964 366.75 198.126 366.658 198.126 366.408C198.126 366.171 197.964 366.079 197.735 366.079H197.297V366.75H197.297Z" fill="#FF282D"/>
<path d="M139.971 349.782V348.97C138.08 348.633 136.201 348.628 135.183 348.628C132.273 348.628 131.918 350.135 131.918 350.951C131.918 352.106 132.322 352.731 135.474 353.404C140.081 354.413 144.709 355.467 144.709 361.044C144.709 366.333 141.92 369.066 136.051 369.066C132.123 369.066 128.312 368.242 125.405 367.522V362.964H130.139L130.136 363.774C132.174 364.158 134.31 364.12 135.425 364.12C138.529 364.12 139.031 362.491 139.031 361.625C139.031 360.423 138.141 359.846 135.232 359.27C129.751 358.356 125.401 356.529 125.401 351.094C125.401 345.95 128.926 343.932 134.795 343.932C138.772 343.932 141.795 344.534 144.704 345.255V349.782H139.971V349.782Z" fill="#FF282D"/>
<path d="M111.206 353.788L110.73 353.324L108.314 355.379C108.192 355.337 108.061 355.312 107.925 355.312C107.273 355.312 106.745 355.843 106.745 356.496C106.745 357.151 107.273 357.681 107.925 357.681C108.577 357.681 109.106 357.151 109.106 356.496C109.106 356.372 109.086 356.253 109.051 356.14L111.206 353.788Z" fill="#FF282D"/>
<path d="M120.782 362.964L120.778 343.972H114.526V345.753C113.238 344.999 111.804 344.46 110.275 344.183H110.311V342.075H111.073V340.525H104.778V342.075H105.541V344.183H105.584C99.6047 345.258 95.0732 350.369 95.0732 356.518C95.0732 363.446 100.827 369.063 107.925 369.063C110.347 369.063 112.612 368.408 114.546 367.271L115.673 369.066H122.276V362.964H120.782V362.964ZM108.299 362.951V362.233H107.55V362.949C104.195 362.758 101.511 360.126 101.336 356.845H102.08V356.114H101.339C101.538 352.855 104.211 350.249 107.55 350.059V350.778H108.299V350.057C111.59 350.228 114.241 352.748 114.528 355.931V356.141H113.777V356.872H114.528L114.528 357.073C114.243 360.257 111.591 362.779 108.299 362.951Z" fill="#FF282D"/>
<path d="M187.169 345.255H200.064V349.786H196.982L189.074 368.779C186.807 374.115 183.084 379.136 177.415 379.136C176.021 379.136 174.165 378.986 172.878 378.684L173.443 373.144C174.269 373.295 175.351 373.394 175.918 373.394C178.548 373.394 181.513 371.804 182.441 369.035L174.428 349.786H171.346V345.255H184.247V349.786H181.165L185.705 360.689L190.245 349.786H187.169V345.255H187.169Z" fill="#FF282D"/>
<defs>
<clipPath id="clip0_1032_588">
<rect width="162" height="46.8818" fill="white" transform="translate(84 116.559)"/>
</clipPath>
<clipPath id="clip1_1032_588">
<rect width="156" height="53" fill="white" transform="translate(294 241)"/>
</clipPath>
</defs>
</svg>
