<svg width="469" height="443" viewBox="0 0 469 443" fill="none" xmlns="http://www.w3.org/2000/svg">
<rect width="280" height="280" rx="140" fill="#002D1F"/>
<g clip-path="url(#clip0_1014_571)">
<path d="M59.041 157.578C66.7989 165.336 79.3768 165.336 87.1346 157.578C94.8924 149.82 94.8924 137.242 87.1346 129.485L83.6229 132.996C89.4413 138.815 89.4413 148.248 83.6229 154.066C77.8046 159.885 68.3711 159.885 62.5527 154.066L59.041 157.578Z" fill="#00E9A3"/>
<path d="M66.0645 150.555C69.9433 154.434 76.2323 154.434 80.1112 150.555C83.9901 146.676 83.9901 140.387 80.1112 136.508L76.5996 140.02C78.539 141.959 78.539 145.104 76.5996 147.043C74.66 148.983 71.5156 148.983 69.5761 147.043L66.0645 150.555Z" fill="#00E9A3"/>
<path d="M94.158 122.461C86.4002 114.703 73.8223 114.703 66.0645 122.461C58.3066 130.219 58.3066 142.797 66.0645 150.555L69.5761 147.043C63.7578 141.224 63.7578 131.791 69.5761 125.973C75.3945 120.154 84.828 120.154 90.6463 125.973L94.158 122.461Z" fill="#00E9A3"/>
<path d="M87.1338 129.485C83.2549 125.606 76.9658 125.606 73.087 129.485C69.208 133.364 69.208 139.653 73.087 143.532L76.5986 140.02C74.6592 138.08 74.6592 134.936 76.5986 132.996C78.5381 131.057 81.6825 131.057 83.6221 132.996L87.1338 129.485Z" fill="#00E9A3"/>
<path d="M94.158 122.461C86.4002 114.703 73.8223 114.703 66.0645 122.461C58.3066 130.219 58.3066 142.797 66.0645 150.555L69.5761 147.043C63.7578 141.224 63.7578 131.791 69.5761 125.973C75.3945 120.154 84.828 120.154 90.6463 125.973L94.158 122.461Z" fill="white" fill-opacity="0.8"/>
<path d="M87.1338 129.485C83.2549 125.606 76.9658 125.606 73.087 129.485C69.208 133.364 69.208 139.653 73.087 143.532L76.5986 140.02C74.6592 138.08 74.6592 134.936 76.5986 132.996C78.5381 131.057 81.6825 131.057 83.6221 132.996L87.1338 129.485Z" fill="white" fill-opacity="0.8"/>
<path d="M117.414 142.799C117.414 145.275 115.647 146.503 113.954 146.503C112.113 146.503 110.885 145.201 110.885 143.138V133.381H107.055V143.73C107.055 147.635 109.277 149.846 112.473 149.846C114.906 149.846 116.62 148.566 117.361 146.746H117.53V149.635H121.245V133.381H117.414V142.799ZM124.588 155.73H128.418V147.074H128.577C129.18 148.259 130.439 149.92 133.233 149.92C137.063 149.92 139.931 146.884 139.931 141.529C139.931 136.111 136.979 133.17 133.222 133.17C130.355 133.17 129.159 134.895 128.577 136.069H128.355V133.381H124.588V155.73ZM128.344 141.508C128.344 138.355 129.699 136.313 132.164 136.313C134.714 136.313 136.026 138.482 136.026 141.508C136.026 144.556 134.693 146.778 132.164 146.778C129.72 146.778 128.344 144.661 128.344 141.508ZM155.461 137.677C154.932 134.926 152.731 133.17 148.922 133.17C145.007 133.17 142.34 135.096 142.351 138.101C142.34 140.471 143.8 142.037 146.922 142.683L149.694 143.265C151.186 143.593 151.885 144.196 151.885 145.116C151.885 146.227 150.678 147.063 148.858 147.063C147.102 147.063 145.959 146.302 145.631 144.841L141.896 145.201C142.372 148.185 144.88 149.952 148.869 149.952C152.932 149.952 155.8 147.846 155.811 144.767C155.8 142.45 154.308 141.032 151.239 140.365L148.467 139.773C146.816 139.402 146.16 138.831 146.171 137.889C146.16 136.789 147.377 136.027 148.975 136.027C150.742 136.027 151.673 136.99 151.969 138.059L155.461 137.677ZM166.489 133.381H163.284V129.487H159.453V133.381H157.146V136.344H159.453V145.381C159.432 148.439 161.654 149.942 164.532 149.857C165.622 149.825 166.373 149.614 166.786 149.476L166.14 146.481C165.929 146.534 165.495 146.63 165.019 146.63C164.055 146.63 163.284 146.291 163.284 144.746V136.344H166.489V133.381ZM173.774 149.963C176.324 149.963 177.848 148.767 178.546 147.402H178.673V149.635H182.356V138.757C182.356 134.461 178.853 133.17 175.753 133.17C172.335 133.17 169.711 134.694 168.864 137.656L172.44 138.164C172.822 137.053 173.9 136.101 175.774 136.101C177.552 136.101 178.525 137.011 178.525 138.609V138.672C178.525 139.773 177.372 139.826 174.504 140.132C171.351 140.471 168.335 141.413 168.335 145.074C168.335 148.27 170.673 149.963 173.774 149.963ZM174.769 147.148C173.17 147.148 172.028 146.418 172.028 145.011C172.028 143.54 173.308 142.926 175.023 142.683C176.028 142.545 178.038 142.291 178.536 141.889V143.804C178.536 145.614 177.075 147.148 174.769 147.148ZM198.458 137.677C197.928 134.926 195.727 133.17 191.918 133.17C188.003 133.17 185.336 135.096 185.347 138.101C185.336 140.471 186.797 142.037 189.918 142.683L192.691 143.265C194.183 143.593 194.881 144.196 194.881 145.116C194.881 146.227 193.674 147.063 191.855 147.063C190.098 147.063 188.955 146.302 188.628 144.841L184.892 145.201C185.368 148.185 187.876 149.952 191.866 149.952C195.928 149.952 198.797 147.846 198.806 144.767C198.797 142.45 197.304 141.032 194.235 140.365L191.463 139.773C189.812 139.402 189.156 138.831 189.167 137.889C189.156 136.789 190.373 136.027 191.971 136.027C193.738 136.027 194.67 136.99 194.966 138.059L198.458 137.677ZM205.2 140.111C205.2 137.762 206.66 136.408 208.713 136.408C210.724 136.408 211.909 137.688 211.909 139.879V149.635H215.74V139.286C215.74 135.36 213.517 133.17 210.142 133.17C207.644 133.17 206.057 134.302 205.305 136.143H205.116V127.964H201.369V149.635H205.2V140.111Z" fill="white"/>
</g>
<rect x="189" y="163" width="280" height="280" rx="140" fill="white"/>
<g clip-path="url(#clip1_1014_571)">
<path d="M278.406 307.28C275.296 307.28 272.508 308.662 270.599 310.837L265.707 307.364C266.226 305.93 266.524 304.391 266.524 302.779C266.524 301.196 266.237 299.682 265.734 298.269L270.615 294.833C272.524 296.997 275.305 298.372 278.406 298.372C284.145 298.372 288.816 293.689 288.816 287.932C288.816 282.176 284.145 277.493 278.406 277.493C272.666 277.493 267.996 282.176 267.996 287.932C267.996 288.963 268.151 289.956 268.429 290.897L263.545 294.335C261.505 291.797 258.567 290.025 255.22 289.484V283.58C259.935 282.587 263.488 278.386 263.488 273.366C263.488 267.609 258.818 262.927 253.078 262.927C247.338 262.927 242.668 267.609 242.668 273.366C242.668 278.319 246.129 282.468 250.75 283.532V289.512C244.443 290.622 239.632 296.142 239.632 302.779C239.632 309.449 244.491 314.989 250.843 316.061V322.376C246.175 323.405 242.668 327.58 242.668 332.566C242.668 338.323 247.338 343.005 253.078 343.005C258.818 343.005 263.488 338.323 263.488 332.566C263.488 327.58 259.981 323.405 255.313 322.376V316.061C258.528 315.518 261.437 313.822 263.497 311.288L268.422 314.783C268.149 315.716 267.996 316.699 267.996 317.719C267.996 323.476 272.666 328.159 278.406 328.159C284.145 328.159 288.816 323.476 288.816 317.719C288.816 311.963 284.145 307.28 278.406 307.28V307.28ZM278.406 282.871C281.189 282.871 283.453 285.142 283.453 287.932C283.453 290.723 281.189 292.994 278.406 292.994C275.622 292.994 273.359 290.723 273.359 287.932C273.359 285.142 275.622 282.871 278.406 282.871V282.871ZM248.031 273.366C248.031 270.575 250.295 268.304 253.078 268.304C255.861 268.304 258.125 270.575 258.125 273.366C258.125 276.156 255.861 278.427 253.078 278.427C250.295 278.427 248.031 276.156 248.031 273.366ZM258.125 332.566C258.125 335.357 255.861 337.627 253.078 337.627C250.295 337.627 248.031 335.357 248.031 332.566C248.031 329.776 250.295 327.505 253.078 327.505C255.861 327.505 258.125 329.776 258.125 332.566ZM253.078 309.838C249.196 309.838 246.038 306.672 246.038 302.779C246.038 298.887 249.196 295.72 253.078 295.72C256.959 295.72 260.117 298.887 260.117 302.779C260.117 306.672 256.959 309.838 253.078 309.838ZM278.406 322.781C275.622 322.781 273.359 320.51 273.359 317.719C273.359 314.929 275.622 312.658 278.406 312.658C281.189 312.658 283.453 314.929 283.453 317.719C283.453 320.51 281.189 322.781 278.406 322.781Z" fill="black"/>
</g>
<path d="M301.714 318.625H307.32V310.635L309.364 308.451L316.642 318.625H323.347L313.591 305.106L322.805 294.84H316.255L307.707 304.394H307.32V286.911H301.714V318.625ZM333.516 319.043C337.604 319.043 339.447 316.612 340.33 314.878H340.67V318.625H346.183V294.84H340.562V298.773H340.33C339.478 297.054 337.728 294.53 333.532 294.53C328.034 294.53 323.714 298.835 323.714 306.763C323.714 314.599 327.91 319.043 333.516 319.043ZM335.08 314.444C331.379 314.444 329.428 311.192 329.428 306.732C329.428 302.304 331.348 299.129 335.08 299.129C338.688 299.129 340.67 302.118 340.67 306.732C340.67 311.347 338.657 314.444 335.08 314.444ZM363.332 294.84H358.392V292.966C358.392 291.108 359.166 290.07 361.257 290.07C362.14 290.07 362.883 290.271 363.347 290.411L364.478 286.075C363.75 285.827 362.155 285.425 360.219 285.425C356.085 285.425 352.786 287.794 352.786 292.594V294.84H349.271V299.175H352.786V318.625H358.392V299.175H363.332V294.84ZM366.85 318.625H372.456V310.635L374.5 308.451L381.778 318.625H388.483L378.727 305.106L387.941 294.84H381.391L372.843 304.394H372.456V286.911H366.85V318.625ZM398.652 319.043C402.74 319.043 404.582 316.612 405.465 314.878H405.806V318.625H411.319V294.84H405.697V298.773H405.465C404.613 297.054 402.864 294.53 398.667 294.53C393.17 294.53 388.849 298.835 388.849 306.763C388.849 314.599 393.046 319.043 398.652 319.043ZM400.216 314.444C396.515 314.444 394.564 311.192 394.564 306.732C394.564 302.304 396.484 299.129 400.216 299.129C403.824 299.129 405.806 302.118 405.806 306.732C405.806 311.347 403.793 314.444 400.216 314.444Z" fill="black"/>
<defs>
<clipPath id="clip0_1014_571">
<rect width="162" height="46.8818" fill="white" transform="translate(59 116.559)"/>
</clipPath>
<clipPath id="clip1_1014_571">
<rect width="49.2332" height="80.1471" fill="white" transform="translate(239.601 262.927)"/>
</clipPath>
</defs>
</svg>
