<svg width="469" height="443" viewBox="0 0 469 443" fill="none" xmlns="http://www.w3.org/2000/svg">
<rect width="280" height="280" rx="140" fill="#002D1F"/>
<g clip-path="url(#clip0_1014_583)">
<path d="M59.041 157.578C66.7989 165.336 79.3768 165.336 87.1346 157.578C94.8924 149.82 94.8924 137.242 87.1346 129.485L83.6229 132.996C89.4413 138.815 89.4413 148.248 83.6229 154.066C77.8046 159.885 68.3711 159.885 62.5527 154.066L59.041 157.578Z" fill="#00E9A3"/>
<path d="M66.0645 150.555C69.9433 154.434 76.2323 154.434 80.1112 150.555C83.9901 146.676 83.9901 140.387 80.1112 136.508L76.5996 140.02C78.539 141.959 78.539 145.104 76.5996 147.043C74.66 148.983 71.5156 148.983 69.5761 147.043L66.0645 150.555Z" fill="#00E9A3"/>
<path d="M94.158 122.461C86.4002 114.703 73.8223 114.703 66.0645 122.461C58.3066 130.219 58.3066 142.797 66.0645 150.555L69.5761 147.043C63.7578 141.224 63.7578 131.791 69.5761 125.973C75.3945 120.154 84.828 120.154 90.6463 125.973L94.158 122.461Z" fill="#00E9A3"/>
<path d="M87.1338 129.485C83.2549 125.606 76.9658 125.606 73.087 129.485C69.208 133.364 69.208 139.653 73.087 143.532L76.5986 140.02C74.6592 138.08 74.6592 134.936 76.5986 132.996C78.5381 131.057 81.6825 131.057 83.6221 132.996L87.1338 129.485Z" fill="#00E9A3"/>
<path d="M94.158 122.461C86.4002 114.703 73.8223 114.703 66.0645 122.461C58.3066 130.219 58.3066 142.797 66.0645 150.555L69.5761 147.043C63.7578 141.224 63.7578 131.791 69.5761 125.973C75.3945 120.154 84.828 120.154 90.6463 125.973L94.158 122.461Z" fill="white" fill-opacity="0.8"/>
<path d="M87.1338 129.485C83.2549 125.606 76.9658 125.606 73.087 129.485C69.208 133.364 69.208 139.653 73.087 143.532L76.5986 140.02C74.6592 138.08 74.6592 134.936 76.5986 132.996C78.5381 131.057 81.6825 131.057 83.6221 132.996L87.1338 129.485Z" fill="white" fill-opacity="0.8"/>
<path d="M117.414 142.799C117.414 145.275 115.647 146.503 113.954 146.503C112.113 146.503 110.885 145.201 110.885 143.138V133.381H107.055V143.73C107.055 147.635 109.277 149.846 112.473 149.846C114.906 149.846 116.62 148.566 117.361 146.746H117.53V149.635H121.245V133.381H117.414V142.799ZM124.588 155.73H128.418V147.074H128.577C129.18 148.259 130.439 149.92 133.233 149.92C137.063 149.92 139.931 146.884 139.931 141.529C139.931 136.111 136.979 133.17 133.222 133.17C130.355 133.17 129.159 134.895 128.577 136.069H128.355V133.381H124.588V155.73ZM128.344 141.508C128.344 138.355 129.699 136.313 132.164 136.313C134.714 136.313 136.026 138.482 136.026 141.508C136.026 144.556 134.693 146.778 132.164 146.778C129.72 146.778 128.344 144.661 128.344 141.508ZM155.461 137.677C154.932 134.926 152.731 133.17 148.922 133.17C145.007 133.17 142.34 135.096 142.351 138.101C142.34 140.471 143.8 142.037 146.922 142.683L149.694 143.265C151.186 143.593 151.885 144.196 151.885 145.116C151.885 146.227 150.678 147.063 148.858 147.063C147.102 147.063 145.959 146.302 145.631 144.841L141.896 145.201C142.372 148.185 144.88 149.952 148.869 149.952C152.932 149.952 155.8 147.846 155.811 144.767C155.8 142.45 154.308 141.032 151.239 140.365L148.467 139.773C146.816 139.402 146.16 138.831 146.171 137.889C146.16 136.789 147.377 136.027 148.975 136.027C150.742 136.027 151.673 136.99 151.969 138.059L155.461 137.677ZM166.489 133.381H163.284V129.487H159.453V133.381H157.146V136.344H159.453V145.381C159.432 148.439 161.654 149.942 164.532 149.857C165.622 149.825 166.373 149.614 166.786 149.476L166.14 146.481C165.929 146.534 165.495 146.63 165.019 146.63C164.055 146.63 163.284 146.291 163.284 144.746V136.344H166.489V133.381ZM173.774 149.963C176.324 149.963 177.848 148.767 178.546 147.402H178.673V149.635H182.356V138.757C182.356 134.461 178.853 133.17 175.753 133.17C172.335 133.17 169.711 134.694 168.864 137.656L172.44 138.164C172.822 137.053 173.9 136.101 175.774 136.101C177.552 136.101 178.525 137.011 178.525 138.609V138.672C178.525 139.773 177.372 139.826 174.504 140.132C171.351 140.471 168.335 141.413 168.335 145.074C168.335 148.27 170.673 149.963 173.774 149.963ZM174.769 147.148C173.17 147.148 172.028 146.418 172.028 145.011C172.028 143.54 173.308 142.926 175.023 142.683C176.028 142.545 178.038 142.291 178.536 141.889V143.804C178.536 145.614 177.075 147.148 174.769 147.148ZM198.458 137.677C197.928 134.926 195.727 133.17 191.918 133.17C188.003 133.17 185.336 135.096 185.347 138.101C185.336 140.471 186.797 142.037 189.918 142.683L192.691 143.265C194.183 143.593 194.881 144.196 194.881 145.116C194.881 146.227 193.674 147.063 191.855 147.063C190.098 147.063 188.955 146.302 188.628 144.841L184.892 145.201C185.368 148.185 187.876 149.952 191.866 149.952C195.928 149.952 198.797 147.846 198.806 144.767C198.797 142.45 197.304 141.032 194.235 140.365L191.463 139.773C189.812 139.402 189.156 138.831 189.167 137.889C189.156 136.789 190.373 136.027 191.971 136.027C193.738 136.027 194.67 136.99 194.966 138.059L198.458 137.677ZM205.2 140.111C205.2 137.762 206.66 136.408 208.713 136.408C210.724 136.408 211.909 137.688 211.909 139.879V149.635H215.74V139.286C215.74 135.36 213.517 133.17 210.142 133.17C207.644 133.17 206.057 134.302 205.305 136.143H205.116V127.964H201.369V149.635H205.2V140.111Z" fill="white"/>
</g>
<rect x="189" y="163" width="280" height="280" rx="140" fill="#FFF6E4"/>
<g clip-path="url(#clip1_1014_583)">
<path d="M305.692 321.987L298.114 299.778H303.343L307.939 314.713L312.909 299.721H317.086L322.085 314.713L326.695 299.778H331.78L324.217 321.987H319.968L314.954 307.554L309.956 321.987H305.706H305.692ZM341.158 322.202C335.886 322.202 331.996 318.336 331.996 313.482V313.424C331.996 308.556 335.929 304.632 341.216 304.632C346.474 304.632 350.378 308.499 350.378 313.367V313.424C350.378 318.264 346.445 322.202 341.158 322.202V322.202ZM341.216 318.078C343.967 318.078 345.624 315.973 345.624 313.482V313.424C345.624 310.933 343.809 308.756 341.158 308.756C338.392 308.756 336.75 310.861 336.75 313.353V313.424C336.75 315.902 338.551 318.078 341.216 318.078ZM353.864 321.83V304.933H358.675V308.341C359.655 306.021 361.24 304.504 364.092 304.618V309.63H363.861C360.663 309.63 358.69 311.563 358.69 315.587V321.83H353.878H353.864ZM367.117 321.83V298.833H371.929V311.09L377.561 304.933H383.323L376.87 311.592L383.554 321.83H378.037L373.6 314.928L371.929 316.689V321.83H367.103H367.117ZM393.134 322.202C388.02 322.202 384.26 318.651 384.26 313.482V313.424C384.26 308.599 387.717 304.632 392.658 304.632C398.32 304.632 400.927 309.014 400.927 313.797C400.927 314.169 400.898 314.613 400.855 315.057H389.042C389.518 317.233 391.03 318.365 393.191 318.365C394.805 318.365 395.986 317.863 397.311 316.632L400.063 319.066C399.234 320.091 398.176 320.909 396.973 321.456C395.77 322.003 394.455 322.263 393.134 322.216V322.202ZM388.97 312.064H396.231C395.943 309.916 394.675 308.484 392.658 308.484C390.656 308.484 389.345 309.888 388.97 312.064V312.064ZM404.5 321.83V304.933H409.325V308.341C410.305 306.021 411.89 304.504 414.742 304.618V309.63H414.483C411.285 309.63 409.325 311.563 409.325 315.587V321.83H404.485H404.5ZM423.717 322.145C421.34 322.145 418.675 321.357 416.427 319.596L418.487 316.446C420.023 317.637 421.887 318.336 423.832 318.45C425.229 318.45 425.863 317.949 425.863 317.205V317.133C425.863 316.102 424.221 315.744 422.348 315.186C419.971 314.484 417.277 313.381 417.277 310.117V310.045C417.277 306.609 420.072 304.69 423.486 304.69C425.647 304.69 427.995 305.406 429.825 306.651L427.995 309.945C426.611 309.053 425.028 308.512 423.385 308.37C422.233 308.37 421.613 308.885 421.613 309.544V309.601C421.613 310.546 423.241 310.99 425.071 311.62C427.448 312.408 430.214 313.539 430.214 316.632V316.689C430.214 320.441 427.39 322.145 423.717 322.145V322.145Z" fill="#232324"/>
<path d="M400.438 287.449C400.207 287.449 399.985 287.358 399.822 287.196C399.658 287.033 399.566 286.813 399.566 286.583C399.566 286.353 399.658 286.133 399.822 285.97C399.985 285.808 400.207 285.717 400.438 285.717C400.913 285.717 401.317 286.103 401.317 286.576C401.317 287.048 400.913 287.435 400.438 287.435V287.449ZM400.438 285.874C400.344 285.874 400.251 285.893 400.165 285.929C400.078 285.965 399.999 286.018 399.934 286.085C399.868 286.151 399.816 286.231 399.782 286.317C399.747 286.404 399.73 286.497 399.732 286.59C399.732 286.963 400.049 287.278 400.438 287.278C400.827 287.278 401.144 286.963 401.144 286.576C401.144 286.204 400.827 285.889 400.438 285.889V285.874ZM400.885 287.034H400.683L400.51 286.705H400.28V287.034H400.092V286.089H400.553C400.755 286.089 400.885 286.218 400.885 286.39C400.887 286.453 400.869 286.515 400.833 286.567C400.796 286.619 400.744 286.657 400.683 286.676L400.885 287.034ZM400.539 286.533C400.611 286.533 400.683 286.49 400.683 286.39C400.683 286.29 400.625 286.247 400.539 286.247H400.251V286.533H400.539ZM308.847 285.631H311.094V291.659H315.027V293.592H308.833V285.631H308.847ZM317.332 289.64V289.612C317.332 287.321 319.205 285.459 321.697 285.459C322.255 285.44 322.812 285.532 323.333 285.73C323.855 285.929 324.331 286.229 324.734 286.613C325.137 286.998 325.458 287.459 325.679 287.969C325.9 288.479 326.015 289.028 326.019 289.583V289.612C326.019 291.903 324.146 293.75 321.668 293.75C321.109 293.771 320.551 293.68 320.027 293.483C319.504 293.285 319.026 292.985 318.622 292.601C318.217 292.216 317.894 291.754 317.673 291.243C317.451 290.732 317.336 290.182 317.332 289.626V289.64ZM323.757 289.64V289.612C323.757 288.466 322.921 287.464 321.683 287.464C320.458 287.464 319.637 288.437 319.637 289.597V289.612C319.637 290.757 320.473 291.759 321.697 291.759C322.936 291.759 323.757 290.786 323.757 289.626V289.64ZM328.785 290.098V285.631H331.061V290.07C331.061 291.215 331.651 291.745 332.544 291.745C333.438 291.745 334.028 291.23 334.028 290.113V285.631H336.304V290.041C336.304 292.619 334.82 293.735 332.516 293.735C330.211 293.735 328.77 292.59 328.77 290.098H328.785ZM339.733 285.631H342.844C345.726 285.631 347.411 287.263 347.411 289.569V289.597C347.411 291.888 345.711 293.607 342.801 293.607H339.733V285.617V285.631ZM342.902 291.645C344.227 291.645 345.12 290.915 345.12 289.612C345.12 288.323 344.227 287.593 342.888 287.593H341.98V291.616H342.888V291.631L342.902 291.645ZM350.681 285.631H357.149V287.564H352.914V288.924H356.746V290.757H352.914V293.592H350.681V285.631V285.631ZM360.261 285.631H362.494V291.659H366.412V293.592H360.261V285.631V285.631ZM372.261 285.574H374.421L377.879 293.592H375.459L374.882 292.175H371.756L371.18 293.607H368.832L372.261 285.574V285.574ZM374.234 290.456L373.341 288.194L372.434 290.456H374.234ZM380.746 285.631H384.577C385.816 285.631 386.666 285.946 387.214 286.49C387.689 286.948 387.934 287.564 387.934 288.351V288.38C387.934 289.612 387.271 290.413 386.277 290.814L388.208 293.621H385.615L383.972 291.215H382.993V293.621H380.746V285.631V285.631ZM384.477 289.454C385.24 289.454 385.672 289.082 385.672 288.509V288.48C385.672 287.865 385.211 287.55 384.462 287.55H382.978V289.454H384.477ZM391.161 285.631H397.643V287.492H393.394V288.709H397.269V290.456H393.379V291.716H397.73V293.592H391.175V285.631H391.161ZM303.935 290.571C303.779 290.927 303.521 291.23 303.193 291.441C302.865 291.653 302.482 291.763 302.091 291.759C300.866 291.759 300.031 290.757 300.031 289.612C300.031 288.466 300.852 287.464 302.077 287.464C302.496 287.46 302.905 287.587 303.248 287.825C303.592 288.064 303.852 288.403 303.993 288.795H306.384C306.178 287.834 305.637 286.975 304.858 286.37C304.078 285.765 303.108 285.453 302.12 285.488C299.628 285.488 297.755 287.349 297.755 289.64V289.655C297.758 290.211 297.874 290.761 298.096 291.272C298.317 291.783 298.64 292.245 299.044 292.629C299.449 293.014 299.927 293.314 300.45 293.511C300.974 293.709 301.532 293.8 302.091 293.778C304.223 293.778 305.894 292.418 306.326 290.6L303.964 290.585L303.935 290.571Z" fill="#656566"/>
<path d="M241.414 276.925L248.472 289.583L241.99 301.181C241.679 301.735 241.517 302.359 241.517 302.993C241.517 303.627 241.679 304.25 241.99 304.804L248.472 316.431L241.414 329.089C240.085 328.435 238.982 327.403 238.244 326.125L227.008 306.723C226.353 305.59 226.009 304.306 226.009 303C226.009 301.693 226.353 300.41 227.008 299.277L238.244 279.875C238.985 278.602 240.087 277.576 241.414 276.925V276.925Z" fill="url(#paint0_linear_1014_583)"/>
<path opacity="0.7" d="M241.991 301.196C241.683 301.748 241.521 302.369 241.521 303C241.521 303.631 241.683 304.252 241.991 304.804L248.473 316.431L241.414 329.089C240.086 328.435 238.983 327.403 238.245 326.125L227.009 306.723C226.116 305.191 231.114 303.358 241.991 301.21V301.196Z" fill="url(#paint1_linear_1014_583)"/>
<path opacity="0.5" d="M242.134 278.199L248.472 289.583L247.421 291.401L241.831 281.994C240.218 279.373 237.755 280.734 234.672 286.032L235.133 285.244L238.244 279.875C238.977 278.606 240.069 277.58 241.385 276.925L242.12 278.199H242.134Z" fill="url(#paint2_linear_1014_583)"/>
<path d="M273.683 279.875L284.919 299.277C286.259 301.568 286.259 304.432 284.919 306.723L273.683 326.125C273.026 327.257 272.081 328.196 270.943 328.85C269.805 329.503 268.514 329.847 267.2 329.848H255.964L269.937 304.804C270.245 304.252 270.406 303.631 270.406 303C270.406 302.369 270.245 301.748 269.937 301.196L255.964 276.152H267.2C268.514 276.152 269.805 276.497 270.943 277.15C272.081 277.804 273.026 278.743 273.683 279.875V279.875Z" fill="url(#paint3_linear_1014_583)"/>
<path d="M266.624 329.762L255.531 329.863L268.957 304.69C269.257 304.13 269.414 303.505 269.414 302.871C269.414 302.237 269.257 301.612 268.957 301.053L255.531 276.152H258.067L272.155 300.938C272.489 301.524 272.663 302.186 272.661 302.859C272.658 303.532 272.479 304.192 272.141 304.776C269.109 310.014 266.098 315.264 263.109 320.527C260.372 325.309 261.553 328.388 266.624 329.762V329.762Z" fill="url(#paint4_linear_1014_583)"/>
<path d="M244.727 329.848C243.575 329.848 242.422 329.576 241.414 329.089L255.272 304.246C255.704 303.472 255.704 302.527 255.272 301.754L241.414 276.925C242.444 276.418 243.578 276.153 244.727 276.152H255.964L269.937 301.196C270.245 301.748 270.406 302.369 270.406 303C270.406 303.631 270.245 304.252 269.937 304.804L255.964 329.848H244.727Z" fill="url(#paint5_linear_1014_583)"/>
<path opacity="0.6" d="M268.957 301.754L254.667 276.152H255.963L269.937 301.196C270.245 301.748 270.406 302.369 270.406 303C270.406 303.631 270.245 304.252 269.937 304.804L255.963 329.848H254.667L268.957 304.246C269.39 303.472 269.39 302.527 268.957 301.754V301.754Z" fill="url(#paint6_linear_1014_583)"/>
<path opacity="0.6" d="M255.272 301.754L241.414 276.925C241.846 276.696 242.365 276.524 242.855 276.381C245.909 281.836 250.418 290.113 256.396 301.196C256.704 301.748 256.865 302.369 256.865 303C256.865 303.631 256.704 304.252 256.396 304.804L242.639 329.562C242.149 329.419 241.889 329.318 241.428 329.104L255.258 304.26C255.69 303.487 255.69 302.542 255.258 301.768L255.272 301.754Z" fill="url(#paint7_linear_1014_583)"/>
</g>
<defs>
<linearGradient id="paint0_linear_1014_583" x1="237.241" y1="329.089" x2="214.432" y2="292.186" gradientUnits="userSpaceOnUse">
<stop stop-color="#EB6F07"/>
<stop offset="1" stop-color="#FAB743"/>
</linearGradient>
<linearGradient id="paint1_linear_1014_583" x1="244.376" y1="324.543" x2="232.603" y2="312.361" gradientUnits="userSpaceOnUse">
<stop stop-color="#D96504"/>
<stop offset="1" stop-color="#D96504" stop-opacity="0"/>
</linearGradient>
<linearGradient id="paint2_linear_1014_583" x1="240.468" y1="278.184" x2="246.685" y2="288.231" gradientUnits="userSpaceOnUse">
<stop stop-color="#EB6F07"/>
<stop offset="1" stop-color="#EB720A" stop-opacity="0"/>
</linearGradient>
<linearGradient id="paint3_linear_1014_583" x1="270.944" y1="329.848" x2="250.543" y2="287.082" gradientUnits="userSpaceOnUse">
<stop stop-color="#EE6F05"/>
<stop offset="1" stop-color="#FAB743"/>
</linearGradient>
<linearGradient id="paint4_linear_1014_583" x1="249.844" y1="329.863" x2="282.805" y2="321.446" gradientUnits="userSpaceOnUse">
<stop stop-color="#D96504" stop-opacity="0.8"/>
<stop offset="0.498" stop-color="#D96504" stop-opacity="0.2"/>
<stop offset="1" stop-color="#D96504" stop-opacity="0"/>
</linearGradient>
<linearGradient id="paint5_linear_1014_583" x1="255.91" y1="329.848" x2="235.091" y2="287.613" gradientUnits="userSpaceOnUse">
<stop stop-color="#FFA95F"/>
<stop offset="1" stop-color="#FFEBC8"/>
</linearGradient>
<linearGradient id="paint6_linear_1014_583" x1="255.942" y1="276.742" x2="273.468" y2="279.514" gradientUnits="userSpaceOnUse">
<stop stop-color="white" stop-opacity="0.5"/>
<stop offset="1" stop-color="white" stop-opacity="0.1"/>
</linearGradient>
<linearGradient id="paint7_linear_1014_583" x1="239.297" y1="331.795" x2="260.961" y2="328.585" gradientUnits="userSpaceOnUse">
<stop stop-color="white" stop-opacity="0.5"/>
<stop offset="1" stop-color="white" stop-opacity="0.1"/>
</linearGradient>
<clipPath id="clip0_1014_583">
<rect width="162" height="46.8818" fill="white" transform="translate(59 116.559)"/>
</clipPath>
<clipPath id="clip1_1014_583">
<rect width="206" height="53.6967" fill="white" transform="translate(226 276.152)"/>
</clipPath>
</defs>
</svg>
