<svg width="469" height="443" viewBox="0 0 469 443" fill="none" xmlns="http://www.w3.org/2000/svg">
<rect width="280" height="280" rx="140" fill="#002D1F"/>
<g clip-path="url(#clip0_1014_583)">
<path d="M59.041 157.578C66.7989 165.336 79.3768 165.336 87.1346 157.578C94.8924 149.82 94.8924 137.242 87.1346 129.485L83.6229 132.996C89.4413 138.815 89.4413 148.248 83.6229 154.066C77.8046 159.885 68.3711 159.885 62.5527 154.066L59.041 157.578Z" fill="#00E9A3"/>
<path d="M66.0645 150.555C69.9433 154.434 76.2323 154.434 80.1112 150.555C83.9901 146.676 83.9901 140.387 80.1112 136.508L76.5996 140.02C78.539 141.959 78.539 145.104 76.5996 147.043C74.66 148.983 71.5156 148.983 69.5761 147.043L66.0645 150.555Z" fill="#00E9A3"/>
<path d="M94.158 122.461C86.4002 114.703 73.8223 114.703 66.0645 122.461C58.3066 130.219 58.3066 142.797 66.0645 150.555L69.5761 147.043C63.7578 141.224 63.7578 131.791 69.5761 125.973C75.3945 120.154 84.828 120.154 90.6463 125.973L94.158 122.461Z" fill="#00E9A3"/>
<path d="M87.1338 129.485C83.2549 125.606 76.9658 125.606 73.087 129.485C69.208 133.364 69.208 139.653 73.087 143.532L76.5986 140.02C74.6592 138.08 74.6592 134.936 76.5986 132.996C78.5381 131.057 81.6825 131.057 83.6221 132.996L87.1338 129.485Z" fill="#00E9A3"/>
<path d="M94.158 122.461C86.4002 114.703 73.8223 114.703 66.0645 122.461C58.3066 130.219 58.3066 142.797 66.0645 150.555L69.5761 147.043C63.7578 141.224 63.7578 131.791 69.5761 125.973C75.3945 120.154 84.828 120.154 90.6463 125.973L94.158 122.461Z" fill="white" fill-opacity="0.8"/>
<path d="M87.1338 129.485C83.2549 125.606 76.9658 125.606 73.087 129.485C69.208 133.364 69.208 139.653 73.087 143.532L76.5986 140.02C74.6592 138.08 74.6592 134.936 76.5986 132.996C78.5381 131.057 81.6825 131.057 83.6221 132.996L87.1338 129.485Z" fill="white" fill-opacity="0.8"/>
<path d="M117.414 142.799C117.414 145.275 115.647 146.503 113.954 146.503C112.113 146.503 110.885 145.201 110.885 143.138V133.381H107.055V143.73C107.055 147.635 109.277 149.846 112.473 149.846C114.906 149.846 116.62 148.566 117.361 146.746H117.53V149.635H121.245V133.381H117.414V142.799ZM124.588 155.73H128.418V147.074H128.577C129.18 148.259 130.439 149.92 133.233 149.92C137.063 149.92 139.931 146.884 139.931 141.529C139.931 136.111 136.979 133.17 133.222 133.17C130.355 133.17 129.159 134.895 128.577 136.069H128.355V133.381H124.588V155.73ZM128.344 141.508C128.344 138.355 129.699 136.313 132.164 136.313C134.714 136.313 136.026 138.482 136.026 141.508C136.026 144.556 134.693 146.778 132.164 146.778C129.72 146.778 128.344 144.661 128.344 141.508ZM155.461 137.677C154.932 134.926 152.731 133.17 148.922 133.17C145.007 133.17 142.34 135.096 142.351 138.101C142.34 140.471 143.8 142.037 146.922 142.683L149.694 143.265C151.186 143.593 151.885 144.196 151.885 145.116C151.885 146.227 150.678 147.063 148.858 147.063C147.102 147.063 145.959 146.302 145.631 144.841L141.896 145.201C142.372 148.185 144.88 149.952 148.869 149.952C152.932 149.952 155.8 147.846 155.811 144.767C155.8 142.45 154.308 141.032 151.239 140.365L148.467 139.773C146.816 139.402 146.16 138.831 146.171 137.889C146.16 136.789 147.377 136.027 148.975 136.027C150.742 136.027 151.673 136.99 151.969 138.059L155.461 137.677ZM166.489 133.381H163.284V129.487H159.453V133.381H157.146V136.344H159.453V145.381C159.432 148.439 161.654 149.942 164.532 149.857C165.622 149.825 166.373 149.614 166.786 149.476L166.14 146.481C165.929 146.534 165.495 146.63 165.019 146.63C164.055 146.63 163.284 146.291 163.284 144.746V136.344H166.489V133.381ZM173.774 149.963C176.324 149.963 177.848 148.767 178.546 147.402H178.673V149.635H182.356V138.757C182.356 134.461 178.853 133.17 175.753 133.17C172.335 133.17 169.711 134.694 168.864 137.656L172.44 138.164C172.822 137.053 173.9 136.101 175.774 136.101C177.552 136.101 178.525 137.011 178.525 138.609V138.672C178.525 139.773 177.372 139.826 174.504 140.132C171.351 140.471 168.335 141.413 168.335 145.074C168.335 148.27 170.673 149.963 173.774 149.963ZM174.769 147.148C173.17 147.148 172.028 146.418 172.028 145.011C172.028 143.54 173.308 142.926 175.023 142.683C176.028 142.545 178.038 142.291 178.536 141.889V143.804C178.536 145.614 177.075 147.148 174.769 147.148ZM198.458 137.677C197.928 134.926 195.727 133.17 191.918 133.17C188.003 133.17 185.336 135.096 185.347 138.101C185.336 140.471 186.797 142.037 189.918 142.683L192.691 143.265C194.183 143.593 194.881 144.196 194.881 145.116C194.881 146.227 193.674 147.063 191.855 147.063C190.098 147.063 188.955 146.302 188.628 144.841L184.892 145.201C185.368 148.185 187.876 149.952 191.866 149.952C195.928 149.952 198.797 147.846 198.806 144.767C198.797 142.45 197.304 141.032 194.235 140.365L191.463 139.773C189.812 139.402 189.156 138.831 189.167 137.889C189.156 136.789 190.373 136.027 191.971 136.027C193.738 136.027 194.67 136.99 194.966 138.059L198.458 137.677ZM205.2 140.111C205.2 137.762 206.66 136.408 208.713 136.408C210.724 136.408 211.909 137.688 211.909 139.879V149.635H215.74V139.286C215.74 135.36 213.517 133.17 210.142 133.17C207.644 133.17 206.057 134.302 205.305 136.143H205.116V127.964H201.369V149.635H205.2V140.111Z" fill="white"/>
</g>
<rect x="189" y="163" width="280" height="280" rx="140" fill="white"/>
<g clip-path="url(#clip1_1014_583)">
<path d="M305.126 322.448L297.365 299.7H302.721L307.428 314.998L312.519 299.642H316.798L321.918 314.998L326.64 299.7H331.848L324.102 322.448H319.749L314.614 307.664L309.494 322.448H305.141H305.126ZM341.454 322.668C336.053 322.668 332.07 318.708 332.07 313.736V313.678C332.07 308.691 336.098 304.672 341.513 304.672C346.899 304.672 350.897 308.632 350.897 313.619V313.678C350.897 318.635 346.869 322.668 341.454 322.668V322.668ZM341.513 318.444C344.331 318.444 346.028 316.288 346.028 313.736V313.678C346.028 311.126 344.169 308.896 341.454 308.896C338.621 308.896 336.939 311.052 336.939 313.604V313.678C336.939 316.215 338.783 318.444 341.513 318.444ZM354.468 322.287V304.98H359.396V308.471C360.4 306.095 362.023 304.54 364.944 304.658V309.791H364.708C361.432 309.791 359.411 311.771 359.411 315.892V322.287H354.483H354.468ZM368.043 322.287V298.732H372.971V311.287L378.74 304.98H384.642L378.032 311.8L384.879 322.287H379.227L374.683 315.218L372.971 317.022V322.287H368.028H368.043ZM394.691 322.668C389.453 322.668 385.602 319.031 385.602 313.736V313.678C385.602 308.735 389.143 304.672 394.204 304.672C400.003 304.672 402.673 309.16 402.673 314.059C402.673 314.44 402.644 314.895 402.6 315.35H390.5C390.987 317.579 392.537 318.738 394.75 318.738C396.402 318.738 397.612 318.224 398.97 316.963L401.788 319.456C400.939 320.506 399.856 321.344 398.624 321.904C397.391 322.465 396.045 322.731 394.691 322.683V322.668ZM390.427 312.284H397.863C397.568 310.084 396.27 308.618 394.204 308.618C392.153 308.618 390.81 310.055 390.427 312.284V312.284ZM406.333 322.287V304.98H411.276V308.471C412.279 306.095 413.902 304.54 416.824 304.658V309.791H416.558C413.282 309.791 411.276 311.771 411.276 315.892V322.287H406.318H406.333ZM426.016 322.61C423.582 322.61 420.852 321.803 418.55 319.999L420.66 316.772C422.233 317.992 424.142 318.709 426.134 318.826C427.566 318.826 428.215 318.312 428.215 317.55V317.476C428.215 316.42 426.533 316.054 424.614 315.482C422.18 314.763 419.421 313.634 419.421 310.29V310.216C419.421 306.696 422.283 304.731 425.78 304.731C427.993 304.731 430.399 305.464 432.272 306.74L430.399 310.114C428.981 309.199 427.36 308.645 425.677 308.5C424.496 308.5 423.862 309.028 423.862 309.703V309.762C423.862 310.73 425.529 311.184 427.403 311.83C429.838 312.636 432.671 313.795 432.671 316.963V317.022C432.671 320.864 429.779 322.61 426.016 322.61V322.61Z" fill="#232324"/>
<path d="M402.171 287.072C401.935 287.072 401.708 286.978 401.54 286.812C401.373 286.646 401.279 286.42 401.279 286.185C401.279 285.949 401.373 285.724 401.54 285.557C401.708 285.391 401.935 285.297 402.171 285.297C402.658 285.297 403.072 285.693 403.072 286.177C403.072 286.661 402.658 287.057 402.171 287.057V287.072ZM402.171 285.459C402.075 285.459 401.98 285.478 401.891 285.515C401.803 285.552 401.722 285.606 401.655 285.674C401.588 285.743 401.535 285.824 401.499 285.912C401.464 286.001 401.447 286.096 401.448 286.192C401.448 286.573 401.773 286.896 402.171 286.896C402.57 286.896 402.895 286.573 402.895 286.177C402.895 285.796 402.57 285.473 402.171 285.473V285.459ZM402.629 286.647H402.422L402.245 286.309H402.009V286.647H401.817V285.679H402.29C402.496 285.679 402.629 285.811 402.629 285.987C402.632 286.051 402.613 286.115 402.576 286.168C402.538 286.221 402.485 286.261 402.422 286.28L402.629 286.647ZM402.275 286.133C402.349 286.133 402.422 286.089 402.422 285.987C402.422 285.884 402.363 285.84 402.275 285.84H401.98V286.133H402.275ZM308.358 285.209H310.659V291.384H314.688V293.364H308.343V285.209H308.358ZM317.048 289.316V289.287C317.048 286.94 318.967 285.033 321.519 285.033C322.091 285.014 322.661 285.108 323.195 285.311C323.73 285.514 324.218 285.822 324.63 286.216C325.043 286.61 325.372 287.082 325.598 287.604C325.824 288.127 325.942 288.689 325.946 289.257V289.287C325.946 291.633 324.028 293.525 321.49 293.525C320.917 293.547 320.345 293.454 319.809 293.252C319.273 293.049 318.783 292.742 318.369 292.348C317.955 291.954 317.625 291.481 317.398 290.958C317.171 290.435 317.052 289.871 317.048 289.301V289.316ZM323.629 289.316V289.287C323.629 288.113 322.774 287.087 321.505 287.087C320.25 287.087 319.409 288.084 319.409 289.272V289.287C319.409 290.46 320.265 291.487 321.519 291.487C322.788 291.487 323.629 290.489 323.629 289.301V289.316ZM328.779 289.785V285.209H331.11V289.756C331.11 290.929 331.715 291.472 332.63 291.472C333.545 291.472 334.15 290.944 334.15 289.8V285.209H336.481V289.727C336.481 292.367 334.961 293.511 332.601 293.511C330.24 293.511 328.764 292.337 328.764 289.785H328.779ZM339.993 285.209H343.18C346.131 285.209 347.857 286.881 347.857 289.243V289.272C347.857 291.619 346.116 293.379 343.136 293.379H339.993V285.195V285.209ZM343.239 291.369C344.597 291.369 345.511 290.621 345.511 289.287C345.511 287.967 344.597 287.219 343.224 287.219H342.295V291.34H343.224V291.355L343.239 291.369ZM351.207 285.209H357.832V287.189H353.494V288.583H357.419V290.46H353.494V293.364H351.207V285.209V285.209ZM361.019 285.209H363.306V291.384H367.32V293.364H361.019V285.209V285.209ZM373.31 285.151H375.524L379.065 293.364H376.586L375.996 291.912H372.794L372.204 293.379H369.798L373.31 285.151V285.151ZM375.332 290.152L374.417 287.835L373.487 290.152H375.332ZM382.001 285.209H385.926C387.195 285.209 388.065 285.532 388.626 286.089C389.113 286.559 389.364 287.189 389.364 287.996V288.025C389.364 289.287 388.685 290.108 387.667 290.519L389.644 293.393H386.988L385.306 290.929H384.303V293.393H382.001V285.209V285.209ZM385.823 289.125C386.605 289.125 387.047 288.744 387.047 288.157V288.128C387.047 287.497 386.575 287.175 385.808 287.175H384.288V289.125H385.823ZM392.669 285.209H399.309V287.116H394.956V288.363H398.925V290.152H394.941V291.443H399.398V293.364H392.684V285.209H392.669ZM303.326 290.269C303.167 290.634 302.902 290.944 302.566 291.161C302.23 291.377 301.838 291.491 301.437 291.487C300.183 291.487 299.327 290.46 299.327 289.287C299.327 288.113 300.168 287.087 301.423 287.087C301.852 287.083 302.271 287.213 302.623 287.457C302.975 287.702 303.241 288.049 303.385 288.451H305.834C305.623 287.466 305.07 286.586 304.271 285.966C303.472 285.347 302.48 285.027 301.467 285.063C298.914 285.063 296.996 286.969 296.996 289.316V289.331C297 289.901 297.118 290.464 297.345 290.987C297.572 291.511 297.903 291.984 298.317 292.378C298.731 292.772 299.221 293.079 299.757 293.281C300.293 293.483 300.864 293.576 301.437 293.555C303.621 293.555 305.333 292.161 305.775 290.299L303.356 290.284L303.326 290.269Z" fill="#656566"/>
<path d="M239.288 276.292L246.518 289.257L239.879 301.137C239.561 301.705 239.394 302.343 239.394 302.993C239.394 303.642 239.561 304.281 239.879 304.848L246.518 316.757L239.288 329.723C237.928 329.052 236.798 327.996 236.042 326.687L224.533 306.813C223.863 305.653 223.51 304.338 223.51 303C223.51 301.662 223.863 300.347 224.533 299.187L236.042 279.313C236.801 278.01 237.93 276.958 239.288 276.292V276.292Z" fill="url(#paint0_linear_1014_583)"/>
<path opacity="0.7" d="M239.878 301.152C239.563 301.718 239.398 302.354 239.398 303C239.398 303.647 239.563 304.283 239.878 304.848L246.518 316.757L239.288 329.723C237.928 329.052 236.798 327.996 236.042 326.687L224.533 306.813C223.618 305.244 228.738 303.367 239.878 301.167V301.152Z" fill="url(#paint1_linear_1014_583)"/>
<path opacity="0.5" d="M240.026 277.597L246.518 289.257L245.441 291.12L239.716 281.484C238.064 278.8 235.54 280.193 232.383 285.62L232.855 284.813L236.042 279.313C236.793 278.014 237.911 276.963 239.259 276.292L240.011 277.597H240.026Z" fill="url(#paint2_linear_1014_583)"/>
<path d="M272.34 279.313L283.849 299.187C285.222 301.533 285.222 304.467 283.849 306.813L272.34 326.687C271.667 327.845 270.7 328.808 269.534 329.477C268.369 330.146 267.047 330.499 265.7 330.5H254.191L268.504 304.848C268.819 304.282 268.985 303.647 268.985 303C268.985 302.353 268.819 301.718 268.504 301.152L254.191 275.5H265.7C267.047 275.501 268.369 275.854 269.534 276.523C270.7 277.192 271.667 278.155 272.34 279.313V279.313Z" fill="url(#paint3_linear_1014_583)"/>
<path d="M265.11 330.412L253.748 330.515L267.5 304.731C267.807 304.157 267.968 303.518 267.968 302.868C267.968 302.218 267.807 301.579 267.5 301.005L253.748 275.5H256.345L270.776 300.888C271.118 301.488 271.296 302.166 271.293 302.855C271.291 303.545 271.107 304.221 270.761 304.819C267.655 310.184 264.571 315.562 261.509 320.952C258.706 325.851 259.916 329.004 265.11 330.412V330.412Z" fill="url(#paint4_linear_1014_583)"/>
<path d="M242.682 330.5C241.501 330.5 240.321 330.221 239.288 329.723L253.483 304.276C253.925 303.484 253.925 302.516 253.483 301.724L239.288 276.292C240.343 275.773 241.504 275.502 242.682 275.5H254.191L268.503 301.152C268.819 301.718 268.984 302.353 268.984 303C268.984 303.647 268.819 304.282 268.503 304.848L254.191 330.5H242.682Z" fill="url(#paint5_linear_1014_583)"/>
<path opacity="0.6" d="M267.5 301.724L252.863 275.5H254.191L268.504 301.152C268.819 301.718 268.984 302.353 268.984 303C268.984 303.647 268.819 304.282 268.504 304.848L254.191 330.5H252.863L267.5 304.276C267.943 303.484 267.943 302.516 267.5 301.724V301.724Z" fill="url(#paint6_linear_1014_583)"/>
<path opacity="0.6" d="M253.483 301.724L239.288 276.292C239.731 276.057 240.262 275.881 240.764 275.735C243.892 281.323 248.51 289.8 254.634 301.152C254.949 301.717 255.114 302.353 255.114 303C255.114 303.646 254.949 304.282 254.634 304.848L240.542 330.207C240.041 330.06 239.775 329.957 239.303 329.737L253.468 304.291C253.911 303.499 253.911 302.531 253.468 301.739L253.483 301.724Z" fill="url(#paint7_linear_1014_583)"/>
</g>
<defs>
<linearGradient id="paint0_linear_1014_583" x1="235.014" y1="329.723" x2="211.652" y2="291.924" gradientUnits="userSpaceOnUse">
<stop stop-color="#EB6F07"/>
<stop offset="1" stop-color="#FAB743"/>
</linearGradient>
<linearGradient id="paint1_linear_1014_583" x1="242.321" y1="325.066" x2="230.262" y2="312.589" gradientUnits="userSpaceOnUse">
<stop stop-color="#D96504"/>
<stop offset="1" stop-color="#D96504" stop-opacity="0"/>
</linearGradient>
<linearGradient id="paint2_linear_1014_583" x1="238.32" y1="277.582" x2="244.688" y2="287.873" gradientUnits="userSpaceOnUse">
<stop stop-color="#EB6F07"/>
<stop offset="1" stop-color="#EB720A" stop-opacity="0"/>
</linearGradient>
<linearGradient id="paint3_linear_1014_583" x1="269.535" y1="330.5" x2="248.639" y2="286.696" gradientUnits="userSpaceOnUse">
<stop stop-color="#EE6F05"/>
<stop offset="1" stop-color="#FAB743"/>
</linearGradient>
<linearGradient id="paint4_linear_1014_583" x1="247.923" y1="330.515" x2="281.684" y2="321.894" gradientUnits="userSpaceOnUse">
<stop stop-color="#D96504" stop-opacity="0.8"/>
<stop offset="0.498" stop-color="#D96504" stop-opacity="0.2"/>
<stop offset="1" stop-color="#D96504" stop-opacity="0"/>
</linearGradient>
<linearGradient id="paint5_linear_1014_583" x1="254.136" y1="330.5" x2="232.811" y2="287.24" gradientUnits="userSpaceOnUse">
<stop stop-color="#FFA95F"/>
<stop offset="1" stop-color="#FFEBC8"/>
</linearGradient>
<linearGradient id="paint6_linear_1014_583" x1="254.169" y1="276.105" x2="272.12" y2="278.944" gradientUnits="userSpaceOnUse">
<stop stop-color="white" stop-opacity="0.5"/>
<stop offset="1" stop-color="white" stop-opacity="0.1"/>
</linearGradient>
<linearGradient id="paint7_linear_1014_583" x1="237.12" y1="332.494" x2="259.309" y2="329.206" gradientUnits="userSpaceOnUse">
<stop stop-color="white" stop-opacity="0.5"/>
<stop offset="1" stop-color="white" stop-opacity="0.1"/>
</linearGradient>
<clipPath id="clip0_1014_583">
<rect width="162" height="46.8818" fill="white" transform="translate(59 116.559)"/>
</clipPath>
<clipPath id="clip1_1014_583">
<rect width="211" height="55" fill="white" transform="translate(223.5 275.5)"/>
</clipPath>
</defs>
</svg>
