<svg width="469" height="443" viewBox="0 0 469 443" fill="none" xmlns="http://www.w3.org/2000/svg">
  <rect width="280" height="280" rx="140" fill="#002D1F"/>
  <g clip-path="url(#clip0_701_424)">
    <path d="M59.041 157.578C66.7989 165.336 79.3768 165.336 87.1346 157.578C94.8924 149.82 94.8924 137.242 87.1346 129.485L83.6229 132.996C89.4413 138.815 89.4413 148.248 83.6229 154.066C77.8046 159.885 68.3711 159.885 62.5527 154.066L59.041 157.578Z" fill="#00E9A3"/>
    <path d="M66.0645 150.555C69.9433 154.434 76.2323 154.434 80.1112 150.555C83.9901 146.676 83.9901 140.387 80.1112 136.508L76.5996 140.02C78.539 141.959 78.539 145.104 76.5996 147.043C74.66 148.983 71.5156 148.983 69.5761 147.043L66.0645 150.555Z" fill="#00E9A3"/>
    <path d="M94.158 122.461C86.4002 114.703 73.8223 114.703 66.0645 122.461C58.3066 130.219 58.3066 142.797 66.0645 150.555L69.5761 147.043C63.7578 141.224 63.7578 131.791 69.5761 125.973C75.3945 120.154 84.828 120.154 90.6463 125.973L94.158 122.461Z" fill="#00E9A3"/>
    <path d="M87.1338 129.485C83.2549 125.606 76.9658 125.606 73.087 129.485C69.208 133.364 69.208 139.653 73.087 143.532L76.5986 140.02C74.6592 138.08 74.6592 134.936 76.5986 132.996C78.5381 131.057 81.6825 131.057 83.6221 132.996L87.1338 129.485Z" fill="#00E9A3"/>
    <path d="M94.158 122.461C86.4002 114.703 73.8223 114.703 66.0645 122.461C58.3066 130.219 58.3066 142.797 66.0645 150.555L69.5761 147.043C63.7578 141.224 63.7578 131.791 69.5761 125.973C75.3945 120.154 84.828 120.154 90.6463 125.973L94.158 122.461Z" fill="white" fill-opacity="0.8"/>
    <path d="M87.1338 129.485C83.2549 125.606 76.9658 125.606 73.087 129.485C69.208 133.364 69.208 139.653 73.087 143.532L76.5986 140.02C74.6592 138.08 74.6592 134.936 76.5986 132.996C78.5381 131.057 81.6825 131.057 83.6221 132.996L87.1338 129.485Z" fill="white" fill-opacity="0.8"/>
    <path d="M117.414 142.799C117.414 145.275 115.647 146.503 113.954 146.503C112.113 146.503 110.885 145.201 110.885 143.138V133.381H107.055V143.73C107.055 147.635 109.277 149.846 112.473 149.846C114.906 149.846 116.62 148.566 117.361 146.746H117.53V149.635H121.245V133.381H117.414V142.799ZM124.588 155.73H128.418V147.074H128.577C129.18 148.259 130.439 149.92 133.233 149.92C137.063 149.92 139.931 146.884 139.931 141.529C139.931 136.111 136.979 133.17 133.222 133.17C130.355 133.17 129.159 134.895 128.577 136.069H128.355V133.381H124.588V155.73ZM128.344 141.508C128.344 138.355 129.699 136.313 132.164 136.313C134.714 136.313 136.026 138.482 136.026 141.508C136.026 144.556 134.693 146.778 132.164 146.778C129.72 146.778 128.344 144.661 128.344 141.508ZM155.461 137.677C154.932 134.926 152.731 133.17 148.922 133.17C145.007 133.17 142.34 135.096 142.351 138.101C142.34 140.471 143.8 142.037 146.922 142.683L149.694 143.265C151.186 143.593 151.885 144.196 151.885 145.116C151.885 146.227 150.678 147.063 148.858 147.063C147.102 147.063 145.959 146.302 145.631 144.841L141.896 145.201C142.372 148.185 144.88 149.952 148.869 149.952C152.932 149.952 155.8 147.846 155.811 144.767C155.8 142.45 154.308 141.032 151.239 140.365L148.467 139.773C146.816 139.402 146.16 138.831 146.171 137.889C146.16 136.789 147.377 136.027 148.975 136.027C150.742 136.027 151.673 136.99 151.969 138.059L155.461 137.677ZM166.489 133.381H163.284V129.487H159.453V133.381H157.146V136.344H159.453V145.381C159.432 148.439 161.654 149.942 164.532 149.857C165.622 149.825 166.373 149.614 166.786 149.476L166.14 146.481C165.929 146.534 165.495 146.63 165.019 146.63C164.055 146.63 163.284 146.291 163.284 144.746V136.344H166.489V133.381ZM173.774 149.963C176.324 149.963 177.848 148.767 178.546 147.402H178.673V149.635H182.356V138.757C182.356 134.461 178.853 133.17 175.753 133.17C172.335 133.17 169.711 134.694 168.864 137.656L172.44 138.164C172.822 137.053 173.9 136.101 175.774 136.101C177.552 136.101 178.525 137.011 178.525 138.609V138.672C178.525 139.773 177.372 139.826 174.504 140.132C171.351 140.471 168.335 141.413 168.335 145.074C168.335 148.27 170.673 149.963 173.774 149.963ZM174.769 147.148C173.17 147.148 172.028 146.418 172.028 145.011C172.028 143.54 173.308 142.926 175.023 142.683C176.028 142.545 178.038 142.291 178.536 141.889V143.804C178.536 145.614 177.075 147.148 174.769 147.148ZM198.458 137.677C197.928 134.926 195.727 133.17 191.918 133.17C188.003 133.17 185.336 135.096 185.347 138.101C185.336 140.471 186.797 142.037 189.918 142.683L192.691 143.265C194.183 143.593 194.881 144.196 194.881 145.116C194.881 146.227 193.674 147.063 191.855 147.063C190.098 147.063 188.955 146.302 188.628 144.841L184.892 145.201C185.368 148.185 187.876 149.952 191.866 149.952C195.928 149.952 198.797 147.846 198.806 144.767C198.797 142.45 197.304 141.032 194.235 140.365L191.463 139.773C189.812 139.402 189.156 138.831 189.167 137.889C189.156 136.789 190.373 136.027 191.971 136.027C193.738 136.027 194.67 136.99 194.966 138.059L198.458 137.677ZM205.2 140.111C205.2 137.762 206.66 136.408 208.713 136.408C210.724 136.408 211.909 137.688 211.909 139.879V149.635H215.74V139.286C215.74 135.36 213.517 133.17 210.142 133.17C207.644 133.17 206.057 134.302 205.305 136.143H205.116V127.964H201.369V149.635H205.2V140.111Z" fill="white"/>
  </g>
  <rect x="189" y="163" width="280" height="280" rx="140" fill="#F3EEFF"/>
  <path d="M402.38 303.327C402.38 300.2 400.155 297.584 397.21 296.973C395.907 282.88 390.407 269.829 381.222 259.035C381.852 258.032 382.234 256.858 382.234 255.588C382.234 252.008 379.322 249.096 375.742 249.096C372.161 249.096 369.249 252.008 369.249 255.588C369.249 259.168 372.161 262.081 375.742 262.081C376.802 262.081 377.794 261.799 378.678 261.345C380.535 263.537 382.253 265.814 383.786 268.191H363.296C357.41 251.292 347.385 239.061 335.474 235.772C335.111 232.535 332.385 230 329.053 230C325.917 230 323.296 232.234 322.694 235.199C287.706 238.44 260.5 268.043 260.5 303.327C260.5 338.611 287.706 368.214 322.689 371.46C323.291 374.42 325.912 376.659 329.048 376.659C332.18 376.659 334.801 374.429 335.407 371.474C367.994 368.443 394.145 342.287 397.181 309.691C400.146 309.084 402.38 306.463 402.38 303.327ZM372.691 255.588C372.691 253.903 374.061 252.533 375.746 252.533C377.432 252.533 378.797 253.903 378.797 255.588C378.797 257.273 377.427 258.643 375.742 258.643C374.057 258.643 372.691 257.273 372.691 255.588ZM385.829 271.628C390.226 279.462 392.932 288.103 393.782 297.216C391.772 297.909 390.226 299.546 389.653 301.608H368.915C368.757 290.858 367.153 280.67 364.394 271.628C364.394 271.628 385.829 271.628 385.829 271.628ZM368.705 335.026C368.228 333.293 367.053 331.865 365.502 331.035C367.636 322.733 368.781 314.011 368.91 305.046H389.653C390.221 307.098 391.763 308.736 393.758 309.433C392.894 318.642 390.111 327.311 385.772 335.026H368.705V335.026ZM330.772 363.927V338.463H356.236C356.598 339.776 357.357 340.912 358.389 341.752C352.703 355.506 344.277 364.714 334.949 367.474C334.156 365.746 332.629 364.442 330.772 363.927ZM323.167 367.464C312.765 364.409 303.895 353.582 298.438 338.468H327.334V363.931C325.482 364.442 323.959 365.741 323.167 367.464ZM264.018 305.046H284.627C285.257 307.318 287.071 309.094 289.377 309.633C289.859 318.713 291.373 327.292 293.726 335.021H272.325C267.284 326.075 264.31 315.873 264.018 305.046ZM327.334 242.722V268.191H298.438C303.895 253.072 312.765 242.245 323.167 239.19C323.959 240.913 325.482 242.212 327.334 242.722ZM327.334 271.628V301.608H297.092C296.509 299.494 294.891 297.827 292.814 297.169C293.301 287.979 294.843 279.324 297.254 271.628C297.254 271.628 327.334 271.628 327.334 271.628ZM362.146 330.285C359.31 330.428 356.971 332.386 356.24 335.026H330.772V305.046H365.468C365.339 313.753 364.227 322.227 362.146 330.285ZM330.772 301.608V271.628H360.857C363.669 280.579 365.32 290.786 365.483 301.608H330.772ZM290.862 306.382C289.177 306.382 287.807 305.012 287.807 303.327C287.807 301.642 289.177 300.272 290.862 300.272C292.547 300.272 293.917 301.642 293.917 303.327C293.917 305.012 292.547 306.382 290.862 306.382ZM289.382 297.021C287.076 297.565 285.262 299.336 284.632 301.608H264.018C264.305 290.781 267.284 280.575 272.325 271.628H293.731C291.378 279.357 289.864 287.941 289.382 297.021ZM292.814 309.49C294.896 308.826 296.509 307.16 297.092 305.046H327.334V335.026H297.254C294.839 327.33 293.301 318.675 292.814 309.49ZM359.415 336.744C359.415 335.059 360.785 333.689 362.47 333.689C364.155 333.689 365.526 335.059 365.526 336.744C365.526 338.429 364.155 339.799 362.47 339.799C360.785 339.799 359.415 338.429 359.415 336.744ZM359.706 268.191H330.772V242.722C332.629 242.212 334.147 240.913 334.939 239.19C345.408 242.259 354.259 253.115 359.706 268.191ZM329.053 233.437C330.738 233.437 332.108 234.807 332.108 236.492C332.108 238.178 330.738 239.548 329.053 239.548C327.368 239.548 325.998 238.178 325.998 236.492C325.998 234.807 327.368 233.437 329.053 233.437ZM313.557 240.202C305.709 245.888 299.183 255.784 294.858 268.191H274.34C283.224 254.452 297.159 244.231 313.557 240.202ZM274.344 338.463H294.862C299.188 350.87 305.714 360.766 313.567 366.447C297.159 362.423 283.224 352.207 274.344 338.463ZM329.053 373.217C327.368 373.217 325.998 371.847 325.998 370.161C325.998 368.476 327.368 367.106 329.053 367.106C330.738 367.106 332.108 368.476 332.108 370.161C332.108 371.847 330.738 373.217 329.053 373.217ZM344.487 366.486C351.271 361.616 357.186 353.606 361.53 343.141C361.84 343.189 362.15 343.237 362.475 343.237C365.454 343.237 367.951 341.208 368.71 338.463H383.662C374.739 352.235 360.814 362.475 344.487 366.486ZM395.888 306.382C394.202 306.382 392.832 305.012 392.832 303.327C392.832 301.642 394.202 300.272 395.888 300.272C397.573 300.272 398.943 301.642 398.943 303.327C398.943 305.012 397.573 306.382 395.888 306.382Z" fill="#E1D9F5" stroke="#F3EEFF"/>
  <path d="M302.186 313.36H289.357V305.675H301.409V301.329H289.357V293.98H302.186V289.34H283.73V318H302.186V313.36Z" fill="#423464"/>
  <path d="M307.414 289.34V318H317.87C326.521 318 330.699 312.709 330.699 303.597C330.699 294.526 326.583 289.34 317.87 289.34H307.414ZM313.083 293.98H317.114C322.783 293.98 324.841 297.781 324.841 303.702C324.841 310.945 321.88 313.36 317.114 313.36H313.083V293.98Z" fill="#423464"/>
  <path d="M357.7 298.516C357.469 293.183 353.396 288.794 346.32 288.794C338.551 288.794 334.142 293.875 334.142 301.581V305.402C334.142 313.213 338.026 318.546 346.362 318.546C353.71 318.546 357.742 313.801 357.742 308.279V302.568H346.446V306.788H352.346V308.615C352.346 311.533 350.099 313.801 346.467 313.801C341.848 313.801 339.853 310.441 339.853 305.381V301.623C339.853 296.5 342.184 293.561 346.299 293.561C349.7 293.561 351.821 295.555 352.178 298.516H357.7Z" fill="#423464"/>
  <path d="M381.131 313.36H368.303V305.675H380.354V301.329H368.303V293.98H381.131V289.34H362.676V318H381.131V313.36Z" fill="#423464"/>
  <path fill-rule="evenodd" clip-rule="evenodd" d="M313.083 313.36H317.114C317.372 313.36 317.624 313.353 317.87 313.338C318.291 313.314 318.695 313.268 319.083 313.198C322.682 312.552 324.841 309.888 324.841 303.702C324.841 303.667 324.841 303.632 324.841 303.597C324.819 298.477 323.239 294.963 319.083 294.157C318.701 294.083 318.297 294.032 317.87 294.004C317.626 293.988 317.374 293.98 317.114 293.98H313.083V313.36ZM307.414 289.34H317.87C323.382 289.34 327.054 291.415 329.008 295.236C329.906 296.993 330.442 299.118 330.626 301.581C330.675 302.23 330.699 302.902 330.699 303.597C330.699 303.632 330.699 303.667 330.699 303.702C330.696 304.284 330.677 304.851 330.641 305.402C330.47 307.969 329.925 310.185 328.996 312.012C327.03 315.88 323.346 318 317.87 318H307.414V289.34ZM277.73 324V283.34H317.87C323.445 283.34 328.518 285.043 332.075 289.125C332.086 289.137 332.097 289.15 332.107 289.162C332.365 288.838 332.636 288.523 332.92 288.216C336.323 284.551 341.075 282.794 346.32 282.794C350.208 282.794 353.766 283.784 356.676 285.708V283.34H387.131V299.98H386.354V307.36H387.131V324H356.676V321.647C353.788 323.553 350.25 324.546 346.362 324.546C340.848 324.546 335.988 322.729 332.603 318.845C332.409 318.623 332.223 318.397 332.044 318.167C328.501 322.25 323.449 324 317.87 324H277.73ZM362.676 318H381.131V313.36H368.303V305.675H380.354V301.329H368.303V293.98H381.131V289.34H362.676V318ZM335.414 312.183C337.167 316.136 340.758 318.546 346.362 318.546C346.397 318.546 346.432 318.546 346.467 318.546C351.557 318.514 355.04 316.195 356.676 312.925C357.332 311.613 357.691 310.147 357.737 308.615C357.737 308.599 357.738 308.584 357.738 308.568C357.74 308.472 357.742 308.375 357.742 308.279V302.568H346.446V306.788H352.346V308.615C352.346 310.349 351.553 311.853 350.147 312.788C349.187 313.427 347.941 313.801 346.467 313.801C346.432 313.801 346.397 313.801 346.362 313.8C344.905 313.784 343.713 313.429 342.766 312.788C341.681 312.054 340.918 310.946 340.446 309.544C340.046 308.358 339.855 306.961 339.853 305.402C339.853 305.395 339.853 305.388 339.853 305.381V301.623C339.853 301.609 339.853 301.595 339.853 301.581C339.857 300.089 340.059 298.784 340.446 297.683C340.586 297.284 340.751 296.912 340.939 296.568C342.006 294.617 343.831 293.561 346.299 293.561C346.306 293.561 346.313 293.561 346.32 293.561C348.895 293.567 350.733 294.719 351.624 296.568C351.905 297.152 352.092 297.806 352.178 298.516H357.7C357.69 298.294 357.674 298.074 357.651 297.856C357.605 297.418 357.533 296.988 357.435 296.568C357.262 295.826 357.008 295.115 356.676 294.444C356.335 293.754 355.911 293.107 355.408 292.516C353.485 290.255 350.402 288.794 346.32 288.794C346.313 288.794 346.306 288.794 346.299 288.794C341.009 288.801 337.28 291.165 335.443 295.111C334.587 296.951 334.142 299.133 334.142 301.581V305.402C334.142 307.962 334.559 310.256 335.414 312.183ZM302.186 318V313.36H289.357V305.675H301.409V301.329H289.357V293.98H302.186V289.34H283.73V318H302.186Z" fill="#F3EEFF"/>
  <defs>
    <clipPath id="clip0_701_424">
      <rect width="162" height="46.8818" fill="white" transform="translate(59 116.559)"/>
    </clipPath>
  </defs>
</svg>
