<svg width="700" height="700" viewBox="0 0 700 700" fill="none" xmlns="http://www.w3.org/2000/svg">
<rect width="700" height="700" fill="#050505"/>
<path d="M173.422 526.975C251.527 605.079 378.16 605.079 456.265 526.975C534.369 448.87 534.369 322.237 456.265 244.132L420.909 279.487C479.488 338.066 479.488 433.041 420.909 491.619C362.331 550.198 267.356 550.198 208.777 491.619L173.422 526.975Z" fill="#00E9A3"/>
<path d="M244.133 456.264C283.185 495.316 346.501 495.316 385.554 456.264C424.606 417.212 424.606 353.895 385.554 314.843L350.199 350.198C369.725 369.724 369.725 401.382 350.199 420.909C330.672 440.435 299.014 440.435 279.488 420.909L244.133 456.264Z" fill="#00E9A3"/>
<path d="M526.974 173.421C448.869 95.3165 322.236 95.3165 244.131 173.421C166.026 251.526 166.026 378.159 244.131 456.264L279.486 420.909C220.908 362.33 220.908 267.355 279.486 208.777C338.065 150.198 433.04 150.198 491.618 208.777L526.974 173.421Z" fill="#00E9A3"/>
<path d="M456.264 244.132C417.212 205.08 353.894 205.08 314.842 244.132C275.789 283.185 275.789 346.501 314.842 385.553L350.197 350.198C330.671 330.672 330.671 299.014 350.197 279.487C369.723 259.961 401.381 259.961 420.908 279.487L456.264 244.132Z" fill="#00E9A3"/>
<path d="M526.974 173.421C448.869 95.3165 322.236 95.3165 244.131 173.421C166.026 251.526 166.026 378.159 244.131 456.264L279.486 420.909C220.908 362.33 220.908 267.355 279.486 208.777C338.065 150.198 433.04 150.198 491.618 208.777L526.974 173.421Z" fill="white" fill-opacity="0.8"/>
<path d="M456.264 244.132C417.212 205.08 353.894 205.08 314.842 244.132C275.789 283.185 275.789 346.501 314.842 385.553L350.197 350.198C330.671 330.672 330.671 299.014 350.197 279.487C369.723 259.961 401.381 259.961 420.908 279.487L456.264 244.132Z" fill="white" fill-opacity="0.8"/>
</svg>
