<svg version="1.1" xmlns="http://www.w3.org/2000/svg" viewBox="0 0 1001.25390625 664.8046875" width="1001.25390625" height="664.8046875">
  <!-- svg-source:excalidraw -->
  
  <defs>
    <style class="style-fonts">
      @font-face {
        font-family: "Virgil";
        src: url("https://file%2B.vscode-resource.vscode-cdn.net/Users/sancar/.vscode/extensions/pomdtr.excalidraw-editor-3.7.4/public//dist/excalidraw-assets/Virgil.woff2");
      }
      @font-face {
        font-family: "Cascadia";
        src: url("https://file%2B.vscode-resource.vscode-cdn.net/Users/sancar/.vscode/extensions/pomdtr.excalidraw-editor-3.7.4/public//dist/excalidraw-assets/Cascadia.woff2");
      }
      @font-face {
        font-family: "Assistant";
        src: url("https://file%2B.vscode-resource.vscode-cdn.net/Users/sancar/.vscode/extensions/pomdtr.excalidraw-editor-3.7.4/public//dist/excalidraw-assets/Assistant-Regular.woff2");
      }
    </style>
    
  </defs>
  <g stroke-opacity="0.7" fill-opacity="0.7" stroke-linecap="round" transform="translate(15.7109375 163.52734375) rotate(0 355.859375 245.638671875)"><path d="M477.34 15.15 C502.79 17.1, 526.2 28.66, 548.21 38.46 C570.21 48.25, 591.04 60.66, 609.38 73.93 C627.72 87.2, 644.39 102.45, 658.24 118.08 C672.1 133.7, 683.88 150.49, 692.52 167.69 C701.16 184.88, 707.38 203.14, 710.08 221.25 C712.77 239.37, 712.07 258.39, 708.7 276.4 C705.33 294.41, 698.91 312.35, 689.83 329.33 C680.75 346.31, 668.26 363.01, 654.23 378.29 C640.2 393.57, 624.29 408.37, 605.66 421.01 C587.03 433.64, 565.21 444.52, 542.44 454.11 C519.67 463.71, 494.17 472.75, 469.02 478.6 C443.87 484.44, 417.5 487.33, 391.54 489.17 C365.59 491.01, 339.51 491.79, 313.29 489.65 C287.07 487.51, 259.37 482.39, 234.23 476.31 C209.09 470.23, 184.55 463.01, 162.47 453.18 C140.39 443.35, 120 430.51, 101.76 417.33 C83.52 404.15, 67.01 389.6, 53.02 374.12 C39.02 358.63, 26.32 341.8, 17.82 324.42 C9.31 307.04, 4.43 287.92, 2 269.83 C-0.43 251.74, 0.13 233.65, 3.25 215.86 C6.38 198.06, 11.82 180.33, 20.75 163.08 C29.68 145.83, 42.51 127.88, 56.86 112.35 C71.21 96.83, 88.22 82.55, 106.86 69.96 C125.51 57.36, 146.39 46.19, 168.74 36.8 C191.09 27.41, 215.69 19.38, 240.96 13.61 C266.24 7.85, 293.87 4.02, 320.39 2.2 C346.9 0.38, 372.37 0.17, 400.07 2.66 C427.76 5.16, 471.04 13.58, 486.58 17.16 C502.13 20.75, 495.56 20.3, 493.35 24.18 M494.74 18.78 C519.9 22.21, 541.53 37.17, 562.93 47.75 C584.32 58.33, 605.39 68.76, 623.11 82.25 C640.83 95.73, 656.42 112.36, 669.24 128.65 C682.06 144.95, 692.89 162.51, 700.01 180.02 C707.12 197.53, 710.7 215.7, 711.93 233.71 C713.16 251.71, 711.93 270, 707.37 288.06 C702.81 306.12, 694.87 325.24, 684.57 342.07 C674.27 358.9, 660.98 374.17, 645.58 389.02 C630.18 403.87, 612.32 419.1, 592.19 431.17 C572.06 443.23, 548.45 453.13, 524.79 461.42 C501.12 469.71, 475.25 476.2, 450.2 480.92 C425.14 485.63, 400.72 488.81, 374.48 489.69 C348.23 490.57, 318.84 488.99, 292.73 486.2 C266.61 483.41, 242.24 479.99, 217.81 472.95 C193.39 465.9, 167.55 454.73, 146.19 443.93 C124.83 433.14, 106.66 421.8, 89.64 408.18 C72.62 394.57, 56.95 378.51, 44.07 362.22 C31.2 345.94, 19.68 327.73, 12.37 310.49 C5.06 293.24, 1.27 276.91, 0.21 258.75 C-0.86 240.59, 1.22 219.91, 5.96 201.54 C10.7 183.17, 18.5 164.96, 28.66 148.51 C38.82 132.07, 51.53 117.5, 66.94 102.87 C82.34 88.23, 101.22 73.1, 121.08 60.71 C140.94 48.32, 162.98 36.89, 186.09 28.53 C209.21 20.16, 234.31 15.42, 259.78 10.53 C285.26 5.64, 312.49 0.16, 338.92 -0.82 C365.35 -1.8, 392.64 1.45, 418.37 4.63 C444.09 7.81, 480.99 15.24, 493.26 18.25 C505.53 21.26, 493.85 18.83, 491.97 22.69" stroke="none" stroke-width="0" fill="#ebfbee"></path><path d="M434.59 6.67 C460.3 6.3, 485.73 15.28, 509.39 23.19 C533.05 31.09, 555.74 42.73, 576.54 54.09 C597.33 65.44, 617.7 77.26, 634.15 91.31 C650.61 105.36, 663.69 121.96, 675.26 138.39 C686.83 154.82, 697.56 172.15, 703.58 189.88 C709.59 207.61, 711.43 226.42, 711.33 244.76 C711.24 263.1, 708.72 282.11, 703.01 299.9 C697.29 317.7, 688.29 335.07, 677.05 351.52 C665.81 367.96, 652.08 384.12, 635.55 398.58 C619.01 413.05, 598.74 426.81, 577.83 438.31 C556.92 449.81, 533.57 459.91, 510.07 467.57 C486.57 475.24, 462.41 480.42, 436.83 484.3 C411.24 488.18, 383.17 490.67, 356.55 490.87 C329.93 491.07, 302.65 489.39, 277.09 485.49 C251.53 481.59, 227.05 475.29, 203.19 467.48 C179.34 459.68, 154.76 450.14, 133.96 438.63 C113.17 427.12, 94.91 412.64, 78.4 398.4 C61.88 384.17, 46.49 369.34, 34.87 353.22 C23.25 337.09, 14.56 319.58, 8.7 301.65 C2.84 283.72, -0.16 263.97, -0.29 245.63 C-0.43 227.29, 2 209.26, 7.88 191.62 C13.76 173.98, 23.58 156.2, 34.98 139.79 C46.38 123.39, 60.06 107.68, 76.29 93.22 C92.52 78.75, 111.61 64.29, 132.37 53.01 C153.12 41.74, 176.86 33.44, 200.82 25.57 C224.78 17.69, 250.35 9.99, 276.14 5.75 C301.93 1.52, 324.01 -0.9, 355.57 0.15 C387.13 1.21, 442.96 8.11, 465.51 12.08 C488.06 16.05, 492.74 20.16, 490.88 23.96 M525.35 31.42 C550.53 35.99, 572.88 49.47, 592.84 61.37 C612.8 73.27, 629.9 88.14, 645.1 102.83 C660.31 117.52, 673.83 132.68, 684.07 149.5 C694.32 166.32, 701.86 185.62, 706.57 203.73 C711.27 221.84, 713.9 239.89, 712.3 258.18 C710.7 276.47, 704.15 296.02, 696.95 313.46 C689.75 330.91, 681.55 347.27, 669.1 362.85 C656.64 378.42, 639.81 393.35, 622.21 406.91 C604.61 420.46, 584.74 433.53, 563.5 444.18 C542.26 454.83, 519.15 463.81, 494.78 470.81 C470.42 477.81, 443.68 483.07, 417.31 486.19 C390.94 489.31, 363.11 490.15, 336.56 489.53 C310 488.91, 283.11 486.95, 257.99 482.45 C232.88 477.95, 209.04 471.48, 185.86 462.53 C162.69 453.59, 138.69 440.84, 118.94 428.78 C99.19 416.72, 82.61 404.78, 67.33 390.15 C52.06 375.52, 37.84 358.1, 27.27 340.98 C16.71 323.86, 8.26 305.61, 3.95 287.41 C-0.37 269.22, -0.02 250.02, 1.38 231.82 C2.78 213.62, 5.19 195.41, 12.35 178.19 C19.5 160.98, 31.63 144.53, 44.31 128.54 C57 112.55, 71.06 96.26, 88.45 82.28 C105.84 68.29, 127.3 55, 148.68 44.63 C170.06 34.26, 192.3 27.05, 216.75 20.06 C241.19 13.07, 269.26 6.07, 295.35 2.7 C321.44 -0.68, 347.24 -1.46, 373.28 -0.2 C399.32 1.06, 425.84 5.2, 451.58 10.25 C477.31 15.3, 515.79 26.17, 527.7 30.1 C539.62 34.02, 525.89 30.42, 523.05 33.8" stroke="#2f9e44" stroke-width="1" fill="none"></path></g><g stroke-opacity="0.7" fill-opacity="0.7" stroke-linecap="round" transform="translate(151.875 177.4140625) rotate(0 419.689453125 237.939453125)"><path d="M578.73 18.43 C607.1 20.69, 632.5 31.76, 656.53 40.89 C680.56 50.01, 702.8 61.32, 722.9 73.18 C743.01 85.03, 761.97 97.83, 777.18 112.02 C792.39 126.22, 804.37 142.58, 814.15 158.37 C823.93 174.15, 832 190.36, 835.88 206.74 C839.75 223.12, 839.63 240.44, 837.42 256.67 C835.2 272.89, 830.55 288.4, 822.58 304.07 C814.62 319.74, 803.57 336.12, 789.62 350.69 C775.66 365.25, 757.73 378.91, 738.85 391.45 C719.97 403.99, 699.23 415.88, 676.33 425.91 C653.42 435.94, 627.74 444.36, 601.41 451.64 C575.08 458.91, 546.61 465.6, 518.33 469.55 C490.05 473.5, 460.76 474.81, 431.74 475.34 C402.73 475.88, 372.89 475.5, 344.25 472.78 C315.61 470.06, 286.66 465.5, 259.92 459.04 C233.18 452.58, 207.89 443.59, 183.83 434.02 C159.76 424.46, 135.73 413.47, 115.54 401.64 C95.36 389.81, 77.88 377, 62.72 363.06 C47.56 349.12, 34.45 333.52, 24.61 317.99 C14.77 302.46, 7.58 286.35, 3.68 269.88 C-0.22 253.41, -1 235.74, 1.2 219.19 C3.41 202.63, 8.67 186.08, 16.93 170.56 C25.19 155.05, 36.84 140.43, 50.75 126.09 C64.67 111.74, 81.66 97.11, 100.42 84.48 C119.19 71.86, 140.36 60.53, 163.32 50.34 C186.29 40.16, 211.93 30.49, 238.22 23.36 C264.52 16.24, 292.97 11.37, 321.1 7.59 C349.22 3.8, 378.2 1.41, 406.97 0.67 C435.74 -0.07, 460.54 -0.9, 493.74 3.16 C526.93 7.22, 583.3 19.39, 606.13 25.02 C628.96 30.66, 633.78 33.43, 630.72 36.96 M344.22 3.15 C370.31 -3.64, 403.35 -1.66, 432.19 -1.07 C461.04 -0.49, 488.99 2.82, 517.28 6.66 C545.57 10.51, 575.55 14.93, 601.93 22 C628.31 29.06, 652.44 38.56, 675.54 49.05 C698.63 59.55, 721.36 72.23, 740.51 84.99 C759.65 97.75, 776.98 111.29, 790.39 125.6 C803.81 139.92, 812.99 155.37, 820.99 170.89 C828.99 186.4, 835.73 202.12, 838.4 218.69 C841.08 235.25, 841.16 253.73, 837.04 270.29 C832.92 286.85, 823.46 302.59, 813.68 318.05 C803.9 333.5, 793.41 348.93, 778.36 363.03 C763.31 377.12, 743.41 390.93, 723.37 402.61 C703.33 414.29, 681.84 423.82, 658.1 433.12 C634.37 442.42, 607.95 452.02, 580.95 458.42 C553.95 464.83, 525.2 468.74, 496.13 471.53 C467.05 474.33, 435.62 475.54, 406.5 475.18 C377.38 474.81, 349.58 472.9, 321.39 469.35 C293.21 465.8, 263.6 460.78, 237.39 453.87 C211.18 446.96, 187.17 438.13, 164.13 427.88 C141.1 417.63, 118.06 405.4, 99.15 392.35 C80.24 379.3, 64.11 364.04, 50.66 349.58 C37.2 335.12, 26.59 321.42, 18.42 305.62 C10.24 289.82, 4.06 271.38, 1.61 254.78 C-0.83 238.18, -0.24 222.08, 3.76 206.02 C7.77 189.96, 16.06 173.99, 25.64 158.42 C35.22 142.86, 46.39 126.82, 61.26 112.62 C76.13 98.42, 94.75 84.95, 114.88 73.23 C135.01 61.51, 157.74 51.38, 182.04 42.3 C206.33 33.23, 233.65 25.17, 260.65 18.78 C287.66 12.38, 329.81 5.5, 344.07 3.94 C358.34 2.39, 344.96 5.78, 346.27 9.44" stroke="none" stroke-width="0" fill="#f3f0ff"></path><path d="M354.92 2.56 C381.19 -3.96, 412.86 -1.66, 441.85 -0.64 C470.83 0.37, 500.84 4.32, 528.84 8.64 C556.84 12.96, 584.03 17.99, 609.87 25.27 C635.71 32.55, 661.09 41.79, 683.88 52.3 C706.68 62.82, 728.19 75.58, 746.63 88.36 C765.06 101.14, 781.55 114.37, 794.49 128.97 C807.44 143.57, 816.88 159.98, 824.32 175.97 C831.77 191.95, 837.55 208.49, 839.17 224.88 C840.8 241.27, 838.64 257.89, 834.07 274.31 C829.5 290.73, 822.04 307.92, 811.74 323.38 C801.44 338.85, 788.1 353.37, 772.26 367.11 C756.43 380.84, 737.3 394.24, 716.73 405.81 C696.16 417.38, 673.21 427.43, 648.84 436.52 C624.47 445.62, 597.75 454.47, 570.51 460.37 C543.27 466.27, 514.08 469.56, 485.41 471.95 C456.74 474.33, 427.48 475.3, 398.51 474.66 C369.54 474.01, 339.88 472.31, 311.6 468.07 C283.31 463.84, 254.72 456.92, 228.8 449.24 C202.89 441.56, 178.77 432.16, 156.13 421.97 C133.49 411.79, 111.38 400.65, 92.97 388.14 C74.55 375.63, 58.64 361.61, 45.65 346.93 C32.66 332.25, 22.63 316.04, 15.04 300.07 C7.44 284.09, 1.67 267.68, 0.07 251.09 C-1.52 234.5, 0.92 216.85, 5.46 200.54 C9.99 184.22, 17.07 168.4, 27.28 153.19 C37.48 137.97, 50.63 123.18, 66.71 109.26 C82.79 95.34, 103.05 81.35, 123.77 69.67 C144.49 57.99, 166.75 48.18, 191.04 39.19 C215.33 30.21, 239.06 21.93, 269.5 15.78 C299.94 9.62, 353.17 3.89, 373.65 2.26 C394.13 0.63, 391.76 2.08, 392.39 5.99 M446.65 -0.85 C474.76 -3.86, 505.44 4.97, 533.37 9.42 C561.3 13.86, 588.48 18.36, 614.24 25.82 C640.01 33.28, 665.41 43.38, 687.94 54.19 C710.46 65, 731.56 77.48, 749.39 90.68 C767.23 103.87, 781.94 118.66, 794.95 133.35 C807.95 148.03, 819.88 163.06, 827.4 178.78 C834.93 194.51, 839.01 211.07, 840.1 227.69 C841.2 244.32, 838.9 261.96, 833.95 278.52 C829 295.09, 820.98 311.98, 810.38 327.1 C799.79 342.22, 786.55 355.53, 770.37 369.25 C754.19 382.96, 734.22 397.74, 713.3 409.4 C692.39 421.06, 669.27 430.59, 644.9 439.23 C620.53 447.88, 594.59 455.57, 567.06 461.27 C539.53 466.97, 508.96 471.2, 479.72 473.44 C450.49 475.68, 420.39 475.68, 391.65 474.7 C362.91 473.72, 334.96 471.91, 307.26 467.56 C279.56 463.21, 251.09 456.53, 225.43 448.61 C199.76 440.69, 175.85 430.46, 153.27 420.06 C130.7 409.67, 108.26 398.91, 89.99 386.23 C71.72 373.56, 56.63 358.83, 43.65 344.01 C30.67 329.2, 19.41 313.4, 12.1 297.35 C4.79 281.29, 1.02 264, -0.21 247.67 C-1.44 231.34, -0.21 215.62, 4.72 199.37 C9.65 183.13, 18.38 165.81, 29.37 150.2 C40.36 134.6, 54.73 119.64, 70.67 105.73 C86.61 91.83, 104.08 78.09, 125.03 66.79 C145.99 55.48, 171.52 46.57, 196.4 37.89 C221.27 29.21, 247.03 20.77, 274.29 14.73 C301.54 8.68, 331.08 3.73, 359.93 1.61 C388.78 -0.52, 433.27 1.35, 447.38 1.96 C461.48 2.57, 445.31 1.34, 444.58 5.27" stroke="#9775fa" stroke-width="1" fill="none"></path></g><g stroke-opacity="0.6" fill-opacity="0.6" stroke-linecap="round" transform="translate(142.99609375 51.8359375) rotate(0 302.9140625 251.3671875)"><path d="M427.46 22.54 C449.54 26.44, 468.56 40.21, 487.04 52.08 C505.51 63.94, 523.61 78.74, 538.29 93.74 C552.97 108.74, 564.92 124.89, 575.12 142.07 C585.32 159.25, 594.53 178.03, 599.48 196.83 C604.44 215.62, 605.51 235.34, 604.87 254.86 C604.22 274.38, 601.05 294.98, 595.62 313.93 C590.2 332.87, 583.08 351.56, 572.32 368.55 C561.55 385.54, 546.32 401.38, 531.03 415.89 C515.73 430.39, 499.45 444.29, 480.56 455.56 C461.66 466.83, 439.38 476.14, 417.65 483.51 C395.92 490.87, 373.08 496.64, 350.16 499.75 C327.24 502.87, 303.34 503.76, 280.16 502.2 C256.97 500.63, 233.3 496.22, 211.06 490.36 C188.83 484.5, 166.82 476.77, 146.76 467.04 C126.71 457.32, 107.33 445.59, 90.71 432.01 C74.08 418.44, 59.53 401.9, 47.03 385.62 C34.54 369.34, 23.26 352.55, 15.73 334.35 C8.19 316.15, 4.01 295.93, 1.81 276.43 C-0.39 256.92, -0.6 236.5, 2.55 217.3 C5.7 198.1, 12.49 178.99, 20.73 161.21 C28.97 143.44, 39.08 126.55, 51.98 110.68 C64.87 94.82, 80.68 79.32, 98.11 66.03 C115.54 52.75, 136.28 40.29, 156.57 30.95 C176.86 21.62, 197.44 15.13, 219.83 10.03 C242.22 4.92, 267.4 1.16, 290.91 0.34 C314.41 -0.48, 336.95 1.21, 360.85 5.09 C384.75 8.97, 421.81 19.35, 434.29 23.6 C446.77 27.85, 437.96 26.65, 435.72 30.6 M350.22 3.65 C372.79 2.47, 398.05 11.86, 419.88 19.02 C441.72 26.17, 462.71 35.03, 481.22 46.56 C499.73 58.08, 515.77 73.39, 530.97 88.17 C546.16 102.96, 561.39 118.5, 572.4 135.28 C583.4 152.06, 591.55 170.31, 597 188.87 C602.45 207.43, 604.69 227.27, 605.12 246.64 C605.55 266.01, 604.39 285.92, 599.57 305.11 C594.74 324.29, 586.38 344.07, 576.17 361.74 C565.95 379.41, 553.1 396.4, 538.28 411.11 C523.46 425.83, 505.66 438.61, 487.26 450.03 C468.85 461.45, 449.3 471.56, 427.87 479.63 C406.43 487.7, 381.75 494.81, 358.67 498.47 C335.6 502.13, 312.64 502.25, 289.4 501.59 C266.17 500.94, 241.78 499.58, 219.26 494.54 C196.75 489.5, 174.56 480.86, 154.3 471.35 C134.03 461.83, 114.71 450.4, 97.68 437.45 C80.64 424.49, 65.19 409.72, 52.08 393.62 C38.98 377.51, 27.5 358.91, 19.04 340.82 C10.58 322.73, 4.1 304.5, 1.33 285.06 C-1.44 265.63, -0.18 243.75, 2.43 224.2 C5.04 204.65, 9.33 186, 16.99 167.75 C24.64 149.5, 35.66 130.93, 48.35 114.68 C61.04 98.42, 76.72 83.38, 93.15 70.22 C109.57 57.05, 126.97 45.67, 146.9 35.68 C166.82 25.69, 190.53 15.89, 212.69 10.28 C234.85 4.67, 256.86 3.31, 279.86 2.03 C302.86 0.75, 338.91 1.56, 350.7 2.6 C362.49 3.64, 351.4 4.14, 350.61 8.26" stroke="none" stroke-width="0" fill="#e7f5ff"></path><path d="M277.31 1.75 C299.08 -3.69, 325.01 0.87, 348.09 3.49 C371.17 6.11, 394.15 10.22, 415.8 17.47 C437.45 24.72, 458.97 35.84, 478.01 46.97 C497.04 58.11, 514.62 70.03, 530.01 84.29 C545.4 98.55, 559.31 115.34, 570.34 132.51 C581.37 149.69, 590.43 168.6, 596.18 187.32 C601.94 206.03, 604.36 225.46, 604.86 244.79 C605.36 264.12, 603.86 284.21, 599.18 303.29 C594.5 322.37, 586.74 341.63, 576.79 359.28 C566.83 376.93, 553.87 394.2, 539.46 409.21 C525.06 424.22, 508.74 437.61, 490.37 449.34 C472.01 461.08, 450.39 471.6, 429.26 479.6 C408.14 487.6, 386.53 493.42, 363.63 497.35 C340.73 501.29, 315.41 503.65, 291.86 503.22 C268.31 502.79, 244.56 499.94, 222.35 494.79 C200.14 489.65, 178.94 481.73, 158.61 472.34 C138.28 462.95, 117.69 451.56, 100.38 438.46 C83.06 425.36, 67.92 409.76, 54.74 393.73 C41.56 377.7, 29.87 360.01, 21.29 342.27 C12.72 324.54, 6.69 306.24, 3.28 287.33 C-0.12 268.41, -1.31 248.22, 0.86 228.78 C3.04 209.34, 8.9 189.02, 16.33 170.69 C23.75 152.37, 33.03 135.25, 45.43 118.83 C57.83 102.4, 74.13 85.89, 90.73 72.14 C107.33 58.4, 125.35 46.47, 145.02 36.37 C164.68 26.26, 183.74 17.46, 208.72 11.52 C233.7 5.58, 277.39 1.64, 294.9 0.73 C312.41 -0.18, 313.48 1.89, 313.76 6.07 M202.96 13.98 C222.35 3.98, 248.84 3.5, 271.73 1.44 C294.61 -0.61, 317.24 -0.77, 340.27 1.64 C363.31 4.05, 387.78 8.86, 409.92 15.91 C432.07 22.97, 453.91 33.31, 473.12 43.98 C492.33 54.65, 509.54 65.72, 525.18 79.94 C540.82 94.16, 555.73 112.45, 566.97 129.31 C578.21 146.18, 586.42 162.68, 592.62 181.13 C598.82 199.59, 603.08 220.49, 604.17 240.04 C605.26 259.59, 603.32 279.5, 599.17 298.41 C595.01 317.32, 588.5 335.97, 579.25 353.49 C570 371.01, 557.75 387.96, 543.65 403.55 C529.55 419.13, 512.43 434.49, 494.67 446.97 C476.91 459.46, 458.11 470.11, 437.11 478.44 C416.11 486.76, 391.47 493.03, 368.66 496.93 C345.85 500.84, 323.12 502.18, 300.24 501.88 C277.36 501.58, 254 499.78, 231.37 495.12 C208.74 490.46, 185.16 482.78, 164.47 473.91 C143.77 465.04, 125.15 454.38, 107.21 441.89 C89.26 429.4, 70.77 414.41, 56.82 398.96 C42.88 383.51, 32.52 366.74, 23.51 349.17 C14.5 331.61, 6.38 312.6, 2.78 293.57 C-0.81 274.55, 0.31 254.45, 1.93 235.03 C3.54 215.6, 5.68 195.78, 12.47 177.01 C19.27 158.25, 30.74 139.37, 42.7 122.44 C54.66 105.5, 68.24 89.14, 84.23 75.41 C100.22 61.69, 118.99 50.42, 138.62 40.11 C158.25 29.8, 191.08 16.88, 202.03 13.54 C212.98 10.2, 202.52 16.12, 204.32 20.07" stroke="#1971c2" stroke-width="1" fill="none"></path></g><g transform="translate(344.140625 71.74609375) rotate(0 136.40988159179688 50)"><text x="0" y="0" font-family="Virgil, Segoe UI Emoji" font-size="20px" fill="#e03131" text-anchor="start" style="white-space: pre;" direction="ltr" dominant-baseline="text-before-edge">Offloading </text><text x="0" y="25" font-family="Virgil, Segoe UI Emoji" font-size="20px" fill="#e03131" text-anchor="start" style="white-space: pre;" direction="ltr" dominant-baseline="text-before-edge">All Long-Running Rest Calls</text><text x="0" y="50" font-family="Virgil, Segoe UI Emoji" font-size="20px" fill="#e03131" text-anchor="start" style="white-space: pre;" direction="ltr" dominant-baseline="text-before-edge">For Further Cost Reduction</text><text x="0" y="75" font-family="Virgil, Segoe UI Emoji" font-size="20px" fill="#e03131" text-anchor="start" style="white-space: pre;" direction="ltr" dominant-baseline="text-before-edge"></text></g><g transform="translate(401.375 10) rotate(0 35.819969177246094 12.5)"><text x="0" y="0" font-family="Virgil, Segoe UI Emoji" font-size="20px" fill="#1971c2" text-anchor="start" style="white-space: pre;" direction="ltr" dominant-baseline="text-before-edge">QStash</text></g><g transform="translate(843.0546875 183.30078125) rotate(0 53.44994354248047 12.5)"><text x="0" y="0" font-family="Virgil, Segoe UI Emoji" font-size="20px" fill="#9775fa" text-anchor="start" style="white-space: pre;" direction="ltr" dominant-baseline="text-before-edge">Trigger.dev</text></g><g transform="translate(222.703125 312.45703125) rotate(0 82.99992370605469 25)"><text x="0" y="0" font-family="Virgil, Segoe UI Emoji" font-size="20px" fill="#e03131" text-anchor="start" style="white-space: pre;" direction="ltr" dominant-baseline="text-before-edge">Failure Resilience</text><text x="0" y="25" font-family="Virgil, Segoe UI Emoji" font-size="20px" fill="#e03131" text-anchor="start" style="white-space: pre;" direction="ltr" dominant-baseline="text-before-edge"></text></g><g transform="translate(310.47265625 354.203125) rotate(0 171.7798614501953 25)"><text x="0" y="0" font-family="Virgil, Segoe UI Emoji" font-size="20px" fill="#1971c2" text-anchor="start" style="white-space: pre;" direction="ltr" dominant-baseline="text-before-edge">Events with Wait/Notify Mechanism</text><text x="0" y="25" font-family="Virgil, Segoe UI Emoji" font-size="20px" fill="#1971c2" text-anchor="start" style="white-space: pre;" direction="ltr" dominant-baseline="text-before-edge"></text></g><g transform="translate(522.34375 396.68359375) rotate(0 74.05992889404297 25)"><text x="0" y="0" font-family="Virgil, Segoe UI Emoji" font-size="20px" fill="#c2255c" text-anchor="start" style="white-space: pre;" direction="ltr" dominant-baseline="text-before-edge">Scheduled Jobs</text><text x="0" y="25" font-family="Virgil, Segoe UI Emoji" font-size="20px" fill="#c2255c" text-anchor="start" style="white-space: pre;" direction="ltr" dominant-baseline="text-before-edge"></text></g><g transform="translate(206.28515625 393.80859375) rotate(0 58.89995574951172 12.5)"><text x="0" y="0" font-family="Virgil, Segoe UI Emoji" font-size="20px" fill="#e03131" text-anchor="start" style="white-space: pre;" direction="ltr" dominant-baseline="text-before-edge">Long Delays</text></g><g transform="translate(299.75390625 439.80859375) rotate(0 61.86993408203125 25)"><text x="0" y="0" font-family="Virgil, Segoe UI Emoji" font-size="20px" fill="#f08c00" text-anchor="start" style="white-space: pre;" direction="ltr" dominant-baseline="text-before-edge">Observability</text><text x="0" y="25" font-family="Virgil, Segoe UI Emoji" font-size="20px" fill="#f08c00" text-anchor="start" style="white-space: pre;" direction="ltr" dominant-baseline="text-before-edge"></text></g><g transform="translate(178.6171875 223.42578125) rotate(0 57.379791259765625 11.2041930615095)"><text x="0" y="0" font-family="Virgil, Segoe UI Emoji" font-size="17.926708898415193px" fill="#e03131" text-anchor="start" style="white-space: pre;" direction="ltr" dominant-baseline="text-before-edge">*Flow-Control</text></g><g transform="translate(10 247.94921875) rotate(0 36.34996795654297 12.5)"><text x="0" y="0" font-family="Virgil, Segoe UI Emoji" font-size="20px" fill="#2f9e44" text-anchor="start" style="white-space: pre;" direction="ltr" dominant-baseline="text-before-edge">Inngest</text></g><g transform="translate(315.07421875 492.6953125) rotate(0 130.37989807128906 12.5)"><text x="0" y="0" font-family="Virgil, Segoe UI Emoji" font-size="20px" fill="#6741d9" text-anchor="start" style="white-space: pre;" direction="ltr" dominant-baseline="text-before-edge">Offloading Long-Running AI</text></g><g transform="translate(481.00390625 308.69140625) rotate(0 92.7899169921875 38.955008349647386)"><text x="0" y="0" font-family="Virgil, Segoe UI Emoji" font-size="20.776004453145273px" fill="#4dabf7" text-anchor="start" style="white-space: pre;" direction="ltr" dominant-baseline="text-before-edge">Durable Workflows</text><text x="0" y="25.970005566431592" font-family="Virgil, Segoe UI Emoji" font-size="20.776004453145273px" fill="#4dabf7" text-anchor="start" style="white-space: pre;" direction="ltr" dominant-baseline="text-before-edge"></text><text x="0" y="51.940011132863184" font-family="Virgil, Segoe UI Emoji" font-size="20.776004453145273px" fill="#4dabf7" text-anchor="start" style="white-space: pre;" direction="ltr" dominant-baseline="text-before-edge"></text></g><g transform="translate(363.4921875 393.015625) rotate(0 54.50994873046875 12.5)"><text x="0" y="0" font-family="Virgil, Segoe UI Emoji" font-size="20px" fill="#846358" text-anchor="start" style="white-space: pre;" direction="ltr" dominant-baseline="text-before-edge">*DevServer</text></g><g transform="translate(254.9609375 263.48828125) rotate(0 215.89242553710938 15.980641945346491)"><text x="0" y="0" font-family="Virgil, Segoe UI Emoji" font-size="25.569027112554384px" fill="#846358" text-anchor="start" style="white-space: pre;" direction="ltr" dominant-baseline="text-before-edge">Serverless Functions Orchestrator</text></g><g transform="translate(442.5703125 432.5625) rotate(0 102.6599349975586 25)"><text x="102.6599349975586" y="0" font-family="Virgil, Segoe UI Emoji" font-size="20px" fill="#4dabf7" text-anchor="middle" style="white-space: pre;" direction="ltr" dominant-baseline="text-before-edge">AutoScale </text><text x="102.6599349975586" y="25" font-family="Virgil, Segoe UI Emoji" font-size="20px" fill="#4dabf7" text-anchor="middle" style="white-space: pre;" direction="ltr" dominant-baseline="text-before-edge">No Infra To Manage</text></g><g transform="translate(411.8671875 566.578125) rotate(0 45.279945373535156 12.5)"><text x="0" y="0" font-family="Virgil, Segoe UI Emoji" font-size="20px" fill="#4dabf7" text-anchor="start" style="white-space: pre;" direction="ltr" dominant-baseline="text-before-edge">Self-Host</text></g><g transform="translate(748.2578125 365.5703125) rotate(0 114.37151336669922 31.333746450983796)"><text x="0" y="0" font-family="Virgil, Segoe UI Emoji" font-size="16.711331440524685px" fill="#9775fa" text-anchor="start" style="white-space: pre;" direction="ltr" dominant-baseline="text-before-edge">No need to split your </text><text x="0" y="20.889164300655857" font-family="Virgil, Segoe UI Emoji" font-size="16.711331440524685px" fill="#9775fa" text-anchor="start" style="white-space: pre;" direction="ltr" dominant-baseline="text-before-edge">code into  chunks to avoid </text><text x="0" y="41.77832860131171" font-family="Virgil, Segoe UI Emoji" font-size="16.711331440524685px" fill="#9775fa" text-anchor="start" style="white-space: pre;" direction="ltr" dominant-baseline="text-before-edge">serverless timeouts</text></g><g stroke-opacity="0.7" fill-opacity="0.7" transform="translate(754.828125 331.3359375) rotate(0 105.669921875 12.5)"><text x="0" y="0" font-family="Virgil, Segoe UI Emoji" font-size="20px" fill="#e03131" text-anchor="start" style="white-space: pre;" direction="ltr" dominant-baseline="text-before-edge">Validation via Schema</text></g><g transform="translate(222.7482638888887 188.9796006944444) rotate(0 87.13993072509766 12.5)"><text x="0" y="0" font-family="Virgil, Segoe UI Emoji" font-size="20px" fill="#1971c2" text-anchor="start" style="white-space: pre;" direction="ltr" dominant-baseline="text-before-edge">*AI Agents Tools</text></g></svg>