<svg xmlns="http://www.w3.org/2000/svg" width="800" height="431" viewBox="0 0 800 431" role="img" aria-labelledby="title desc"><title id="title">The video page on desktop</title><desc id="desc">Docs7: score 78, first content 565 ms, largest content 791 ms, blocking time 493 ms. Mintlify: score 66.5, first content 524 ms, largest content 1,102 ms, blocking time 682 ms.</desc><style>text{fill:#022c22}.muted{fill:#71717a}.track{fill:#e4e4e7}.rule{stroke:#d4d4d8}.paper{fill:#fafafa}@media(prefers-color-scheme:dark){text{fill:#ecfdf5}.muted{fill:#a1a1aa}.track{fill:#27272a}.rule{stroke:#3f3f46}.paper{fill:#09090b}}</style><g font-family="Arial, Helvetica, sans-serif"><text x="32" y="46" font-size="30" font-weight="700" class="" text-anchor="start">The video page on desktop</text><text x="32" y="78" font-size="18" font-weight="400" class="muted" text-anchor="start">Google desktop · median of 10 runs for each metric</text><circle cx="40" cy="112" r="6" fill="#ea580c"/><text x="55" y="119" font-size="20" font-weight="400" class="" text-anchor="start">Docs7</text><circle cx="159" cy="112" r="6" fill="#18e299"/><text x="174" y="119" font-size="20" font-weight="400" class="" text-anchor="start">Mintlify</text><text x="32" y="179" font-size="20" font-weight="600" class="" text-anchor="start">Performance score</text><text x="32" y="201" font-size="16" font-weight="400" class="muted" text-anchor="start">out of 100 · higher is better</text><rect x="386" y="160" width="270" height="16" rx="3" class="track"/><rect x="386" y="160" width="210.6" height="16" rx="3" fill="#ea580c"/><text x="768" y="176" font-size="22" font-weight="700" class="" text-anchor="end">78</text><rect x="386" y="189" width="270" height="16" rx="3" class="track"/><rect x="386" y="189" width="179.55" height="16" rx="3" fill="#18e299"/><text x="768" y="205" font-size="22" font-weight="700" class="" text-anchor="end">66.5</text><path d="M32 214 H768" class="rule" fill="none"/><text x="32" y="246" font-size="20" font-weight="600" class="" text-anchor="start">First content</text><text x="32" y="268" font-size="16" font-weight="400" class="muted" text-anchor="start">lower is better</text><rect x="386" y="227" width="270" height="16" rx="3" class="track"/><rect x="386" y="227" width="127.12" height="16" rx="3" fill="#ea580c"/><text x="768" y="243" font-size="22" font-weight="700" class="" text-anchor="end">565 ms</text><rect x="386" y="256" width="270" height="16" rx="3" class="track"/><rect x="386" y="256" width="117.9" height="16" rx="3" fill="#18e299"/><text x="768" y="272" font-size="22" font-weight="700" class="" text-anchor="end">524 ms</text><path d="M32 281 H768" class="rule" fill="none"/><text x="32" y="313" font-size="20" font-weight="600" class="" text-anchor="start">Largest content</text><text x="32" y="335" font-size="16" font-weight="400" class="muted" text-anchor="start">lower is better</text><rect x="386" y="294" width="270" height="16" rx="3" class="track"/><rect x="386" y="294" width="177.97" height="16" rx="3" fill="#ea580c"/><text x="768" y="310" font-size="22" font-weight="700" class="" text-anchor="end">791 ms</text><rect x="386" y="323" width="270" height="16" rx="3" class="track"/><rect x="386" y="323" width="247.95" height="16" rx="3" fill="#18e299"/><text x="768" y="339" font-size="22" font-weight="700" class="" text-anchor="end">1,102 ms</text><path d="M32 348 H768" class="rule" fill="none"/><text x="32" y="380" font-size="20" font-weight="600" class="" text-anchor="start">Blocking time</text><text x="32" y="402" font-size="16" font-weight="400" class="muted" text-anchor="start">lower is better</text><rect x="386" y="361" width="270" height="16" rx="3" class="track"/><rect x="386" y="361" width="110.92" height="16" rx="3" fill="#ea580c"/><text x="768" y="377" font-size="22" font-weight="700" class="" text-anchor="end">493 ms</text><rect x="386" y="390" width="270" height="16" rx="3" class="track"/><rect x="386" y="390" width="153.45" height="16" rx="3" fill="#18e299"/><text x="768" y="406" font-size="22" font-weight="700" class="" text-anchor="end">682 ms</text></g></svg>
