<svg xmlns="http://www.w3.org/2000/svg" width="800" height="509" viewBox="0 0 800 509" role="img" aria-labelledby="title desc"><title id="title">Pingdom page load times</title><desc id="desc">San Francisco: Docs7 509.3 ms, Mintlify 651.9 ms. Frankfurt: Docs7 431.1 ms, Mintlify 575.9 ms. Tokyo: Docs7 1247.3 ms, Mintlify 1933.3 ms.</desc><style>text{fill:#022c22}.muted{fill:#71717a}.track{fill:#e4e4e7}.rule{stroke:#d4d4d8}.paper{fill:#fafafa}@media(prefers-color-scheme:dark){text{fill:#ecfdf5}.muted{fill:#a1a1aa}.track{fill:#27272a}.rule{stroke:#3f3f46}.paper{fill:#09090b}}</style><g font-family="Arial, Helvetica, sans-serif"><text x="32" y="46" font-size="30" font-weight="700" class="" text-anchor="start">Pingdom page load times</text><text x="32" y="78" font-size="18" font-weight="400" class="muted" text-anchor="start">Mostly one run per URL · exploratory results</text><circle cx="40" cy="112" r="6" fill="#ea580c"/><text x="55" y="119" font-size="20" font-weight="400" class="" text-anchor="start">Docs7</text><circle cx="159" cy="112" r="6" fill="#18e299"/><text x="174" y="119" font-size="20" font-weight="400" class="" text-anchor="start">Mintlify</text><text x="32" y="182" font-size="23" font-weight="700" class="" text-anchor="start">San Francisco</text><text x="32" y="211" font-size="18" font-weight="400" class="muted" text-anchor="start">17 page pairs</text><rect x="386" y="168" width="260" height="16" rx="3" class="track"/><rect x="386" y="168" width="52.9672" height="16" rx="3" fill="#ea580c"/><text x="768" y="184" font-size="22" font-weight="700" class="" text-anchor="end">509.3 ms</text><rect x="386" y="197" width="260" height="16" rx="3" class="track"/><rect x="386" y="197" width="67.7976" height="16" rx="3" fill="#18e299"/><text x="768" y="213" font-size="22" font-weight="700" class="" text-anchor="end">651.9 ms</text><path d="M32 253 H768" class="rule" fill="none"/><text x="32" y="296" font-size="23" font-weight="700" class="" text-anchor="start">Frankfurt</text><text x="32" y="325" font-size="18" font-weight="400" class="muted" text-anchor="start">7 page pairs</text><rect x="386" y="282" width="260" height="16" rx="3" class="track"/><rect x="386" y="282" width="44.8344" height="16" rx="3" fill="#ea580c"/><text x="768" y="298" font-size="22" font-weight="700" class="" text-anchor="end">431.1 ms</text><rect x="386" y="311" width="260" height="16" rx="3" class="track"/><rect x="386" y="311" width="59.8936" height="16" rx="3" fill="#18e299"/><text x="768" y="327" font-size="22" font-weight="700" class="" text-anchor="end">575.9 ms</text><path d="M32 367 H768" class="rule" fill="none"/><text x="32" y="410" font-size="23" font-weight="700" class="" text-anchor="start">Tokyo</text><text x="32" y="439" font-size="18" font-weight="400" class="muted" text-anchor="start">3 page pairs</text><rect x="386" y="396" width="260" height="16" rx="3" class="track"/><rect x="386" y="396" width="129.7192" height="16" rx="3" fill="#ea580c"/><text x="768" y="412" font-size="22" font-weight="700" class="" text-anchor="end">1247.3 ms</text><rect x="386" y="425" width="260" height="16" rx="3" class="track"/><rect x="386" y="425" width="201.0632" height="16" rx="3" fill="#18e299"/><text x="768" y="441" font-size="22" font-weight="700" class="" text-anchor="end">1933.3 ms</text></g></svg>