<svg width="600" height="600" viewBox="0 0 600 600" fill="none" xmlns="http://www.w3.org/2000/svg">
<rect width="600" height="600" rx="100" fill="#050505"/>
<path d="M123.422 476.975C201.527 555.079 328.16 555.079 406.265 476.975C484.369 398.87 484.369 272.237 406.265 194.132L370.909 229.487C429.488 288.066 429.488 383.041 370.909 441.619C312.331 500.198 217.356 500.198 158.777 441.619L123.422 476.975Z" fill="#00E9A3"/>
<path d="M194.133 406.264C233.185 445.316 296.501 445.316 335.554 406.264C374.606 367.212 374.606 303.895 335.554 264.843L300.199 300.198C319.725 319.724 319.725 351.382 300.199 370.909C280.672 390.435 249.014 390.435 229.488 370.909L194.133 406.264Z" fill="#00E9A3"/>
<path d="M476.976 123.421C398.871 45.3167 272.238 45.3167 194.133 123.421C116.028 201.526 116.028 328.159 194.133 406.264L229.488 370.909C170.91 312.33 170.91 217.355 229.488 158.777C288.067 100.198 383.042 100.198 441.62 158.777L476.976 123.421Z" fill="white"/>
<path d="M406.265 194.132C367.213 155.08 303.896 155.08 264.844 194.132C225.791 233.185 225.791 296.501 264.844 335.553L300.199 300.198C280.673 280.672 280.673 249.014 300.199 229.487C319.725 209.961 351.383 209.961 370.91 229.487L406.265 194.132Z" fill="white"/>
</svg>
