<svg width="760" height="164" viewBox="-11.6011962890625 -11.876235961914062 1258.0350341796875 271.63720703125" preserveAspectRatio="xMidYMid meet" style="max-width:100%;height:auto" id="container"  xmlns="http://www.w3.org/2000/svg" class="flowchart"   role="graphics-document document" aria-roledescription="flowchart-v2"><rect x="-11.6011962890625" y="-11.876235961914062" width="1258.0350341796875" height="271.63720703125" fill="#ffffff"/><style>#container{font-family:"trebuchet ms",verdana,arial,sans-serif;font-size:16px;fill:#333;}@keyframes edge-animation-frame{from{stroke-dashoffset:0;}}@keyframes dash{to{stroke-dashoffset:0;}}#container .edge-animation-slow{stroke-dasharray:9,5!important;stroke-dashoffset:900;animation:dash 50s linear infinite;stroke-linecap:round;}#container .edge-animation-fast{stroke-dasharray:9,5!important;stroke-dashoffset:900;animation:dash 20s linear infinite;stroke-linecap:round;}#container .error-icon{fill:#552222;}#container .error-text{fill:#552222;stroke:#552222;}#container .edge-thickness-normal{stroke-width:1px;}#container .edge-thickness-thick{stroke-width:3.5px;}#container .edge-pattern-solid{stroke-dasharray:0;}#container .edge-thickness-invisible{stroke-width:0;fill:none;}#container .edge-pattern-dashed{stroke-dasharray:3;}#container .edge-pattern-dotted{stroke-dasharray:2;}#container .marker{fill:#333333;stroke:#333333;}#container .marker.cross{stroke:#333333;}#container svg{font-family:"trebuchet ms",verdana,arial,sans-serif;font-size:16px;}#container p{margin:0;}#container .label{font-family:"trebuchet ms",verdana,arial,sans-serif;color:#333;}#container .cluster-label text{fill:#333;}#container .cluster-label span{color:#333;}#container .cluster-label span p{background-color:transparent;}#container .label text,#container span{fill:#333;color:#333;}#container .node rect,#container .node circle,#container .node ellipse,#container .node polygon,#container .node path{fill:#ECECFF;stroke:#9370DB;stroke-width:1px;}#container .rough-node .label text,#container .node .label text,#container .image-shape .label,#container .icon-shape .label{text-anchor:middle;}#container .node .katex path{fill:#000;stroke:#000;stroke-width:1px;}#container .rough-node .label,#container .node .label,#container .image-shape .label,#container .icon-shape .label{text-align:center;}#container .node.clickable{cursor:pointer;}#container .root .anchor path{fill:#333333!important;stroke-width:0;stroke:#333333;}#container .arrowheadPath{fill:#333333;}#container .edgePath .path{stroke:#333333;stroke-width:1px;}#container .flowchart-link{stroke:#333333;fill:none;}#container .edgeLabel{background-color:rgba(232,232,232, 0.8);text-align:center;}#container .edgeLabel p{background-color:rgba(232,232,232, 0.8);}#container .edgeLabel rect{opacity:0.5;background-color:rgba(232,232,232, 0.8);fill:rgba(232,232,232, 0.8);}#container .labelBkg{background-color:rgba(232, 232, 232, 0.5);}#container .cluster rect{fill:#ffffde;stroke:#aaaa33;stroke-width:1px;}#container .cluster text{fill:#333;}#container .cluster span{color:#333;}#container div.mermaidTooltip{position:absolute;text-align:center;max-width:200px;padding:2px;font-family:"trebuchet ms",verdana,arial,sans-serif;font-size:12px;background:hsl(80, 100%, 96.2745098039%);border:1px solid #aaaa33;border-radius:2px;pointer-events:none;z-index:100;}#container .flowchartTitleText{text-anchor:middle;font-size:18px;fill:#333;}#container rect.text{fill:none;stroke-width:0;}#container .icon-shape,#container .image-shape{background-color:rgba(232,232,232, 0.8);text-align:center;}#container .icon-shape p,#container .image-shape p{background-color:rgba(232,232,232, 0.8);padding:2px;}#container .icon-shape .label rect,#container .image-shape .label rect{opacity:0.5;background-color:rgba(232,232,232, 0.8);fill:rgba(232,232,232, 0.8);}#container .label-icon{display:inline-block;height:1em;overflow:visible;vertical-align:-0.125em;}#container .node .label-icon path{fill:currentColor;stroke:revert;stroke-width:revert;}#container .node .neo-node{stroke:#9370DB;}#container [data-look="neo"].node rect,#container [data-look="neo"].cluster rect,#container [data-look="neo"].node polygon{stroke:#9370DB;filter:drop-shadow(1px 2px 2px rgba(185, 185, 185, 1));}#container [data-look="neo"].node path{stroke:#9370DB;stroke-width:1px;}#container [data-look="neo"].node .outer-path{filter:drop-shadow(1px 2px 2px rgba(185, 185, 185, 1));}#container [data-look="neo"].node .neo-line path{stroke:#9370DB;filter:none;}#container [data-look="neo"].node circle{stroke:#9370DB;filter:drop-shadow(1px 2px 2px rgba(185, 185, 185, 1));}#container [data-look="neo"].node circle .state-start{fill:#000000;}#container [data-look="neo"].icon-shape .icon{fill:#9370DB;filter:drop-shadow(1px 2px 2px rgba(185, 185, 185, 1));}#container [data-look="neo"].icon-shape .icon-neo path{stroke:#9370DB;filter:drop-shadow(1px 2px 2px rgba(185, 185, 185, 1));}#container :root{--mermaid-font-family:"trebuchet ms",verdana,arial,sans-serif;}</style><g><marker id="container_flowchart-v2-pointEnd" class="marker flowchart-v2" viewBox="0 0 10 10" refX="5" refY="5" markerUnits="userSpaceOnUse" markerWidth="8" markerHeight="8" orient="auto"><path d="M 0 0 L 10 5 L 0 10 z" class="arrowMarkerPath" style="stroke-width: 1; stroke-dasharray: 1, 0;"></path></marker><marker id="container_flowchart-v2-pointStart" class="marker flowchart-v2" viewBox="0 0 10 10" refX="4.5" refY="5" markerUnits="userSpaceOnUse" markerWidth="8" markerHeight="8" orient="auto"><path d="M 0 5 L 10 10 L 10 0 z" class="arrowMarkerPath" style="stroke-width: 1; stroke-dasharray: 1, 0;"></path></marker><marker id="container_flowchart-v2-pointEnd-margin" class="marker flowchart-v2" viewBox="0 0 11.5 14" refX="11.5" refY="7" markerUnits="userSpaceOnUse" markerWidth="10.5" markerHeight="14" orient="auto"><path d="M 0 0 L 11.5 7 L 0 14 z" class="arrowMarkerPath" style="stroke-width: 0; stroke-dasharray: 1, 0;"></path></marker><marker id="container_flowchart-v2-pointStart-margin" class="marker flowchart-v2" viewBox="0 0 11.5 14" refX="1" refY="7" markerUnits="userSpaceOnUse" markerWidth="11.5" markerHeight="14" orient="auto"><polygon points="0,7 11.5,14 11.5,0" class="arrowMarkerPath" style="stroke-width: 0; stroke-dasharray: 1, 0;"></polygon></marker><marker id="container_flowchart-v2-circleEnd" class="marker flowchart-v2" viewBox="0 0 10 10" refX="11" refY="5" markerUnits="userSpaceOnUse" markerWidth="11" markerHeight="11" orient="auto"><circle cx="5" cy="5" r="5" class="arrowMarkerPath" style="stroke-width: 1; stroke-dasharray: 1, 0;"></circle></marker><marker id="container_flowchart-v2-circleStart" class="marker flowchart-v2" viewBox="0 0 10 10" refX="-1" refY="5" markerUnits="userSpaceOnUse" markerWidth="11" markerHeight="11" orient="auto"><circle cx="5" cy="5" r="5" class="arrowMarkerPath" style="stroke-width: 1; stroke-dasharray: 1, 0;"></circle></marker><marker id="container_flowchart-v2-circleEnd-margin" class="marker flowchart-v2" viewBox="0 0 10 10" refY="5" refX="12.25" markerUnits="userSpaceOnUse" markerWidth="14" markerHeight="14" orient="auto"><circle cx="5" cy="5" r="5" class="arrowMarkerPath" style="stroke-width: 0; stroke-dasharray: 1, 0;"></circle></marker><marker id="container_flowchart-v2-circleStart-margin" class="marker flowchart-v2" viewBox="0 0 10 10" refX="-2" refY="5" markerUnits="userSpaceOnUse" markerWidth="14" markerHeight="14" orient="auto"><circle cx="5" cy="5" r="5" class="arrowMarkerPath" style="stroke-width: 0; stroke-dasharray: 1, 0;"></circle></marker><marker id="container_flowchart-v2-crossEnd" class="marker cross flowchart-v2" viewBox="0 0 11 11" refX="12" refY="5.2" markerUnits="userSpaceOnUse" markerWidth="11" markerHeight="11" orient="auto"><path d="M 1,1 l 9,9 M 10,1 l -9,9" class="arrowMarkerPath" style="stroke-width: 2; stroke-dasharray: 1, 0;"></path></marker><marker id="container_flowchart-v2-crossStart" class="marker cross flowchart-v2" viewBox="0 0 11 11" refX="-1" refY="5.2" markerUnits="userSpaceOnUse" markerWidth="11" markerHeight="11" orient="auto"><path d="M 1,1 l 9,9 M 10,1 l -9,9" class="arrowMarkerPath" style="stroke-width: 2; stroke-dasharray: 1, 0;"></path></marker><marker id="container_flowchart-v2-crossEnd-margin" class="marker cross flowchart-v2" viewBox="0 0 15 15" refX="17.7" refY="7.5" markerUnits="userSpaceOnUse" markerWidth="12" markerHeight="12" orient="auto"><path d="M 1,1 L 14,14 M 1,14 L 14,1" class="arrowMarkerPath" style="stroke-width: 2.5;"></path></marker><marker id="container_flowchart-v2-crossStart-margin" class="marker cross flowchart-v2" viewBox="0 0 15 15" refX="-3.5" refY="7.5" markerUnits="userSpaceOnUse" markerWidth="12" markerHeight="12" orient="auto"><path d="M 1,1 L 14,14 M 1,14 L 14,1" class="arrowMarkerPath" style="stroke-width: 2.5; stroke-dasharray: 1, 0;"></path></marker><g class="root"><g class="clusters"></g><g class="edgePaths"><path d="M150.3175411296387 145.44678878710533 C151.62677374174154 145.37267063553244, 152.84246604645298 145.40704401793582, 154.70893618261314 145.56929626961784 M150.4016140262107 145.45273756999862 C152.01886905665327 145.50480894348996, 153.56775394481056 145.50367110695575, 154.58884250721908 145.51304972260263 M154.589 145.476 C159.17248318748184 145.21848395124997, 167.3321774000414 145.4424281901102, 174.29282642912432 145.3619239496237 M155.00464384078282 145.82169670903005 C158.64901933272495 145.47899085431482, 167.2211310963694 145.76587755827353, 174.84498025037604 145.35903477522234 M174.82 145.476 C183.09648058580885 146.01257650286468, 190.0489984407542 145.99672992944926, 193.78828216317365 145.30879707641165 M174.2878161066575 145.45908683145265 C183.1483106267078 145.36075537071565, 189.70194317837127 145.61436006031406, 192.6112508942864 146.0924255096582 M193.2058649576098 145.43190464938917 C194.63760743176766 145.43426239620646, 196.1906027676042 145.51858698851132, 196.8514406442054 145.45398603320768 M193.28142164479803 145.47981064357225 C194.39397356392863 145.43066917493707, 195.5262596407477 145.45256880792837, 196.81236571159505 145.51636231014433" stroke="#000" stroke-width="1" fill="none" id="container-L_A_B_0" class="edge-thickness-normal edge-pattern-solid transition edge-thickness-normal edge-pattern-solid flowchart-link" style="" data-edge="true" data-et="edge" data-id="L_A_B_0" data-points="W3sieCI6MTUwLjQyMjM0ODAyMjQ2MDk0LCJ5IjoxNDUuNDc2MzU2NTA2MzQ3NjZ9LHsieCI6MTc1LjQyMjM0ODAyMjQ2MDk0LCJ5IjoxNDUuNDc2MzU2NTA2MzQ3NjZ9LHsieCI6MjAwLjgwOTA1OTE0MzA2NjQzLCJ5IjoxNDUuNDc2MzU2NTA2MzQ3NjZ9XQ==" data-look="handDrawn" marker-end="url(#container_flowchart-v2-pointEnd)"></path><path d="M357.9784892864482 115.3570979418814 C362.19521099767667 113.66558455832684, 366.27518148296 111.21354967988144, 369.1513812750185 110.1012735094106 M357.7730828394311 115.55005690977926 C361.2337655406476 113.83588428447531, 364.2957281967239 112.12350078891544, 368.90759753882105 110.03169896323573 M368.842 110.174 C379.86203842870736 105.05065633484881, 401.65419783865906 94.8764094285415, 418.5922048136993 89.4619875244478 M368.4454669930039 110.73879620471386 C379.284275950988 105.24442639691993, 402.53677887970935 94.44975349127208, 419.13313480680984 89.08098693162577 M418.833 89.222 C435.7710440897059 83.59509780309732, 446.01708411153254 84.19098303098482, 451.5047379557694 83.95414035795913 M418.36835279181713 88.79596032252815 C434.8299145568202 84.42696960558835, 446.29401734384794 83.6652932394809, 452.1507729084449 83.56817956815209 M452.09989101134283 84.13777363547294 C453.7921186988364 83.98823046574549, 455.54771161012457 83.98420486478997, 457.59362362528867 84.11560725283012 M452.04499194036964 84.03297136723458 C453.1766126374948 83.90993765727701, 454.53391642520927 84.00001041295387, 457.56329461401754 84.02681211523458" stroke="#000" stroke-width="1" fill="none" id="container-L_B_C_0" class="edge-thickness-normal edge-pattern-solid transition edge-thickness-normal edge-pattern-solid flowchart-link" style="" data-edge="true" data-et="edge" data-id="L_B_C_0" data-points="W3sieCI6MzU3LjcyNDA1MzE4NTgwNiwieSI6MTE1LjQxMjUxNDQ4OTUxNjkxfSx7IngiOjQyNC40MzI0MzQwODIwMzEyNSwieSI6ODMuOTg0MjM3NjcwODk4NDR9LHsieCI6NDYxLjU0NjQ0MDEyNDUxMTY2LCJ5Ijo4My45ODQyMzc2NzA4OTg0NH1d" data-look="handDrawn" marker-end="url(#container_flowchart-v2-pointEnd)"></path><path d="M357.1762001942842 175.18760431695537 C359.6592953054283 176.73033911107183, 362.76172149632873 178.03373636913435, 368.6015969623214 180.64267038143376 M357.16593205125565 175.19305199166192 C361.3063455000872 177.2407722066162, 365.38058772068536 179.04624891918368, 368.3968849795495 180.59721077489644 M368.404 180.572 C379.5879480596749 186.2420622144638, 402.3585823887708 195.8781174283012, 432.0249574407179 201.89542664647138 M368.7845517392914 180.65495633443794 C379.18177685341607 185.8070917740619, 402.4159849239619 196.17138851851968, 432.3223281312953 201.99949388284418 M432.076 201.689 C462.5279707073875 207.5400374416192, 500.30998005198 206.94295570340103, 537.5158969062178 206.9201505302498 M432.42380751786675 201.8289256661398 C461.9746082003045 207.15335297970356, 499.9433661333555 206.28155319217043, 536.7817713829195 206.73929198117753 M537.216 206.968 C574.7099604516519 207.5547614753808, 611.2045603127781 206.95030777015512, 635.5945440902034 206.34392603236608 M536.6900228620325 206.6729865056744 C574.8361671719899 207.61152460003936, 611.4799370562978 207.47168561358603, 635.9028373828936 206.49437783055217 M635.4 206.232 C659.0832380446335 205.97338393302613, 670.1161020027128 204.177378942807, 675.3042318294146 202.85543278515124 M635.4426830091635 205.6783275264135 C658.9008243384188 205.07519625450138, 669.559011588401 204.16586436779562, 675.3444374802708 203.2634679767569 M674.6839812928745 203.15694684700617 C675.9906040820069 203.18411863982232, 676.9693643120954 202.88002765567336, 680.02502675592 202.6353050177193 M674.6434851316623 203.26277675477652 C675.8019271656948 203.08738923075714, 677.0325831222092 202.939547697701, 679.8945578251542 202.53125741567004" stroke="#000" stroke-width="1" fill="none" id="container-L_B_D_0" class="edge-thickness-normal edge-pattern-solid transition edge-thickness-normal edge-pattern-solid flowchart-link" style="" data-edge="true" data-et="edge" data-id="L_B_D_0" data-points="W3sieCI6MzU3LjE5ODMxOTUxMzM3NzIsInkiOjE3NS4yOTI1MDk5NTQzOTYyNX0seyJ4Ijo0MjQuNDMyNDM0MDgyMDMxMjUsInkiOjIwNi45Njg0NzUzNDE3OTY4OH0seyJ4Ijo1MzcuNTMwNjc3Nzk1NDEwMiwieSI6MjA2Ljk2ODQ3NTM0MTc5Njg4fSx7IngiOjY0OC43MzgyOTY1MDg3ODkxLCJ5IjoyMDYuOTY4NDc1MzQxNzk2ODh9LHsieCI6NjgzLjg3ODkyMTUwODc4OTEsInkiOjIwMS45ODc2OTM2ODQyNjI1OH1d" data-look="handDrawn" marker-end="url(#container_flowchart-v2-pointEnd)"></path><path d="M604.0441933860653 74.35671798977283 C606.3887617844304 73.90780903047018, 608.9275190921329 73.63348653534874, 611.3815364232075 73.3945314738326 M604.0299384696393 74.48199745369546 C606.3131409882584 74.1870821890263, 608.6233898871634 73.81122535150128, 611.3475156559422 73.32878501141496 M611.421 73.353 C619.1885768801892 72.27152703038402, 633.291678230161 70.6212076990686, 659.5644211203221 69.18163267999029 M611.3055608083948 73.61573899765465 C619.5622567476543 72.60905154298065, 633.5304677912129 69.78497813982531, 660.7488752722876 68.99995911441526 M660.089 69.058 C686.6659153130414 67.63561759614264, 723.5767089216629 68.35558577924922, 759.6859644941147 67.45235598843924 M659.4943539086983 69.23434080168721 C685.9991051504245 68.4273751403016, 723.6165694894804 68.60677141727989, 759.6684681468638 68.36167676063994 M759.932 67.984 C796.3777824242705 68.03823719539928, 829.7198870181313 68.52861293127997, 854.6986624534784 74.12201845315104 M760.3406693865936 67.7273962275606 C796.5598086042413 67.96001869525527, 829.9748202565982 67.97794140180646, 855.0819422801156 74.00322808642186 M854.707 73.716 C879.2817783773643 79.67799184392582, 894.4324348088123 90.37684709697265, 901.1547433844192 96.95649997455759 M854.5797542888627 73.18486142039443 C879.7691409113362 79.4902413926906, 894.6676681083909 90.41132486871987, 901.1516264482194 97.04824186659674 M901.8879065732323 96.59362611333952 C903.3480393852424 98.09561021575973, 904.8585292842143 99.18106348683722, 909.2953324691106 102.28900878328021 M901.7214220765711 96.59601142594906 C903.9642781653586 98.5821791059079, 906.2903726875247 100.36295070559731, 909.1932235144825 102.44520937963503" stroke="#000" stroke-width="1" fill="none" id="container-L_C_E_0" class="edge-thickness-normal edge-pattern-solid transition edge-thickness-normal edge-pattern-solid flowchart-link" style="" data-edge="true" data-et="edge" data-id="L_C_E_0" data-points="W3sieCI6NjAzLjk1NzcyMjE1NDg0NzYsInkiOjc0LjQyNzA0NDM1OTQzNzUyfSx7IngiOjY0OC43MzgyOTY1MDg3ODkxLCJ5Ijo2Ny45ODQyMzc2NzA4OTg0NH0seyJ4Ijo3NjEuNjIyMTg0NzUzNDE4LCJ5Ijo2Ny45ODQyMzc2NzA4OTg0NH0seyJ4Ijo4NjQuMzY1NDQ3OTk4MDQ2OSwieSI6NjcuOTg0MjM3NjcwODk4NDR9LHsieCI6OTEyLjMzMDU2NTgxNTMyNzMsInkiOjEwNC44MDg2MTY2MzgxODM2fV0=" data-look="handDrawn" marker-end="url(#container_flowchart-v2-pointEnd)"></path><path d="M591.2677495549314 106.02146471624607 C594.479536763598 107.09553785269013, 597.8121431492511 108.31895391620432, 600.9047062391201 110.18262188454482 M591.4765502390811 106.04784989035298 C593.6422598637403 107.01683419584698, 595.669866663271 107.78186029059607, 601.1705854141584 109.8723847865877 M601.101 109.989 C610.4301758016878 113.81701548778634, 629.2130016090983 121.42416019579316, 644.6426615719254 128.92893612318306 M601.552582961034 110.28186408621234 C610.5883130042942 113.39534198305044, 629.7115403218031 121.32530854712468, 645.0945820942617 128.9126869855153 M644.985 128.724 C660.004744377114 135.52725219219428, 672.030141988626 142.13247403497044, 677.635082181184 144.70250797602745 M645.2827865910999 128.45494495551338 C660.6183117119198 135.1076606650298, 671.1650389173552 142.56782568390307, 678.2051295233346 145.53318502915553 M677.7480804508716 145.10046423204213 C679.3531939757036 146.269543011757, 681.249110893022 147.0515455394649, 683.3618487431902 148.47482335467564 M677.5960175902594 145.17076880626186 C679.0488596509571 145.91326705021964, 680.5395592310665 146.77456933312345, 683.3166091542379 148.35698790054056" stroke="#000" stroke-width="1" fill="none" id="container-L_C_D_0" class="edge-thickness-normal edge-pattern-solid transition edge-thickness-normal edge-pattern-solid flowchart-link" style="" data-edge="true" data-et="edge" data-id="L_C_D_0" data-points="W3sieCI6NTkxLjU3MzA5MzM2MzE0NTQsInkiOjEwNi4wOTE1NzE4NTkwMjI1MX0seyJ4Ijo2NDguNzM4Mjk2NTA4Nzg5MSwieSI6MTI5LjQ3NjM1NjUwNjM0NzY2fSx7IngiOjY4Ni44OTQ4ODUzMzI2MzkxLCJ5IjoxNTAuMjYxNjkyMDQ3MTE5MTR9XQ==" data-look="handDrawn" marker-end="url(#container_flowchart-v2-pointEnd)"></path><path d="M839.3239638949333 190.97817488224337 C840.5870684207293 190.92274373871885, 841.6119198389683 191.03857828479997, 843.4673148740858 190.97799941570267 M839.3136824611731 190.99043553392895 C840.7256257394795 190.97453241728377, 842.1506965838493 190.9629236262072, 843.5537497823677 190.90584305876084 M843.532 190.968 C847.4787107187932 190.99733510887933, 856.5753793904246 190.74052208922447, 863.6028584493827 188.7666551175152 M844.11332047097 191.52369742062473 C848.2146846174269 191.3251847753493, 856.4395431397481 190.5473457408428, 863.7223975752015 189.71956306958225 M863.758 189.364 C871.8373444416459 187.6895392943834, 878.1262301800565 185.13456222264585, 882.0182284433182 182.81233087661303 M863.8136266309369 189.4465491495641 C871.1911883436272 187.90979980606963, 879.0687243213624 184.9902396825169, 882.3154275998173 183.38810624704672 M882.070511603604 182.96756575014285 C883.0751897175112 182.51135103090448, 884.0598497770778 181.93787602040933, 885.7053201669031 181.41467782364657 M882.1787182036825 182.9161356364515 C883.0264129823895 182.59398493753437, 883.9618156859691 182.14811199290148, 885.7529358885085 181.32197978965849" stroke="#000" stroke-width="1" fill="none" id="container-L_D_E_0" class="edge-thickness-normal edge-pattern-solid transition edge-thickness-normal edge-pattern-solid flowchart-link" style="" data-edge="true" data-et="edge" data-id="L_D_E_0" data-points="W3sieCI6ODM5LjM2NTQ0Nzk5ODA0NjksInkiOjE5MC45Njg0NzUzNDE3OTY4OH0seyJ4Ijo4NjQuMzY1NDQ3OTk4MDQ2OSwieSI6MTkwLjk2ODQ3NTM0MTc5Njg4fSx7IngiOjg4OS4zNjU0NDc5OTgwNDY5LCJ5IjoxNzkuNzAwOTQ5NzM4ODY0NzJ9XQ==" data-look="handDrawn" marker-end="url(#container_flowchart-v2-pointEnd)"></path><path d="M1041.1872789491372 145.49128260718223 C1042.5344285351034 145.40518975647552, 1043.9293235378407 145.47381048526182, 1045.4784292958536 145.49075882113084 M1041.2737613758231 145.42026361810514 C1042.3711154972088 145.52517920706674, 1043.560732957884 145.42938887176766, 1045.4553549511845 145.46052136566868 M1045.405 145.476 C1049.1484962256632 145.6953465915047, 1058.2606626828199 145.1221009611354, 1065.8198466641911 145.20608837793836 M1044.8957756516263 145.0884754682878 C1050.2110761838305 145.64400849111487, 1058.5303555541243 145.56364515735785, 1066.1891742821897 146.05108495192948 M1065.571 145.476 C1073.4404629728951 145.01493945335207, 1080.8098492100976 145.04615330050387, 1084.291561475433 145.3553981532921 M1065.8433163755797 145.74913472434295 C1072.7858146071774 146.15141902225298, 1080.625079391176 145.2510429003143, 1084.3156681824817 144.91519666156842 M1083.7287064475006 145.41773894220958 C1084.6883224685107 145.48954004862858, 1085.4580030779941 145.5350993568655, 1087.1436338764727 145.49109291269178 M1083.7214240845815 145.4909523810634 C1085.0579274104432 145.45815264710595, 1086.394466405542 145.42414995217658, 1087.2580087643432 145.44947382829704" stroke="#000" stroke-width="1" fill="none" id="container-L_E_F_0" class="edge-thickness-normal edge-pattern-solid transition edge-thickness-normal edge-pattern-solid flowchart-link" style="" data-edge="true" data-et="edge" data-id="L_E_F_0" data-points="W3sieCI6MTA0MS4yMzgxNTkxNzk2ODc1LCJ5IjoxNDUuNDc2MzU2NTA2MzQ3NjZ9LHsieCI6MTA2Ni4yMzgxNTkxNzk2ODc1LCJ5IjoxNDUuNDc2MzU2NTA2MzQ3NjZ9LHsieCI6MTA5MS4yMzgxNTkxNzk2ODc1LCJ5IjoxNDUuNDc2MzU2NTA2MzQ3NjZ9XQ==" data-look="handDrawn" marker-end="url(#container_flowchart-v2-pointEnd)"></path></g><g class="edgeLabels"><g class="edgeLabel"><g class="label" data-id="L_A_B_0" transform="translate(0, 0)"><foreignObject width="0" height="0"><div xmlns="http://www.w3.org/1999/xhtml" class="labelBkg" style="display: table-cell; white-space: nowrap; line-height: 1.5; max-width: 200px; text-align: center;"><span class="edgeLabel"></span></div></foreignObject></g></g><g class="edgeLabel" transform="translate(424.43243408203125, 83.98423767089844)"><g class="label" data-id="L_B_C_0" transform="translate(-12.03125, -12)"><foreignObject width="24.0625" height="24"><div xmlns="http://www.w3.org/1999/xhtml" class="labelBkg" style="display: table-cell; white-space: nowrap; line-height: 1.5; max-width: 200px; text-align: center;"><span class="edgeLabel"><p>Yes</p></span></div></foreignObject></g></g><g class="edgeLabel" transform="translate(537.5306777954102, 206.96847534179688)"><g class="label" data-id="L_B_D_0" transform="translate(-10.140625, -12)"><foreignObject width="20.28125" height="24"><div xmlns="http://www.w3.org/1999/xhtml" class="labelBkg" style="display: table-cell; white-space: nowrap; line-height: 1.5; max-width: 200px; text-align: center;"><span class="edgeLabel"><p>No</p></span></div></foreignObject></g></g><g class="edgeLabel" transform="translate(761.622184753418, 67.98423767089844)"><g class="label" data-id="L_C_E_0" transform="translate(-12.03125, -12)"><foreignObject width="24.0625" height="24"><div xmlns="http://www.w3.org/1999/xhtml" class="labelBkg" style="display: table-cell; white-space: nowrap; line-height: 1.5; max-width: 200px; text-align: center;"><span class="edgeLabel"><p>Yes</p></span></div></foreignObject></g></g><g class="edgeLabel" transform="translate(648.7382965087891, 129.47635650634766)"><g class="label" data-id="L_C_D_0" transform="translate(-10.140625, -12)"><foreignObject width="20.28125" height="24"><div xmlns="http://www.w3.org/1999/xhtml" class="labelBkg" style="display: table-cell; white-space: nowrap; line-height: 1.5; max-width: 200px; text-align: center;"><span class="edgeLabel"><p>No</p></span></div></foreignObject></g></g><g class="edgeLabel"><g class="label" data-id="L_D_E_0" transform="translate(0, 0)"><foreignObject width="0" height="0"><div xmlns="http://www.w3.org/1999/xhtml" class="labelBkg" style="display: table-cell; white-space: nowrap; line-height: 1.5; max-width: 200px; text-align: center;"><span class="edgeLabel"></span></div></foreignObject></g></g><g class="edgeLabel"><g class="label" data-id="L_E_F_0" transform="translate(0, 0)"><foreignObject width="0" height="0"><div xmlns="http://www.w3.org/1999/xhtml" class="labelBkg" style="display: table-cell; white-space: nowrap; line-height: 1.5; max-width: 200px; text-align: center;"><span class="edgeLabel"></span></div></foreignObject></g></g></g><g class="nodes"><g class="rough-node default" id="container-flowchart-A-0" data-look="handDrawn" transform="translate(79.21117401123047, 145.47635650634766)"><g class="basic label-container" style=""><path d="M-69.52693391043977 -39.23863367578959 C-69.52693391043977 -39.23863367578959, -69.52693391043977 -39.23863367578959, -69.52693391043977 -39.23863367578959 M-69.52693391043977 -39.23863367578959 C-69.52693391043977 -39.23863367578959, -69.52693391043977 -39.23863367578959, -69.52693391043977 -39.23863367578959 M-69.78078966657105 -31.686369255555334 C-68.51107824154202 -33.230037457806425, -66.31612834953151 -35.30807660321543, -63.51342049551252 -38.6748675757638 M-69.7738704465735 -31.179720465509302 C-66.9059986886966 -34.17532077224883, -64.7976921817118 -37.132786128972846, -63.1145481465772 -39.14058791840301 M-68.68183030478268 -22.257564585112124 C-67.44872488797225 -27.77538925674562, -65.72202256804651 -29.250711456764257, -57.54577554042948 -39.57124205867767 M-70.05740371401619 -23.71272446058564 C-65.99278244394218 -27.836686244139063, -63.88517617033051 -30.74647385063556, -56.933899624834226 -39.291552710785226 M-69.74828415613497 -15.8927665704811 C-60.978269766137 -25.86648341029, -54.437980146119706 -33.94496133335248, -50.87792388878171 -37.855456464616246 M-70.03353027044886 -15.192890126770491 C-63.59504955967643 -22.28254461611412, -57.810849601026 -28.65571505217615, -49.272072002073074 -39.02097204013062 M-69.76987903705762 -8.137803205746303 C-58.940078209766085 -19.68540793544385, -49.69006541275268 -32.54649492626527, -42.39919443346142 -38.04295154716537 M-70.13112934421589 -8.563584273724256 C-63.196439936260646 -14.970465489482116, -58.25163431686766 -22.907809944541903, -42.64048803029363 -39.49355603355906 M-70.35686201411102 -0.5472275629908714 C-61.71607968241872 -8.124620843065912, -54.47785759396628 -17.004074656681684, -35.62608233170352 -39.06228343932204 M-69.60560237373615 -1.3571192430546946 C-62.25139405516901 -9.676615729507043, -54.61258712411507 -18.51611049335619, -37.51492780235665 -38.40123268076074 M-69.97518322039095 7.730339878962636 C-54.558275366345356 -8.671189071604786, -41.527787637868755 -26.989110877515976, -28.47683752405511 -38.64186368967658 M-70.39018333429793 6.623429542330307 C-57.22598331275724 -8.114179750556215, -44.26275783585692 -21.866685313832377, -29.48337841771591 -38.61779485904153 M-70.61930897115856 16.015661221186665 C-53.2132886615604 -4.4780018035504146, -35.90849838646486 -24.292310939700023, -23.41441570235152 -39.14329243827743 M-69.87165070918049 15.317751449339838 C-56.70411556642078 0.6544095951134654, -45.2215176525416 -14.344947455449564, -22.74883089901466 -39.38528094348551 M-70.81236722507292 22.499814503300787 C-56.29945234077298 5.187823188827473, -42.28545861258103 -8.088006501843966, -17.793367152802617 -38.9853892054841 M-69.9734797239733 21.880175603671077 C-56.479309506688274 6.820481683702001, -44.19703499938415 -7.59041240645852, -16.708235503496198 -38.38112722183657 M-70.70265106358751 30.567105422848297 C-49.923406928558705 7.549346606518942, -32.86007190690198 -15.19961373863565, -11.170369745032303 -39.55775732157768 M-69.20902131455279 30.204965374168115 C-53.62959542454498 10.247590060420295, -36.36908824951082 -9.242412159227317, -9.998338335972049 -38.763716016688974 M-69.02103166358391 37.878119021704 C-48.20691328774957 13.3300068929773, -27.841597630679814 -12.338747384089054, -3.725946956484087 -39.6064154559749 M-69.41714266977897 37.871619940738825 C-51.44354270061111 15.865332523716136, -33.64410145598383 -5.721321799971183, -3.5804922523847664 -38.768211035079666 M-66.65368482129313 40.55351889737951 C-45.086542513755454 17.02445778948472, -24.95290240271803 -5.836396269424668, 3.3399359185074027 -38.14451564708775 M-65.15655525094046 39.331890979668714 C-38.46149590279151 10.375417513468712, -13.41877153142518 -20.27738646632915, 2.652349604052907 -39.04956212074906 M-59.06469894241533 39.046984459732926 C-42.05310280337251 20.93675266171725, -26.936651731099108 2.541591959540989, 10.249335770558003 -37.78293885213185 M-58.922946102794555 39.464044841842295 C-41.80541543364153 20.324441745116484, -25.312724160429916 1.8872940095086546, 9.39901061063395 -38.87635060142117 M-53.08907622399222 38.72749755213087 C-33.61087963851229 16.105487357969828, -12.011018888866156 -4.683953672483501, 17.137467990273322 -38.72839688069365 M-51.35505810114762 39.73767306172438 C-28.051706666776276 12.840986615807763, -5.2026672255701225 -14.68504724802346, 16.208706126788478 -38.859217682624276 M-45.771616534955385 38.90036822502676 C-23.009813542606807 14.89945540658661, -1.65079458824941 -10.806963216373358, 24.064892253387043 -39.31360777919701 M-46.143556869311034 39.72720170594622 C-21.830238436008898 12.870586899248137, 2.7034697730494592 -14.854031925204009, 23.654810578907842 -38.661139449385914 M-37.30848996632781 38.42077219360929 C-22.467689481398622 23.030158631093276, -8.56956228246033 2.7141630711198, 30.41154489620176 -38.514182852124684 M-38.27563082849791 40.034816647608075 C-10.924406272937295 9.146961353889782, 15.662003074337916 -22.22170570088423, 29.149051908826767 -38.456587215478365 M-31.51372408884529 39.10573435337632 C-8.358782882734 11.953938327755464, 18.219337112906043 -17.508738238196653, 36.706148683339215 -38.58436930486093 M-31.688994622273455 39.894722416434185 C-10.739809857553025 14.549440077542608, 11.079999133738148 -9.955154974937575, 36.61363828645266 -38.74636980893175 M-26.138625881601428 38.67529450022514 C-3.677694682932782 12.551556410789125, 18.16262895984841 -10.460882341798316, 43.945691911265726 -38.33551610181063 M-25.452241846251365 38.5543658149475 C-11.1153731243649 23.42983425113698, 2.4985396180798136 7.362297725298051, 43.77382857347358 -39.52176612697846 M-17.475324299207724 39.78531800733187 C-3.950062819668603 22.892426934762756, 9.259921941459229 7.951861502393575, 49.66808436940345 -39.10429633989009 M-19.275060680878248 39.72836174884682 C-4.741392853952564 23.86429351742851, 8.480840275307017 7.7353004660320135, 50.21678608947232 -39.64155172853097 M-13.10882632177736 38.34569997480023 C14.968427433175554 10.659020690283748, 40.99609986463222 -20.235272985946455, 56.54540884789919 -39.62249456892162 M-11.898405226545526 39.3349358957953 C5.042060162939048 20.49318452882978, 22.202601353140544 -0.44774165157430557, 55.67997430764777 -38.225451223603656 M-6.430100338339994 40.50393364086808 C18.37146010626332 10.672668052597036, 43.98187989872361 -17.650590011593778, 62.48689647626449 -38.41513984351897 M-4.8983639190496016 39.436592147425145 C14.350108174082683 16.23314913406582, 34.39612501274979 -7.076507772862315, 62.92048757846121 -39.68459517995975 M-0.12010644762787104 38.6746721054579 C23.967912891922364 13.41216711218977, 47.89201805798816 -14.701384486108116, 68.41608206412955 -39.61928143052022 M1.6539695131038024 39.31657344395885 C19.862621455258154 17.450309861762992, 38.67157139204704 -3.8136909309123004, 68.82846612121423 -38.61750266226528 M8.886734280847106 40.597068352942244 C30.878069339728924 11.61051261901336, 57.51301095708729 -17.300467131822472, 71.12663512060492 -31.72815884800002 M7.159300938675219 40.14888825193042 C27.778689982541596 16.80259695384205, 46.50963064817934 -5.630385622674535, 71.08555453906584 -32.95995942122156 M13.915609728051123 38.807141231850004 C32.75243812725123 18.45730151362772, 47.9594312343522 -0.8436981169630049, 70.96570915843778 -23.66077652833907 M15.225032132165571 39.505221429782026 C36.29365711269126 13.87177157749825, 57.241123741703 -10.927557700106643, 69.83432369636219 -25.349782463340585 M22.177025830921483 38.78810884452727 C35.3688041545026 21.80950304119946, 50.114516589646804 6.282115772792942, 70.67182764272843 -17.563089937702408 M20.93818284912183 39.546686270438165 C31.113686617279033 27.38964890921593, 41.817451762124335 13.878131631947097, 69.80771197524354 -16.60316293343348 M26.130631556832974 38.84310243490658 C35.79526460302679 30.9854290732888, 44.75446932174033 19.28674453112864, 70.13074215260158 -10.627405509344324 M26.86198364313958 40.37920916084942 C38.41900939962571 27.11973437716866, 49.20318026581556 15.855018024262248, 70.7672143833237 -9.614649543906207 M33.88000558875211 38.86435728319313 C48.70535609399445 24.34469279260094, 63.03509487282553 5.696729389172017, 69.7046389599889 -2.1365868585475747 M34.48590391311569 39.400313309901364 C41.48489604526157 30.515281213823815, 49.75289115445025 21.787154460498225, 69.9041533422845 -1.8266830628742559 M41.56039310408148 40.069449435672354 C47.93068033160052 30.905152127332684, 57.47802973794735 19.434144024069212, 70.16924428341989 4.242018584350979 M41.16047152552209 38.93252505546487 C49.55091456810442 27.971285099865707, 60.39601503615763 17.289415821015353, 70.5339299874266 5.169563259036078 M46.62746712797166 40.13095326838431 C51.508064487265415 34.38807948026533, 58.42169867777175 26.320421376498082, 71.17726930769157 14.189724076546053 M47.57917848777306 40.206678625773804 C55.925205994671416 29.778965312453302, 65.589538392521 20.05848026874425, 70.1615579259666 13.853178908080999 M53.71872455876547 39.62953268265831 C59.85811218708063 32.37216372200709, 67.6204725238018 26.627913910457867, 69.25557743817193 22.165902804058774 M54.965486671953585 39.34464244132876 C57.874710695465616 34.60716352269306, 61.82036015461552 31.125583847129736, 69.93419685379799 21.657855270251336 M61.46014458218221 40.128719545085616 C64.01723154963746 36.91180633493505, 65.47229141983009 34.14151334433283, 71.60995442750233 28.685826037415417 M61.09010467898919 39.36474162780241 C64.24921125050601 35.33306484314449, 67.88619241467619 32.00537695990939, 70.87238118658092 28.402297963428524 M66.9701417330091 40.04903997177728 C68.31450949911677 38.73731458436316, 69.41466716252434 36.69542667368673, 70.167121010524 35.76385185771678 M66.99514652823535 39.91759880225926 C68.33180554997286 38.52154483513715, 69.39436389403137 37.248825452920066, 70.40694613195555 36.13895629138578" stroke="#ECECFF" stroke-width="4" fill="none" stroke-dasharray="0 0"></path><path d="M-69.50567646857282 -39.35357080530786 C-21.301852507803428 -39.46805049097239, 28.697113866199544 -39.247019137873075, 68.33769246517252 -40.377341366870155 M-70.0463323353129 -38.58431826270607 C-18.725816214258945 -38.98941459458283, 31.9071140614088 -39.11025307531012, 69.06941636529803 -39.153750967048204 M70.32153452012831 -38.5248931161157 C68.20393189304455 -21.293416228245125, 70.64307685647555 -4.606970794421415, 70.51745894217362 38.777691916506235 M69.47481733519315 -39.11529956459814 C69.10251020845959 -17.658826842396252, 69.44424605584031 4.195347272087682, 70.39312316883819 39.014207857967854 M69.30078782081969 38.86467785076103 C24.883821933525713 39.04011103525833, -17.503118315287693 39.92203060417231, -70.44826435034416 38.27799899841174 M69.72147425599476 39.35990173532252 C41.267646585975214 39.907401415056725, 12.872038860994808 40.40427766174703, -69.30650588014868 39.33353307566807 M-68.93268987868252 39.23557358708594 C-68.91796322624577 11.909268765627694, -70.38236314655293 -13.914086493164959, -69.28476949109714 -40.39080105278105 M-69.45816665028471 38.63861003393813 C-69.56556640709603 15.550981072549453, -69.80451255240841 -8.485709003586447, -69.39276077151108 -38.45381499321164" stroke="#9370DB" stroke-width="1.3" fill="none" stroke-dasharray="0 0"></path></g><g class="label" style="" transform="translate(-39.734375, -24)"><rect></rect><foreignObject width="79.46875" height="48"><div xmlns="http://www.w3.org/1999/xhtml" style="display: table-cell; white-space: nowrap; line-height: 1.5; max-width: 200px; text-align: center;"><span class="nodeLabel"><p>Replica<br/>reconnects</p></span></div></foreignObject></g></g><g class="rough-node default" id="container-flowchart-B-1" data-look="handDrawn" transform="translate(293.9117660522461, 145.47635650634766)"><g transform="translate(-92.4609375, 92.9609375)" style=""><path d="M-0.10399199392990255 -92.84130839557912 C-0.10399199392990255 -92.84130839557912, -0.10399199392990255 -92.84130839557912, -0.10399199392990255 -92.84130839557912 M-0.10399199392990255 -92.84130839557912 C-0.10399199392990255 -92.84130839557912, -0.10399199392990255 -92.84130839557912, -0.10399199392990255 -92.84130839557912 M2.578550049618519 -88.53320395731673 C17.34591605195206 -106.70547723950662, 33.84004352700378 -123.8808181023707, 49.95503481607665 -142.5660039615656 M4.129893334612948 -89.00734514561708 C15.226671916632776 -104.52440181742885, 28.080115874373046 -117.85874199204741, 50.407785796864005 -143.70388774627548 M6.200033388089623 -84.47910622742408 C37.078878910231644 -121.95135088967069, 70.16257990715005 -158.17438954030692, 94.44384626592947 -184.05635467556638 M6.706603143194047 -85.28313766946485 C32.42699604680166 -115.01535412598744, 58.304199050666675 -144.26258281338116, 93.37754710408203 -185.73658099357908 M10.616215246631258 -81.38133937867838 C32.93992010038815 -107.4439819226328, 54.01345701138476 -132.2199795304929, 96.52997525980581 -182.6894679845801 M10.413842706282042 -82.10450028259936 C28.54279244812109 -104.19831836596741, 47.693502159957205 -125.87313391038325, 96.55599222841487 -182.55106024603415 M13.098296730403218 -79.1114811958858 C31.531831099868455 -99.89969100976937, 50.16579374333807 -120.87588532072273, 100.88139205393593 -177.84648236837373 M14.807784154702993 -78.86444449451524 C32.05357180313308 -99.0085461431077, 50.23191060624192 -121.44367973145879, 100.84834371458743 -178.22280605753585 M17.482831291323077 -74.60325043953432 C39.71392222139146 -100.44189757791663, 63.5613678681071 -127.08371082978405, 104.01182768625719 -175.69600907248974 M16.76182268771127 -74.6727202936662 C44.595666333418635 -106.59734446789834, 71.61842666520312 -137.91492029340662, 103.85590948420455 -174.92155756025969 M21.816199129793816 -71.74540247159884 C49.93637855132883 -105.26085979189403, 79.03690308906286 -139.46715369610627, 107.65340314908963 -169.92820273680414 M21.218368113406086 -71.57999777385386 C46.45127149021441 -102.10040683346746, 73.26130968038801 -131.31310453676676, 107.3417641673136 -171.22621108524774 M24.550410525897323 -67.13156655107582 C48.070871641019814 -96.31101134901449, 70.97139640366257 -122.94043730297126, 111.43462068695743 -167.14303361023732 M24.588963715941315 -68.89664121409368 C55.40940959073468 -102.71641002444085, 84.47432477267581 -137.88308358989391, 112.21439816522255 -167.6113170451916 M28.572141270315758 -65.11549844727777 C49.266799134006966 -91.40520203514069, 71.70121593592027 -115.72012557375591, 115.39767768966416 -163.9813050603759 M28.091708029144066 -64.43509756564586 C54.40318210121463 -94.13357830032113, 79.52624249211738 -122.08617604397251, 114.85331056964341 -163.33871323253743 M31.7611378906405 -60.509152924928195 C58.525403687948284 -90.43383162081912, 85.07639371424567 -120.15202749112466, 117.43825686786485 -161.96761479892504 M32.333923573426574 -61.044185753214705 C59.571753459681034 -91.98131212701976, 86.477439525441 -123.00633884545282, 118.47833218948989 -161.1328015564733 M36.79562288954316 -59.00176936470109 C58.85363203686342 -84.66790717062418, 84.13414352781679 -113.36147198437183, 121.76532060783828 -157.04149747964007 M35.05273547959549 -57.7454755053307 C61.26136988355216 -89.03699746244806, 89.44182375800527 -119.19808609766994, 122.85581726781226 -157.38014152605666 M37.65465999851735 -52.561228167701756 C68.51151373655176 -88.54985976979694, 100.78597118983357 -123.4900076164445, 124.36830155909232 -152.05118287930867 M39.425398949632175 -53.050475414748334 C73.02998746826194 -93.38282165561978, 106.70465936711727 -131.70499079023585, 125.52527565293855 -153.67290239145262 M43.176612874128224 -51.47955673978637 C75.23135509233364 -88.51732131523593, 107.8279518780128 -125.7436743945192, 130.2848834735316 -149.15127993814818 M42.53249617298357 -50.04852886014664 C74.17825372010402 -86.93094441249187, 106.47267112533898 -124.62138480841948, 128.6016444041177 -150.6127057480402 M47.07057909114558 -46.15574727163649 C72.57216651306179 -77.85482894503225, 101.79661314737838 -110.4561077177301, 130.88388295870192 -145.94753284051075 M45.66159991276562 -46.637575143716695 C68.55105414233338 -72.81606386411389, 92.42171409317581 -98.97788443711666, 132.49253391240651 -145.51894777986888 M48.79684301478878 -43.2449142488813 C84.49406741266104 -83.83382726141014, 119.96931769642383 -123.55552844608573, 136.36891717698464 -143.46738519934647 M49.74512272019017 -42.84760968923087 C74.78126274027113 -72.0955920119998, 99.68967552738323 -99.73795060365595, 135.84319739536758 -143.38207346545872 M52.41359499644132 -39.445966481126476 C82.25019726301475 -73.26045015653837, 111.77824599268054 -106.13346756504491, 140.44818012683564 -139.19658050088773 M52.57619019359621 -40.48491318727926 C83.63498305867239 -75.36673919448452, 114.11872630774951 -110.32062354154895, 140.26190802271887 -139.6205822455914 M55.6316037473818 -37.87256295541569 C79.0899337886724 -60.750055584376284, 98.09158339011408 -85.27098405341592, 144.24025681859635 -136.66193396824445 M56.57746630118688 -36.29931167698114 C89.43947934765849 -75.0551431875846, 122.80554874315283 -112.9173473468708, 143.3218921414334 -135.084844262008 M60.17906960089769 -31.41859538868801 C90.86727221968218 -68.19200889801243, 123.41254058005035 -104.83149541909285, 147.2283341235501 -132.21316392731526 M60.64968494247155 -32.58269306741582 C83.50533781390511 -59.58494675049846, 106.23159096313647 -85.52106675808628, 146.81701694397105 -132.28847691488727 M64.88987882116515 -28.573286888716257 C97.03845462644266 -67.47650568001451, 132.4049209229259 -105.9594169866267, 150.27484193745985 -129.91860811084462 M63.250570233817285 -29.379652234425716 C92.29684016671422 -63.10376789594077, 122.76892908756857 -97.04511823295779, 150.16123295077952 -129.3894398395196 M68.4231324106941 -26.946048803398554 C88.89273232646099 -51.77312317264984, 111.33100799300179 -76.49667358747642, 154.542779394548 -125.9396036849728 M67.87222895210422 -26.19497810263735 C94.95771990990725 -58.1999758420163, 124.36167956223284 -91.11992446470418, 153.27931127818866 -124.68462575098312 M70.16393720105532 -22.31785315382839 C102.57922245706465 -59.05879459269549, 136.69351835065058 -96.57979651118396, 157.13604383433935 -121.85490597881383 M70.47438274346169 -21.56751853907809 C93.19360536675192 -48.51027192199213, 115.76466652536615 -73.94214031202314, 156.79284670581342 -121.52253807474101 M74.47622812927914 -18.829683585482087 C95.90852478028296 -43.83190552664144, 117.92509766651509 -67.7249895866092, 161.29354062293697 -118.64930692317884 M74.62793599014748 -19.1619623048996 C96.82605679057639 -44.46296155239896, 118.84084541508601 -71.00569266711307, 161.4749338558879 -118.67093851850687 M78.00325328866057 -13.498815570170706 C104.49313820272656 -45.77321203392722, 132.64615861781547 -78.27803748542101, 164.18578072681572 -114.63803949815832 M78.27325450417995 -14.660112423191404 C104.96400653744526 -46.788916147532895, 132.79363767510736 -77.60511808029167, 163.78700470674596 -114.50725602614177 M80.90274424423508 -10.182098089915742 C101.20041874596014 -33.71980473750153, 118.40264160119743 -52.206241636755195, 167.54654144698083 -111.6404933581843 M81.60171744495396 -11.026534500814662 C114.9613787984418 -50.845882495065695, 149.9340792760611 -89.7003948098976, 168.44136953875534 -110.45285301965501 M84.16927385578143 -7.451410120424277 C114.1382811283671 -43.027859362834654, 143.73690564469126 -77.87729169834687, 171.7097813412161 -108.07309697971277 M85.20734579754873 -8.435564509915869 C109.83869984674776 -34.874385808841424, 132.82798287679122 -61.79307928661716, 171.46383334868264 -107.35995410190618 M87.88000253383929 -4.8342880762617275 C114.23570434375836 -32.479919798648154, 138.86424927649907 -62.63704925855005, 175.24658441024877 -105.0357418814106 M88.88485735606623 -4.2967004351062466 C120.27730688545233 -41.30992933169916, 152.6762567008659 -78.4529740050268, 174.3838294082079 -103.27945862311127 M91.36118590882204 -1.5461109939163422 C125.03824523960252 -39.30848071100278, 160.9433414599888 -79.01202018507472, 177.52830430414147 -100.79426857244549 M91.45851808409819 -0.6338485241526712 C123.76048790154148 -36.46716004647783, 154.42990641557532 -72.54620752068521, 178.39391161896484 -99.901434183339 M123.678561226395 -29.33379021073591 C139.18123750899824 -48.97818660551506, 156.71637017246852 -66.94882027601528, 183.16448134872905 -98.35724923976203 M123.5997989376601 -29.921039262146284 C146.13779794097007 -55.23012761691331, 168.25166076366554 -81.40091195757454, 183.04185983813628 -96.5144013232852 M174.28654292694736 -81.09556474810707 C177.54784490935978 -83.57502257077977, 180.6183152868331 -87.24973540058997, 185.6997258954925 -94.2491399456639 M174.31722265714015 -79.99413374290366 C178.56039972596957 -85.16592153718626, 182.8511190116151 -90.25717640940263, 185.07454247500124 -93.04729077088145" stroke="#ECECFF" stroke-width="4" fill="none" stroke-dasharray="0 0"></path><path d="M92.42759008168491 -1.0147049800898302 C115.18999715389852 -23.121354612162, 138.8096755740331 -47.47513127988019, 186.3963253127572 -91.63920742697007 M93.02838653131572 0.5810683157352894 C124.75484031966064 -30.585275449743623, 155.04204651020933 -61.56053866861045, 185.6772085675685 -92.8564952194711 M184.90010906542804 -91.70952797140758 C163.03308295315637 -115.32398537386422, 138.3772424654593 -140.3672983435999, 93.72374208932538 -184.59583937502734 M186.0799354908034 -92.48349294348472 C148.70478413095742 -130.74234060129695, 112.0053425251075 -167.7316403624384, 93.4506541836419 -186.42859147233375 M92.75684693186004 -184.70299503939702 C58.46315733252314 -152.48655973759418, 24.034899927700536 -118.65660061530927, -0.40914454020494234 -94.29930352303708 M92.33202171692756 -185.35040802889716 C58.681512379789986 -151.2933122813772, 23.926173867722056 -116.35380387821279, 0.6479406176435506 -93.20438645150314 M0.641552564756947 -92.21186619309444 C32.20894647897155 -62.14020319935955, 65.05563665218186 -28.915699821939505, 92.38299591673778 1.323653708243993 M-0.5825063236904702 -92.37983577776096 C36.91357295852374 -55.515224032000575, 72.7752783238525 -19.020795537395408, 93.6296157207393 0.09846082849485042" stroke="#9370DB" stroke-width="1.3" fill="none" stroke-dasharray="0 0"></path></g><g class="label" style="" transform="translate(-53.9609375, -24)"><rect></rect><foreignObject width="107.921875" height="48"><div xmlns="http://www.w3.org/1999/xhtml" style="display: table-cell; white-space: nowrap; line-height: 1.5; max-width: 200px; text-align: center;"><span class="nodeLabel"><p>Gap still in<br/>update queue?</p></span></div></foreignObject></g></g><g class="rough-node default" id="container-flowchart-C-3" data-look="handDrawn" transform="translate(537.5306777954102, 83.98423767089844)"><g transform="translate(-75.1953125, 75.6953125)" style=""><path d="M-0.08396080862340227 -75.5987266383149 C-0.08396080862340227 -75.5987266383149, -0.08396080862340227 -75.5987266383149, -0.08396080862340227 -75.5987266383149 M-0.08396080862340227 -75.5987266383149 C-0.08396080862340227 -75.5987266383149, -0.08396080862340227 -75.5987266383149, -0.08396080862340227 -75.5987266383149 M3.9312095596689183 -71.12056993802433 C12.933597931677774 -84.09549709574001, 24.507544183818343 -93.49504813840534, 49.810634519995034 -125.44720873225273 M3.8515194968545274 -72.52307931959385 C21.613283627475646 -93.12429560128137, 39.605012276298396 -113.17740119910026, 51.33401113101619 -126.35146781442707 M5.732027054279438 -69.46895696018723 C26.552546146145655 -89.9744362016339, 44.19095346387862 -111.6754530825108, 76.81162746242427 -149.21561117808682 M7.109735616497937 -68.2394423185547 C31.305722078394236 -96.39169867540546, 55.27958705856287 -124.57431709429422, 77.6528505470712 -150.2868668742699 M11.632381251104288 -64.14169430606121 C38.80236455749528 -96.71766142830056, 66.49334272952011 -127.84232295041078, 81.83806852441633 -147.13358585508058 M10.915793604332462 -64.94445890594137 C29.397873830080393 -86.34650932698598, 48.07752965753422 -107.16767384917746, 81.15019745896852 -145.17582491796944 M14.352485524292382 -62.12146469899007 C31.063816428473274 -80.44565297992163, 45.67177032513394 -98.72876403383566, 85.40722235434212 -143.09951756416797 M14.098287258878246 -62.247285588430174 C32.404825788394106 -81.34311161872317, 49.472688104411155 -102.12009413233565, 85.08438500407603 -142.13977789532603 M17.86388883268021 -56.38086029259953 C36.64280297175916 -80.97534591179794, 57.959324945647545 -102.43946012425003, 88.30102034209355 -138.98431570779846 M17.665680957329283 -57.22337633500784 C40.15141963520738 -84.18038374689155, 62.459779550750945 -109.2449279454453, 88.02576410743933 -139.89627305285646 M22.346048644305778 -53.04044779786551 C43.928296278462874 -80.31636085182923, 69.01163857805055 -110.0043950092278, 92.21794137456976 -134.11988267805316 M20.549871600717225 -55.08954340231995 C47.65244265030223 -84.60728110067585, 73.92103838717742 -115.56259010292375, 91.12653091842635 -134.73068013376914 M25.298792918170935 -50.38341137776245 C46.98075396531189 -76.18370122065203, 67.9166892312744 -99.08565046389445, 94.25454497783977 -131.52227599991204 M24.50404815057613 -50.71585659318943 C46.62315373463221 -76.59943223661847, 68.32179977843568 -101.94899032271408, 95.6359875524399 -132.25854023400507 M27.683220572471804 -46.717928161591246 C48.86036210923034 -70.91472381202918, 70.17225650291608 -96.90625820549037, 98.40900851416247 -127.56415251669434 M28.107804909625038 -46.753624518199864 C50.40751879866633 -72.85472114733433, 71.88899784348344 -97.80569131464866, 99.26422830069214 -128.04188458913583 M30.92064185491417 -45.03296240087846 C53.65143702070297 -67.3753589976261, 74.89106387304204 -90.86957585249192, 102.80385628809434 -125.78640991005265 M31.534326101303932 -43.68107325554846 C56.680659497874814 -72.03336208724745, 79.89724086784004 -99.18015218818852, 102.40602785934828 -124.4866921306143 M34.46677987890023 -41.62537229293736 C48.77246628781096 -58.0166807266102, 65.96472218452956 -73.69024316181174, 106.97443056429924 -122.62902213916271 M36.30419049644097 -40.237074460408245 C55.96143207757887 -63.846787352595264, 77.57908727202576 -88.377014051761, 105.74658544340035 -121.23857102316624 M40.02580024471425 -35.14750460608541 C59.31426727491609 -61.53158315302286, 81.00413354732885 -84.64453653506443, 110.65208921797814 -117.91303344723907 M38.867334881021385 -36.372750510621465 C66.8546633813101 -68.18298948837212, 93.80835207005573 -99.55328955684465, 109.54354229941946 -117.33075925794715 M42.96333328764648 -33.71821258763747 C67.80921245237269 -63.66834055818887, 93.65060674793258 -90.26961262349181, 112.58026243655928 -113.05483273003745 M42.701945864441 -33.81479433394213 C69.4783032238713 -63.474476845611015, 95.32890601992591 -94.37400166011902, 113.27426043006783 -114.21037461611658 M47.03349229573968 -29.669371887540144 C70.89649591560529 -58.11676278262598, 98.1189018621945 -90.03041301524624, 117.43523202555079 -111.48221279587499 M46.38890000788191 -29.308564461288903 C63.34974741460348 -48.23798517545969, 78.97344703069227 -66.90593971851538, 116.36269052446796 -111.16263449090107 M50.256477355682115 -25.539173589963656 C64.96244518954802 -43.28618486268555, 79.38543471012966 -59.589222785966385, 120.66236357817752 -106.34831643831176 M49.374287142065334 -26.51960652704028 C73.59902402784554 -54.93654904597908, 98.62408591171037 -83.48107200235253, 119.98678769222307 -107.75941485798923 M52.40774710546966 -23.680708793273016 C75.80478176459734 -49.8294440784145, 101.49127371467287 -77.9984688440111, 123.48757529270675 -103.67283067003575 M52.742338473858055 -21.946504450527772 C75.60358992424901 -48.35948661790004, 97.89088975185022 -73.0660641725788, 123.42933653765458 -103.4068385776159 M55.64877141244556 -18.628475750634212 C83.0006012386171 -47.67906813309662, 105.98158712314041 -76.43278215200884, 126.17662470512025 -99.27263473243906 M56.66763992097931 -19.496051367351065 C81.02044117865364 -47.51141702022291, 106.146576104079 -76.24734875643735, 127.17318688816299 -99.93386233241279 M60.95109122852004 -15.022232077115955 C85.89445314522939 -43.69275664041429, 110.59654520787642 -70.23048461678133, 130.56452261964418 -96.76359226499113 M60.02746471815524 -15.505935062390177 C86.92651989736014 -45.97517135003571, 113.54429428018679 -76.70089898938711, 131.4643633311219 -97.10556185855503 M63.019020232090185 -12.99871584938092 C89.89571819178245 -40.903119532467706, 113.10436290889076 -67.00769454082476, 133.25210572980288 -93.05201867730653 M63.85749204617081 -12.581285894769033 C83.49734981799745 -33.28542125238988, 101.98059751551087 -55.30228952969974, 134.26809895754388 -92.82925958027724 M68.26107277846944 -8.02559580616409 C85.47266215626392 -28.025226711827614, 103.57956093363167 -47.8564721300119, 136.77262802180041 -89.40381439472289 M67.48399120193963 -7.923817116086696 C84.4571303760512 -27.541533754311697, 100.41093733411287 -46.908683021387624, 138.31397088508444 -89.71232272141262 M70.91414666572408 -5.051794739984326 C97.07873734863746 -35.91944248249355, 126.82695364370268 -66.93706308073564, 140.79507506521023 -86.06654139579256 M70.97046462513589 -4.883177713715726 C97.42304919582901 -33.59353151385248, 122.28790711006612 -63.82703928029273, 141.20152875431708 -85.40310306324358 M75.48909804300526 -1.990072825743108 C95.56103397353026 -23.138798514437443, 113.61745746154084 -46.36665611103949, 143.5446976124253 -83.13969391833785 M74.73158852669845 -1.0159276858349808 C94.52178192714065 -23.490804377012985, 113.36147278295212 -46.65737298691186, 144.72249899683516 -82.24297782568527 M106.35173041615718 -30.68574404950875 C122.13676909831473 -46.25742111665054, 135.54502481187325 -63.56019739168457, 147.3405714008564 -79.33830005140405 M106.39109891206638 -30.960728111530074 C118.23275275489804 -43.51810136549886, 130.02654847982387 -56.03753953698288, 148.875951470266 -79.11356913238167" stroke="#ECECFF" stroke-width="4" fill="none" stroke-dasharray="0 0"></path><path d="M76.3063010079872 -1.251106427301754 C90.44655782633222 -16.822783236585934, 108.2900519664651 -31.713178416879593, 150.43427934715564 -74.31661253727593 M75.61645486388221 -0.5045255234517259 C96.69187151014931 -20.90304475387376, 118.14380116267674 -41.92139378039592, 151.57029400271546 -75.48060656458587 M150.59474779463756 -74.65221484576246 C132.17487102873508 -95.91001079526634, 110.7863741499178 -116.99341955892567, 74.71872584366255 -151.140610633268 M151.1811916617349 -75.34246573459366 C123.71573709215258 -104.24091007806601, 95.40653937041142 -132.00839413877884, 75.11179414207415 -150.83543956919436 M74.99221788003476 -151.2404890203813 C47.390008298907226 -125.05340846814238, 21.5572473703936 -98.65055856275639, -0.1632918652305037 -76.54847355165793 M75.62636084024814 -151.55578831157757 C60.54089753297087 -135.43190691459117, 45.69020438079953 -120.49545288574626, -0.5636898681849749 -76.29785991462849 M0.4176000681579465 -76.7592198251727 C15.655637758925772 -58.50855587273411, 34.502947809273316 -42.16784464255437, 76.77966570439405 -0.9718452383125175 M-0.5469705563067997 -75.82465745113467 C16.204525301331824 -60.47759716425995, 32.02422926387001 -44.48052415933285, 76.07379184393204 0.41266700581884014" stroke="#9370DB" stroke-width="1.3" fill="none" stroke-dasharray="0 0"></path></g><g class="label" style="" transform="translate(-36.6953125, -24)"><rect></rect><foreignObject width="73.390625" height="48"><div xmlns="http://www.w3.org/1999/xhtml" style="display: table-cell; white-space: nowrap; line-height: 1.5; max-width: 200px; text-align: center;"><span class="nodeLabel"><p>Streaming<br/>cheaper?</p></span></div></foreignObject></g></g><g class="rough-node default" id="container-flowchart-D-5" data-look="handDrawn" transform="translate(761.622184753418, 190.96847534179688)"><g class="basic label-container" style=""><path d="M-76.57184016247126 -38.73761228309513 C-76.57184016247126 -38.73761228309513, -76.57184016247126 -38.73761228309513, -76.57184016247126 -38.73761228309513 M-76.57184016247126 -38.73761228309513 C-76.57184016247126 -38.73761228309513, -76.57184016247126 -38.73761228309513, -76.57184016247126 -38.73761228309513 M-75.48292992662414 -31.6604320326455 C-73.21968091733916 -34.90585587038663, -71.26281606669484 -38.15450037465263, -68.94047223874504 -38.75049022652803 M-76.26199925441334 -31.794955219057186 C-73.74339053879879 -34.16737829904595, -71.84779001858529 -36.55722448740579, -69.37014120023298 -39.567525508381664 M-76.38013368523424 -23.80881889945326 C-73.76174086444823 -26.945992522842587, -70.13526254401943 -32.25269192600644, -63.055381031078795 -38.74757314828256 M-76.69604229653358 -23.247693393712087 C-73.24983697209545 -26.94957486858845, -69.18753215454828 -31.645166149218245, -63.792803119555096 -39.617493032652746 M-77.34114792036661 -16.69429843438563 C-72.46433897216487 -20.421420671308958, -68.28518174582204 -27.409775277763313, -55.99427274317188 -39.38858992571114 M-76.0924788103813 -16.599508854828464 C-68.7400674507358 -24.766913230712326, -61.3326312326223 -33.17302967128272, -56.83118120701473 -38.91719434787697 M-77.29710002362043 -9.103685252124208 C-68.26253515453618 -17.308654475438612, -60.82921355145094 -26.71561526769329, -50.22691464195974 -39.52429446347068 M-76.16088203976179 -8.855839028851147 C-65.91097842629824 -20.358065369841114, -55.2448863529638 -32.92712099331054, -49.02425559369178 -38.541566111193326 M-76.76001717316664 -0.9520798189483985 C-68.78193758770666 -10.514504317310164, -60.43645348107059 -20.511539519704304, -42.2946261746815 -39.002678740269126 M-76.04969324563143 -0.6170291197942158 C-67.44504779557059 -11.293122200973713, -59.10026877270526 -21.72190363538518, -42.768836554643684 -39.20411886965857 M-77.15368109328318 6.314491233175911 C-66.0205023856882 -6.0919559358122415, -54.68426898772858 -20.669189400187207, -37.317409579783046 -38.763720049695664 M-76.13484556361098 6.2446765032755644 C-66.12542215887814 -4.72802376434407, -56.829027841338664 -15.456452041798059, -37.28816241508249 -38.79051598786092 M-75.12119649613956 14.54866691047898 C-67.59718091836244 2.9294628372353917, -57.70139373071787 -9.01602514754891, -30.886607222015375 -39.09315345862936 M-75.74406736184501 14.423956164849251 C-60.41633396610057 -4.680768448832185, -45.24424395441451 -22.20961845520999, -29.67537741997921 -38.955539850753105 M-76.94309972881972 23.443973753036254 C-63.02205638411801 4.0801944465416105, -46.91033901165813 -11.25595976982346, -22.94774142724414 -40.084762209233894 M-76.78825486195257 22.22096328809636 C-61.220629923550916 5.3960038235826, -45.78126651250329 -12.958625929629134, -23.727091834564487 -39.134647112421014 M-75.57813604183542 28.838515439306267 C-52.73169328906724 3.0845970091047823, -30.89289259163553 -22.210457102617397, -17.569882316999184 -40.0450878762928 M-76.62381497122263 29.29243625361275 C-62.483737876160895 13.34100595765385, -48.18250355020602 -1.6668115539226585, -16.39255879508374 -38.855553003741605 M-74.86103157504775 36.39093305539368 C-55.81779267105212 14.232702146279069, -33.96823563642722 -10.191088130191705, -10.448227631044906 -38.73134261505688 M-75.92323500702162 36.742523266420996 C-50.45003721935476 7.783308796931257, -25.31480910688451 -21.06232455124352, -10.33735731227601 -38.71890854879551 M-72.38490354472658 38.74433723980794 C-48.03039442769209 12.794652181532065, -24.93624078173085 -14.482187117418752, -4.0486254221635445 -37.62576326617383 M-72.2586965692853 39.630786514705854 C-44.78176503792316 9.529363212254793, -19.345847295603555 -20.750426489729325, -3.2568771802770344 -39.54675406109446 M-65.06234407058122 41.083027193118795 C-49.023807544548994 19.583488865986755, -30.582115788002852 0.00033259883485420305, 3.264556252508432 -38.29372913046765 M-65.42959128268295 40.069097885039 C-39.56459439117066 10.250461432154541, -13.386819735231413 -19.969335116740208, 2.94766380081339 -39.48682342799946 M-58.94124773642196 39.932866316827784 C-31.882443058017763 8.104228658625306, -6.420851262378199 -21.48570821427219, 10.496325800657617 -39.679327612922705 M-58.10383148294814 39.19461354227553 C-43.0284020974983 22.223422719923356, -28.013917084672585 3.9518022313826067, 10.185295779767854 -39.6957506214695 M-52.45545042930846 40.33542078949374 C-33.52947896944393 19.043012416652456, -17.15949327454062 -3.342935841646459, 17.65285358337033 -38.42172802406828 M-51.913420304885655 39.95745615373121 C-30.652103855948145 14.857132289877846, -7.062538240700737 -11.551147506516736, 16.660162850763513 -38.192162195540455 M-46.28914028068702 38.53943493278019 C-28.345091792573925 16.75036093925213, -7.178299225557675 -4.3705316468877875, 22.085063063558444 -38.19323554015997 M-45.910751664154695 40.05470528877834 C-29.538330255734998 22.221103015889195, -13.544653719482866 4.332458902444456, 22.8332568306666 -39.561240473987134 M-39.44830347353058 40.13220347100584 C-11.828341133944054 7.926490531864673, 16.40967624673046 -24.01215917021386, 30.162635341780494 -39.108981085633154 M-38.49003470023027 39.07899414740774 C-12.539581056374072 10.265699377281681, 12.349402693741123 -19.072926091223085, 30.270493676353254 -38.817376332773556 M-32.075007507971705 40.239437231222496 C-7.7027814263814545 12.171640013609588, 14.14500091713992 -15.928312088196925, 36.84436128048879 -38.43941270360317 M-31.990630364875557 40.35697564971975 C-8.057439050276324 12.735821650333603, 15.584457152149835 -15.206854539991292, 35.72207487382717 -38.89264989588944 M-23.873105681097968 39.644918426877844 C-3.0345825139899625 14.686331742729436, 17.03716736763847 -9.484960433416207, 41.82023520127037 -38.62153871297751 M-25.219118724935935 39.10588175091628 C1.4452275637805962 8.53589751993178, 28.20802377681231 -21.15107070157461, 42.66993229457948 -39.566879743917134 M-19.11542868934307 38.122728286739346 C-3.4100581561807664 23.264796507540392, 11.170952865705285 7.12055975258173, 50.41325386726771 -39.58838635445445 M-18.52172708106864 39.45077668585438 C-3.6658001984675903 22.2136887911601, 12.345126107702786 4.429223023687234, 49.63973744862563 -39.53524568206432 M-10.867994385844423 38.876662541410575 C12.923966371241725 12.871033480956232, 34.896037368946025 -15.619646128318438, 54.70355234625222 -39.756301253071534 M-11.866103844303936 40.0195969289851 C12.084310646154261 12.588301791586618, 34.60066338906776 -14.854609814987592, 55.8202087111247 -38.30811526387287 M-4.724900095343484 40.23756649644014 C8.534739613895303 21.25169350000063, 24.823788355255108 5.724402878188397, 62.50356890727678 -38.68868109276905 M-4.688511992296135 39.853229706662795 C21.57871610527288 8.216962804254717, 48.79000432423287 -22.33990625078743, 63.27620879242865 -39.687068207791334 M1.4333935964913507 40.31907275780737 C15.344008236229314 22.20795513419448, 29.069994666009126 5.609778799316817, 68.35002354503419 -40.330537891787365 M0.9582349280273131 39.487359467524996 C24.852016553443043 12.181430622063825, 49.251997571763866 -16.916629812873904, 68.76677464283735 -39.05142313056412 M6.19565696299056 40.94555157435216 C26.416877104152576 16.570856919838167, 45.04081293647381 -3.965950656811343, 76.87689063128985 -38.871426902385096 M8.1714674603892 40.321553713323674 C26.07689905685225 18.820704401218528, 43.49061673956698 -1.7041037815381235, 76.20058202364709 -39.01426918227855 M13.790719723636307 38.80091371327195 C35.32271870223878 13.442212410307977, 57.63986062051639 -9.528012430117379, 76.83108073247013 -32.746326003669914 M14.881573961240484 39.59918448711866 C28.380710870601444 23.16852616452598, 42.80392584505345 5.869385972336728, 76.55174394001743 -31.819467093524963 M20.38829077234724 40.47756851938399 C40.06531777904592 18.15707040632497, 55.96721871924927 -2.5605105467558307, 77.12742435460102 -24.988290129741376 M21.06355307516234 39.23703995917626 C35.3597364027363 23.72890074522582, 49.97670809880693 7.354788953417226, 76.65904408558453 -25.2467994101825 M28.35605303017436 40.97713282184146 C47.45557676167703 16.960519199524207, 64.59722140973182 -4.015781092191099, 76.81761702087003 -16.46035026788858 M27.014884601827372 40.25704286300259 C44.030518508917794 19.349915138475325, 61.78720424994962 -0.27692227959840493, 77.00284502166788 -17.089608313145547 M35.39613007188467 40.033084447675854 C48.5411647487704 25.12767893009118, 60.26689510475219 11.34104338634036, 76.0458878545375 -9.898015942122296 M35.012389927371125 39.58171996779665 C47.446556326120465 24.595338855861144, 59.03367607206915 10.12790306697378, 77.7341160899713 -9.852984818486773 M40.64115207069656 39.51251292237921 C55.72018249394204 24.675409615249645, 68.337779273202 6.878681265184963, 76.21894781504878 -1.4982330134415645 M41.518479099544 39.54649041614995 C52.80132030668991 25.398922774204063, 65.02944462747348 10.995226379078751, 76.73451764747821 -1.710622871632153 M47.747477924212646 38.75037015338463 C53.993496788094426 33.7137639583254, 59.57921078425983 25.900626531042402, 76.4185719209466 6.805656974582495 M46.871140042818844 39.46451206530874 C57.7404395521475 28.664402706247486, 66.32956249735065 17.22618887390112, 76.73863112681423 6.42477807506424 M53.58255662729148 38.227327176446536 C62.89096773178554 29.663957046376293, 71.65216030474929 17.750232414923644, 76.58636953805315 13.900744735824345 M53.66037184965025 39.1829204709027 C60.26128464053204 32.9238850311486, 65.66981644561199 27.185835727752092, 76.18495519885822 13.915087316397358 M60.154699506072596 38.91906851183452 C67.15436568878255 33.17434523791709, 70.73115550546743 26.460936263000722, 78.14537201912502 20.73245546433466 M60.40603756364899 39.85103015490403 C66.20435603983229 33.1248318333558, 70.79939343831937 27.664026013946444, 77.34148730450535 20.344780283077665 M66.13610550011038 39.89247146652591 C69.88140896429337 36.335454907694725, 73.62880690878237 33.17101288581116, 77.17167851268046 27.768532772162754 M67.17300183886734 40.18106374786 C69.122770590511 37.17741540383297, 71.9663680120009 34.82469151241795, 76.6321119695552 28.22218649099803 M74.35630680178087 39.15759487587863 C74.80497696002534 38.53696627439104, 75.20205164790612 38.118416321823084, 76.54801977586548 36.28056888728184 M74.24009082731457 39.3613459343128 C74.84447661933191 38.388904994865605, 75.74847604699971 37.672261395074486, 76.68387062205905 36.42181192027215" stroke="#ECECFF" stroke-width="4" fill="none" stroke-dasharray="0 0"></path><path d="M-76.59839315007935 -39.126516590880186 C-25.45070109145867 -39.26657868476749, 23.342153046521172 -39.40368437353624, 76.4996545333172 -39.349617982362346 M-76.54831062868614 -39.38260405483971 C-28.698430715990863 -38.29769432305736, 20.389192677076146 -38.10923627934685, 75.69656088580028 -39.09483616901253 M75.52250304620144 -38.904830164840035 C76.97036591552775 -13.96898307288575, 75.7255790693653 9.728882004056352, 77.19316321697852 38.055766262422914 M75.78257743671296 -39.35400552494092 C76.21402886770696 -15.156337952578355, 77.15210686706898 7.501167339047364, 76.9968736208147 38.498394531407996 M76.1949641433389 38.06266475635147 C28.50539820487488 39.26962047984305, -21.761185455546023 37.73945149616589, -76.42481992267756 37.74759822652805 M77.01073960527971 39.30222351796217 C37.90694348613925 38.515659611816304, -2.143495276102225 39.30523113411122, -76.48158352079255 38.427278235843005 M-77.2828511363862 37.83650571931441 C-76.93518372252882 11.114930877097546, -77.16086760760237 -14.455850507722673, -76.23414908724989 -38.08001526879403 M-75.74355827602567 38.84325564765204 C-75.789525819395 13.342838993627876, -76.79209322659945 -11.316359078305549, -76.70225398036644 -39.53645614257365" stroke="#9370DB" stroke-width="1.3" fill="none" stroke-dasharray="0 0"></path></g><g class="label" style="" transform="translate(-46.34375, -24)"><rect></rect><foreignObject width="92.6875" height="48"><div xmlns="http://www.w3.org/1999/xhtml" style="display: table-cell; white-space: nowrap; line-height: 1.5; max-width: 200px; text-align: center;"><span class="nodeLabel"><p>Full bulk<br/>copy dataset</p></span></div></foreignObject></g></g><g class="rough-node default" id="container-flowchart-E-7" data-look="handDrawn" transform="translate(965.3018035888672, 145.47635650634766)"><g class="basic label-container" style=""><path d="M-75.01690235850447 -38.71093846532652 C-75.01690235850447 -38.71093846532652, -75.01690235850447 -38.71093846532652, -75.01690235850447 -38.71093846532652 M-75.01690235850447 -38.71093846532652 C-75.01690235850447 -38.71093846532652, -75.01690235850447 -38.71093846532652, -75.01690235850447 -38.71093846532652 M-73.8994798383145 -31.729572807123468 C-71.58478785787739 -33.92798147525773, -69.87589428592457 -37.12560451440587, -68.4426143863042 -38.91147140731504 M-74.39824581798963 -31.33200886225037 C-72.91365448256765 -33.72476410121804, -71.35964716298416 -35.061093798869415, -68.12335934228408 -39.08477132842966 M-75.54634344298753 -23.495968049843025 C-72.01957114699377 -28.22821685480971, -67.17116812136628 -32.1138739758572, -62.251051931355555 -39.651759703969944 M-75.014281163736 -24.049836142114817 C-70.67123931411788 -29.01880368675972, -66.4575188988386 -33.31421075607851, -61.35107798868326 -38.6106937522653 M-74.12332385974723 -16.072263337012963 C-70.46186153502315 -22.666158452593574, -65.8765437760778 -27.129518252988465, -56.1544454925574 -39.49719282823217 M-74.46589578223426 -16.371333767564238 C-70.25527297960379 -21.913319568903624, -65.10828860028421 -27.51506080121416, -55.44963584488997 -38.371120663110716 M-75.93751790014404 -7.259518853435459 C-66.23372675104098 -19.17387158072517, -53.75712873024968 -30.24035208508347, -47.3509062913675 -38.25931391123143 M-74.96313411232111 -7.619576288661737 C-69.2930784168899 -16.219123546747053, -62.60615709460157 -23.101866252471524, -47.60884775040733 -38.899548503386775 M-75.67777557070535 -1.8499364468113364 C-67.00119476391764 -9.84638499973492, -59.64458695826538 -16.733905668754623, -42.41442058871603 -38.18343861965717 M-75.00766278540506 -0.7104182634510954 C-61.65653688165771 -15.17422397929331, -49.84852829706962 -28.745591307799017, -42.170188279599834 -38.45908925528555 M-75.68647708538052 6.994851647906497 C-65.74276620145318 -3.8182911794476957, -53.39048959995358 -17.022050176284832, -35.83410297278334 -39.91635721250671 M-74.72767454544864 7.265173997394198 C-61.35706570120057 -9.24099376239572, -47.64146225947086 -25.11378516584391, -34.884922611626976 -38.04680086373901 M-75.91439761209455 14.57007915895383 C-56.86702673414803 -5.826181053016738, -39.88552020052559 -25.21050117465339, -28.1491208758759 -39.61477203508405 M-74.71898959408705 14.978751011181389 C-65.00214151903697 2.7677639931495013, -55.23338329350225 -8.843050624152374, -28.315763403385834 -39.583308718306476 M-75.84427157380524 22.552908030636587 C-59.276218747352004 3.1401958083481354, -44.36228293353446 -13.48323200199972, -21.73241777476741 -39.954046335514896 M-74.54871475681244 22.05248699008154 C-60.42640666902609 5.33106660638941, -45.07994666677254 -11.268671829563841, -21.346411580564943 -39.146561145702435 M-75.00581810576767 29.905848013616115 C-58.12316253357392 12.6414835587747, -44.46816635046408 -6.005074187298167, -15.743103682848687 -39.46485751336514 M-74.15063511776637 28.624899039562514 C-56.30878033531102 7.369903138578105, -36.41534019405294 -14.033098674395589, -14.707178768490682 -39.78370505582771 M-75.5049686183965 37.52422814272703 C-61.73901844978226 19.826329866553557, -45.199561933127036 4.173487027362368, -9.161503632804221 -38.381715407473635 M-74.13508486260213 36.49383747520808 C-48.989850429081564 6.305975705633714, -22.27978108552983 -24.012321569608147, -8.717492457720942 -38.52271633988132 M-70.09201785218654 39.36603559483804 C-55.71031611437532 23.298686083828603, -40.9110570170192 5.721054589724048, -1.0988406633937617 -39.350506776406625 M-70.20698431757953 40.00979982072297 C-56.170396826516466 23.418255148832632, -41.80447723608344 6.994175649789583, -2.361656205759436 -38.92566330697879 M-63.24220660249267 40.89202284169744 C-47.59573380477741 20.164761407278625, -30.411402294870566 2.105382117295362, 6.174606583856464 -40.03434833717721 M-64.28392288865183 39.40055493901095 C-36.162012307242456 9.090744431280855, -9.230895101346263 -22.53037379819626, 5.266967731956389 -39.67126577282442 M-55.55974277949438 38.0402300049276 C-37.68061828236537 14.213741551370706, -15.3397532035026 -8.824241044364745, 10.305849321946067 -39.07555636817198 M-56.37570997147652 38.76129568753613 C-29.837374658557785 8.12885725820874, -2.8912081426992406 -22.572200629662134, 11.115052686722136 -39.515626401552154 M-49.78645766808462 38.86005159443119 C-35.52180358701062 21.862339303737308, -21.04375104134706 3.6901171440622873, 18.60818624070258 -39.72158748080423 M-50.92540132826361 40.048768342613215 C-24.117158816752415 9.999310552221134, 2.4648604559194807 -20.972059110374847, 17.67094810842419 -39.021290926547614 M-44.21356194899673 38.229561135775334 C-22.5151701367069 12.854572152558863, 0.2933904144514665 -12.23265577501877, 24.354483588352643 -39.93740584745441 M-43.65664448573375 39.18392462749124 C-28.583902124542043 21.94626728022688, -12.782060938479086 3.9505494781190826, 25.313850163791965 -39.10767844588941 M-37.29451802224642 40.684058805999925 C-17.331251148960014 14.164395993905107, 5.468176046807919 -7.3064543674958164, 31.298077363735718 -38.44695962087944 M-36.33224204156782 39.38238297663546 C-16.949471061449213 16.88476294601557, 2.791448393886865 -6.208633617843692, 31.457397916652933 -39.245792535834696 M-31.82063917889567 40.167778155047 C-15.33406693597322 22.52922395010563, -3.012467949356637 8.318264425436377, 38.19331154701429 -39.92904797934905 M-30.493077541511393 40.1681886993922 C-14.176357935847488 19.640370367967616, 2.4908665785386463 1.047570057325693, 37.430672264108 -38.86446244763459 M-24.77323726416879 38.72496660327868 C-8.494998324527415 22.952370831007162, 6.089658838004422 6.698557310148935, 45.22597915594278 -39.39782462940498 M-23.630677898825972 38.77661582871185 C0.5573784059452183 11.965233115219801, 23.982972575886205 -15.246006246181544, 45.00453044793505 -39.55640001011854 M-16.844581795148557 40.462607769958744 C4.401561814037417 15.345023964313185, 25.592894824688425 -7.806789492581991, 51.64905172132942 -37.76630681040095 M-16.991402401203853 39.10668093213105 C9.639577870676666 9.936916592653995, 36.01758545652284 -19.65011185168405, 50.661391313463575 -39.62653524330215 M-10.232405340709082 41.048683583863514 C7.853067510644941 19.690602881776115, 25.786118149824865 -1.2511339085478135, 58.64907305767083 -40.07383926968698 M-10.206269868077399 39.38876763616815 C8.256393786964228 17.224403665500766, 28.59337722876618 -5.599007010863492, 57.03002811410602 -38.95468860027914 M-3.2314656173868825 40.34431305820983 C11.627343751673584 20.89530881037029, 28.752302652487998 1.9417308671071658, 65.52010565315719 -39.186206509749724 M-4.320558827354441 39.09667404998483 C14.699032080565393 17.639400352982385, 34.33149724819666 -3.000868082785761, 63.99503046728628 -38.65780641022838 M3.483609666454748 39.30897637333913 C28.118715312137954 10.960317832231246, 51.06953497828678 -17.003459134972914, 69.90502854533712 -38.424018171318764 M2.9496788938582674 39.0892457667901 C23.10890743951005 14.452361905019762, 44.988307329669745 -10.34892541063257, 70.59189551330125 -39.0812002186598 M8.634570319025773 40.06474579282827 C30.278292515988085 14.89242126153447, 50.800940611438506 -8.339352612233187, 74.43515379291784 -34.75466829564653 M8.651990166628126 40.135986252985205 C32.30192447031056 13.978574820875695, 53.901691875542156 -11.115474199774175, 74.28082498311585 -36.14540902118476 M17.1654957773777 39.34322477522885 C39.434126202452916 13.492382803586878, 59.18464764429858 -9.911497636350823, 74.34080373596082 -27.16389685011208 M16.821762549120994 38.97197302924541 C31.97922287522354 21.23467088956985, 47.859776614790256 3.5124016833904994, 74.38396529312082 -27.24634867838076 M22.118043778766726 40.8024407108046 C40.67518966129043 20.318770885697084, 55.630755706288184 -0.24719095981151162, 75.50103841486226 -20.940232655530927 M23.271833839290334 39.48510010536928 C40.21990436221737 19.98920780798382, 56.04152969946727 0.6243128306845077, 75.2620459999067 -20.39169605951921 M28.20073721828401 41.015549186371004 C37.50811335463493 29.28137134839223, 49.44206397897393 17.958964574252004, 73.69486632998273 -14.06901445496473 M28.7876065725512 40.19049992785486 C44.575681746400605 21.6124782917973, 61.576643011375296 3.0214699575459116, 75.33695776478211 -13.641565632364312 M36.73443690439139 39.65690197913192 C47.15008521126983 24.509439778639447, 59.411189892880934 11.161271448717736, 75.44549137441541 -4.773845664680287 M35.896764010308296 38.71908613827485 C50.06065525319452 23.156891938159472, 63.41521031748261 7.619602417007813, 74.92863034549528 -4.938565851987898 M41.4098086406927 39.853606425355586 C52.68315427395216 27.421809865365073, 64.92091653768978 14.005875427406773, 74.70399355626796 1.5130802126607859 M42.506993319318894 39.19360445972464 C54.53890026521377 25.279461117289, 68.16636094336893 10.965672479181794, 74.10682444563673 2.544304156576677 M50.105029314641186 40.24179279128691 C55.46313104167741 32.154625952702894, 63.80522873758456 21.156311616728892, 74.35343357014602 9.223880192913773 M48.178297276801594 39.3905441860923 C55.06030937663866 32.77442202683792, 61.90486198487331 25.676527849912873, 75.28859463156748 9.920788442371173 M55.50528929590532 38.311952400519935 C60.52566537542235 33.34379076206428, 66.14134904075583 27.818809429776838, 74.05392139124231 16.188315665565494 M55.984967231793725 38.69380440440121 C62.65215503981232 32.61924221488024, 68.8597851809438 24.855896616681083, 74.25817770155689 16.873823052655755 M63.365232845339754 38.44234468142249 C65.83403935898735 34.58039631569888, 71.69133131421204 28.292814839410486, 74.45080118112725 24.42524438661742 M62.821266878747615 39.49503285244598 C65.43525529330807 35.78960367629912, 69.59925173083911 31.215978571772794, 75.33596756495318 25.493244913088464 M69.23245582964144 39.89348672306499 C70.61322478765518 37.300194989569995, 72.94361110134662 34.868382520305296, 75.05774782959838 33.06907809333586 M68.57348028559085 39.81063603355781 C70.48034398674335 37.876361912219515, 72.37775267318248 35.43581173981018, 74.54846876641164 33.05000973726848" stroke="#ECECFF" stroke-width="4" fill="none" stroke-dasharray="0 0"></path><path d="M-74.80301285149659 -40.28678514479587 C-15.168269652327318 -39.157014943487994, 42.01085269128788 -39.26641456904331, 75.58781773649739 -38.81569784811651 M-74.25499967582977 -39.06646923019246 C-34.572908233254836 -39.813495633477494, 6.783825587228655 -40.26750239503598, 74.83806737790266 -38.91101352667662 M75.93519927832453 -40.26629480958781 C74.58875481417277 -15.68917728906875, 75.43653222638173 8.665234592728542, 74.32238502783916 37.620189317640346 M74.59374233455138 -38.71591552020994 C74.46090782772256 -21.716744648590076, 74.12228230531689 -4.330364361591588, 75.19946042624315 38.3909336542957 M74.55922288609017 40.162245322451334 C40.08541206209175 37.9119605583472, 6.537137925711296 38.68807835399502, -74.93215002176765 38.16641043352529 M75.35781853945528 39.65610944872995 C35.514350125354184 39.64106309277867, -4.6053538654749975 40.30027922036434, -74.65441665494791 39.117680794877074 M-73.80541537050487 39.56074101882503 C-74.77406773493107 21.664602068329675, -75.67127461385122 6.831497661114542, -74.62659452009532 -38.63644742389033 M-74.89294737566784 38.342746736599544 C-74.9814342887208 13.103987766825012, -74.71295637398605 -14.14920406844487, -74.38944405235236 -39.49464768087657" stroke="#9370DB" stroke-width="1.3" fill="none" stroke-dasharray="0 0"></path></g><g class="label" style="" transform="translate(-44.765625, -24)"><rect></rect><foreignObject width="89.53125" height="48"><div xmlns="http://www.w3.org/1999/xhtml" style="display: table-cell; white-space: nowrap; line-height: 1.5; max-width: 200px; text-align: center;"><span class="nodeLabel"><p>Stream from<br/>queue</p></span></div></foreignObject></g></g><g class="rough-node default" id="container-flowchart-F-13" data-look="handDrawn" transform="translate(1158.7654647827148, 145.47635650634766)"><g class="basic label-container" style=""><path d="M-66.10111576278676 -38.910641380562296 C-66.10111576278676 -38.910641380562296, -66.10111576278676 -38.910641380562296, -66.10111576278676 -38.910641380562296 M-66.10111576278676 -38.910641380562296 C-66.10111576278676 -38.910641380562296, -66.10111576278676 -38.910641380562296, -66.10111576278676 -38.910641380562296 M-66.01448839348436 -31.373056937185115 C-63.78071373947439 -34.41254013267704, -61.62334334966211 -36.37270778493613, -59.15347409873133 -38.19068319221698 M-65.94057215550015 -30.839702383682415 C-64.83170355858405 -33.082704234056465, -62.83570977298424 -34.280739116193025, -59.88940903554053 -38.37318200701482 M-66.7922330516857 -23.34846630643814 C-63.8910269330876 -26.647825223380792, -59.40711899159669 -30.168044723958076, -51.66629610464514 -39.271185421900974 M-65.16147634924415 -23.721040692184502 C-62.71491213881027 -27.411211439529115, -58.59149576491404 -31.414206099429222, -52.46984456038128 -39.441394380554215 M-64.9264027410731 -16.711176792363123 C-61.52578651715445 -22.417930827412153, -55.72216714723491 -28.527623277319826, -45.381215808103796 -38.95836548954849 M-65.85048992164079 -16.74793842207272 C-58.35292555028907 -24.993239019422244, -51.431047995668955 -32.66209285706753, -46.46139992214282 -39.15904260070769 M-65.05860584524206 -8.023159575216521 C-58.90237683828401 -19.06429445915014, -50.34500579094365 -28.125141951241375, -40.576702940369756 -38.1320114961559 M-66.56345957703411 -9.03996159636526 C-55.723121100586276 -19.807812815558723, -45.17236729514501 -32.164402815389415, -38.62840918105242 -39.01981661204107 M-66.16402629602429 -1.544556034123489 C-54.511228601469625 -13.947361911587523, -42.92649867603454 -26.479329668449942, -33.11192480627828 -39.18729108038804 M-65.71168256201173 -0.5389467948661955 C-57.09479701637235 -11.752261269456215, -47.33928950366083 -21.402114488972153, -33.36237266545996 -39.5247769418647 M-64.71238879205976 7.115064645202194 C-51.97640754186368 -10.28933459311403, -39.41214593955127 -26.563188177188497, -25.487798617213503 -40.056294284924896 M-66.14889390066735 6.155036629104295 C-54.33831790446692 -6.099901408932653, -43.68671683467668 -18.164872463177453, -27.09579424735804 -38.22810666424724 M-66.0465211624831 14.640458087847488 C-51.70122463358242 -0.22069750831542168, -38.70084151644318 -16.108243968141597, -18.204889091763715 -39.8484303055378 M-66.4040584167822 14.699688755418231 C-52.57695269256652 -0.7956922187570308, -38.665964810072325 -17.35786475332269, -18.769894931862503 -39.7102533628421 M-67.04823960204415 23.14115792388127 C-49.80312262539207 4.6300368275821855, -35.16581908323844 -14.543048357960112, -14.042205665678319 -39.729047122233986 M-65.57086853318378 22.239266996675596 C-54.016361620336546 7.737917487808827, -42.488391867577946 -5.960594555715984, -12.562012373472724 -39.18179217270584 M-67.03783520697786 30.156982514958333 C-47.13927797829523 9.06247687338541, -28.53911789599992 -14.012572965357, -6.360126493535717 -38.78517102264 M-66.72900672051699 30.246285792573268 C-44.069071850100784 3.4215120168408575, -20.486734906657457 -21.965619507521964, -6.149025100481276 -39.234006443147706 M-65.32180479359694 37.334428069510814 C-45.762359013577225 13.64314604616857, -27.8658119871086 -6.785284588006886, -0.658228348368574 -39.73508430030534 M-65.27052244146584 37.00560148984737 C-48.79370006785165 15.7574020789156, -30.991154567146356 -3.7873205957271296, 0.1330663646203103 -39.69586952423001 M-60.58585737937472 38.40250149642268 C-39.32561379320322 15.845381427526137, -20.509000665806038 -8.586586023893618, 7.989686679852847 -38.33768398481443 M-61.30497969481117 40.04124971999915 C-36.96867716509965 11.667128519604413, -13.294535543658782 -15.209633146304546, 7.101022771109298 -39.0245511908639 M-55.99019623971604 40.810606383934335 C-39.50560146393783 21.155604484688592, -23.860254327175213 4.726654306946291, 14.295925075475322 -39.520712836047494 M-55.02724457912014 40.20939354423258 C-30.89638485333837 12.681962544197985, -7.7332127165822255 -15.781823563764934, 12.81636878209489 -39.31683373785939 M-47.09809826447576 39.72592233924613 C-31.917520714909518 20.86361874439246, -14.339830081746468 2.160453429024365, 21.40826492228862 -38.2637476962258 M-47.8892847147434 38.5415314066443 C-23.319108106375324 10.77465235077705, 2.6997046167871406 -19.518244694217753, 20.21760150316826 -38.93787539706909 M-40.747713054377094 39.94855061124824 C-13.783505291853151 9.867521178032133, 12.99802332931778 -21.947118357570133, 27.7387021285346 -38.61765880302861 M-41.189972687179385 39.13032412597999 C-18.003036946034406 12.769663083032803, 3.845071885708336 -13.00039272440196, 26.378463246974317 -38.93387085032011 M-34.24130289254923 39.2959159586443 C-11.74948135058982 10.080663877047305, 13.977663149047277 -18.068362495816498, 33.49180814735399 -37.87400340658432 M-35.751101820870474 39.4636276558346 C-20.702399342891937 21.97572437766298, -4.437804711401623 4.618370057155762, 33.073754838608785 -39.32832643670029 M-29.399308701400823 39.103351961239674 C-11.779649390274548 19.238568590412438, 5.15596897801133 0.1837801909867276, 40.22684200814581 -38.004682543041525 M-28.21223886069534 39.467948944268485 C-1.855756897879583 8.301972632406722, 25.10563953260139 -21.051627771020314, 40.21007024086765 -38.73554156870034 M-22.75196868075472 39.93089908409007 C3.3940803800661707 11.509958571490571, 28.508203745018832 -19.139804720629723, 45.70898322535461 -39.42533207719015 M-21.24572439673318 39.8404420738873 C5.461742052538828 8.470482033711118, 32.64883245274048 -22.71248350568893, 47.0645857372128 -38.327610670154584 M-16.56520233636164 40.052381395398626 C10.507579245339695 9.748265778888344, 39.20741560118983 -22.04397681535875, 53.600912625641875 -38.94059765879566 M-14.88538996717789 40.31893689573616 C10.963140601930494 9.217461483752896, 38.74473714992353 -22.69882139225425, 52.524383816210154 -38.50045830268601 M-7.861993710931327 39.50657435466347 C7.815576979836806 21.408363534298545, 24.06256863090593 1.8321566192177512, 59.462834986165745 -37.981116467256044 M-8.531647479086734 38.72557904522036 C6.632646267179416 23.750366724511068, 19.719324664484105 7.928846465297847, 60.2773481942558 -38.728214153375745 M-2.9418585053533546 39.10898892582284 C20.594190486358144 12.9308867526556, 43.916667074214665 -13.722977874647476, 66.31700499220356 -38.73063188906007 M-1.5914628293864534 40.0821403645935 C21.80811408667806 11.835441369853426, 45.812616544640754 -16.58812791375917, 65.98053007782258 -39.45825758237524 M4.2239935936018735 39.24019958270891 C18.919632569686062 22.847811709665198, 34.18343399521044 7.01104343710104, 66.4417503629529 -31.382128934444857 M5.038656277786109 39.7222926544114 C18.719672819790766 24.492341552464357, 31.18285428117533 8.173814329413846, 66.46689621329988 -31.251470432107816 M12.420732205765702 38.52382601747458 C31.359556817297243 16.41678415321345, 54.03407510361572 -9.984428170404914, 64.77238697704776 -23.52195968673473 M12.3212568985808 39.19635031890614 C31.390139493494015 15.797494806996975, 52.58753151023373 -8.063155236476462, 66.51122489700454 -23.47312539492379 M19.264410442001147 39.487153984059795 C32.29228439098409 23.330061248040064, 45.92930196243942 7.620520905548016, 67.08089162279272 -15.496011933866466 M18.131541082994417 40.14816786422083 C29.90585625477594 25.613068344988207, 40.84475880930118 12.906825945397335, 66.5524566118899 -15.098522763576337 M24.8885439008677 38.87740372601064 C34.43949559060286 29.07894305513146, 46.06865518967449 16.947233822998605, 65.40510760536854 -7.447366336594911 M23.797818286908676 39.929569468959244 C35.92326730446817 26.019375028254117, 47.54328120752268 12.48358109567252, 66.33673710221905 -9.183966373155254 M30.243117030823868 39.38738845539448 C39.32154946354474 31.441468748868434, 47.304799909124476 20.165941636947966, 67.66841375616853 -1.064439807332204 M31.528357845899702 38.88915273962671 C41.28278182663525 27.157007626553046, 51.97872071022697 16.538427057161314, 65.92925221171745 -0.6128921912771773 M37.796419686176804 40.38510191558975 C45.533319171034144 31.166303933493047, 55.39212888591987 19.72800451458902, 65.59739089798457 7.923279466763462 M37.35017368275934 38.91307103537338 C44.50467146310841 31.405834179395402, 52.55477720712437 23.695098799686495, 66.13350567298467 6.732599128076357 M43.21132901261241 40.57132312361003 C52.20381454879778 30.4969090712086, 60.60099669829957 22.367385354896438, 67.17747662571551 14.883191502520269 M44.116402889446306 39.34112167085015 C52.34213915053036 30.625214958111876, 58.982184883470104 22.825935624627615, 66.34368903770785 14.404479309172139 M52.52915990073403 38.695048129176975 C55.65753103911552 32.812727973704746, 61.17985135476857 27.978909645685956, 65.18372236267017 21.18378245079939 M50.93916035050324 39.95434076534981 C57.276289231479964 32.917112834142266, 61.72346751378745 26.68331531212891, 65.97341545699203 21.894446649856327 M57.88431707096884 39.266558979005644 C59.99870952273606 37.30400568815314, 61.96707609509285 36.02969823997135, 66.92781723524467 29.088006317807526 M57.3316776205828 39.432969702721564 C60.3034623477705 37.02427191612846, 62.66051829130354 33.97692984950838, 65.9773106021441 30.213256375246406 M64.0564592560981 39.703034557814405 C64.94350560314165 39.02117808961231, 65.27353856397335 38.56722471156453, 65.93736515342968 37.636514689865955 M64.22276946689523 39.965169099025985 C64.77885535225296 39.32591845050826, 65.25960022073208 38.65184790499428, 66.19559760122053 37.656344108406216" stroke="#ECECFF" stroke-width="4" fill="none" stroke-dasharray="0 0"></path><path d="M-65.26031650082267 -39.28468458520739 C-35.65237466566691 -39.986049230188776, -6.673421274127705 -39.03880340936042, 65.8150489372413 -37.924054245294684 M-66.07601057338141 -39.078813698709986 C-33.06780608527752 -40.25192292603878, -1.0232657660764715 -39.103359367865785, 65.54872352936974 -38.70834020029613 M66.31138409601434 -39.3988725416244 C64.6703666598819 -23.88020001658552, 65.93155076950063 -8.625647435520431, 67.30797907911933 37.695375691090945 M66.70274601984413 -38.72188405388807 C65.43894728451563 -17.29928144984235, 65.47208719069586 3.2714023441582505, 65.58082833719195 38.660769943096966 M65.48764692832836 38.95618652803152 C18.178805177002612 40.72587369971714, -28.651163938030056 39.27375368226097, -65.6316811839462 38.79448166606839 M65.98107798951834 39.69834902723485 C22.638761671592178 39.29899204007523, -21.618809303377848 39.62858404050276, -66.04244049899293 39.10252179830903 M-67.38619524882803 38.45067866699176 C-65.76972753069379 14.674982691706667, -66.68251534944416 -8.452252306636042, -65.63783194695486 -39.148976939970915 M-66.2865595186102 38.55476450908424 C-65.76204067297466 12.171479166845224, -64.96172123614197 -13.808342348708772, -65.56652409508712 -38.95461480316867" stroke="#9370DB" stroke-width="1.3" fill="none" stroke-dasharray="0 0"></path></g><g class="label" style="" transform="translate(-36.0234375, -24)"><rect></rect><foreignObject width="72.046875" height="48"><div xmlns="http://www.w3.org/1999/xhtml" style="display: table-cell; white-space: nowrap; line-height: 1.5; max-width: 200px; text-align: center;"><span class="nodeLabel"><p>Replica<br/>caught up</p></span></div></foreignObject></g></g></g></g></g><defs><filter id="container-drop-shadow" height="130%" width="130%"><feDropShadow dx="4" dy="4" stdDeviation="0" flood-opacity="0.06" flood-color="#000000"></feDropShadow></filter></defs><defs><filter id="container-drop-shadow-small" height="150%" width="150%"><feDropShadow dx="2" dy="2" stdDeviation="0" flood-opacity="0.06" flood-color="#000000"></feDropShadow></filter></defs></svg>