<svg width="760" height="68" viewBox="-11.713478088378906 -11.817584991455078 1370.0562744140625 121.85980224609375" preserveAspectRatio="xMidYMid meet" style="max-width:100%;height:auto" id="container"  xmlns="http://www.w3.org/2000/svg" class="flowchart"   role="graphics-document document" aria-roledescription="flowchart-v2"><rect x="-11.713478088378906" y="-11.817584991455078" width="1370.0562744140625" height="121.85980224609375" fill="#ffffff"/><style>#container{font-family:"trebuchet ms",verdana,arial,sans-serif;font-size:16px;fill:#333;}@keyframes edge-animation-frame{from{stroke-dashoffset:0;}}@keyframes dash{to{stroke-dashoffset:0;}}#container .edge-animation-slow{stroke-dasharray:9,5!important;stroke-dashoffset:900;animation:dash 50s linear infinite;stroke-linecap:round;}#container .edge-animation-fast{stroke-dasharray:9,5!important;stroke-dashoffset:900;animation:dash 20s linear infinite;stroke-linecap:round;}#container .error-icon{fill:#552222;}#container .error-text{fill:#552222;stroke:#552222;}#container .edge-thickness-normal{stroke-width:1px;}#container .edge-thickness-thick{stroke-width:3.5px;}#container .edge-pattern-solid{stroke-dasharray:0;}#container .edge-thickness-invisible{stroke-width:0;fill:none;}#container .edge-pattern-dashed{stroke-dasharray:3;}#container .edge-pattern-dotted{stroke-dasharray:2;}#container .marker{fill:#333333;stroke:#333333;}#container .marker.cross{stroke:#333333;}#container svg{font-family:"trebuchet ms",verdana,arial,sans-serif;font-size:16px;}#container p{margin:0;}#container .label{font-family:"trebuchet ms",verdana,arial,sans-serif;color:#333;}#container .cluster-label text{fill:#333;}#container .cluster-label span{color:#333;}#container .cluster-label span p{background-color:transparent;}#container .label text,#container span{fill:#333;color:#333;}#container .node rect,#container .node circle,#container .node ellipse,#container .node polygon,#container .node path{fill:#ECECFF;stroke:#9370DB;stroke-width:1px;}#container .rough-node .label text,#container .node .label text,#container .image-shape .label,#container .icon-shape .label{text-anchor:middle;}#container .node .katex path{fill:#000;stroke:#000;stroke-width:1px;}#container .rough-node .label,#container .node .label,#container .image-shape .label,#container .icon-shape .label{text-align:center;}#container .node.clickable{cursor:pointer;}#container .root .anchor path{fill:#333333!important;stroke-width:0;stroke:#333333;}#container .arrowheadPath{fill:#333333;}#container .edgePath .path{stroke:#333333;stroke-width:1px;}#container .flowchart-link{stroke:#333333;fill:none;}#container .edgeLabel{background-color:rgba(232,232,232, 0.8);text-align:center;}#container .edgeLabel p{background-color:rgba(232,232,232, 0.8);}#container .edgeLabel rect{opacity:0.5;background-color:rgba(232,232,232, 0.8);fill:rgba(232,232,232, 0.8);}#container .labelBkg{background-color:rgba(232, 232, 232, 0.5);}#container .cluster rect{fill:#ffffde;stroke:#aaaa33;stroke-width:1px;}#container .cluster text{fill:#333;}#container .cluster span{color:#333;}#container div.mermaidTooltip{position:absolute;text-align:center;max-width:200px;padding:2px;font-family:"trebuchet ms",verdana,arial,sans-serif;font-size:12px;background:hsl(80, 100%, 96.2745098039%);border:1px solid #aaaa33;border-radius:2px;pointer-events:none;z-index:100;}#container .flowchartTitleText{text-anchor:middle;font-size:18px;fill:#333;}#container rect.text{fill:none;stroke-width:0;}#container .icon-shape,#container .image-shape{background-color:rgba(232,232,232, 0.8);text-align:center;}#container .icon-shape p,#container .image-shape p{background-color:rgba(232,232,232, 0.8);padding:2px;}#container .icon-shape .label rect,#container .image-shape .label rect{opacity:0.5;background-color:rgba(232,232,232, 0.8);fill:rgba(232,232,232, 0.8);}#container .label-icon{display:inline-block;height:1em;overflow:visible;vertical-align:-0.125em;}#container .node .label-icon path{fill:currentColor;stroke:revert;stroke-width:revert;}#container .node .neo-node{stroke:#9370DB;}#container [data-look="neo"].node rect,#container [data-look="neo"].cluster rect,#container [data-look="neo"].node polygon{stroke:#9370DB;filter:drop-shadow(1px 2px 2px rgba(185, 185, 185, 1));}#container [data-look="neo"].node path{stroke:#9370DB;stroke-width:1px;}#container [data-look="neo"].node .outer-path{filter:drop-shadow(1px 2px 2px rgba(185, 185, 185, 1));}#container [data-look="neo"].node .neo-line path{stroke:#9370DB;filter:none;}#container [data-look="neo"].node circle{stroke:#9370DB;filter:drop-shadow(1px 2px 2px rgba(185, 185, 185, 1));}#container [data-look="neo"].node circle .state-start{fill:#000000;}#container [data-look="neo"].icon-shape .icon{fill:#9370DB;filter:drop-shadow(1px 2px 2px rgba(185, 185, 185, 1));}#container [data-look="neo"].icon-shape .icon-neo path{stroke:#9370DB;filter:drop-shadow(1px 2px 2px rgba(185, 185, 185, 1));}#container :root{--mermaid-font-family:"trebuchet ms",verdana,arial,sans-serif;}</style><g><marker id="container_flowchart-v2-pointEnd" class="marker flowchart-v2" viewBox="0 0 10 10" refX="5" refY="5" markerUnits="userSpaceOnUse" markerWidth="8" markerHeight="8" orient="auto"><path d="M 0 0 L 10 5 L 0 10 z" class="arrowMarkerPath" style="stroke-width: 1; stroke-dasharray: 1, 0;"></path></marker><marker id="container_flowchart-v2-pointStart" class="marker flowchart-v2" viewBox="0 0 10 10" refX="4.5" refY="5" markerUnits="userSpaceOnUse" markerWidth="8" markerHeight="8" orient="auto"><path d="M 0 5 L 10 10 L 10 0 z" class="arrowMarkerPath" style="stroke-width: 1; stroke-dasharray: 1, 0;"></path></marker><marker id="container_flowchart-v2-pointEnd-margin" class="marker flowchart-v2" viewBox="0 0 11.5 14" refX="11.5" refY="7" markerUnits="userSpaceOnUse" markerWidth="10.5" markerHeight="14" orient="auto"><path d="M 0 0 L 11.5 7 L 0 14 z" class="arrowMarkerPath" style="stroke-width: 0; stroke-dasharray: 1, 0;"></path></marker><marker id="container_flowchart-v2-pointStart-margin" class="marker flowchart-v2" viewBox="0 0 11.5 14" refX="1" refY="7" markerUnits="userSpaceOnUse" markerWidth="11.5" markerHeight="14" orient="auto"><polygon points="0,7 11.5,14 11.5,0" class="arrowMarkerPath" style="stroke-width: 0; stroke-dasharray: 1, 0;"></polygon></marker><marker id="container_flowchart-v2-circleEnd" class="marker flowchart-v2" viewBox="0 0 10 10" refX="11" refY="5" markerUnits="userSpaceOnUse" markerWidth="11" markerHeight="11" orient="auto"><circle cx="5" cy="5" r="5" class="arrowMarkerPath" style="stroke-width: 1; stroke-dasharray: 1, 0;"></circle></marker><marker id="container_flowchart-v2-circleStart" class="marker flowchart-v2" viewBox="0 0 10 10" refX="-1" refY="5" markerUnits="userSpaceOnUse" markerWidth="11" markerHeight="11" orient="auto"><circle cx="5" cy="5" r="5" class="arrowMarkerPath" style="stroke-width: 1; stroke-dasharray: 1, 0;"></circle></marker><marker id="container_flowchart-v2-circleEnd-margin" class="marker flowchart-v2" viewBox="0 0 10 10" refY="5" refX="12.25" markerUnits="userSpaceOnUse" markerWidth="14" markerHeight="14" orient="auto"><circle cx="5" cy="5" r="5" class="arrowMarkerPath" style="stroke-width: 0; stroke-dasharray: 1, 0;"></circle></marker><marker id="container_flowchart-v2-circleStart-margin" class="marker flowchart-v2" viewBox="0 0 10 10" refX="-2" refY="5" markerUnits="userSpaceOnUse" markerWidth="14" markerHeight="14" orient="auto"><circle cx="5" cy="5" r="5" class="arrowMarkerPath" style="stroke-width: 0; stroke-dasharray: 1, 0;"></circle></marker><marker id="container_flowchart-v2-crossEnd" class="marker cross flowchart-v2" viewBox="0 0 11 11" refX="12" refY="5.2" markerUnits="userSpaceOnUse" markerWidth="11" markerHeight="11" orient="auto"><path d="M 1,1 l 9,9 M 10,1 l -9,9" class="arrowMarkerPath" style="stroke-width: 2; stroke-dasharray: 1, 0;"></path></marker><marker id="container_flowchart-v2-crossStart" class="marker cross flowchart-v2" viewBox="0 0 11 11" refX="-1" refY="5.2" markerUnits="userSpaceOnUse" markerWidth="11" markerHeight="11" orient="auto"><path d="M 1,1 l 9,9 M 10,1 l -9,9" class="arrowMarkerPath" style="stroke-width: 2; stroke-dasharray: 1, 0;"></path></marker><marker id="container_flowchart-v2-crossEnd-margin" class="marker cross flowchart-v2" viewBox="0 0 15 15" refX="17.7" refY="7.5" markerUnits="userSpaceOnUse" markerWidth="12" markerHeight="12" orient="auto"><path d="M 1,1 L 14,14 M 1,14 L 14,1" class="arrowMarkerPath" style="stroke-width: 2.5;"></path></marker><marker id="container_flowchart-v2-crossStart-margin" class="marker cross flowchart-v2" viewBox="0 0 15 15" refX="-3.5" refY="7.5" markerUnits="userSpaceOnUse" markerWidth="12" markerHeight="12" orient="auto"><path d="M 1,1 L 14,14 M 1,14 L 14,1" class="arrowMarkerPath" style="stroke-width: 2.5; stroke-dasharray: 1, 0;"></path></marker><g class="root"><g class="clusters"></g><g class="edgePaths"><path d="M140.91253084077593 48.8214889699181 C142.37816421269991 48.78452525079661, 144.1885253816374 48.968382479568334, 144.92951600192566 48.86296306603377 M140.8573827594289 48.86790741318373 C141.97400573437244 48.86394917013152, 143.17415209064615 48.89367595855876, 145.00554684426388 48.888501227362916 M144.978 48.873 C149.25157690213126 48.78029090307876, 157.0429606929144 48.46355050672733, 164.98857936839133 48.84900828632499 M144.4362799175475 49.16466358845657 C148.98831606460712 48.7525771068172, 157.91450756419502 48.92609577378406, 164.88648728228156 49.26391659556967 M165.145 48.873 C172.55715541596345 49.4007035928706, 179.9158641356033 49.19646150861342, 183.54490482160838 48.938252422100675 M165.54835013936398 48.74572179057905 C173.4989560399416 49.51069913692721, 179.58317446241082 49.3718391871464, 183.63993486943505 48.691640710271926 M183.38105199986666 48.87548735615272 C184.20782348929035 48.800108766092606, 185.0314123104785 48.800509353588495, 186.88633512497353 48.937876537504884 M183.2888986178685 48.91860915590947 C184.38680523177894 48.858121874284556, 185.41493643991433 48.9114901942879, 186.77751849805534 48.828063842244894" stroke="#000" stroke-width="1" fill="none" id="container-L_A_B_0" class="edge-thickness-normal edge-pattern-solid transition edge-thickness-normal edge-pattern-solid flowchart-link" style="" data-edge="true" data-et="edge" data-id="L_A_B_0" data-points="W3sieCI6MTQwLjgxMTM0MDMzMjAzMTI1LCJ5Ijo0OC44NzMxODgwMTg3OTg4M30seyJ4IjoxNjUuODExMzQwMzMyMDMxMjUsInkiOjQ4Ljg3MzE4ODAxODc5ODgzfSx7IngiOjE5MC44MTEzNDAzMzIwMzEyNSwieSI6NDguODczMTg4MDE4Nzk4ODN9XQ==" data-look="handDrawn" marker-end="url(#container_flowchart-v2-pointEnd)"></path><path d="M457.7168489977504 48.84433180673291 C459.45504469960025 48.95728542252307, 461.1376673652403 48.823581826629315, 461.8871280823531 48.86765752568347 M457.77660855295846 48.846405862064664 C459.0254653092721 48.803885498910624, 460.17656102546755 48.892940957179675, 461.936567060393 48.83937906605228 M461.964 48.873 C465.58075687845195 48.938740917729184, 474.69427081699666 48.57272875569357, 482.2512379046863 48.65111721526757 M462.1347684397401 48.70860047062488 C466.61427786162506 48.59059545172722, 474.6138506994385 48.59035558434811, 481.58296776876915 48.86499603234262 M482.13 48.873 C490.2380124142894 48.30224600124093, 497.1906190119136 49.10952164519551, 499.82235463591195 49.12472378131563 M481.71118732697715 49.20955151146267 C490.4267275917545 49.27322210781515, 496.19281012815765 48.502191020038175, 500.1481767055667 48.69792728081334 M500.19723825719296 48.92191453731675 C501.3478559188035 48.94797146181676, 502.5523922583982 48.93664260744738, 503.7076454168344 48.79176826375248 M500.3399134753444 48.83912021779306 C501.19323801957563 48.82659756230695, 502.1817904979379 48.835667770657935, 503.7514755273113 48.851239584221275" stroke="#000" stroke-width="1" fill="none" id="container-L_B_C_0" class="edge-thickness-normal edge-pattern-solid transition edge-thickness-normal edge-pattern-solid flowchart-link" style="" data-edge="true" data-et="edge" data-id="L_B_C_0" data-points="W3sieCI6NDU3Ljc5Njg0NDQ4MjQyMTksInkiOjQ4Ljg3MzE4ODAxODc5ODgzfSx7IngiOjQ4Mi43OTY4NDQ0ODI0MjE5LCJ5Ijo0OC44NzMxODgwMTg3OTg4M30seyJ4Ijo1MDcuNzk2ODQ0NDgyNDIxOSwieSI6NDguODczMTg4MDE4Nzk4ODN9XQ==" data-look="handDrawn" marker-end="url(#container_flowchart-v2-pointEnd)"></path><path d="M791.0264190529066 48.78677104245539 C792.1410863340852 48.74912288824087, 793.3091573091104 48.778314336350576, 795.3799090871097 48.81547649524011 M791.1339956376205 48.90893629560153 C792.359742945964 48.867114861541886, 793.673641528625 48.86708135138461, 795.3189942775724 48.84888631774411 M795.307 48.873 C799.5675687889809 48.508173040012, 808.0068816554108 48.42914256840469, 815.4736605719752 49.27443189771675 M794.7614600842112 48.76348984158924 C799.4616726895816 49.02000356357941, 807.2665370379317 49.03539554873314, 815.7148000618155 48.358365227300915 M815.474 48.873 C823.2885662662214 48.7862775829704, 829.7746017706523 49.429377456353045, 833.6979615554432 48.6639003418737 M815.5423884898873 49.077402161297734 C823.0901459083806 49.346543963565146, 829.9541011933572 48.93387005312327, 833.7984761493605 48.522228607334355 M833.5703172622362 48.85157700998059 C834.9408774391037 48.965854096809274, 836.3957443670201 48.97575108056202, 837.1887243859203 48.80173846938731 M833.6196949040615 48.8212231015704 C835.0184546128323 48.85408999701725, 836.361831732809 48.875140022369266, 837.1873594401701 48.87505761845395" stroke="#000" stroke-width="1" fill="none" id="container-L_C_D_0" class="edge-thickness-normal edge-pattern-solid transition edge-thickness-normal edge-pattern-solid flowchart-link" style="" data-edge="true" data-et="edge" data-id="L_C_D_0" data-points="W3sieCI6NzkxLjE0MDcxNjU1MjczNDQsInkiOjQ4Ljg3MzE4ODAxODc5ODgzfSx7IngiOjgxNi4xNDA3MTY1NTI3MzQ0LCJ5Ijo0OC44NzMxODgwMTg3OTg4M30seyJ4Ijo4NDEuMTQwNzE2NTUyNzM0NCwieSI6NDguODczMTg4MDE4Nzk4ODN9XQ==" data-look="handDrawn" marker-end="url(#container_flowchart-v2-pointEnd)"></path><path d="M1052.7029091010784 48.81487212568613 C1054.0723807857294 48.78747103325791, 1055.6874617528777 48.91141684864649, 1056.7466182217788 48.778737652886285 M1052.6148483888921 48.89910604584248 C1053.5476101656513 48.827598259583304, 1054.4558320241117 48.874139098445205, 1056.8609152902075 48.87064042013095 M1056.806 48.873 C1060.6865165413326 48.82895665559702, 1069.6248277586412 49.446587138281174, 1077.2383126964505 48.43024313339307 M1056.5913914286843 48.7949248342364 C1060.732500607999 49.41582807077372, 1069.8722003529626 48.744227696204085, 1076.3763010548078 48.38884009508187 M1076.972 48.873 C1084.1241050859023 48.43684764760079, 1091.2669224098497 48.451749618605554, 1094.5946801214877 49.199277940301826 M1077.4658355810056 49.039535156782385 C1085.2970419867431 48.59427284206776, 1090.9733420031994 49.46454409945701, 1094.952170811947 49.38809605689053 M1095.2099326706114 48.87075395635574 C1095.9546360850052 48.923236639741624, 1096.8175356122365 48.84310148749269, 1098.6604624275496 48.85649990125922 M1095.0933707505844 48.877917063014664 C1096.149874713968 48.86728247931864, 1097.1626798422737 48.914844083370966, 1098.6813478299541 48.8706210930564" stroke="#000" stroke-width="1" fill="none" id="container-L_D_E_0" class="edge-thickness-normal edge-pattern-solid transition edge-thickness-normal edge-pattern-solid flowchart-link" style="" data-edge="true" data-et="edge" data-id="L_D_E_0" data-points="W3sieCI6MTA1Mi42MzkxNDQ4OTc0NjEsInkiOjQ4Ljg3MzE4ODAxODc5ODgzfSx7IngiOjEwNzcuNjM5MTQ0ODk3NDYxLCJ5Ijo0OC44NzMxODgwMTg3OTg4M30seyJ4IjoxMTAyLjYzOTE0NDg5NzQ2MSwieSI6NDguODczMTg4MDE4Nzk4ODN9XQ==" data-look="handDrawn" marker-end="url(#container_flowchart-v2-pointEnd)"></path></g><g class="edgeLabels"><g class="edgeLabel"><g class="label" data-id="L_A_B_0" transform="translate(0, 0)"><foreignObject width="0" height="0"><div xmlns="http://www.w3.org/1999/xhtml" class="labelBkg" style="display: table-cell; white-space: nowrap; line-height: 1.5; max-width: 200px; text-align: center;"><span class="edgeLabel"></span></div></foreignObject></g></g><g class="edgeLabel"><g class="label" data-id="L_B_C_0" transform="translate(0, 0)"><foreignObject width="0" height="0"><div xmlns="http://www.w3.org/1999/xhtml" class="labelBkg" style="display: table-cell; white-space: nowrap; line-height: 1.5; max-width: 200px; text-align: center;"><span class="edgeLabel"></span></div></foreignObject></g></g><g class="edgeLabel"><g class="label" data-id="L_C_D_0" transform="translate(0, 0)"><foreignObject width="0" height="0"><div xmlns="http://www.w3.org/1999/xhtml" class="labelBkg" style="display: table-cell; white-space: nowrap; line-height: 1.5; max-width: 200px; text-align: center;"><span class="edgeLabel"></span></div></foreignObject></g></g><g class="edgeLabel"><g class="label" data-id="L_D_E_0" transform="translate(0, 0)"><foreignObject width="0" height="0"><div xmlns="http://www.w3.org/1999/xhtml" class="labelBkg" style="display: table-cell; white-space: nowrap; line-height: 1.5; max-width: 200px; text-align: center;"><span class="edgeLabel"></span></div></foreignObject></g></g></g><g class="nodes"><g class="rough-node default" id="container-flowchart-A-0" data-look="handDrawn" transform="translate(74.40567016601562, 48.87318801879883)"><g class="basic label-container" style=""><path d="M-65.08906513974622 -39.35589218930333 C-65.08906513974622 -39.35589218930333, -65.08906513974622 -39.35589218930333, -65.08906513974622 -39.35589218930333 M-65.08906513974622 -39.35589218930333 C-65.08906513974622 -39.35589218930333, -65.08906513974622 -39.35589218930333, -65.08906513974622 -39.35589218930333 M-65.00130781404415 -31.504706058884594 C-63.06300822757396 -34.31699240912461, -60.16689604518073 -36.84588702825798, -58.17011593914998 -39.411824771533155 M-64.95624705250118 -31.63900460002808 C-63.24010657426285 -34.003657449566894, -60.57612612960933 -36.647399637429494, -58.70114877084086 -39.269323324553355 M-64.89466416353976 -25.060472375411624 C-59.736523425683416 -29.164124275362067, -55.98617428004687 -33.509450019160155, -51.67779945771315 -39.509354354125975 M-65.52549745656377 -24.324926003592143 C-62.02766312153282 -26.170637223361958, -59.86449800759128 -30.0857071159663, -52.628996190989966 -39.242156086235525 M-64.34285958702844 -14.888918689055526 C-62.103352935425946 -22.74654244307539, -54.866855037170254 -25.700496063587416, -44.043208487647995 -38.69933357430023 M-65.94806763144823 -15.706703437794106 C-60.7567902968572 -21.553230728768483, -55.45974286090972 -27.813474438023903, -45.78342140582504 -38.66338134834024 M-64.60199592618561 -9.548578614687841 C-53.83349726000843 -20.483306865460445, -46.106899109016645 -32.46940410064665, -39.05930723607255 -40.01679264748559 M-64.4958019000016 -8.659020434314913 C-58.71449007499733 -16.946280902159195, -51.58301260120949 -25.540816137742368, -38.73522779682094 -39.40155159789693 M-66.10140592768737 -0.9419358509622435 C-54.48243267154764 -12.375001446686797, -43.691823460142686 -23.421075979974308, -31.81743868325745 -40.09923844904967 M-65.55466118927414 -1.5799206624075604 C-54.29175006566912 -14.721810207912347, -42.06595877746335 -28.910179681355466, -32.03037182469601 -38.59230470673484 M-64.77374798377657 8.09388201801071 C-52.76547020377639 -9.671342327570118, -38.5877834440926 -23.3998726487482, -26.719333889360772 -37.970710490247214 M-65.98016314862079 6.909562386335425 C-56.84257471379452 -3.802751527547345, -48.357515107199376 -13.01470697971139, -25.109433834132382 -38.783432722868184 M-65.69978166982584 15.90415664436395 C-54.964107843882275 4.385617560165225, -45.48192314694831 -7.039005184631573, -18.962680446966527 -38.16551190921153 M-65.49494237168899 14.499676253235915 C-47.356207412033875 -6.225609306097751, -29.629710390323673 -26.65900985054327, -18.975808221786316 -38.786356197509626 M-65.99966106957895 20.238442101009284 C-45.3594198627479 -2.6131384431037397, -22.52249798460367 -25.5804677639357, -13.68546025678439 -37.85625635194474 M-64.74024187833348 20.996700363157192 C-47.04105908549794 1.271019941394225, -29.289588888136677 -19.865315602731915, -12.903780544693332 -38.36676679467309 M-65.24723087433269 29.399699690297467 C-44.177635356735166 6.084329478590116, -25.696159338967117 -16.92236051843893, -4.28427198133276 -39.205496297534054 M-65.61551414370129 29.53626379658617 C-50.43740849882264 12.702290010253199, -36.57688729393269 -4.371296997873838, -5.79367783750139 -38.894285552843435 M-65.3629360770326 37.75236409866671 C-40.40364926054855 8.167224090675093, -14.362259779814352 -21.73816242955931, 0.7251595169479538 -39.88461819198134 M-65.74271291641551 37.113026747355455 C-40.78006007256381 9.331717803506402, -16.64369349019696 -18.575038720901222, 0.854875658216182 -38.77418808603219 M-60.85937659126419 38.8570612333031 C-42.093971596372185 19.311985289112762, -22.188386016085907 -4.271006325599196, 6.735725929339147 -38.98711150468677 M-61.30763757526734 39.23931453693967 C-46.919166488494604 23.677991884511062, -32.988141385235 8.133577434216786, 7.867615943223624 -38.65737915259272 M-53.78619691523518 39.03281750925665 C-37.74306833835545 20.5397050650649, -23.078028301744755 4.128449184626338, 15.357543407798875 -37.842113479133765 M-53.56179229955011 39.053832505540875 C-33.58802608866768 16.39242251841203, -13.380220122521143 -6.578955508596717, 15.003904535446212 -38.73740038070959 M-47.139905869990386 38.636855604941005 C-22.781126680634333 10.14775477096441, 3.3270747974122266 -18.71940055686698, 19.693909146670638 -38.191016607861016 M-47.83760719370397 39.720717616405466 C-29.161831072885658 19.13011152187816, -11.49480809447676 -1.2491841434902977, 20.83806772744735 -39.04627616236457 M-39.755388660362165 40.89280396744663 C-17.59176886059807 12.417007331478986, 5.696998609736824 -13.594946777901715, 27.775213309803924 -38.06206835965001 M-41.480631610070155 40.196201306609275 C-23.13261307540488 19.044205978308607, -3.7809175815054097 -2.472697223139832, 27.38690930674879 -39.28480586685338 M-35.299003332555564 40.33454630722087 C-14.554807067252275 17.30422215576766, 7.329085124496515 -7.688528287445415, 33.483866897756215 -38.663828711688325 M-33.95983326167694 39.32668925345254 C-6.748977265871756 8.652613055990628, 19.650880550225082 -22.18278516447638, 34.852428575261314 -38.777009955581484 M-26.772192538206433 38.51254539070813 C-8.469225712673854 19.280301539272276, 9.405921250966736 -3.0142912332522926, 41.60202764140727 -38.036018790361354 M-27.940284060499124 39.0893922608509 C-4.268738131242241 11.643121331785373, 20.15611379458905 -16.12173565041358, 41.19039503044501 -39.100698292471286 M-19.906739510686783 38.7439859659536 C-6.8405552230034035 21.098231251720932, 9.963058600518304 4.39333932962031, 46.29204808528179 -38.783294382046606 M-21.475755289562194 39.670064348619746 C0.023241747077039854 15.060455733650958, 21.11684983518268 -10.25248838804885, 47.40439979527587 -38.51438343039922 M-15.259965200440282 38.76526486725323 C10.73941177193718 11.0455307342882, 33.133651702674 -16.197898641627603, 53.978510415047474 -38.77947832895362 M-13.960395667374772 39.23300439419316 C8.994375427089127 12.908663416748578, 32.536867506387736 -14.862794465646834, 54.13762685823338 -38.55888774051899 M-6.750946465526934 40.834929329648745 C10.46680776482457 17.5645240602374, 31.752718268224022 -5.074304314723892, 59.30124439508253 -37.849589044956254 M-7.573727635508069 39.221141778821 C11.106981285158165 17.534260703633468, 30.898428741942126 -3.4914810170587773, 60.61107290796461 -38.752979023573225 M-1.89191905205314 38.81079889284042 C22.34250572089837 12.443613509160377, 45.05592873550537 -14.70083625544363, 65.76285725199055 -36.80761619892349 M-1.2803407135268938 39.82193374573265 C20.70997304346942 13.950895625650515, 42.36099193658198 -11.159927691126716, 65.0019264335364 -36.869400361015586 M6.412032278667585 40.217694931298944 C22.47517962286481 19.40713570106465, 40.772688956245034 1.0013466237449256, 65.89542854922901 -29.138638853883798 M5.474879779537977 39.42014485691023 C29.108381681111293 12.279290591422033, 51.90299577284842 -15.100381058257158, 65.59082693731348 -29.9442796785579 M13.330527353727675 39.02250823146812 C33.090830629070574 16.367055772230522, 50.24739734606649 -6.36117221427296, 66.20250396874296 -21.792175763371297 M12.595163923652095 39.194952660247594 C24.162426932428563 26.570834853828988, 35.43503316549108 12.375938867803434, 66.26550538724173 -22.388676126676383 M17.529539727080056 39.090384043800434 C36.13757398627744 18.346796016173847, 52.96768393896115 -0.9628554159199806, 65.98152603497259 -15.535300066761422 M18.704511018668953 39.22431590644766 C31.390076060697304 24.19957997579719, 45.22056359879945 8.49332399447371, 66.02020282184172 -14.455011616064509 M24.608241071831515 38.05516446348871 C37.13423237058862 24.172737508680637, 51.81203657435185 10.979082471430216, 66.32437344087101 -5.900721585875502 M24.97745136825949 38.82650846964052 C37.901076222543345 25.14170618164035, 49.71684243139694 11.17195096911848, 65.9133067662333 -6.414262423103337 M31.660335582345898 39.617631202277956 C42.42471864297849 26.262767586278745, 53.67251025020198 14.539350348532688, 65.05850321352405 0.11505280034073406 M31.71810269696924 39.58052728674448 C42.25824855842558 28.406512839825332, 53.028975271538094 16.370511193271287, 65.54261474688349 0.5039249023425736 M38.2712699623476 41.169025120960285 C46.13564302504162 30.872033649842518, 56.52094169920726 21.797778919977564, 66.0657725219017 7.984203175644876 M38.02230090905791 40.08175552829178 C49.34313251862886 27.518036450931387, 58.833508561330945 16.02370180068996, 65.26803288001095 8.49645698865184 M45.125396011314514 38.95852037197252 C50.97958544484708 30.653800156129144, 58.02134849970483 24.111049707924263, 66.20705784140368 15.64903202742073 M45.4808513210806 39.32678397113562 C52.42844426320126 31.476294164086056, 59.69229118198258 23.641298261134796, 66.2561340971421 15.793362154344083 M52.4650859298413 40.91710338775036 C58.200818922885524 33.34341531996797, 62.89147841161847 28.003927635094414, 65.03897377017418 24.22841494155915 M51.36736090562581 39.458074932974306 C55.32931051720094 35.69663671582393, 58.76453230931768 32.420170941149195, 66.19010214573036 23.919683191821637 M58.83708700694487 39.228744921709605 C60.53696290867326 36.960438773392866, 62.27481350971323 36.217590233853926, 65.11300856874846 31.105930764361606 M58.496596222530336 38.82537792356282 C60.9904560363444 36.45007689331702, 63.09022916002956 34.56495183696926, 65.52790150319902 31.61648856348445" stroke="#ECECFF" stroke-width="4" fill="none" stroke-dasharray="0 0"></path><path d="M-64.34500963866657 -38.1479440920448 C-36.506158099796934 -37.46067396436033, -6.13601675477804 -39.26365994063652, 65.79960826034241 -39.37667085003093 M-65.1039337300834 -38.361410113584064 C-25.07632297736088 -39.68510037890167, 14.730529304715155 -38.78525798741332, 65.90568753772781 -39.47007167869495 M65.0330424864552 -38.11982514815466 C66.81795879790064 -23.70095523487811, 65.59624312864742 -6.848804994012698, 65.43888758265679 40.002803728626496 M65.696273088702 -38.90552950768251 C65.90071076174333 -17.25288229883955, 66.13226370528112 3.690182938074092, 65.83695556332188 38.330703998436086 M66.69219000760285 38.24486796186833 C20.28655183466113 38.23774723398002, -22.316552791052857 38.693360402953445, -65.93679031820942 38.08194034373878 M64.85111470270346 38.52879266825487 C38.34177183061607 38.5419708241925, 10.811317749030339 38.605252192124944, -65.05955503049283 39.60062513106399 M-65.53431781957882 37.94948668123258 C-63.65837662361626 15.5369148553526, -65.71475270412031 -5.537399038536494, -66.11914571515297 -37.846029504698635 M-64.95998767298829 39.09474501908732 C-66.03372535891833 10.105934535719387, -65.59559971898804 -20.35284861265432, -65.62179280584654 -38.301282722348525" stroke="#9370DB" stroke-width="1.3" fill="none" stroke-dasharray="0 0"></path></g><g class="label" style="" transform="translate(-35.3984375, -24)"><rect></rect><foreignObject width="70.796875" height="48"><div xmlns="http://www.w3.org/1999/xhtml" style="display: table-cell; white-space: nowrap; line-height: 1.5; max-width: 200px; text-align: center;"><span class="nodeLabel"><p>Prod Pack<br/>enabled</p></span></div></foreignObject></g></g><g class="rough-node default" id="container-flowchart-B-1" data-look="handDrawn" transform="translate(324.30409240722656, 48.87318801879883)"><g class="basic label-container" style=""><path d="M-131.78421917806884 -39.03253336407983 C-131.78421917806884 -39.03253336407983, -131.78421917806884 -39.03253336407983, -131.78421917806884 -39.03253336407983 M-131.78421917806884 -39.03253336407983 C-131.78421917806884 -39.03253336407983, -131.78421917806884 -39.03253336407983, -131.78421917806884 -39.03253336407983 M-131.29960629056185 -30.70806679446964 C-130.0612943910904 -33.84112906238143, -127.12124177428346 -37.30867438842033, -125.67717678282332 -39.116995863684245 M-131.96101924800277 -31.230992075482007 C-130.2801338196428 -32.59344358010953, -128.64814930798764 -34.631127377886806, -125.58793074458897 -38.600429025823416 M-132.10401055601037 -23.909612692515207 C-128.6376412359653 -27.11715383986751, -125.85803240771322 -30.46047674021733, -117.03723971856738 -39.50487014052071 M-131.9567253647464 -23.51847562628122 C-126.66736643185209 -30.083173676769462, -121.70797731669418 -36.41699771448722, -118.26798039411858 -39.526642710030586 M-131.54811994196965 -15.276181476987361 C-125.13975624659231 -21.681754691620668, -122.09001231202316 -29.59576825053493, -112.61769119130567 -38.94943547259499 M-131.04277171919782 -15.93860221247227 C-126.8538336323798 -21.39558296030834, -123.01653878812544 -25.573903018113366, -112.08924532319195 -39.047973153608694 M-132.38798131405358 -8.05083923784655 C-124.37369798820633 -18.130027179086255, -114.77690574313125 -28.618237483602506, -104.6355194980088 -39.375510745601275 M-131.10150330864934 -8.389308013574759 C-123.65479042843539 -16.896043618839784, -115.8230084531722 -26.560420590730114, -105.12691843227955 -39.39931272846068 M-130.62282002438187 -0.46489997870276145 C-118.72224567499319 -16.886202023729545, -104.77097764143112 -31.748766314804588, -99.10616829911415 -39.827378607966374 M-131.7991931351805 -0.18274170037637016 C-119.05807955759877 -15.428457027092852, -107.95698977491158 -29.67998765383927, -98.67749144156231 -38.98727179922529 M-133.4511438867843 7.024212407312666 C-119.77184654974313 -7.031866749320192, -111.16561133614188 -18.689680689174672, -93.32944372346991 -37.657901241565526 M-131.60516495267103 7.460709589185049 C-119.32650647766388 -7.325951190482036, -107.43386820974297 -21.472125396547668, -92.13076909874347 -39.00288053622078 M-132.8682409716375 14.163310523709658 C-122.91852869769906 4.502028735468393, -111.90345152835738 -7.11782453613742, -84.83205973079397 -38.67622673115922 M-131.37138325822508 14.068251183207689 C-114.53787811799796 -6.47722645750048, -96.12976217153242 -25.868884037056162, -86.38686632614962 -39.373943754433746 M-131.7282711150803 22.207217712154687 C-116.46027137119194 4.986957611518885, -103.68686222115313 -9.532105631308077, -79.58594509418235 -40.13792007449782 M-131.1732505481441 21.792278872924793 C-121.12735028413302 9.438606973229534, -109.39813499439595 -4.71421143986441, -79.08674112363846 -39.65788273336873 M-132.2295168124536 29.0223232785473 C-114.48906322834357 10.987688528444746, -100.52585848048932 -7.025789967756203, -71.75021373036874 -39.88491725857712 M-131.83645448375026 29.91246797577574 C-112.13824213749574 7.908080577913193, -94.2891020135257 -13.41924321835969, -72.081284819279 -39.22967643562422 M-130.91885227535332 36.16913310224455 C-106.56234528128446 7.960173119757177, -81.3490716714717 -19.991998756546792, -66.4734019612865 -37.751301420141125 M-132.37835132595575 37.58389157561269 C-115.45875348339867 17.083726227770708, -96.99699572604881 -3.080240721962977, -66.29809311276371 -38.905003849862545 M-127.0072074599022 38.656762067527175 C-108.54063691975585 16.914802406844114, -90.1028586568965 -5.660263624668919, -59.51170678089263 -39.03755376103737 M-127.44432007238407 39.7135931340183 C-105.92223746025925 14.694440764064273, -85.24013447196374 -8.66864404751195, -59.07675120355463 -38.95573127527511 M-120.76126769035086 38.54955010901596 C-95.16584365645743 10.679746708286983, -69.21934732560045 -21.212482630777966, -52.253810065594976 -39.74463268988319 M-121.23686829432819 39.62092516357481 C-100.59825437161513 15.855595317654162, -79.68457619782079 -7.8136336654189815, -51.939240344185166 -39.2323429512225 M-113.59149656503286 39.76972225566588 C-92.40045984199155 14.33352624505063, -73.10590165055147 -9.385784046658188, -45.06622499723189 -37.47563236107868 M-114.36556777646163 40.291302303287694 C-96.4554336368514 18.41981616267449, -78.52513989828509 -2.1919911985878717, -45.8663227449813 -38.49883884965314 M-105.84653791334172 37.98880934565364 C-85.00332956048474 13.880970821117463, -61.11530575951339 -12.242866862220065, -38.00223917733263 -39.87406456053824 M-107.41466755959725 39.04051666654058 C-83.14138706786423 12.874499608944948, -60.00888897327082 -14.747968997054958, -38.63939506949316 -38.55565463422241 M-100.03282741633595 38.7769490149162 C-82.56252562320533 18.621533256390435, -62.172740605305044 -5.762520082668809, -33.70627777506237 -39.57312940116569 M-101.09555853329181 40.27506512194315 C-83.5935232176736 18.602998830596366, -65.73085285077096 -1.6161592641266638, -31.852187868753063 -38.629941002843516 M-95.5745956493789 39.96876090182541 C-76.78384450717655 22.43613554827007, -60.85037112922275 2.287576564828914, -25.774642085902876 -39.84025241803205 M-95.06510056479945 39.798924095285486 C-71.2119796848646 13.751942108344512, -48.12027304889979 -13.819608370647742, -25.956470576812126 -38.52984254930133 M-86.02264686828829 40.070853592815475 C-66.44816414758307 14.432666376943034, -46.05575628811436 -7.7675323765455815, -18.238834074370153 -40.19948578917541 M-86.7587478028799 38.93528301215568 C-72.3895347180723 22.24106668414195, -58.30882237982397 6.063588460915017, -18.624964508796822 -39.17010401721453 M-81.71534174119257 39.13640689637069 C-59.949595012857785 15.138929989240216, -36.13961029404707 -9.931370652702366, -13.524213304756865 -38.48342967587129 M-81.22239333374085 39.13535994359228 C-55.680167785227 10.29192249386286, -31.27719502449346 -17.48159671944791, -12.570008540946022 -39.52211379644024 M-73.53128537855706 39.16638382317228 C-60.924258256476115 22.757470863690987, -46.53692849117928 6.2763469858710454, -5.18491908072086 -38.57445313964921 M-75.06101379953779 39.55368258145905 C-59.931494142305965 23.014273050414634, -46.03773440212251 7.219190761418729, -5.736368033832475 -39.202837379647136 M-68.57721321253618 39.43272086834242 C-47.00115477390714 16.212012316308854, -28.391801379479645 -3.69130451666776, 0.16351637188160695 -39.12400396981941 M-67.27823370725582 39.8898737786901 C-49.67612799692191 19.146135612309134, -32.30834755843167 -0.7273794239439313, 1.159695323544516 -38.800870402120864 M-59.80872815962196 40.303997585337896 C-45.1996413964692 21.219293266518246, -29.53954758897169 5.131987479603429, 7.134115278586756 -38.59822068372399 M-60.45541598053157 39.4520885740104 C-41.75169850540767 18.014135090152617, -23.169497161238542 -4.776601970664714, 6.688972684838836 -39.4488271835081 M-53.88880494156879 40.20677369382386 C-37.28862931283105 18.48315290616354, -20.179314526812284 -0.0664815282731745, 13.778387429316174 -38.41155104970946 M-54.04445657032455 38.94045649073173 C-34.97180144665143 16.428743891021583, -16.56409125696526 -5.720067219854625, 14.236340893531079 -38.8521656371519 M-47.13597205967906 38.39778720643891 C-25.838251620294788 13.180234529272559, -3.9087561030070033 -11.710308037024792, 19.388151275688298 -39.41123619375459 M-47.399499891188185 39.22852869156921 C-26.45262812520897 14.277773352199885, -5.539437618005587 -9.595823486167244, 20.91525095575829 -39.13757657784942 M-41.6815821155829 39.66521678567845 C-23.0313506150405 20.600072807910777, -8.589655734422061 1.5408578731778642, 25.68094584114381 -38.462091076398565 M-40.61110493296385 39.672495926627086 C-22.48920550484003 18.98793719815786, -5.209495094499383 -2.2616218866719304, 27.377323662046045 -38.48167857476 M-33.479704580703526 38.68272136027454 C-14.021367090573607 15.205717604360226, 8.537418838871183 -7.6596836074094465, 33.7702682350961 -38.43768677937658 M-33.79696699336081 38.55731346665562 C-15.63484913398382 18.18255820061717, 1.7350933374681936 -2.1309288213892006, 34.527618578580004 -39.32660535267412 M-27.621196254131203 40.27155782012459 C-13.59967658387768 21.432722437174952, 3.855082738761519 3.0740737429310494, 40.014522993865114 -38.57408715231407 M-27.472629478411854 40.019332597436595 C-4.352829421510306 13.690093965432643, 18.187793996887844 -13.094422235844338, 39.820354173375186 -39.473685564634465 M-20.592267789673294 39.93679104690861 C5.35415504664797 8.209466860743781, 33.888567335557646 -23.631127285849278, 46.958336835964964 -38.021448605762444 M-21.56280757380557 39.226621693951806 C-4.792312594018143 20.087878899194433, 12.063161008436353 1.3348851673309063, 47.19494719536208 -38.27568236122359 M-13.313051189132608 39.281286549420386 C-0.3748692920998178 21.480959062117595, 14.988564484280346 4.026685773461214, 53.17404404482139 -39.97352236859472 M-13.740117384976003 39.633823590549355 C0.5585608210351016 21.513515465713773, 16.374698819957345 3.1589178510572817, 53.54064888403347 -39.124281875725465 M-9.20532994394262 40.68797596264056 C15.7545523375833 10.22077337257691, 41.5277896955664 -16.9355041758756, 60.54012243171985 -38.372732279972645 M-7.555613415576658 39.30083152194346 C16.48482370373158 10.920923634907123, 41.75600272977524 -17.513410977736335, 60.15955977657147 -39.07564402878511 M-0.5528199665619137 40.19913161772655 C15.662284908696657 21.166006248980505, 32.49083843625285 -1.1907503373755752, 65.74480229243044 -37.366949060945046 M-1.8194473866967904 39.9307837127107 C14.440577091544283 21.003079991315115, 31.195590809607467 1.8031462137106997, 66.33683186261595 -38.51163308328516 M6.033824008960074 39.06657032573013 C31.412003948497826 8.62279389947458, 57.234517326122294 -20.8173193499082, 73.77977233000128 -38.81975566297267 M5.896260393414716 39.85312977375084 C23.256969241815597 19.040743911912756, 42.26114159414632 -1.8606588838760942, 73.70353428537051 -39.81693448139714 M10.989114208204443 38.49646841580776 C31.117489441255202 16.37414132736313, 51.3379406532916 -5.771548541499351, 81.02506630726495 -39.07062884515792 M11.273717659218455 40.206303690720894 C39.02978079957491 9.60566323038405, 65.72979504519692 -21.3105275639686, 80.00719486690711 -38.96468223615815 M17.353358487789265 39.38045255510763 C33.51840910443206 20.959624206497626, 51.30777187758062 2.539624314448316, 86.1631668905321 -37.69682056237074 M18.682518131633547 39.21512758530265 C31.630015453411154 23.422346293158263, 45.021513827561414 8.001368000781586, 87.1584723454757 -38.476070583981475 M24.411480217420234 38.49754913473549 C46.26560072810754 14.534691716712334, 71.05950471086247 -11.523882608863014, 93.52042512823171 -37.920367663336634 M25.335017350225463 39.913319949363576 C40.89686007631133 20.526905557619862, 57.0717142849707 3.2607022378881227, 93.76426404088792 -39.475128830164856 M32.15671257554402 40.05670972377083 C48.70531672752115 21.861196866905452, 64.91972635974525 0.8151037104089167, 100.38476079161882 -39.98835501214496 M31.359926624404647 40.16140853451779 C53.42339035159306 16.30051550599905, 73.80059866777053 -7.314146481227699, 100.40165710719423 -39.446472892032205 M36.86447310591338 38.65216504718875 C63.75811863468614 8.639835631843987, 89.05937481408628 -20.39859576152166, 105.66523535756244 -38.28337903799622 M37.87198656096809 40.44245810591461 C60.484683929629725 13.846324531532114, 83.95896542292878 -11.35810721016095, 107.031460183649 -38.553887188409995 M44.629698570821056 40.70330908244498 C68.74464231179033 11.319905214181151, 92.61006750617653 -15.951325584582028, 114.24551878490489 -39.21172562545174 M45.62917418180227 39.287993322665734 C62.60848792483725 19.34739956169455, 80.34120382243562 0.28901792076544275, 113.66798797946824 -38.662276053571915 M51.47166598759499 38.19905007664998 C79.51434488145067 8.071786094412325, 104.33945863613815 -22.605307636952084, 120.17076985768823 -38.509773446870675 M51.70580805618421 38.94149214117685 C73.75102828749111 14.594743220564808, 96.51943084258231 -11.287927661012832, 119.31792812367841 -39.14535785381299 M57.178638734606565 40.59566093828698 C75.13013690687652 20.872803808804214, 91.53436472487306 1.9503708243097488, 125.23031921475096 -38.96902539648175 M58.07496898180445 39.40488651397742 C82.17946682832729 10.973688169804255, 105.99629208552221 -17.362173822963907, 125.64669849609596 -38.41520176808426 M65.22481854340256 39.440229239873595 C83.50851745475353 17.796422180275485, 103.7054753178887 -4.69222119039874, 132.49294468017243 -38.05109245415286 M64.55787280711631 39.92950686638571 C83.44461242272986 17.52535894203577, 101.30513652564011 -2.9439641000911423, 132.56019874984423 -38.18795448749875 M71.0742292107658 40.68557592699291 C95.35990974318214 12.84848669848889, 118.69136442663884 -12.272263367104408, 132.0166095687963 -28.75834544645423 M71.5737392200027 40.30636157580938 C86.46356677162139 22.3164294639346, 100.72448200375588 5.962438206720701, 131.5540955827161 -29.241213900602638 M78.50196512060215 38.80143638529405 C93.7072528956922 20.00409297025539, 111.07718230150782 0.9073094985163396, 132.91699549182462 -21.880428408330285 M77.76125443154852 39.52622443406608 C89.79511801776046 25.232597438437086, 102.69665086424439 11.786419158998811, 132.02716397108705 -22.331740474600412 M85.9944099946779 39.88584049214438 C99.91544835068885 18.96755904985361, 117.72020837060485 2.558241584073893, 133.5343553694457 -14.198086604194721 M84.33429907553722 38.70264782618728 C95.55202329271815 26.867889747385917, 105.92549444150455 15.143526093945313, 132.80079868648164 -14.512856577395661 M92.68554371470371 38.96753552809777 C98.84061815930403 28.8614143603858, 107.47159613275252 19.462932637521313, 132.13605260796314 -7.169602736446389 M90.90856101944927 40.16398536376799 C105.63575540001753 23.594159981046374, 121.22941351421429 5.328155729243095, 131.73238834197758 -7.811093740132072 M97.47334267544002 40.4228914533264 C105.97927553061847 29.43642707407524, 112.44542173295142 22.212252303358113, 132.41377251930788 1.92264394391084 M97.69137142042109 40.03910862937127 C106.65301854125212 29.643713804417484, 115.38212125449112 19.951089476510493, 131.91970043449058 0.5803958939664109 M104.81702047782156 38.9854982880259 C112.31245214988716 31.940624334271735, 117.61245823366406 25.57347415090655, 130.74096907142535 8.535949984198526 M104.31548280463 39.972535953641405 C111.87861974151593 31.24370746064005, 118.7593905729154 24.38256848767016, 131.9560755304763 8.085473629284376 M112.41865905980946 38.978155015065184 C117.75033528149764 32.43657200657561, 123.78086114614966 25.201446209938204, 132.25271740080004 17.082110877489942 M111.57530467961519 39.23383598976762 C117.72778681545914 31.598594343246656, 125.9234609508214 23.397844080135272, 131.1581886682206 16.83019999426448 M119.28901247128215 39.66496532543064 C123.33136609591702 32.12928528441944, 128.86308480151658 26.545351664212845, 132.43744576423202 23.69678533100426 M118.12184406471276 38.5735973405445 C122.83822875763738 33.028608627298134, 128.3424201068867 27.88161262993007, 132.18864367518745 23.125659134415873 M124.24108398449336 38.674044573374296 C126.83075871509512 37.098701670718555, 128.5963956901193 33.54210223119634, 132.38944210228377 31.70103696871897 M124.53862707314347 39.80892627785825 C126.66834508249337 36.96774193043175, 128.6306361398881 34.86158925118, 132.17620941358084 31.4030110148059 M130.98204234189458 39.651621797956416 C131.22135368814972 39.531802879678885, 131.38395032762102 39.26243198749691, 131.67072156927827 39.01283023437656 M131.01196533041815 39.721514123858164 C131.27352955875523 39.44088551265539, 131.49387472586548 39.126927236310515, 131.6899926830526 38.92889431926909" stroke="#ECECFF" stroke-width="4" fill="none" stroke-dasharray="0 0"></path><path d="M-132.39394961818022 -39.09376494662674 C-62.0350893559944 -40.9117808091553, 7.286133882355934 -39.53533140084679, 132.72074421867885 -38.47164730802023 M-131.82196136617182 -38.86851079761781 C-71.3162259037967 -37.79724657807856, -10.073322057404162 -37.72510187774299, 131.28858463140867 -39.20244325433032 M132.11404207806288 -39.95805247578696 C131.59540427330774 -8.9460766541142, 131.10720037128476 19.8888281536837, 130.69180431364146 38.31570516627182 M131.56839712449565 -39.311570981210394 C131.36609794716884 -13.067416921437346, 132.14554552448007 11.585295485729343, 131.4387108858831 39.06968923276584 M131.92002139933956 39.21325154298503 C47.412877790324266 38.95924894368123, -34.6579898990488 38.878562358330754, -132.3140339372016 40.07270988578136 M131.7474617194453 38.706082714355134 C33.31212690743968 38.30754231004731, -65.12845790842803 38.5397146334845, -131.83867118783738 39.180453543203036 M-131.56084121911587 40.25399716250422 C-131.72337976175896 11.747013216911055, -132.57043210871956 -19.472715572296426, -130.51266628645635 -39.05888770186296 M-131.886949205162 39.62034625801732 C-130.6420051514933 11.276327054631404, -131.71455869082726 -15.914057529194539, -132.04371068574628 -39.03952119278443" stroke="#9370DB" stroke-width="1.3" fill="none" stroke-dasharray="0 0"></path></g><g class="label" style="" transform="translate(-101.8125, -24)"><rect></rect><foreignObject width="203.625" height="48"><div xmlns="http://www.w3.org/1999/xhtml" style="display: table; white-space: break-spaces; line-height: 1.5; max-width: 200px; text-align: center; width: 200px;"><span class="nodeLabel"><p>adjustReplicasOfDatabase():<br/>1 primary per zone</p></span></div></foreignObject></g></g><g class="rough-node default" id="container-flowchart-C-3" data-look="handDrawn" transform="translate(649.4687805175781, 48.87318801879883)"><g class="basic label-container" style=""><path d="M-139.71910441522542 -39.305158900089744 C-139.71910441522542 -39.305158900089744, -139.71910441522542 -39.305158900089744, -139.71910441522542 -39.305158900089744 M-139.71910441522542 -39.305158900089744 C-139.71910441522542 -39.305158900089744, -139.71910441522542 -39.305158900089744, -139.71910441522542 -39.305158900089744 M-139.45002768079894 -31.23039721403879 C-137.50841557669497 -33.16658369050604, -136.16918434972652 -36.244480560628986, -132.83537765750793 -39.21062465304219 M-139.61540518905647 -31.562932604379256 C-137.45475391413768 -34.05526715218091, -134.78991765664418 -37.240670147915786, -133.1334891506066 -39.232334001553355 M-139.8684343275002 -24.65647711011645 C-136.50787389996046 -27.845894370835246, -131.71283197923452 -31.17095785714527, -127.45429936105721 -38.5579060066266 M-139.71612673017574 -23.248336803835006 C-137.00130708616854 -27.44968656843327, -134.30385551940105 -30.111708324200183, -126.70219783507784 -39.45273529286839 M-140.763331751879 -16.17694540614178 C-132.61483301181073 -23.007275111159807, -126.80083088492366 -32.4690014556953, -119.4736167583341 -38.106198241839444 M-140.26975121088924 -15.862039814674398 C-133.43415443748944 -23.414893077354428, -127.40250509447895 -30.554856672047684, -119.3442245270419 -39.25182820378134 M-138.93757060451978 -9.687962326410716 C-132.6025627853879 -17.58449184131126, -121.67275684756001 -29.42320505129991, -112.30802263696081 -38.84286243674775 M-140.019132836426 -8.912459149074294 C-132.9928171144903 -16.34197935505514, -126.52910340440611 -22.924030588134066, -113.74456372871101 -38.95913700957107 M-138.9862321359161 -2.061980749865837 C-127.58085183322581 -15.136298833044238, -115.80961568037048 -26.542337248452785, -107.4872300961485 -37.964037355564216 M-140.5515645435145 -0.6818216031464599 C-131.5211063873468 -10.947539795731483, -123.42701915353076 -20.89039801812244, -106.74665693302094 -38.2767168630323 M-141.30302010937652 7.016445439084935 C-127.64678884764692 -7.706804166120586, -113.6318832521242 -26.22237083179638, -100.94386822546342 -39.01745996267061 M-139.6020940033295 6.789931716327631 C-128.9333435001354 -5.247534902919083, -119.54292615069262 -17.592160832427744, -99.54240554392779 -38.566136856802 M-140.45681930687508 15.334220790266812 C-125.46363868077502 -1.6749161711321996, -113.81462000052987 -16.951146027496172, -93.72570958818014 -38.27623816419312 M-139.9478673106551 15.262834733886836 C-122.49525316750282 -7.0428341359881586, -103.82045080319419 -27.78673080362544, -93.00893153137785 -38.81106029519541 M-140.15699854501233 21.409239423060182 C-121.34671335631916 2.5081992423452455, -105.484937002425 -17.905725483558278, -86.2850006737076 -38.56997320135144 M-139.24057214414808 21.60823171458099 C-123.03687165204464 2.966092624598796, -107.16027288418113 -14.190701000825312, -86.96339911989206 -38.98431690507173 M-140.16633580320058 30.853048111992194 C-122.42685368857715 9.107211889509468, -104.77642076689366 -9.805733576825213, -80.51939262546222 -38.259489908406685 M-139.7954249717721 29.58932082569606 C-118.63002688952845 6.21072039581924, -97.92386469597693 -19.00372184826133, -79.50743852551588 -39.03155566204276 M-139.3508605732286 38.445421669412134 C-126.13854537885885 19.85906672544592, -112.15959454631347 2.9959593302422913, -75.15346865414375 -39.383513489730475 M-139.62958816881203 37.147630206469614 C-120.44886184706827 14.571163498114302, -101.47195156350026 -6.9306239350290815, -73.43910518204456 -38.84828314582254 M-136.95123353113163 39.74533601014901 C-118.40487888051248 19.9405113038122, -102.64596558840829 2.5000460072630606, -66.1772778168096 -39.04769546776245 M-135.4647858297784 39.57924443818771 C-121.56850374350837 23.26163254665677, -107.61388409698843 6.519990116933609, -67.34657365496936 -38.715891936930156 M-127.92108619324974 40.3270123707952 C-109.51892606182058 18.872533174038256, -91.67979376980965 -4.071117425713643, -59.62358036370218 -39.42334231149905 M-128.48870052453978 39.757965472410724 C-112.09347580899555 20.18524177498847, -95.1895227098162 1.006308508118016, -60.5400849703475 -39.68532561211859 M-120.8917019655983 38.445711628756676 C-103.54023310143964 17.095122648808196, -87.05303597787895 -2.616750802526312, -54.74730285130749 -39.529855467624294 M-121.82999204677469 40.1583223745353 C-102.72531314670726 17.14858635478593, -82.94001040246894 -5.277129458925078, -53.64251952554559 -39.4778028775646 M-114.47823923708991 40.110362623898936 C-93.04034768412215 11.972869478840485, -68.3586197364283 -14.88357908289357, -48.88902847311311 -39.15387948198004 M-116.12028035815528 40.165372299280634 C-97.88115939407567 19.370664686957017, -80.86950041772542 -1.2536354446373075, -47.950188997234065 -38.70793641268148 M-108.0764088352027 38.54478526160539 C-83.59588020665025 10.133680389513552, -60.07718435923869 -17.83867936165771, -41.19103148344523 -38.34016479208371 M-108.89902508986961 40.032079425789874 C-90.07278920448644 17.967767941056156, -71.46889616551567 -3.8070570471652063, -40.11616256329251 -38.70605190911438 M-101.23102540717493 39.01258234383009 C-77.32375049035483 9.92191607163119, -51.258739595844396 -21.102456900888765, -34.27531169783563 -38.40394742666267 M-102.62442513493723 39.80672705457391 C-75.64924236255173 7.531012272916561, -47.65002809760537 -23.59638061432906, -34.24131437206964 -39.53842861697102 M-95.06208824625313 40.78970129508743 C-72.47012459199239 10.63474520672698, -45.99848487008904 -16.22298563972628, -28.35466055370735 -37.953838297415494 M-95.70871822874778 40.03395883801144 C-71.1102594308026 11.883633507634775, -47.25017023189467 -17.076915133127294, -27.856649465109815 -38.756155690324434 M-88.1535060196627 40.22749120073709 C-63.533149051513924 11.816183723080197, -37.93615237021195 -17.296224364271495, -20.135242259493754 -37.9263782653117 M-89.28184704577622 38.95390401443103 C-63.44398083438595 10.86700710723321, -40.25294391680873 -17.188950928818926, -20.410648845600267 -38.48420116360393 M-83.36992560348898 39.825500167740074 C-62.22840236436584 16.37061187606049, -40.53564474038876 -8.811409277334443, -13.098737886884937 -39.75874815817483 M-82.48239388265368 39.76213924236074 C-63.83716314359206 17.384458465361913, -45.498483813098986 -4.0198493418011525, -14.554673064268252 -38.529821547714214 M-75.37852115331145 40.72413741253047 C-51.152166238161506 10.966696753134897, -24.198026684144832 -21.480514836999784, -7.039724274694865 -40.145048636347134 M-76.06550981642434 39.32124709288025 C-49.21047791068506 8.001219952885174, -22.645191090022607 -22.457486460984892, -6.958028562470399 -39.460261787952774 M-69.99762203859292 40.56993196778858 C-45.594511759924174 12.812771441277992, -24.52944478299843 -12.321069044489068, -1.3595037163592028 -38.94606520810528 M-69.61822240003985 39.711310018473355 C-47.49441388545612 16.20832785992224, -26.343759462677244 -8.314802372903493, -1.119667937910172 -39.51900934384394 M-63.08915211301557 40.79524337942814 C-46.11915110522161 20.634027582594474, -29.752908630796416 3.87203251000692, 6.249194814283713 -39.63648677514696 M-62.28182022261478 40.28559423072141 C-45.22973988314548 20.20966175016002, -27.354365719530232 -0.7287786205463604, 5.462960419819623 -38.19635905794013 M-56.10180124309373 40.30836551997392 C-41.448248624807604 22.761380287231855, -24.500227417427986 6.474823784521723, 13.823745924879642 -38.55055213298079 M-55.85920951525728 39.39518569104892 C-37.53414688856968 18.75744891433064, -19.36463563803456 -2.389394893924262, 12.44102976850134 -39.04409994778847 M-50.30518515597928 38.29593254481161 C-30.96239665571958 18.742212914537674, -13.871885630733416 0.08731442813842039, 18.094758052450707 -39.419322708355985 M-49.11805255071772 39.323739048158515 C-23.197798578070966 10.468613358531414, 2.254551873991981 -18.550444270284277, 19.590891635687225 -38.46085796231079 M-43.677067863876545 38.299629717153316 C-21.57854667159919 14.257999854165687, 2.7791341880334106 -10.35687578105491, 25.153517106317924 -39.12628276239038 M-42.485903117351675 40.138057765329776 C-28.7882108064306 22.98484829425981, -13.574881546469951 7.677767294916959, 25.989809102023855 -39.026333974772974 M-34.82549223674519 37.7938662233185 C-19.807892533733774 22.097760567579186, -6.060178022476298 5.311284085159221, 33.11862154718502 -39.614320237797436 M-35.508140939417366 39.27820316016399 C-13.952857153354381 15.016728040008832, 5.599909951889989 -9.001347000555024, 33.1582278187614 -39.11521789760104 M-28.221874115596417 39.89075692092362 C-14.310669811996851 22.988378811818464, -0.13422858246717956 4.648120639553937, 39.50577126584257 -39.18213731814816 M-28.784845648481316 39.1966146919874 C-11.075796874320513 19.1300149941858, 6.369297140988113 -1.7240678023148392, 39.12560606599075 -38.66771551067614 M-22.625986811316537 38.32032632317728 C-4.52124336766807 16.22334581262134, 16.96138675895746 -7.099191734212412, 45.64522168531651 -39.72997838210242 M-22.622497555077942 39.93565850786741 C-6.846696627737731 20.821524811019003, 9.776117680959526 1.8737457847309764, 45.9999894984292 -39.14850821391289 M-16.621795644683388 38.729329640921705 C-0.8686348181797363 22.0518843438189, 13.991903964515698 3.988928629030783, 53.32163441367717 -38.27240483698677 M-15.281275904137196 38.907485793513366 C-1.2068980635813484 20.932137792283946, 13.570003696511634 3.591202761036314, 52.92214371873602 -39.02320061254571 M-8.279059633284742 39.23525178665387 C16.367572553209353 9.532169829748138, 43.535787535428184 -20.588736083161365, 58.043660349508094 -37.627567828012175 M-9.455049996551086 39.6504243972515 C13.588375761681744 12.014620772752451, 37.28915396859977 -14.298258193607923, 58.56617749075042 -39.01168222486237 M-2.675613696703288 39.65707706681038 C22.785086747526584 9.985589771238523, 52.27936568817547 -22.76166395031524, 66.4607355962967 -39.707594624406866 M-2.6638707702275815 40.06793412501984 C21.233982583769414 12.445899708747376, 45.141676068855084 -14.741505476457997, 64.88418421795602 -39.38560000339454 M2.811302469643439 40.506809645785964 C28.84500455512272 12.003819300161753, 54.30264377181819 -15.54690344260914, 72.28545382098913 -40.1902102070745 M3.8577629231062573 38.593100387568086 C17.988621130845626 22.952970345799596, 31.556093016181364 6.6555840774766954, 71.68533489741044 -38.5456783518988 M9.118619974717909 39.150432809893644 C26.96987945796741 19.676896141806548, 44.147389607870664 0.9145062172513628, 79.75414904196947 -39.76775422620912 M10.67497967482882 39.286895735741425 C33.04963891243253 14.40476458117122, 55.323970640161576 -12.446324784148363, 79.18179853105447 -38.28894192449422 M17.52078028640408 39.93498787910309 C39.70771839168792 12.9384363239897, 61.03282645190634 -10.76708971185181, 84.51066785071744 -38.715858339948326 M17.287797497554774 39.673532455268024 C36.252922605646965 17.708810121624836, 54.71719572750827 -3.462600243298155, 85.29396348020634 -38.18664217178024 M23.859820027228633 38.885504780698476 C40.98858731704607 19.891518160401148, 58.74556598614495 -1.2070825801139606, 90.82035184300867 -39.978603617205806 M23.276013404707314 39.47911180668396 C41.03074845850981 20.371179403128775, 58.074469960480634 0.7219308296921455, 91.60612851597413 -38.720406515980194 M29.742410548798926 39.72274111144259 C45.39372213533314 22.721764885858622, 60.35360926781819 3.872452766922798, 99.06855029867206 -39.374753187050985 M29.916178841436754 39.96330061944149 C51.30992813961789 16.156061759058808, 71.39056948265387 -7.225470638763121, 97.86747249447893 -39.099234261701824 M37.9081258416617 39.873765488373934 C54.03294319045655 18.966357804869556, 71.60874119198857 -1.0722905349807617, 103.82217588658 -39.43652104147883 M36.149448508546854 39.26475339128416 C53.048421897939384 19.411866736973845, 70.54518247210723 -0.024256357912815232, 105.10874778505966 -38.11114346609133 M42.85778343198685 40.28269461130074 C58.05553510392973 20.123977158642166, 76.86026992388588 1.990528742995354, 111.45734503132238 -39.71187135812084 M43.54972598138034 39.11786984274198 C64.31263899950493 15.647231154042359, 84.57925912196262 -8.474619361634222, 111.55582496081442 -38.70855586898147 M49.68296321889651 39.47758816824447 C71.58308407690483 16.070965535220513, 91.11738074539389 -7.300629322080933, 116.9730952578786 -38.36807658808308 M49.51763342175436 39.43245339905755 C64.44093960909784 22.19230740887255, 80.14901922251853 4.577781152618804, 118.02993476438337 -38.777879034046244 M57.247995516527915 39.048728232433575 C80.38087122322793 13.606842930504833, 105.57437350030608 -15.40098523581961, 123.66753853219635 -37.260042462954246 M56.21057433478829 40.14334391387173 C81.41309815236788 9.557229461099286, 107.98387508592097 -19.389100038304335, 125.0701534923163 -38.00749573130847 M62.812083430410674 40.19406922240469 C83.52932539819678 16.6348635588475, 102.50905341412796 -7.677642488506425, 130.55168589800644 -39.70516745974874 M64.18561659725856 39.735948801794 C88.82418697276333 10.58628653348503, 113.18943706801265 -17.29904638002632, 132.33409355672367 -39.47825055716522 M70.07879866283841 40.21232443850658 C93.86202528831537 14.9683780885917, 116.81787999203895 -11.514105556081144, 139.3704448754367 -38.75916625452941 M70.52113769560877 39.62617727532264 C92.81756195053505 13.952084555971183, 114.16061167461271 -10.893436337314078, 137.66464536865598 -38.385394466104195 M76.62481606028066 38.997628678540636 C89.1998734579069 23.775819195411213, 102.0891528942646 8.721873319487038, 140.34820892324566 -35.38002506777837 M75.70813792249429 39.51567429586992 C100.14542546349097 12.105160612440045, 125.37478867038176 -17.304356754813867, 140.77020913176696 -34.18275050488198 M83.87439278842767 39.392346310347705 C95.34848275097968 22.87856512108059, 109.90430720065224 7.747482191238246, 139.90527343680083 -27.305476756420145 M83.90967941415364 38.84870512789775 C97.86395130243372 21.70925083490205, 113.40485684898708 4.783056088014967, 140.92434996690872 -26.504651159197337 M89.5152756695867 38.47674884858814 C101.94563426422997 25.616758508008, 116.00015676609094 10.938711698700516, 140.88256616869074 -19.257353494225043 M90.48485713178184 40.24664501321902 C104.0146097865685 22.643328587971737, 119.31318864683435 5.4059393528696305, 140.88705061844874 -18.618238666327873 M96.99672333471851 39.268519292870536 C110.07907922039618 23.09200741989688, 126.42259981088002 5.503719471749601, 141.69120147302294 -10.886963832452805 M95.92864111006527 40.08954180873689 C104.95485343601429 29.639780364977565, 114.83739543690855 18.079810130242905, 141.33662686413803 -11.764590546783754 M102.24202417878907 39.03777858298433 C116.3974645783613 25.38703238133715, 128.45098180760402 12.487231092983794, 139.53601465236 -3.6226648085897715 M103.15370479235627 39.57053132795376 C114.63452891577316 27.097637658600892, 125.0424349327982 13.579323708461963, 140.80032719300667 -3.3385503170406126 M108.81976916532521 40.88824156545493 C120.10887399232088 26.917984573908328, 131.34132026057623 16.30754469763745, 140.8884012953158 5.281223235270744 M108.94747905744833 39.104631498565226 C118.52144312276872 28.938726972970166, 127.66203044139876 19.029669691985788, 141.12361453542925 4.137760064874826 M115.76408381799256 40.00543219453469 C122.52851193780299 31.30938054583279, 128.43565512104587 26.332809072064055, 139.44514281588243 12.064113446550715 M116.69058968099198 39.64340863796784 C122.36223752745646 33.019761861057134, 127.52697343396778 27.28845487043784, 140.74582200301856 12.31655619037703 M123.83780665613244 39.39308859555647 C129.4052716522017 34.42516501467431, 132.85943219554332 27.931479472574626, 142.0408455761243 18.48812012558177 M122.42042907106264 39.42123065088423 C127.2225164862929 34.46536979826166, 131.83292635810332 29.487472202309974, 140.66759500252292 18.597228918805552 M130.05282305648308 39.392355703762576 C133.5808890840706 35.98299221547375, 136.9373491855295 31.455805356526458, 140.76979669465456 26.057586199808036 M129.44332008636934 39.92540944456054 C132.53339709224085 35.22863377621114, 136.46135344148976 32.32558301192163, 140.19187814258416 27.06182530817914 M136.760070624076 38.954287854548 C138.05328890434208 38.055320501092766, 139.14993400731322 36.22499834468943, 140.74151598614185 34.65212886099885 M136.50755870898183 39.26805175134514 C137.34786197617674 38.29698636339856, 137.9274112362534 37.525469088228, 140.68834244099446 34.859010390957785" stroke="#ECECFF" stroke-width="4" fill="none" stroke-dasharray="0 0"></path><path d="M-139.75298392876851 -38.15018214939393 C-66.15693727355232 -38.34407157202669, 8.596152561834327 -37.743942842626794, 140.5084940103353 -39.25949010022617 M-140.2966240876644 -39.10679394789801 C-78.55835906709622 -38.625689285805805, -17.18457375826923 -39.048023311245025, 140.082529199089 -39.40651009080269 M140.68501376129248 -39.27777331640516 C141.71213797745108 -9.326314723823085, 139.83367123882965 19.94762261500549, 140.93727155068925 38.18851611888938 M140.00113167015394 -38.556954831146804 C139.34510909308557 -19.773118720258363, 140.11070534029935 0.23126308198642553, 139.28667957956438 39.22718296312661 M139.94194785829552 39.812039142637374 C69.25792921887285 39.380300687109006, -1.4869220132404932 38.9964317939359, -139.3030103328129 38.208464023221104 M139.78455626662313 38.693318487999434 C52.1166071339324 37.75546128048558, -35.926816515430765 37.28007962950663, -139.66002887524343 38.948437432268896 M-140.84447374139384 38.99742594445475 C-139.41843482120134 16.587155645953317, -141.0711074299616 -6.082913254927799, -138.95279095285375 -39.38626244344195 M-140.14356132994538 39.39840445657858 C-139.95833357655266 9.227842403586369, -140.6114605509892 -21.086346494559862, -140.54692493712673 -39.5752433448119" stroke="#9370DB" stroke-width="1.3" fill="none" stroke-dasharray="0 0"></path></g><g class="label" style="" transform="translate(-109.984375, -24)"><rect></rect><foreignObject width="219.96875" height="48"><div xmlns="http://www.w3.org/1999/xhtml" style="display: table; white-space: break-spaces; line-height: 1.5; max-width: 200px; text-align: center; width: 200px;"><span class="nodeLabel"><p>adjustReadReplicasInRegion():<br/>2 replicas, zone-diverse</p></span></div></foreignObject></g></g><g class="rough-node default" id="container-flowchart-D-5" data-look="handDrawn" transform="translate(946.8899307250977, 48.87318801879883)"><g class="basic label-container" style=""><path d="M-104.30707662311318 -38.997251628249614 C-104.30707662311318 -38.997251628249614, -104.30707662311318 -38.997251628249614, -104.30707662311318 -38.997251628249614 M-104.30707662311318 -38.997251628249614 C-104.30707662311318 -38.997251628249614, -104.30707662311318 -38.997251628249614, -104.30707662311318 -38.997251628249614 M-104.57657849776278 -30.746119371701763 C-101.90859973525131 -33.8077419724059, -100.8345331630533 -35.26607549031739, -97.27955396767169 -38.35458257386947 M-104.47734200481604 -31.243035968771583 C-103.24611459077298 -33.08304169118895, -101.5238544919111 -34.13451998266259, -97.70872763560494 -38.65735668853585 M-104.64279172344216 -22.447373324821722 C-99.34931556228398 -26.99809842460362, -96.09219344597227 -33.539679675727896, -90.39910793450892 -39.391618303256394 M-104.31989844905011 -22.855863627590875 C-100.2535169249046 -27.933003162011488, -97.39676365851972 -32.254910343605, -91.14100478618779 -39.185344993578745 M-105.47551415665957 -16.83165931952431 C-96.90690610170054 -26.322586174249857, -87.82428056056428 -34.16327491201251, -84.72505860765968 -38.9787776586404 M-104.05876227085733 -15.77561372447499 C-98.8951004323627 -22.341164298411236, -93.55022328410908 -28.569104088029334, -84.7300778145764 -38.67303832016222 M-103.78521570900091 -9.659815326856389 C-97.43646544727939 -18.100865564034006, -89.66817871126449 -27.816751092102702, -76.98540437718674 -38.45715230136904 M-104.7676088499035 -8.379629445249126 C-98.2611344035439 -16.025667533700798, -91.03311470443288 -24.48773535241732, -78.44405935692228 -38.358497722868655 M-104.02211819530314 -1.3965994467512228 C-92.82747698402935 -14.302532414287628, -81.00425105824627 -27.08237354286045, -69.80156257648706 -40.307086504152444 M-104.82584037336922 -0.7075738285172123 C-92.35231510322916 -15.389526210960549, -79.36781798053664 -29.866455473922233, -71.07581441772761 -38.84846619677272 M-103.61170017210253 6.795716835788138 C-96.41738400866686 -2.57740632645891, -87.02275640352657 -13.221753848584218, -64.25468234332511 -39.06683807095152 M-105.27641825219649 7.584816926184823 C-90.2537848194222 -9.709076985780388, -74.0885014816066 -27.42468736562179, -65.24122815549525 -39.532932159370304 M-104.56388216653767 13.188583506645863 C-90.05913795733008 -0.4472473660703864, -77.71769344077863 -17.374419995371884, -58.666228613476854 -37.867220024713454 M-104.05893018885443 14.25062057444297 C-92.12082191680035 0.4898623299010295, -81.21674686325177 -11.928503482892305, -58.20209511307021 -38.650491778519026 M-103.31745746663469 22.541490824056357 C-85.67467616272002 0.9872643119520101, -65.56747291505755 -23.374495246863713, -52.35724152884916 -40.07651946162642 M-104.1372840962146 22.05298633252688 C-87.5569634253975 2.4660779237592276, -70.99377949798564 -16.24582403135251, -51.46021050230383 -39.45199763347354 M-103.89015596295343 29.127225687511928 C-81.65993306990674 4.808222418294566, -59.014403485000486 -22.163809388339338, -43.608413928619186 -38.259863892335325 M-105.05389281085263 30.200303558205817 C-86.19392935186526 8.14744452228078, -66.80147702508941 -12.877418786492912, -45.223078165157816 -38.6557850179111 M-103.76241141490264 38.66018602200099 C-87.68768579140291 16.195589933410453, -69.86368244644551 -3.434375736024268, -39.0295050152024 -38.53758547588207 M-103.95610026807182 36.94847836773331 C-84.00419651942559 13.754871189979042, -63.36532513467005 -9.386584629135978, -38.423335261256554 -39.21110775191299 M-99.48801413203756 39.72391527814278 C-81.3716585062595 17.023279397842014, -63.07451742498676 -4.958640862862587, -30.86290242548258 -38.5388540719012 M-99.42748826720684 39.923638057411644 C-77.98784085998525 15.231828213507713, -55.76294920920249 -10.678434625058593, -31.824257983820004 -38.49828201452208 M-92.72196023339902 39.69709749987188 C-65.69065089328295 8.742709810331162, -41.051523103914754 -20.73765602309569, -25.86380923047627 -38.73127338725382 M-92.70128733013337 39.302588503076066 C-74.24281543201383 17.44900447085219, -54.574317754588755 -4.953273081489413, -25.46528201924976 -39.04494198860073 M-85.77763499993551 40.153294585466675 C-72.30884070735671 20.49349186653564, -54.23043880455643 3.0993769551839514, -16.487727723098416 -40.44959934130574 M-87.33213261603541 40.424290277555876 C-61.19050492206429 9.421033002763517, -35.036731799115515 -20.155398879164032, -18.093162221433726 -39.29444531298338 M-78.60490268890511 40.34588321440611 C-66.39790262357877 23.881437991336924, -52.68365701203663 6.418623429113551, -10.951670532023032 -37.943422901272754 M-80.3545582967469 38.68396143143305 C-64.63242572666108 22.348198603249003, -49.562886460130024 3.7975100998574436, -11.385664319766551 -38.62543301579333 M-73.85492660763182 39.696698526129225 C-54.78339860081568 17.09096326269542, -35.39984475474879 -3.8506185009979186, -6.331796500193405 -39.45877620555611 M-73.43460138715785 39.885087213222704 C-50.54686662760367 12.955381332766827, -27.707892444406948 -14.473024519280003, -4.786623443352206 -38.933088490548506 M-65.55291682047572 39.67984127874558 C-46.55660331599292 17.103861966549434, -29.261720445069567 -2.0329521505076658, 1.3017766952834045 -38.471810005838975 M-67.37224283925384 40.39779663343898 C-50.15635615155458 21.14896280942506, -33.10447216917851 2.063029865533097, 2.2283081118123236 -39.87594374271229 M-58.5672613877147 40.05165970417431 C-42.92822436261545 20.20212011290592, -27.197586882295322 1.230012866146496, 9.136025034065707 -38.53120400628368 M-59.97666556943364 39.01856605270246 C-41.70004113749343 18.332647706513896, -24.155242901638044 -3.074214636570946, 8.04464595478477 -39.691041532448814 M-54.71136489944208 39.22729540004102 C-39.825414908766135 22.936751786375076, -27.32789392116274 7.716607283936811, 13.710183549170315 -38.1671949183342 M-53.691758834920876 40.22666761277261 C-31.025451631960415 12.89514954336347, -7.350364721200575 -12.826362810536722, 14.593002930812359 -38.37565463715538 M-46.17943048646156 39.84573184924049 C-25.17437655265157 15.355263899388635, -4.382593855590279 -8.4214339122168, 21.753786607610927 -40.556500225731845 M-47.01535094933197 39.52981500294635 C-30.272095206831274 21.050960822434597, -14.68928647722082 2.764958105471897, 21.40204013016195 -39.9876323228558 M-39.53368546777092 39.438011380447065 C-20.702052815271912 15.911427053001113, -2.3349794849864223 -6.483495128200302, 29.418055916585807 -39.686626015516666 M-39.87860952359217 39.69555585101035 C-25.937531960530126 21.78766780652109, -9.939488871032166 4.337578567805708, 28.721744934362086 -39.48217905527684 M-32.31734296084059 39.23265352574963 C-9.457718198824216 13.223091156828659, 12.611598740503785 -11.66272328226309, 34.55416980141314 -39.538927826402315 M-33.927806245426076 39.60904943330973 C-15.274687267901298 18.9514716590038, 3.4709205638560316 -2.7776472476085905, 35.105560513114455 -39.11267143003162 M-26.690422025832127 38.87109075390516 C-5.770261386656643 14.36157380391307, 16.976517848328147 -9.893603906437217, 41.343714577594206 -40.220111402951076 M-26.369933122241306 38.94995512089882 C-4.47692953922338 13.52999750794647, 18.57305915660928 -12.16757527460624, 41.59530693876424 -39.76150889425 M-20.262908974345372 39.017235913578716 C1.5734441143330815 14.931999406876503, 24.095039673772252 -12.28108064621503, 49.301472301290694 -38.15536193057037 M-19.70939045004732 39.814947870708096 C2.9859482062125897 12.00204654012523, 26.592247998679998 -14.179176030465621, 48.69087565047389 -39.662306110769215 M-13.87703845819434 39.363030151296314 C10.526678814250099 11.142164018216707, 38.11640053411905 -18.561100598526338, 53.17195684749886 -39.65075249266644 M-13.850660910797725 39.426505374229954 C7.146551080889477 15.061837584891604, 27.920709289751603 -8.586644037781767, 54.22173340083436 -38.37133506378764 M-5.434781833197294 39.511330876709415 C10.811526438796516 21.016438629277282, 24.949702040912275 1.4411485810249998, 61.99534477268892 -39.85989716281517 M-6.87243970399682 39.270285391250155 C17.705606240010944 11.98414608538247, 41.286888682305545 -14.498731642883858, 61.11525878900866 -38.61804355434145 M-0.6346181830598137 40.212770152555876 C26.06938395695893 9.656393903152052, 53.87805734882713 -22.086769223596892, 66.55959710573448 -38.594950235051044 M-0.5639416382492479 38.894697793881896 C26.074665929753486 9.24084870245624, 51.64708180243324 -20.91340365293627, 68.32191367707881 -39.66799524006156 M6.610004667964665 38.68236713282108 C23.6848350538945 18.692442657895377, 40.64618998351862 -0.4203139957829791, 75.45531518471475 -40.054633748984386 M5.706007953579014 39.315738456542135 C23.25261476517614 19.355035688637912, 40.691016431871105 0.4142398670358728, 73.7743061758492 -38.938001103667496 M13.324290738850634 39.65598793514038 C27.152954900591443 22.591653188610643, 42.492114458289144 4.500371274762311, 80.34881913125928 -37.894349103445194 M13.560810987524906 39.38028930572175 C29.582896674458652 22.205985786516933, 45.01130570731819 4.056666519354638, 80.94770087126999 -38.91035505269728 M20.497405428183313 38.64270744897799 C36.54380624554195 19.156233216847316, 56.154240269643175 -3.2228373098348944, 87.7037495374174 -39.81419105380636 M19.68736539828524 39.72835741033538 C46.601482894990085 8.91118053605462, 71.6267371997414 -20.203853604048405, 88.07443364562576 -39.48589019555548 M25.685797333733934 40.43711273962907 C47.645033209341406 13.465936669485531, 71.06957889930116 -12.510428350354212, 92.906089963844 -38.13635377342096 M25.531449910391192 39.104078905547354 C47.36415912751955 15.949677523082508, 68.68745475097005 -9.513602231888685, 94.8328249518503 -39.06852422572594 M33.37643772558756 38.79021919584124 C47.1943352936529 23.471096906822286, 62.0747521441289 5.593688060795563, 100.4220240040638 -38.7553156520411 M33.6546894312249 39.32703884974742 C48.08703043759575 22.648422397570375, 62.88357073980646 4.963143122656039, 101.8107320988997 -39.858479188717176 M40.24614750993083 39.53698558516757 C51.19191360689513 24.16157025525045, 64.87281206465504 7.2685336192859396, 104.92638488334083 -35.090303625823616 M39.80701817582835 39.45715761453407 C61.38706857711623 15.118547517442623, 83.45077920900474 -9.781390190363043, 105.55902481394065 -35.33776524131776 M47.006778294299465 38.58340748373741 C63.686366687336275 20.230458801632167, 80.43821271987619 1.1253391800945, 105.96473270157117 -26.783141069458335 M45.402024545738946 39.75760897235303 C64.70038910823678 18.397158647985332, 82.06445437891394 -3.041788573340963, 105.11573452988777 -28.472673907319773 M54.026573438129724 40.065713742674035 C68.07653804821598 20.997567385487713, 85.64130749790294 1.663222287240149, 105.76871423529012 -19.272846310686308 M52.92362020706103 38.650567192932286 C66.07172020164376 23.910971064879522, 79.79959917471837 8.99250727272109, 105.35583191862261 -20.80578703386678 M59.3065647650615 40.30496416811746 C68.46351011108443 25.707788951253786, 81.54844423482893 14.836528210047533, 103.74504795362249 -12.445030987559406 M58.618703095634444 39.41742894300381 C69.52715412847644 28.669827412244388, 78.72486979191488 18.261607889260567, 104.77875998877353 -12.942595058863864 M66.16827120877828 39.0613552410273 C76.5797101248395 28.28619689272586, 87.86531189550813 13.155003101329996, 104.59950707105557 -5.352434062063886 M65.79971384043391 39.16707645363873 C79.8841650502133 23.83144785245769, 94.45179592195439 7.397582735045338, 105.06370972512103 -6.080364535880154 M71.56503886001563 39.57209364136016 C83.3625414228107 26.33386154750602, 97.26251450623607 11.845085662764731, 105.89036321848775 1.5836007025681407 M73.266570042994 39.99481967805903 C80.86227175154454 29.66456680792239, 88.81012536857864 19.93412368992364, 105.2597678583743 1.8089333643406842 M79.97456515570249 38.411568184519446 C88.3178978459867 29.4776132305312, 98.93848337017921 17.765562052437478, 103.57243935590196 9.739480053290096 M79.71123654254406 39.98482466261135 C83.8495620345025 33.79975988607482, 90.40849911988111 26.870065605021235, 104.83812897132908 9.851537413296136 M86.86824652344907 40.31621227319004 C89.59706219684202 32.978273419283994, 96.33534428140412 27.821966356464454, 104.37983047664508 16.67493446597705 M85.70819929956316 40.050181822191306 C92.04778623511692 32.23914314325269, 98.3443622284768 25.304807630917843, 104.92328830754542 17.60559648798169 M92.27373097946317 39.46209036386608 C97.70966167728415 35.7193373944064, 101.41103232136828 29.003727314725527, 104.58157172695888 26.07926367801475 M91.92640876466793 39.9575780646688 C96.37421432880494 35.21972566671258, 99.54156966269503 32.127658699439685, 104.69912140302985 25.459286022872398 M99.49390966080182 39.96743579454251 C101.47099049419589 37.522687023135745, 103.40365908525389 34.33417610586388, 104.4125503262521 32.99384660174106 M98.86689415775471 39.34749874833949 C100.74050710923223 37.6810035929895, 102.84717629607246 34.99794516679623, 104.80888347558526 32.74133782465952" stroke="#ECECFF" stroke-width="4" fill="none" stroke-dasharray="0 0"></path><path d="M-103.89359491226514 -38.69378516442878 C-29.260943124115165 -39.38138706124818, 47.515822906123304 -40.18246912340082, 104.40589772365149 -38.73755617498486 M-104.2153383152712 -39.42166377004454 C-56.50267052999351 -38.00944988901595, -9.559402550852498 -37.34902177622309, 104.87212619601077 -38.805409064856164 M105.32498868424547 -38.28712021164523 C103.51551679154213 -14.41034439168354, 103.03952854123996 10.775265755920094, 105.69225904406191 38.75394754283121 M104.89014677121484 -39.019739734633745 C103.8149138566615 -20.407645795189033, 104.1118828972295 -2.6671207587987844, 104.53815817335224 39.5972485406252 M104.47327001869112 39.20653365161756 C57.40735824821357 38.95891297729054, 8.154464158661712 39.33139898658379, -104.94787731876505 38.29302134443847 M104.2576227811289 39.154698384443236 C30.548375165663412 38.85096612100457, -41.902697497084645 39.072572349445586, -104.14191350030494 39.34811420174051 M-103.69036552952542 39.90912310783985 C-104.98379263133694 19.86753028236751, -103.04628820201732 -0.10776462646527363, -105.53369493921969 -39.010146241801635 M-104.58777625257724 39.04607014872001 C-104.95780766160836 18.213398748617163, -104.32223732672742 -0.9275527095188242, -103.71740795068284 -38.916598788163085" stroke="#9370DB" stroke-width="1.3" fill="none" stroke-dasharray="0 0"></path></g><g class="label" style="" transform="translate(-74.3046875, -24)"><rect></rect><foreignObject width="148.609375" height="48"><div xmlns="http://www.w3.org/1999/xhtml" style="display: table-cell; white-space: nowrap; line-height: 1.5; max-width: 200px; text-align: center;"><span class="nodeLabel"><p>DNS: -global<br/>→ -global-ha CNAME</p></span></div></foreignObject></g></g><g class="rough-node default" id="container-flowchart-E-7" data-look="handDrawn" transform="translate(1220.400733947754, 48.87318801879883)"><g class="basic label-container" style=""><path d="M-116.45733588468202 -38.95920691856969 C-116.45733588468202 -38.95920691856969, -116.45733588468202 -38.95920691856969, -116.45733588468202 -38.95920691856969 M-116.45733588468202 -38.95920691856969 C-116.45733588468202 -38.95920691856969, -116.45733588468202 -38.95920691856969, -116.45733588468202 -38.95920691856969 M-116.73375950672424 -30.91727698302565 C-114.78033341542923 -33.90944310319332, -112.38125611784204 -36.796790674924495, -110.41074774484001 -38.6877366570656 M-116.56238105161096 -30.90403480859589 C-114.46284909063338 -33.6255725643209, -112.8420763542741 -35.61960289629546, -109.79062942980799 -38.95397215813103 M-115.83566174838961 -24.725356876236894 C-112.69702293610491 -27.05732786720814, -108.62477937188739 -33.5296159720793, -103.43173858751823 -39.34901540934361 M-116.7948305103238 -24.039913504499683 C-112.19004957178313 -29.293678674461294, -108.43822444526859 -33.34717455208047, -102.97117946927074 -39.81548327941246 M-115.63879753315571 -15.589865680827753 C-109.55639511066681 -24.959517385732966, -102.1835953196103 -33.238325895675665, -96.1139034540169 -39.89819351557172 M-116.8051631361376 -16.64728058276786 C-110.26909450293405 -23.29742450783106, -102.60927157630472 -31.53385924532484, -96.56771610301692 -39.40320142152585 M-117.31966178035766 -9.199699219295196 C-107.35904457693374 -17.212888438539515, -99.98153102497233 -28.82590767018912, -91.54454084138179 -37.916387088106966 M-117.06161673245484 -8.52956604588954 C-107.16593098212259 -19.592480268055024, -97.50376627562738 -29.468753848945333, -90.66660912331754 -39.1607522378978 M-116.16833168800669 0.4757092299341237 C-106.65505995694299 -12.218653847754165, -94.69452809554322 -25.679909188367112, -84.0528033049372 -39.93237585525713 M-116.79315801827661 0.013310034946524274 C-104.62721443946421 -13.90639032969072, -92.6839856511241 -27.602605250574392, -83.14645665296598 -38.50309510168444 M-116.61629074697137 5.599030132007031 C-105.92423572209735 -5.55524563242416, -95.16046481030655 -19.09568187769805, -75.77360425698626 -37.719873521635506 M-115.80873181994896 6.379648802682295 C-105.18357363882906 -6.571776995820465, -93.31552588070898 -18.692063005074875, -76.14760652316066 -38.727721264586094 M-115.41821026790444 14.206375306882359 C-104.44364930707091 0.48562052832828995, -92.08041342513123 -14.309771590395764, -69.3404398229782 -37.98445671330945 M-115.84583983652584 14.69814107819824 C-98.23385296688717 -6.282477918630419, -80.60638624803461 -26.73656356018699, -70.37034393164842 -38.89598730833502 M-115.19492218350697 21.647021884239592 C-104.31083633117927 6.147460321604526, -88.88580058914278 -8.524545035187385, -64.70540151358446 -40.180727659504846 M-116.75164365753987 21.837914210214265 C-100.93108348396426 3.884721298333802, -85.32332521006981 -13.484314289921443, -63.32737558721892 -39.52423066476792 M-116.10712652904705 28.92829678676512 C-103.80345025055271 16.154089153105584, -91.96696995328601 0.6747495398743133, -55.73989552569605 -39.645093318301015 M-116.96882225010073 29.46558435404944 C-94.13435723294678 3.5573642501912386, -70.88711349959179 -23.414870957096273, -57.457454581352884 -39.383163162958944 M-116.27522749972748 35.74575045013397 C-92.87145788020916 9.6042352486628, -68.81479839264405 -14.819108699237717, -50.61159403475224 -40.6527609126365 M-116.7431602974219 36.24385723230516 C-92.47156887493098 10.363423599466165, -70.07170126350744 -16.03319153474384, -50.08494737100621 -39.231584923984585 M-111.30500821572083 40.51612332295123 C-89.26703503029051 13.749546967441024, -64.47777170668994 -12.837495267716283, -42.28122722596635 -38.01091064712937 M-112.16500895773261 38.76285508152832 C-90.3128433920923 15.201034522122956, -69.29780358212692 -8.897825946989421, -43.07645562799869 -39.17125400928318 M-105.75813084196572 40.91188694421248 C-90.62790038149036 23.501488946875206, -75.07214689911959 8.183507154223431, -38.30309124269192 -40.106162437640336 M-105.23123840534248 39.5852358987807 C-78.65695252104535 9.85630760714024, -52.853791530050046 -20.480317860094978, -37.45410985745763 -38.61357934924392 M-100.12548948834817 40.22538244426157 C-76.5699425343624 12.932383440999144, -53.8970224456491 -11.663894929670947, -30.275595819606206 -39.236500340060125 M-98.39182126157293 39.47372823078518 C-80.5559958479175 17.211151962297066, -61.13969423509818 -3.5170999449780274, -30.08192417845035 -38.82679655821993 M-90.9245946765285 39.481455203713786 C-68.91663109635579 11.822411320199068, -45.19002362386118 -15.7461835230791, -24.427242424805666 -40.07231477042776 M-92.09418652069917 39.16329029132413 C-75.06402900177387 20.13789857956892, -58.99008638451646 1.528905357848768, -22.935498190157897 -38.75159997784843 M-84.40591216451851 38.83586194223435 C-62.86127384244202 12.894309839165647, -41.80782276025751 -12.64859455935877, -17.567153936727216 -39.35406669925079 M-85.33873236295905 39.445084725078246 C-58.43967419133693 8.356104879264032, -31.637182745573444 -23.10354515954618, -17.226768596086618 -38.34750043667889 M-78.45594971333439 39.82020939945292 C-61.596204647548596 19.02270432480663, -42.15799252301869 -1.793408034977761, -10.496206155562941 -40.69077434467909 M-78.11993715089704 38.61199887247173 C-54.15146874957143 10.121920319032432, -28.72598732922467 -18.726271527432854, -10.61007457681481 -38.94328689713347 M-70.83156073392963 38.23277663602673 C-49.495110382558124 13.204828604904296, -25.4190317079936 -13.672549428385965, -2.622212681698099 -38.96003992956402 M-71.42513925706868 38.9716522988955 C-45.50378764216456 7.907639975301433, -18.125861454099663 -22.457714823950294, -3.4009543691719957 -39.577797766892694 M-64.29381426793847 40.47462812650864 C-52.143486142498844 23.55055395475714, -38.89088567934255 7.6792008063210195, 2.3103546071999737 -37.453406776099065 M-64.99843417774417 39.10532758713719 C-40.998661765228746 12.009936602150786, -16.470142267031648 -16.643900987083946, 2.5280235554343085 -38.86611248103396 M-58.526354231202795 39.168338145211436 C-42.763434888506495 23.141419415952345, -29.26354890655388 5.022406394926773, 10.180738976265742 -38.512827898034466 M-58.63055510723095 39.05697266659665 C-42.43387896595589 19.54224384270499, -25.693581493752646 0.5126764772185598, 9.026760699058496 -39.127650369902064 M-51.692062074832734 38.29831201502731 C-25.73124176202476 9.253135474226697, -0.08090691092598412 -23.598709154191525, 15.41719471306875 -39.33348166535223 M-52.25362586926517 39.560091590291826 C-34.93272917521297 19.260472883082752, -16.322858889175787 -1.427043888945847, 16.686527713215593 -39.28899514414658 M-47.04307161303573 40.748617899352176 C-21.946391238520814 12.539351121898024, 1.2707155009393847 -14.096454020433711, 22.217154760091873 -39.250011159326576 M-46.27052962435265 40.248666636990926 C-25.584758433009778 16.554963595968783, -3.8125344534661902 -7.718717591757329, 23.161926676842214 -38.31032632585369 M-38.98835255033104 39.243727052118 C-22.333559334647823 20.610692453611914, -5.989761220298452 0.49144724913515425, 28.415297621898734 -40.30819097616029 M-38.009481251668646 38.992954761636234 C-18.844788443151966 15.319607417527545, 0.9560639488777735 -7.284150799514681, 30.193049937172617 -39.81214120232351 M-31.024899868041008 40.51331959983638 C-12.07694680143428 16.98543954031052, 6.584724572016219 -2.177803220042611, 37.293570295238204 -38.52467606994878 M-32.75384630836559 39.118618197910536 C-17.443225873681307 22.58706107039219, -3.0979704798666976 7.356752610878681, 35.77399436742976 -38.75243461597645 M-24.930919251965236 40.33374335592381 C-6.22889128154452 16.101547838791518, 15.556354357427281 -5.960034304315521, 41.708734482725895 -38.562700385591974 M-25.738021416596528 39.29122998358497 C-9.207591733036432 20.63071016761188, 7.659999472066488 1.3062359533136962, 42.16348868009972 -38.78285863184128 M-17.883848991037762 37.92288460945128 C6.170605391230939 13.135886570743638, 27.21829083925338 -13.616270581707782, 48.15861174710836 -39.678954537669114 M-18.15078684030295 39.42034284654533 C8.641962268123097 7.499822373445986, 34.97388455505365 -23.216757163984234, 48.76503229521038 -39.01041444721338 M-11.867995794588253 38.8422459488737 C4.056948906909517 19.596218747331363, 21.310942220933743 1.5464262941331004, 55.2274256784878 -38.263561684634524 M-12.072669517188102 40.10738724655072 C6.122743103195265 17.725296720930654, 25.26829503453431 -2.9525243929048437, 56.282057852514924 -38.796429790043135 M-5.381077922636042 41.05559931188065 C11.638973372386157 18.506546086126455, 31.49047899213997 -2.3349374384153725, 62.18423973436839 -37.40939788992318 M-5.732093144773689 39.836079196205226 C19.299589005836307 10.280595863375506, 43.8578491032253 -18.485176940111966, 62.15416700858354 -38.806597077603044 M2.017938713655753 39.03144756283082 C22.328204927849793 15.204190015660183, 44.359959727829086 -8.80810343108412, 69.57015694415836 -39.373072785400545 M1.6229712997211716 39.87215010831125 C23.518545418245758 13.675224393956295, 46.40602251958139 -11.766561676866498, 69.81725565288009 -39.64250980322041 M7.8589652524427915 39.753185601744164 C30.30617974392126 11.699206063309232, 55.32456399874786 -17.476812852530728, 74.78904971706002 -39.40087165441035 M6.936802614880041 38.92612290918739 C22.179818454821294 22.089898328410264, 37.859543987367346 4.4007770409141, 75.5666796787689 -39.31543467200311 M13.685653129194538 39.97840427337135 C33.5928829817014 19.61099482189955, 52.97003554727878 -4.548807174647088, 83.21210112363696 -39.037285250780286 M13.55680232848547 39.502376168788096 C38.580385588132366 11.772247857724333, 64.02190229843522 -17.476297714276924, 81.3492488132501 -38.54825424398777 M20.785311261854748 40.508660014657316 C41.53588855621048 15.376690903677012, 65.2640669761476 -11.782055806530938, 88.20477689091143 -38.88680400294262 M20.37718761252188 40.006897692291176 C44.90219308753588 11.372296051478576, 68.55484601539546 -15.79491999339225, 89.46553445128033 -39.16251201947373 M27.83866010584173 39.775648409608834 C50.12875632731957 13.173840317461902, 69.92717943182161 -11.693971390059914, 94.25385568530238 -38.320994690478734 M27.081509841837047 39.40079722989086 C43.240929573400834 21.213855165595348, 60.295052772098856 2.2272875296178043, 95.28288424334846 -39.10906600255991 M34.63415118540196 40.504386170270514 C49.89869653601615 21.217953448312244, 66.2552720269823 0.2482343023937199, 101.18297701447152 -38.82248854280864 M33.00328173133696 40.19487995586674 C50.38773649802338 22.564528989708204, 66.21296775084264 3.563702218899731, 101.71385726563655 -38.45975488727498 M41.13152384642189 39.88559678907356 C58.56912542618836 19.916654866544114, 77.06728527982288 -0.9664395566994727, 107.70013083527127 -39.81476336105745 M41.16812003412368 40.05618736470384 C67.03480118636158 8.244754913872189, 93.79103226568489 -21.21601220878072, 109.26729959954761 -38.998317814871754 M47.108014555396366 39.60675708895854 C72.49010522661806 9.310462536641388, 98.37914009000592 -19.321355429708568, 114.58731763093922 -38.98600131405387 M47.742643808882946 39.49842864477733 C67.45591360054317 16.72864933960524, 87.67870045334587 -6.512135507420807, 114.8615749115565 -38.9102718383978 M54.16339436997848 40.87201189138146 C66.56855327348786 24.736992345766595, 79.54627536214527 10.049578724978836, 116.83126372715026 -33.35360115304211 M53.43501923902183 39.92459652566818 C77.53683297406496 10.827028307193185, 103.23069299778957 -17.512869368357244, 116.52775251705553 -31.908122557333293 M59.62400381686637 39.714902084295154 C77.36094405783227 21.041717689204123, 91.14319636577562 3.9144114405416746, 115.8555956801459 -23.652306973926702 M59.89993889166303 38.96741077774583 C79.21726529717068 18.929943739156627, 96.50018696443871 -0.8931728297250495, 116.04955663178927 -25.203584611594167 M66.45231095711846 39.25452687919174 C79.53367935135034 23.44484156616216, 92.88702795232062 9.337397620841168, 117.62884520760663 -18.310615626132233 M67.25792072499458 39.98687383709048 C84.16465057661259 20.109604356835085, 100.77153285515732 1.025106708026723, 116.78042072388075 -17.829914964539366 M74.07642638917552 39.77047130987176 C83.79275991704247 30.093408161971517, 92.53867745093089 18.15708888251215, 117.94201424172697 -9.447337914321825 M74.00379954109269 39.993730293383074 C88.22934751482681 22.641548879463897, 101.98190351185511 7.258025154800805, 116.47527200368658 -9.892715630057129 M80.75339025970683 39.72183474665317 C88.79830619468936 29.209339165046284, 100.19600773676015 16.150902249843348, 115.93696976790326 -0.9224966212109047 M80.55156108941688 40.11194648945523 C93.11445153458105 25.700056783243507, 104.70091554322732 11.711136977659669, 116.51435087620652 -2.2460744250271194 M86.88138094243233 39.00726539466468 C94.71713889169123 29.99704754014807, 102.5340145037359 20.9728295821479, 117.0862957411992 6.805875809475603 M86.82287163126777 40.06646850318481 C94.9015811597927 31.60945494333342, 101.91408894500576 21.96237345326099, 115.66878595278587 5.492191100396506 M95.16044424506377 38.32099395480246 C98.79576470678867 33.08150383677776, 104.01655731805054 27.133311341087705, 117.72382126379026 13.847249083179577 M93.4438170092629 38.929148467138766 C99.19938490305351 33.04119257887206, 105.43833258729103 26.37020590031509, 116.15114353643354 13.350684382007978 M101.05932956187905 40.48122972954597 C106.1001570501565 34.20565697721209, 110.2899061315965 27.424116708036696, 117.29542081457264 20.55241893451556 M100.0945729474081 39.27285757200817 C105.6018346991995 33.37913957821609, 111.41385914716618 26.574999939586352, 115.99251827671705 19.946409963703523 M106.16513923020727 38.713379455907024 C111.15717222634251 34.77544605547576, 114.95285902209413 31.023682825511113, 116.01148740578637 27.92001164880244 M107.05009666834748 40.15472759982768 C110.67346885831446 35.126951627835865, 113.98601133824184 31.048768251684486, 116.35126906724234 27.874843196094517 M113.69032680616155 39.23721429391107 C114.86180502150583 37.95592052557686, 115.5343813818284 36.96885008680136, 116.56185696867809 36.322558517138 M113.57009687031568 39.14006102224235 C114.71765488764603 38.20589610514768, 115.56288580242251 37.078319465126434, 116.39836954520293 36.31084169881763" stroke="#ECECFF" stroke-width="4" fill="none" stroke-dasharray="0 0"></path><path d="M-115.54179786324747 -40.117633917508236 C-65.48381959149516 -38.48401121738624, -15.999837903450665 -38.750074405559275, 116.83537099862436 -37.844779453677134 M-116.14824560613303 -38.6862407908105 C-59.230818627220444 -40.42093993567495, -1.4066313857896477 -39.92826358603597, 116.35923801676248 -39.48263662388723 M115.7932030454224 -39.004417978291904 C117.02337100523651 -11.558239114822742, 117.63950277821955 14.299577511137548, 115.27146253420828 38.89242402336728 M116.560074538407 -39.565262970456004 C116.73116289031206 -20.03537196234692, 116.46309823406169 -2.493408056383087, 115.97607704234981 38.44014574863065 M117.3066566755433 40.160165255902264 C63.52330952342876 37.726205569008386, 13.627026028512443 39.07715317165492, -117.58113113400759 38.67481733626737 M116.01975374047146 39.02268449751724 C30.30232202550693 39.44351528292624, -55.36711785537752 39.41854375067299, -115.90046097372732 39.296456420346765 M-116.81899415739291 38.233733074444544 C-117.04855599150325 22.024791414452466, -116.08755902962301 1.379380011413526, -116.7416134676938 -37.652391104363254 M-116.73880136668221 38.973087451839454 C-116.652573422811 13.846336921023646, -116.85878409587438 -12.536877457360971, -115.83945752378914 -38.50372845032605" stroke="#9370DB" stroke-width="1.3" fill="none" stroke-dasharray="0 0"></path></g><g class="label" style="" transform="translate(-86.421875, -24)"><rect></rect><foreignObject width="172.84375" height="48"><div xmlns="http://www.w3.org/1999/xhtml" style="display: table-cell; white-space: nowrap; line-height: 1.5; max-width: 200px; text-align: center;"><span class="nodeLabel"><p>InternalReconfigureDB()<br/>→ agents deploy</p></span></div></foreignObject></g></g></g></g></g><defs><filter id="container-drop-shadow" height="130%" width="130%"><feDropShadow dx="4" dy="4" stdDeviation="0" flood-opacity="0.06" flood-color="#000000"></feDropShadow></filter></defs><defs><filter id="container-drop-shadow-small" height="150%" width="150%"><feDropShadow dx="2" dy="2" stdDeviation="0" flood-opacity="0.06" flood-color="#000000"></feDropShadow></filter></defs></svg>