<svg width="32" height="32" viewBox="0 0 32 32" fill="none" xmlns="http://www.w3.org/2000/svg">
    <rect width="32" height="32" rx="7" fill="#DC2626"/>
    <path d="M21.6979 4.48341C22.0283 3.83886 22.9495 3.83886 23.2799 4.48341L27.2476 12.2237C27.5508 12.8152 27.1212 13.5181 26.4566 13.5181H18.5212C17.8565 13.5181 17.4269 12.8152 17.7301 12.2237L21.6979 4.48341Z" fill="white"/>
    <path d="M8.84444 13.6958C11.52 13.6958 13.6889 11.5269 13.6889 8.85139C13.6889 6.17587 11.52 4.00694 8.84444 4.00694C6.16893 4.00694 4 6.17587 4 8.85139C4 11.5269 6.16893 13.6958 8.84444 13.6958Z" fill="white"/>
    <path d="M11.8222 17.9625H5.77778C4.99231 17.9625 4.35556 18.5992 4.35556 19.3847V25.518C4.35556 26.3035 4.99231 26.9403 5.77778 26.9403H11.8222C12.6077 26.9403 13.2444 26.3035 13.2444 25.518V19.3847C13.2444 18.5992 12.6077 17.9625 11.8222 17.9625Z" fill="white"/>
    <path d="M21.7334 17.8285C22.1795 17.4877 22.7983 17.4877 23.2444 17.8285L26.7769 20.5271C27.1913 20.8437 27.3644 21.3852 27.2104 21.8834L25.8364 26.3299C25.6752 26.8514 25.1932 27.2069 24.6474 27.2069H20.3304C19.7846 27.2069 19.3026 26.8514 19.1414 26.3299L17.7674 21.8834C17.6134 21.3852 17.7865 20.8437 18.2009 20.5271L21.7334 17.8285Z" fill="white"/>
</svg>
