<?xml version="1.0" standalone="no"?>
<!DOCTYPE svg PUBLIC "-//W3C//DTD SVG 20010904//EN"
 "http://www.w3.org/TR/2001/REC-SVG-20010904/DTD/svg10.dtd">
<svg version="1.0" xmlns="http://www.w3.org/2000/svg"
 width="360.000000pt" height="118.000000pt" viewBox="0 0 360.000000 118.000000"
 preserveAspectRatio="xMidYMid meet">

<g transform="translate(0.000000,118.000000) scale(0.100000,-0.100000)"
fill="#000000" stroke="none">
<path d="M1502 964 c-66 -17 -84 -27 -132 -70 l-39 -35 -42 31 c-75 54 -246
92 -318 71 -68 -21 -148 -97 -206 -196 -9 -15 -16 -9 -49 40 -74 106 -158 159
-256 160 -125 0 -214 -79 -287 -256 -64 -153 -78 -323 -38 -465 18 -61 66
-109 122 -121 105 -22 261 4 369 61 l62 33 16 -28 c26 -44 83 -73 142 -73 60
0 92 18 133 75 16 22 32 36 35 31 17 -27 117 -83 166 -92 77 -15 125 -4 170
36 36 33 38 33 54 15 36 -40 115 -65 207 -66 80 0 92 3 157 36 66 34 72 35 77
18 3 -10 20 -30 38 -45 28 -23 37 -26 94 -22 80 5 109 26 148 106 17 34 37 62
45 62 14 1 91 27 131 44 14 6 17 -2 21 -53 4 -50 9 -66 34 -92 16 -17 40 -36
54 -41 40 -16 418 -10 454 7 25 13 32 13 60 -2 44 -23 413 -20 463 4 55 26 78
68 78 143 -1 98 -13 273 -20 292 -5 12 2 29 19 49 36 42 39 64 28 170 -9 88
-12 95 -45 125 -48 44 -91 54 -243 54 -139 0 -207 -14 -239 -50 -17 -19 -18
-19 -47 5 -16 13 -45 29 -66 35 -48 13 -286 13 -334 0 -45 -13 -96 -54 -109
-88 l-9 -24 -44 36 c-93 76 -196 108 -278 85 -61 -16 -95 -43 -129 -105 l-31
-54 -45 50 c-55 61 -110 94 -181 109 -69 14 -125 13 -190 -5z m244 -87 c92
-47 141 -128 151 -248 l6 -70 32 94 c41 124 83 206 118 232 40 28 127 27 185
-4 57 -29 116 -84 136 -125 22 -47 20 -128 -4 -175 -37 -73 -131 -129 -242
-146 -45 -7 -45 -7 -61 -64 -19 -69 -51 -101 -101 -103 -60 -2 -81 27 -81 110
0 37 3 92 7 122 l8 55 -20 -62 c-28 -86 -100 -164 -178 -193 -117 -44 -247 -9
-309 84 -40 59 -52 99 -60 204 l-6 82 -17 -37 c-18 -40 -54 -66 -107 -77 l-31
-7 68 -68 c37 -37 71 -78 75 -90 19 -61 -34 -108 -112 -97 -84 11 -142 54
-201 149 l-30 48 -17 -58 c-24 -81 -52 -132 -80 -145 -34 -15 -91 -2 -114 28
-29 38 -34 79 -18 169 28 155 107 313 191 379 35 29 44 31 110 30 107 -3 205
-42 250 -101 10 -14 24 -46 31 -72 9 -32 13 -39 14 -20 2 45 51 129 92 156 64
42 107 54 189 50 56 -3 88 -10 126 -30z m1109 6 c40 -19 53 -51 39 -92 -14
-39 -49 -51 -151 -51 -68 0 -93 -3 -93 -12 0 -7 -3 -22 -6 -33 -5 -19 0 -20
68 -21 93 -1 125 -9 138 -34 29 -55 -28 -89 -158 -98 -48 -3 -85 -10 -87 -16
-2 -6 -6 -24 -10 -39 l-6 -28 113 6 c107 7 115 6 141 -15 37 -29 39 -99 4
-134 -22 -22 -32 -23 -208 -28 -208 -7 -239 -1 -257 50 -13 37 -2 129 34 289
39 177 61 241 87 255 58 31 287 32 352 1z m520 3 c39 -17 54 -53 39 -95 -14
-39 -49 -51 -147 -51 -90 0 -92 -1 -99 -44 -3 -18 4 -20 80 -22 114 -3 151
-29 122 -84 -14 -26 -99 -50 -177 -50 -60 0 -63 -1 -69 -27 -3 -16 -7 -34 -10
-41 -3 -10 21 -11 115 -6 112 6 119 6 140 -15 30 -30 29 -103 -2 -135 -22 -22
-32 -23 -208 -28 -258 -8 -268 -3 -256 146 6 75 43 252 77 368 14 46 28 71 43
80 55 29 285 32 352 4z m-2839 -6 c23 -12 63 -43 89 -71 126 -135 138 -323 27
-421 -103 -89 -324 -134 -420 -84 -74 38 -67 225 16 406 76 167 174 225 288
170z"/>
<path d="M1042 738 c-25 -53 -25 -67 4 -74 35 -9 78 14 82 43 7 47 -65 73 -86
31z"/>
<path d="M2152 717 c-15 -18 -37 -105 -29 -113 9 -9 70 4 92 19 25 19 23 67
-5 89 -26 21 -44 23 -58 5z"/>
<path d="M1592 699 c-32 -12 -55 -73 -49 -126 6 -57 21 -73 67 -73 54 0 80 35
80 105 0 77 -42 117 -98 94z"/>
<path d="M430 618 c-10 -24 -21 -58 -25 -75 -6 -32 -6 -33 28 -33 74 0 111 67
66 124 -29 37 -47 33 -69 -16z"/>
</g>
</svg>
