<svg xmlns="http://www.w3.org/2000/svg" viewBox="0 0 105 35">
    <path d="M 98.147 20.965 C 98.147 26.495 94.052 30.065 87.787 30.065 C 81.627 30.065 77.427 26.285 77.427 19.6 L 77.427 15.4 C 77.427 8.715 81.627 4.935 87.787 4.935 C 93.702 4.935 97.937 8.19 98.112 13.86 L 93.387 13.86 C 93.247 11.025 91.182 9.485 87.787 9.485 C 84.112 9.485 82.152 11.515 82.152 15.4 L 82.152 19.6 C 82.152 23.485 84.112 25.515 87.787 25.515 C 91.672 25.515 93.422 23.905 93.422 20.965 L 93.422 20.72 L 87.752 20.72 L 87.752 16.345 L 98.147 16.345 Z M 16.424 25.305 L 20.169 25.305 C 23.459 25.305 26.154 23.485 26.154 18.9 L 26.154 16.1 C 26.154 11.515 23.459 9.695 20.169 9.695 L 16.424 9.695 Z M 20.169 29.75 L 11.699 29.75 L 11.699 5.25 L 20.169 5.25 C 26.679 5.25 30.879 9.415 30.879 16.1 L 30.879 18.9 C 30.879 25.585 26.679 29.75 20.169 29.75 Z M 48.797 29.75 L 34.027 29.75 L 34.027 25.375 L 38.997 25.375 L 38.997 9.625 L 34.027 9.625 L 34.027 5.25 L 48.797 5.25 L 48.797 9.625 L 43.722 9.625 L 43.722 25.375 L 48.797 25.375 Z M 53.364 29.75 L 57.914 29.75 L 57.914 6.125 L 64.004 29.75 L 73.244 29.75 L 73.244 5.25 L 68.694 5.25 L 68.694 29.05 L 62.394 5.25 L 53.364 5.25 Z M 5.691 25.569 C 7.03 25.569 8.115 24.484 8.115 23.145 C 8.115 21.806 7.03 20.721 5.691 20.721 C 4.352 20.721 3.267 21.806 3.267 23.145 C 3.267 24.484 4.352 25.569 5.691 25.569 Z"
          fill="#fff"></path>
</svg>
