<svg width="149" height="42" viewBox="0 0 149 42" fill="none" xmlns="http://www.w3.org/2000/svg">
    <mask id="mask0_11_43" style="mask-type:luminance" maskUnits="userSpaceOnUse" x="15" y="9" width="123" height="24">
        <path d="M137.51 9H15V33H137.51V9Z" fill="white" style="fill:white;fill-opacity:1;"/>
    </mask>
    <g mask="url(#mask0_11_43)">
        <path d="M98.68 9.63H91.64L84.84 19.72V9.66H78.72V32.33H84.84V21.48L92.1 32.33H99.52L91.01 20.47L98.68 9.63ZM69.84 11.77C67.96 10.05 65.52 9 62.72 9C56.24 9 51.4 14.13 51.4 20.98C51.4 27.83 56.24 33 62.72 33C65.48 33 67.88 31.99 69.72 30.27L70.24 32.33H75.18V9.63H70.44L69.84 11.77ZM63.2 27.2C59.8 27.2 57.32 24.51 57.32 20.98C57.32 17.45 59.8 14.76 63.2 14.76C66.6 14.76 69.08 17.41 69.08 20.98C69.08 24.55 66.6 27.2 63.2 27.2ZM135.5 9.5C132.56 9.5 130.55 10.42 128.92 12.44L127.83 9.62H123.93V32.33H130.05V20.56C130.05 16.86 131.39 15.31 134.83 15.31H137.51V9.5H135.5ZM40.74 9.13C39.3697 9.12904 38.0192 9.45628 36.8013 10.0843C35.5834 10.7124 34.5337 11.623 33.74 12.74C32.4 10.47 30.05 9.13 27.16 9.13C24.48 9.13 22 10.43 20.41 12.45L19.28 9.63H15V32.33H21.12V20.05C21.12 16.52 22.76 14.5 25.52 14.5C27.7 14.5 28.87 16.1 28.87 19.12V32.32H34.82V20.05C34.82 16.52 36.46 14.5 39.18 14.5C41.4 14.5 42.58 16.1 42.58 19.12V32.32H48.7V18.12C48.71 12.78 45.44 9.13 40.74 9.13Z" fill="white" style="fill:white;fill-opacity:1;"/>
        <path d="M109.67 9C102.96 9 97.9301 14.17 97.9301 20.98C97.9301 27.79 103 33 109.67 33C114.95 33 119.27 29.85 120.91 24.89H114.49C113.57 26.53 111.81 27.54 109.67 27.54C106.69 27.54 104.68 25.82 104.14 22.71H121.29C121.37 22.12 121.42 21.53 121.42 20.94C121.42 14.38 116.64 9 109.68 9H109.67ZM104.3 18.54C105.01 15.85 106.94 14.25 109.67 14.25C112.4 14.25 114.41 15.76 115.29 18.54H104.3Z" fill="white" style="fill:white;fill-opacity:1;"/>
    </g>
</svg>
