<svg width="148" height="45" viewBox="0 0 148 45" fill="none" xmlns="http://www.w3.org/2000/svg">
    <g clip-path="url(#clip0_11_50)">
        <path fill-rule="evenodd" clip-rule="evenodd" d="M0.367246 11.7374C0.473185 11.4814 0.722938 11.3145 0.999988 11.3145H11.5136C11.8918 11.3145 12.1983 11.621 12.1983 11.9992V22.4991C12.1983 22.776 12.0316 23.0257 11.7758 23.1317C11.52 23.2378 11.2256 23.1793 11.0297 22.9837L0.516089 12.4838C0.320058 12.288 0.261307 11.9934 0.367246 11.7374ZM2.65472 12.684L10.8288 20.8474V12.684H2.65472Z" fill="black" style="fill:black;fill-opacity:1;"/>
        <path fill-rule="evenodd" clip-rule="evenodd" d="M21.3943 11.7374C21.5003 11.4814 21.75 11.3145 22.0271 11.3145H32.5407C32.9189 11.3145 33.2254 11.621 33.2254 11.9992V22.4991C33.2254 22.776 33.0587 23.0257 32.8029 23.1317C32.5471 23.2378 32.2527 23.1793 32.0568 22.9837L21.5432 12.4838C21.3472 12.288 21.2884 11.9934 21.3943 11.7374ZM23.6818 12.684L31.8559 20.8474V12.684H23.6818Z" fill="black" style="fill:black;fill-opacity:1;"/>
        <path fill-rule="evenodd" clip-rule="evenodd" d="M10.8809 32.7384C10.9869 32.4824 11.2366 32.3154 11.5137 32.3154H22.0272C22.4054 32.3154 22.712 32.622 22.712 33.0002V43.5001C22.712 43.777 22.5453 44.0266 22.2895 44.1327C22.0337 44.2387 21.7393 44.1803 21.5433 43.9846L11.0298 33.4847C10.8337 33.289 10.775 32.9944 10.8809 32.7384ZM13.1684 33.685L21.3425 41.8484V33.685H13.1684Z" fill="black" style="fill:black;fill-opacity:1;"/>
        <path fill-rule="evenodd" clip-rule="evenodd" d="M21.7648 32.3677C22.0206 32.2616 22.3151 32.32 22.511 32.5157L33.0245 43.0156C33.2206 43.2114 33.2793 43.506 33.1734 43.762C33.0674 44.018 32.8177 44.1849 32.5406 44.1849H22.0271C21.6489 44.1849 21.3423 43.8783 21.3423 43.5001V33.0002C21.3423 32.7233 21.509 32.4737 21.7648 32.3677ZM22.7119 34.6519V42.8154H30.8859L22.7119 34.6519Z" fill="black" style="fill:black;fill-opacity:1;"/>
        <path fill-rule="evenodd" clip-rule="evenodd" d="M21.7648 11.3667C22.0206 11.2606 22.3151 11.3191 22.511 11.5147L33.0245 22.0146C33.2206 22.2104 33.2793 22.505 33.1734 22.761C33.0674 23.017 32.8177 23.1839 32.5406 23.1839H22.0271C21.6489 23.1839 21.3423 22.8774 21.3423 22.4992V11.9993C21.3423 11.7224 21.509 11.4727 21.7648 11.3667ZM22.7119 13.6509V21.8144H30.8859L22.7119 13.6509Z" fill="black" style="fill:black;fill-opacity:1;"/>
        <path fill-rule="evenodd" clip-rule="evenodd" d="M21.7648 21.8677C22.0206 21.7616 22.3151 21.82 22.511 22.0157L33.0245 32.5156C33.2206 32.7114 33.2793 33.006 33.1734 33.262C33.0674 33.518 32.8177 33.6849 32.5406 33.6849H22.0271C21.6489 33.6849 21.3423 33.3783 21.3423 33.0001V22.5002C21.3423 22.2233 21.509 21.9737 21.7648 21.8677ZM22.7119 24.1519V32.3153H30.8859L22.7119 24.1519Z" fill="black" style="fill:black;fill-opacity:1;"/>
        <path fill-rule="evenodd" clip-rule="evenodd" d="M21.3943 22.2384C21.5003 21.9824 21.75 21.8154 22.0271 21.8154H32.5407C32.9189 21.8154 33.2254 22.122 33.2254 22.5002V33.0001C33.2254 33.277 33.0587 33.5266 32.8029 33.6327C32.5471 33.7387 32.2527 33.6803 32.0568 33.4846L21.5432 22.9847C21.3472 22.789 21.2884 22.4944 21.3943 22.2384ZM23.6818 23.185L31.8559 31.3484V23.185H23.6818Z" fill="black" style="fill:black;fill-opacity:1;"/>
        <path fill-rule="evenodd" clip-rule="evenodd" d="M21.3943 32.7384C21.5003 32.4824 21.75 32.3154 22.0271 32.3154H32.5407C32.9189 32.3154 33.2254 32.622 33.2254 33.0002V43.5001C33.2254 43.777 33.0587 44.0266 32.8029 44.1327C32.5471 44.2387 32.2527 44.1803 32.0568 43.9846L21.5432 33.4847C21.3472 33.289 21.2884 32.9944 21.3943 32.7384ZM23.6818 33.685L31.8559 41.8484V33.685H23.6818Z" fill="black" style="fill:black;fill-opacity:1;"/>
        <path fill-rule="evenodd" clip-rule="evenodd" d="M32.2785 11.3667C32.5343 11.2606 32.8287 11.3191 33.0246 11.5147L43.5382 22.0146C43.7342 22.2104 43.793 22.505 43.6871 22.761C43.5811 23.017 43.3314 23.1839 43.0543 23.1839H32.5407C32.1625 23.1839 31.856 22.8774 31.856 22.4992V11.9993C31.856 11.7224 32.0227 11.4727 32.2785 11.3667ZM33.2255 13.6509V21.8144H41.3996L33.2255 13.6509Z" fill="black" style="fill:black;fill-opacity:1;"/>
        <path fill-rule="evenodd" clip-rule="evenodd" d="M32.2785 0.867661C32.5343 0.761617 32.8287 0.820041 33.0246 1.0157L43.5382 11.5156C43.7342 11.7114 43.793 12.006 43.6871 12.262C43.5811 12.518 43.3314 12.6849 43.0543 12.6849H32.5407C32.1625 12.6849 31.856 12.3783 31.856 12.0001V1.50023C31.856 1.22334 32.0227 0.973704 32.2785 0.867661ZM33.2255 3.15192V11.3153H41.3996L33.2255 3.15192Z" fill="black" style="fill:black;fill-opacity:1;"/>
        <path fill-rule="evenodd" clip-rule="evenodd" d="M31.908 11.7374C32.014 11.4814 32.2637 11.3145 32.5408 11.3145H43.0543C43.4325 11.3145 43.7391 11.621 43.7391 11.9992V22.4991C43.7391 22.776 43.5724 23.0257 43.3166 23.1317C43.0608 23.2378 42.7664 23.1793 42.5704 22.9837L32.0569 12.4838C31.8608 12.288 31.8021 11.9934 31.908 11.7374ZM34.1955 12.684L42.3696 20.8474V12.684H34.1955Z" fill="black" style="fill:black;fill-opacity:1;"/>
        <path d="M147.918 27.618H136.517C136.659 28.9011 137.15 29.9346 137.989 30.7187C138.827 31.5027 139.871 31.8948 141.12 31.8948C142.155 31.8948 143.02 31.6631 143.716 31.1998C144.43 30.7187 144.947 30.095 145.269 29.3287H147.597C147.187 30.6118 146.411 31.6988 145.269 32.5897C144.145 33.4807 142.762 33.9262 141.12 33.9262C139.835 33.9262 138.658 33.6233 137.587 33.0174C136.534 32.3937 135.696 31.5473 135.071 30.4781C134.465 29.4089 134.161 28.2239 134.161 26.9231C134.161 25.6222 134.465 24.4372 135.071 23.368C135.696 22.2989 136.534 21.4613 137.587 20.8555C138.658 20.2318 139.835 19.9199 141.12 19.9199C142.387 19.9199 143.538 20.2229 144.573 20.8287C145.608 21.4346 146.419 22.281 147.008 23.368C147.615 24.455 147.918 25.6935 147.918 27.0835V27.618ZM141.12 21.9514C139.942 21.9514 138.943 22.2989 138.123 22.9938C137.32 23.6888 136.811 24.6154 136.597 25.7737H145.59C145.376 24.6511 144.867 23.7333 144.064 23.0206C143.279 22.3078 142.298 21.9514 141.12 21.9514Z" fill="black" style="fill:black;fill-opacity:1;"/>
        <path d="M125.216 33.6591V20.1874H127.331V22.3525H127.465C127.786 21.6931 128.285 21.1496 128.963 20.722C129.659 20.2765 130.48 20.0537 131.426 20.0537H133.299V22.1653H131.426C130.23 22.1653 129.267 22.5574 128.535 23.3414C127.804 24.1255 127.438 25.1502 127.438 26.4154V33.6591H125.216Z" fill="black" style="fill:black;fill-opacity:1;"/>
        <path d="M114.409 33.9265C112.785 33.9265 111.518 33.4365 110.608 32.4564C109.698 31.4585 109.243 30.0418 109.243 28.2064V20.1875H111.465V27.8589C111.465 29.1419 111.759 30.1398 112.348 30.8526C112.955 31.5476 113.82 31.8951 114.944 31.8951C115.729 31.8951 116.434 31.7169 117.059 31.3605C117.701 30.9863 118.201 30.4784 118.557 29.8369C118.914 29.1954 119.093 28.4648 119.093 27.6451V20.1875H121.314V33.6592H119.173V31.4941H119.039C118.611 32.2247 117.995 32.8128 117.192 33.2583C116.39 33.7038 115.462 33.9265 114.409 33.9265Z" fill="black" style="fill:black;fill-opacity:1;"/>
        <path d="M102.439 22.2191V31.6279H106.829V33.6593H100.218V22.2191H97.2202V20.1876H100.218V16.793H102.439V20.1876H105.999V22.2191H102.439Z" fill="black" style="fill:black;fill-opacity:1;"/>
        <path d="M85.9387 33.6592H83.4229L86.929 26.8432L83.6102 20.1875H86.1528L88.9363 25.774H90.7563L93.5398 20.1875H96.0289L92.7101 26.8432L96.2162 33.6592H93.6469L90.7028 27.8054H88.9096L85.9387 33.6592Z" fill="black" style="fill:black;fill-opacity:1;"/>
        <path d="M82.314 27.618H70.9124C71.0551 28.9011 71.5458 29.9346 72.3844 30.7187C73.2231 31.5027 74.2669 31.8948 75.5159 31.8948C76.5508 31.8948 77.4161 31.6631 78.112 31.1998C78.8257 30.7187 79.3432 30.095 79.6644 29.3287H81.9929C81.5825 30.6118 80.8063 31.6988 79.6644 32.5897C78.5403 33.4807 77.1574 33.9262 75.5159 33.9262C74.2312 33.9262 73.0535 33.6233 71.983 33.0174C70.9302 32.3937 70.0916 31.5473 69.4671 30.4781C68.8605 29.4089 68.5571 28.2239 68.5571 26.9231C68.5571 25.6222 68.8605 24.4372 69.4671 23.368C70.0916 22.2989 70.9302 21.4613 71.983 20.8555C73.0535 20.2318 74.2312 19.9199 75.5159 19.9199C76.7827 19.9199 77.9336 20.2229 78.9685 20.8287C80.0034 21.4346 80.8152 22.281 81.404 23.368C82.0107 24.455 82.314 25.6935 82.314 27.0835V27.618ZM75.5159 21.9514C74.3382 21.9514 73.339 22.2989 72.5183 22.9938C71.7153 23.6888 71.2068 24.6154 70.9927 25.7737H79.9855C79.7714 24.6511 79.2629 23.7333 78.46 23.0206C77.6749 22.3078 76.6935 21.9514 75.5159 21.9514Z" fill="black" style="fill:black;fill-opacity:1;"/>
        <path d="M64.2535 33.659H61.8447V17.247H55.6086V14.9482H70.4629V17.247H64.2535V33.659Z" fill="black" style="fill:black;fill-opacity:1;"/>
    </g>
    <defs>
        <clipPath id="clip0_11_50">
            <rect width="148" height="45" fill="white" style="fill:white;fill-opacity:1;"/>
        </clipPath>
    </defs>
</svg>
