<svg width="175" height="56" viewBox="0 0 175 56" fill="none" xmlns="http://www.w3.org/2000/svg">
    <path fill-rule="evenodd" clip-rule="evenodd"
          d="M88.9 27.07C88.9 27.31 89.1 27.5 89.34 27.5H92.88C93.18 27.5 93.45 27.43 93.7 27.3C93.95 27.16 94.17 26.97 94.36 26.73C94.5535 26.4772 94.7023 26.193 94.8 25.89C95.0212 25.2057 95.0106 24.4677 94.77 23.79C94.6532 23.4862 94.484 23.2053 94.27 22.96C94.0754 22.7321 93.8375 22.5451 93.57 22.41C93.3156 22.2814 93.035 22.2129 92.75 22.21H89.25C89.2045 22.2087 89.1592 22.2165 89.1168 22.2329C89.0744 22.2494 89.0357 22.2743 89.0031 22.306C88.9704 22.3377 88.9445 22.3756 88.9268 22.4175C88.9091 22.4594 88.9 22.5045 88.9 22.55V27.07ZM85.72 35.42V19.77C85.72 19.58 85.88 19.43 86.07 19.43H92.96C93.71 19.43 94.4 19.58 95.04 19.9C96.3002 20.511 97.275 21.5861 97.76 22.9C98.0753 23.6855 98.2033 24.5337 98.1339 25.3772C98.0644 26.2208 97.7995 27.0366 97.36 27.76C96.9228 28.4846 96.2927 29.0732 95.54 29.46C95.4973 29.4817 95.4597 29.5121 95.4296 29.5493C95.3996 29.5865 95.3777 29.6297 95.3654 29.6759C95.3531 29.7222 95.3508 29.7705 95.3584 29.8177C95.3661 29.8649 95.3837 29.91 95.41 29.95L98.62 35.25C98.6522 35.3016 98.67 35.3608 98.6714 35.4216C98.6729 35.4824 98.6581 35.5425 98.6285 35.5956C98.5989 35.6487 98.5556 35.6929 98.5031 35.7236C98.4506 35.7542 98.3908 35.7703 98.33 35.77H95.68C95.5858 35.7714 95.4928 35.7482 95.4104 35.7026C95.3279 35.657 95.2588 35.5906 95.21 35.51L92.21 30.57C92.1573 30.4847 92.0838 30.4142 91.9963 30.3652C91.9088 30.3162 91.8103 30.2903 91.71 30.29H89.24C89.1498 30.29 89.0633 30.3258 88.9996 30.3896C88.9358 30.4533 88.9 30.5398 88.9 30.63V35.43C88.9 35.61 88.75 35.77 88.56 35.77H86.06C86.0145 35.77 85.9694 35.7609 85.9275 35.7432C85.8856 35.7255 85.8477 35.6995 85.816 35.6669C85.7843 35.6343 85.7594 35.5956 85.7429 35.5532C85.7265 35.5108 85.7187 35.4655 85.72 35.42ZM112.39 29.12L110.54 23.85C110.518 23.7934 110.48 23.7447 110.43 23.7104C110.38 23.6761 110.321 23.6577 110.26 23.6577C110.199 23.6577 110.14 23.6761 110.09 23.7104C110.04 23.7447 110.002 23.7934 109.98 23.85L108.05 29.13C108.036 29.1717 108.032 29.2162 108.038 29.2598C108.044 29.3034 108.061 29.345 108.086 29.381C108.111 29.4171 108.145 29.4466 108.184 29.4673C108.223 29.488 108.266 29.4992 108.31 29.5H112.12C112.32 29.5 112.45 29.3 112.39 29.12ZM109.16 19.46H111.36C111.54 19.46 111.71 19.58 111.77 19.75L117.65 35.2C117.676 35.2659 117.685 35.3371 117.678 35.4074C117.67 35.4778 117.646 35.5453 117.606 35.6042C117.567 35.6631 117.514 35.7116 117.452 35.7457C117.39 35.7798 117.321 35.7984 117.25 35.8H114.92C114.83 35.7992 114.743 35.7711 114.67 35.7192C114.596 35.6674 114.541 35.5944 114.51 35.51L113.21 32.01C113.177 31.9259 113.119 31.8539 113.044 31.8038C112.969 31.7537 112.88 31.7279 112.79 31.73H107.69C107.6 31.7307 107.513 31.7589 107.44 31.8108C107.366 31.8626 107.311 31.9356 107.28 32.02L105.99 35.52C105.958 35.6025 105.901 35.6734 105.828 35.7233C105.755 35.7733 105.669 35.8 105.58 35.8H103.26C103.188 35.8 103.118 35.7826 103.055 35.7491C102.991 35.7157 102.937 35.6674 102.897 35.6082C102.856 35.5491 102.831 35.481 102.823 35.4099C102.815 35.3387 102.824 35.2667 102.85 35.2L108.75 19.75C108.781 19.6656 108.836 19.5926 108.91 19.5408C108.983 19.4889 109.07 19.4607 109.16 19.46ZM125.23 26.22V35.38C125.227 35.4923 125.181 35.5991 125.101 35.6776C125.02 35.7561 124.912 35.8 124.8 35.8H122.48C122.368 35.8 122.26 35.7561 122.179 35.6776C122.099 35.5991 122.053 35.4923 122.05 35.38V19.88C122.05 19.65 122.25 19.46 122.48 19.46H124.21C124.41 19.46 124.59 19.56 124.71 19.7L132.51 29.53C132.69 29.75 133.04 29.63 133.04 29.35V19.91C133.04 19.68 133.23 19.49 133.46 19.49H135.78C136.02 19.49 136.21 19.68 136.21 19.91V35.38C136.207 35.4923 136.161 35.5991 136.081 35.6776C136 35.7561 135.892 35.8 135.78 35.8H133.92C133.829 35.7989 133.74 35.7777 133.659 35.7379C133.578 35.6982 133.506 35.6408 133.45 35.57L125.78 26.02C125.739 25.9702 125.684 25.9343 125.622 25.9173C125.56 25.9002 125.494 25.9029 125.434 25.9248C125.374 25.9468 125.322 25.987 125.285 26.0399C125.248 26.0928 125.229 26.1557 125.23 26.22Z"
          fill="black" style="fill:black;fill-opacity:1;"/>
    <path fill-rule="evenodd" clip-rule="evenodd"
          d="M140.93 27.52C140.93 26.52 141.11 25.53 141.47 24.56C141.825 23.5972 142.362 22.7113 143.05 21.95C143.761 21.1652 144.621 20.5295 145.58 20.08C146.58 19.61 147.71 19.38 148.98 19.38C150.49 19.38 151.79 19.7 152.89 20.36C153.89 20.96 154.66 21.73 155.2 22.67C155.242 22.7423 155.256 22.8281 155.237 22.9098C155.218 22.9915 155.169 23.0631 155.1 23.11L153.21 24.41C153.172 24.4348 153.129 24.4514 153.084 24.4588C153.039 24.4662 152.993 24.4642 152.949 24.4529C152.905 24.4417 152.863 24.4214 152.827 24.3933C152.791 24.3653 152.762 24.3301 152.74 24.29C152.369 23.6177 151.809 23.0685 151.13 22.71C150.783 22.5288 150.413 22.3943 150.03 22.31C149.659 22.2259 149.28 22.1823 148.9 22.18C148.21 22.1616 147.526 22.3102 146.907 22.6132C146.287 22.9162 145.749 23.3645 145.34 23.92C144.941 24.4452 144.639 25.038 144.45 25.67C144.254 26.2981 144.153 26.952 144.15 27.61C144.15 28.33 144.27 29.02 144.5 29.69C144.716 30.3316 145.049 30.9282 145.48 31.45C145.9 31.95 146.41 32.37 147 32.67C147.59 32.97 148.24 33.13 148.94 33.13C149.31 33.13 149.69 33.09 150.09 32.99C150.908 32.807 151.655 32.3901 152.24 31.79C152.47 31.55 152.67 31.27 152.83 30.96C152.851 30.9205 152.88 30.8856 152.914 30.8575C152.949 30.8293 152.989 30.8086 153.032 30.7964C153.075 30.7843 153.12 30.781 153.165 30.7867C153.209 30.7925 153.252 30.8072 153.29 30.83L155.31 31.99C155.382 32.032 155.435 32.0997 155.459 32.1795C155.484 32.2592 155.477 32.3452 155.44 32.42C155.19 32.92 154.86 33.37 154.46 33.77C153.972 34.2387 153.42 34.6359 152.82 34.95C152.207 35.2768 151.555 35.5254 150.88 35.69C150.216 35.8546 149.534 35.9385 148.85 35.94C147.74 35.9525 146.642 35.6988 145.65 35.2C144.702 34.7252 143.853 34.0735 143.15 33.28C142.45 32.4842 141.898 31.5699 141.52 30.58C141.134 29.6059 140.934 28.5679 140.93 27.52Z"
          fill="black" style="fill:black;fill-opacity:1;"/>
    <path fill-rule="evenodd" clip-rule="evenodd"
          d="M174.11 19.78V35.48C174.11 35.66 173.97 35.8 173.81 35.8H171.27C171.189 35.7975 171.111 35.764 171.054 35.7064C170.996 35.6488 170.963 35.5714 170.96 35.49V29.14C170.96 29.0578 170.927 28.9789 170.869 28.9208C170.811 28.8627 170.732 28.83 170.65 28.83H163.86C163.778 28.83 163.699 28.8627 163.641 28.9208C163.583 28.9789 163.55 29.0578 163.55 29.14V35.49C163.55 35.66 163.41 35.8 163.23 35.8H160.68C160.599 35.7975 160.521 35.764 160.464 35.7064C160.406 35.6488 160.373 35.5714 160.37 35.49V19.78C160.37 19.6 160.51 19.46 160.68 19.46H163.23C163.41 19.46 163.55 19.6 163.55 19.78V25.75C163.55 25.93 163.69 26.07 163.86 26.07H170.65C170.82 26.07 170.96 25.93 170.96 25.75V19.78C170.96 19.6 171.1 19.46 171.27 19.46H173.8C173.97 19.46 174.11 19.6 174.11 19.78Z"
          fill="black" style="fill:black;fill-opacity:1;"/>
    <path fill-rule="evenodd" clip-rule="evenodd"
          d="M77.11 31.78C77.01 32.04 76.86 32.28 76.68 32.46C76.4934 32.6539 76.2687 32.8072 76.02 32.91C75.761 33.0205 75.4815 33.075 75.2 33.07H70.81C70.7225 33.07 70.6385 33.0352 70.5766 32.9734C70.5148 32.9115 70.48 32.8275 70.48 32.74V29.1C70.48 28.92 70.63 28.78 70.81 28.78H75.37C75.64 28.78 75.9 28.84 76.12 28.95C76.36 29.07 76.55 29.22 76.72 29.42C76.991 29.744 77.1708 30.1343 77.2411 30.5508C77.3114 30.9673 77.2696 31.395 77.12 31.79M70.79 22.15H74.77C75.25 22.15 75.73 22.31 76.07 22.64C76.46 23.01 76.66 23.54 76.66 24.2C76.66 24.84 76.46 25.35 76.09 25.72C75.9106 25.8994 75.6967 26.0406 75.4612 26.1351C75.2258 26.2296 74.9736 26.2755 74.72 26.27H70.8C70.7204 26.27 70.6441 26.2384 70.5879 26.1821C70.5316 26.1259 70.5 26.0496 70.5 25.97V22.45C70.5 22.3704 70.5316 22.2941 70.5879 22.2379C70.6441 22.1816 70.7204 22.15 70.8 22.15M79.67 28.88C79.1372 28.1928 78.403 27.6893 77.57 27.44C77.5567 27.44 77.544 27.4347 77.5346 27.4254C77.5253 27.416 77.52 27.4033 77.52 27.39C77.52 27.3767 77.5253 27.364 77.5346 27.3546C77.544 27.3453 77.5567 27.34 77.57 27.34C78.2563 27.022 78.8262 26.4976 79.2 25.84C79.5231 25.2761 79.72 24.6487 79.777 24.0013C79.8339 23.3538 79.7497 22.7017 79.53 22.09C79.3598 21.6062 79.1059 21.156 78.78 20.76C78.4573 20.3657 78.0597 20.0394 77.61 19.8C77.1344 19.5542 76.6052 19.4305 76.07 19.44H67.6C67.5204 19.44 67.4441 19.4716 67.3879 19.5279C67.3316 19.5841 67.3 19.6604 67.3 19.74V35.44C67.3 35.63 67.45 35.78 67.63 35.78H75.2C75.8864 35.7826 76.5699 35.6883 77.23 35.5C77.8324 35.3335 78.401 35.0628 78.91 34.7C79.4 34.34 79.78 33.9 80.05 33.38C80.33 32.86 80.47 32.25 80.47 31.56C80.47 30.49 80.19 29.6 79.65 28.88"
          fill="black" style="fill:black;fill-opacity:1;"/>
    <path fill-rule="evenodd" clip-rule="evenodd"
          d="M36.71 26.83L29.14 34.39C28.94 34.59 28.59 34.44 28.59 34.15V32.03C28.59 31.69 28.73 31.35 28.97 31.11L38.67 21.39C38.7259 21.3343 38.7703 21.268 38.8006 21.1951C38.8309 21.1222 38.8465 21.044 38.8465 20.965C38.8465 20.886 38.8309 20.8078 38.8006 20.7349C38.7703 20.662 38.7259 20.5957 38.67 20.54L37.55 19.39C37.4951 19.3344 37.4297 19.2902 37.3576 19.26C37.2855 19.2299 37.2082 19.2144 37.13 19.2144C37.0519 19.2144 36.9745 19.2299 36.9024 19.26C36.8303 19.2902 36.7649 19.3344 36.71 19.39L29.26 26.83C29.2031 26.8821 29.1323 26.9166 29.0562 26.9294C28.9801 26.9422 28.9019 26.9326 28.8311 26.902C28.7603 26.8713 28.6998 26.8209 28.657 26.7566C28.6143 26.6924 28.591 26.6172 28.59 26.54V11.27C28.59 11.1109 28.5268 10.9583 28.4143 10.8457C28.3017 10.7332 28.1491 10.67 27.99 10.67H26.39C26.2344 10.6752 26.0868 10.7407 25.9786 10.8527C25.8704 10.9646 25.8099 11.1143 25.81 11.27V18.53C25.81 18.83 25.47 18.96 25.27 18.76L21 14.44C20.9458 14.3831 20.8807 14.3378 20.8085 14.3069C20.7363 14.276 20.6586 14.26 20.58 14.26C20.5015 14.26 20.4237 14.276 20.3515 14.3069C20.2793 14.3378 20.2142 14.3831 20.16 14.44L19.03 15.59C18.9741 15.6457 18.9297 15.712 18.8994 15.7849C18.8691 15.8578 18.8535 15.936 18.8535 16.015C18.8535 16.094 18.8691 16.1722 18.8994 16.2451C18.9297 16.318 18.9741 16.3843 19.03 16.44L25.26 22.76C25.6 23.11 25.8 23.59 25.8 24.08V30.12C25.8 30.44 25.4 30.61 25.18 30.38L15.33 20.38C15.2758 20.3231 15.2107 20.2778 15.1385 20.2469C15.0663 20.216 14.9886 20.2 14.91 20.2C14.8315 20.2 14.7537 20.216 14.6815 20.2469C14.6093 20.2778 14.5442 20.3231 14.49 20.38L13.36 21.53C13.3041 21.5857 13.2597 21.652 13.2294 21.7249C13.1991 21.7978 13.1835 21.876 13.1835 21.955C13.1835 22.034 13.1991 22.1122 13.2294 22.1851C13.2597 22.258 13.3041 22.3243 13.36 22.38L25.27 34.47C25.61 34.81 25.8 35.27 25.8 35.75V43.51C25.8 43.84 26.06 44.11 26.39 44.11H28C28.1574 44.1074 28.3075 44.043 28.4178 43.9308C28.5282 43.8185 28.59 43.6674 28.59 43.51V39.62C28.59 39.18 28.76 38.76 29.07 38.44L38.67 28.83C38.7259 28.7743 38.7703 28.708 38.8006 28.6351C38.8309 28.5622 38.8465 28.484 38.8465 28.405C38.8465 28.326 38.8309 28.2478 38.8006 28.1749C38.7703 28.102 38.7259 28.0357 38.67 27.98L37.55 26.83C37.4951 26.7744 37.4297 26.7302 37.3576 26.7C37.2855 26.6699 37.2082 26.6544 37.13 26.6544C37.0519 26.6544 36.9745 26.6699 36.9024 26.7C36.8303 26.7302 36.7649 26.7744 36.71 26.83Z"
          fill="black" style="fill:black;fill-opacity:1;"/>
    <path fill-rule="evenodd" clip-rule="evenodd"
          d="M27.01 2.6C13.77 2.6 2.99999 13.53 2.99999 26.96C2.99999 40.4 13.78 51.34 27.02 51.34C40.26 51.34 51.05 40.4 51.05 26.96C51.05 13.52 40.26 2.6 27.01 2.6ZM27.01 53.96C12.35 53.95 0.429993 41.84 0.429993 26.96C0.429993 12.1 12.36 0 27.01 0C41.67 0 53.6 12.1 53.6 26.97C53.6 41.85 41.67 53.95 27.01 53.95"
          fill="black" style="fill:black;fill-opacity:1;"/>
</svg>
