<svg width="72" height="12" viewBox="0 0 72 12" fill="none" xmlns="http://www.w3.org/2000/svg">
<path d="M0.860795 0.272727H2.79545L5.38636 6.59659H5.48864L8.07955 0.272727H10.0142V9H8.49716V3.00426H8.41619L6.00426 8.97443H4.87074L2.45881 2.99148H2.37784V9H0.860795V0.272727ZM13.5511 9.1321C13.1364 9.1321 12.7628 9.05824 12.4304 8.91051C12.1009 8.75994 11.8395 8.53835 11.6463 8.24574C11.456 7.95312 11.3608 7.59233 11.3608 7.16335C11.3608 6.79403 11.429 6.48864 11.5653 6.24716C11.7017 6.00568 11.8878 5.8125 12.1236 5.66761C12.3594 5.52273 12.625 5.41335 12.9205 5.33949C13.2188 5.26278 13.527 5.20739 13.8452 5.1733C14.2287 5.13352 14.5398 5.09801 14.7784 5.06676C15.017 5.03267 15.1903 4.98153 15.2983 4.91335C15.4091 4.84233 15.4645 4.73295 15.4645 4.58523V4.55966C15.4645 4.23864 15.3693 3.99006 15.179 3.81392C14.9886 3.63778 14.7145 3.54972 14.3565 3.54972C13.9787 3.54972 13.679 3.6321 13.4574 3.79688C13.2386 3.96165 13.0909 4.15625 13.0142 4.38068L11.5739 4.17614C11.6875 3.77841 11.875 3.44602 12.1364 3.17898C12.3977 2.90909 12.7173 2.70739 13.0952 2.57386C13.473 2.4375 13.8906 2.36932 14.348 2.36932C14.6634 2.36932 14.9773 2.40625 15.2898 2.48011C15.6023 2.55398 15.8878 2.67614 16.1463 2.84659C16.4048 3.0142 16.6122 3.2429 16.7685 3.53267C16.9276 3.82244 17.0071 4.18466 17.0071 4.61932V9H15.5241V8.10085H15.473C15.3793 8.28267 15.2472 8.45312 15.0767 8.61222C14.9091 8.76847 14.6974 8.89489 14.4418 8.99148C14.1889 9.08523 13.892 9.1321 13.5511 9.1321ZM13.9517 7.99858C14.2614 7.99858 14.5298 7.9375 14.7571 7.81534C14.9844 7.69034 15.1591 7.52557 15.2812 7.32102C15.4062 7.11648 15.4688 6.89347 15.4688 6.65199V5.88068C15.4205 5.92045 15.3381 5.95739 15.2216 5.99148C15.108 6.02557 14.9801 6.0554 14.8381 6.08097C14.696 6.10653 14.5554 6.12926 14.4162 6.14915C14.277 6.16903 14.1563 6.18608 14.054 6.20028C13.8239 6.23153 13.6179 6.28267 13.4361 6.35369C13.2543 6.42472 13.1108 6.52415 13.0057 6.65199C12.9006 6.77699 12.848 6.93892 12.848 7.13778C12.848 7.42188 12.9517 7.63636 13.1591 7.78125C13.3665 7.92614 13.6307 7.99858 13.9517 7.99858ZM18.5582 9V2.45455H20.054V3.54545H20.1222C20.2415 3.16761 20.446 2.87642 20.7358 2.67188C21.0284 2.46449 21.3622 2.3608 21.7372 2.3608C21.8224 2.3608 21.9176 2.36506 22.0227 2.37358C22.1307 2.37926 22.2202 2.3892 22.2912 2.40341V3.82244C22.2259 3.79972 22.1222 3.77983 21.9801 3.76278C21.8409 3.7429 21.706 3.73295 21.5753 3.73295C21.294 3.73295 21.0412 3.79403 20.8168 3.91619C20.5952 4.03551 20.4205 4.2017 20.2926 4.41477C20.1648 4.62784 20.1009 4.87358 20.1009 5.15199V9H18.5582ZM24.7223 6.94602L24.718 5.08381H24.9652L27.3175 2.45455H29.12L26.2266 5.67614H25.907L24.7223 6.94602ZM23.3161 9V0.272727H24.8587V9H23.3161ZM27.424 9L25.2933 6.02131L26.3331 4.93466L29.2692 9H27.424ZM30.1481 11.4545V2.45455H31.6651V3.53693H31.7546C31.8342 3.37784 31.9464 3.20881 32.0913 3.02983C32.2362 2.84801 32.4322 2.69318 32.6793 2.56534C32.9265 2.43466 33.2418 2.36932 33.6254 2.36932C34.131 2.36932 34.587 2.49858 34.9933 2.7571C35.4023 3.01278 35.7262 3.39205 35.9648 3.89489C36.2063 4.39489 36.3271 5.00852 36.3271 5.7358C36.3271 6.45455 36.2092 7.06534 35.9734 7.56818C35.7376 8.07102 35.4165 8.45455 35.0103 8.71875C34.604 8.98295 34.1438 9.11506 33.6296 9.11506C33.2546 9.11506 32.9435 9.05256 32.6964 8.92756C32.4492 8.80256 32.2504 8.65199 32.0998 8.47585C31.9521 8.29687 31.837 8.12784 31.7546 7.96875H31.6907V11.4545H30.1481ZM31.6609 5.72727C31.6609 6.15057 31.7205 6.52131 31.8398 6.83949C31.962 7.15767 32.1367 7.40625 32.364 7.58523C32.5941 7.76136 32.8725 7.84943 33.1992 7.84943C33.5401 7.84943 33.8256 7.75852 34.0558 7.5767C34.2859 7.39205 34.4592 7.14062 34.5756 6.82244C34.695 6.50142 34.7546 6.13636 34.7546 5.72727C34.7546 5.32102 34.6964 4.96023 34.5799 4.64489C34.4634 4.32955 34.2901 4.08239 34.06 3.90341C33.8299 3.72443 33.543 3.63494 33.1992 3.63494C32.8697 3.63494 32.5898 3.72159 32.3597 3.89489C32.1296 4.06818 31.9549 4.31108 31.8356 4.62358C31.7191 4.93608 31.6609 5.30398 31.6609 5.72727ZM37.6481 9V2.45455H39.1438V3.54545H39.212C39.3313 3.16761 39.5359 2.87642 39.8256 2.67188C40.1183 2.46449 40.4521 2.3608 40.8271 2.3608C40.9123 2.3608 41.0075 2.36506 41.1126 2.37358C41.2205 2.37926 41.31 2.3892 41.381 2.40341V3.82244C41.3157 3.79972 41.212 3.77983 41.07 3.76278C40.9308 3.7429 40.7958 3.73295 40.6651 3.73295C40.3839 3.73295 40.131 3.79403 39.9066 3.91619C39.685 4.03551 39.5103 4.2017 39.3825 4.41477C39.2546 4.62784 39.1907 4.87358 39.1907 5.15199V9H37.6481ZM44.9915 9.12784C44.3523 9.12784 43.7983 8.98722 43.3295 8.70597C42.8608 8.42472 42.4972 8.03125 42.2386 7.52557C41.983 7.01989 41.8551 6.42898 41.8551 5.75284C41.8551 5.0767 41.983 4.48437 42.2386 3.97585C42.4972 3.46733 42.8608 3.07244 43.3295 2.79119C43.7983 2.50994 44.3523 2.36932 44.9915 2.36932C45.6307 2.36932 46.1847 2.50994 46.6534 2.79119C47.1222 3.07244 47.4844 3.46733 47.7401 3.97585C47.9986 4.48437 48.1278 5.0767 48.1278 5.75284C48.1278 6.42898 47.9986 7.01989 47.7401 7.52557C47.4844 8.03125 47.1222 8.42472 46.6534 8.70597C46.1847 8.98722 45.6307 9.12784 44.9915 9.12784ZM45 7.89205C45.3466 7.89205 45.6364 7.79687 45.8693 7.60653C46.1023 7.41335 46.2756 7.15483 46.3892 6.83097C46.5057 6.5071 46.5639 6.14631 46.5639 5.74858C46.5639 5.34801 46.5057 4.9858 46.3892 4.66193C46.2756 4.33523 46.1023 4.07528 45.8693 3.8821C45.6364 3.68892 45.3466 3.59233 45 3.59233C44.6449 3.59233 44.3494 3.68892 44.1136 3.8821C43.8807 4.07528 43.706 4.33523 43.5895 4.66193C43.4759 4.9858 43.419 5.34801 43.419 5.74858C43.419 6.14631 43.4759 6.5071 43.5895 6.83097C43.706 7.15483 43.8807 7.41335 44.1136 7.60653C44.3494 7.79687 44.6449 7.89205 45 7.89205ZM49.4371 9V2.45455H50.9116V3.56676H50.9883C51.1246 3.19176 51.3505 2.89915 51.6658 2.68892C51.9812 2.47585 52.3576 2.36932 52.7951 2.36932C53.2383 2.36932 53.6119 2.47727 53.9158 2.69318C54.2227 2.90625 54.4386 3.19744 54.5636 3.56676H54.6317C54.7766 3.20312 55.021 2.91335 55.3647 2.69744C55.7113 2.47869 56.1218 2.36932 56.5962 2.36932C57.1985 2.36932 57.69 2.55966 58.0707 2.94034C58.4513 3.32102 58.6417 3.87642 58.6417 4.60653V9H57.0948V4.84517C57.0948 4.43892 56.9869 4.14205 56.771 3.95455C56.555 3.7642 56.2908 3.66903 55.9783 3.66903C55.6062 3.66903 55.315 3.78551 55.1048 4.01847C54.8974 4.24858 54.7937 4.5483 54.7937 4.91761V9H53.2809V4.78125C53.2809 4.44318 53.1786 4.1733 52.9741 3.97159C52.7724 3.76989 52.5082 3.66903 52.1815 3.66903C51.9599 3.66903 51.7582 3.72585 51.5763 3.83949C51.3945 3.95028 51.2496 4.10795 51.1417 4.3125C51.0337 4.5142 50.9798 4.75 50.9798 5.01989V9H49.4371ZM60.2067 11.4545V2.45455H61.7237V3.53693H61.8132C61.8928 3.37784 62.005 3.20881 62.1499 3.02983C62.2947 2.84801 62.4908 2.69318 62.7379 2.56534C62.9851 2.43466 63.3004 2.36932 63.6839 2.36932C64.1896 2.36932 64.6456 2.49858 65.0518 2.7571C65.4609 3.01278 65.7848 3.39205 66.0234 3.89489C66.2649 4.39489 66.3857 5.00852 66.3857 5.7358C66.3857 6.45455 66.2678 7.06534 66.032 7.56818C65.7962 8.07102 65.4751 8.45455 65.0689 8.71875C64.6626 8.98295 64.2024 9.11506 63.6882 9.11506C63.3132 9.11506 63.0021 9.05256 62.755 8.92756C62.5078 8.80256 62.3089 8.65199 62.1584 8.47585C62.0107 8.29687 61.8956 8.12784 61.8132 7.96875H61.7493V11.4545H60.2067ZM61.7195 5.72727C61.7195 6.15057 61.7791 6.52131 61.8984 6.83949C62.0206 7.15767 62.1953 7.40625 62.4226 7.58523C62.6527 7.76136 62.9311 7.84943 63.2578 7.84943C63.5987 7.84943 63.8842 7.75852 64.1143 7.5767C64.3445 7.39205 64.5178 7.14062 64.6342 6.82244C64.7536 6.50142 64.8132 6.13636 64.8132 5.72727C64.8132 5.32102 64.755 4.96023 64.6385 4.64489C64.522 4.32955 64.3487 4.08239 64.1186 3.90341C63.8885 3.72443 63.6016 3.63494 63.2578 3.63494C62.9283 3.63494 62.6484 3.72159 62.4183 3.89489C62.1882 4.06818 62.0135 4.31108 61.8942 4.62358C61.7777 4.93608 61.7195 5.30398 61.7195 5.72727ZM70.9751 2.45455V3.64773H67.2124V2.45455H70.9751ZM68.1413 0.886364H69.6839V7.03125C69.6839 7.23864 69.7152 7.39773 69.7777 7.50852C69.843 7.61648 69.9283 7.69034 70.0334 7.73011C70.1385 7.76989 70.255 7.78977 70.3828 7.78977C70.4794 7.78977 70.5675 7.78267 70.647 7.76847C70.7294 7.75426 70.7919 7.74148 70.8345 7.73011L71.0945 8.93608C71.0121 8.96449 70.8942 8.99574 70.7408 9.02983C70.5902 9.06392 70.4055 9.08381 70.1868 9.08949C69.8004 9.10085 69.4524 9.04261 69.1428 8.91477C68.8331 8.78409 68.5874 8.58239 68.4055 8.30966C68.2266 8.03693 68.1385 7.69602 68.1413 7.28693V0.886364Z" fill="black"/>
</svg>
