<svg width="105" height="35" viewBox="0 0 105 35" fill="none" xmlns="http://www.w3.org/2000/svg">
    <path d="M98.147 20.965C98.147 26.495 94.052 30.065 87.787 30.065C81.627 30.065 77.427 26.285 77.427 19.6V15.4C77.427 8.715 81.627 4.935 87.787 4.935C93.702 4.935 97.937 8.19 98.112 13.86H93.387C93.247 11.025 91.182 9.485 87.787 9.485C84.112 9.485 82.152 11.515 82.152 15.4V19.6C82.152 23.485 84.112 25.515 87.787 25.515C91.672 25.515 93.422 23.905 93.422 20.965V20.72H87.752V16.345H98.147V20.965ZM16.424 25.305H20.169C23.459 25.305 26.154 23.485 26.154 18.9V16.1C26.154 11.515 23.459 9.695 20.169 9.695H16.424V25.305ZM20.169 29.75H11.699V5.25H20.169C26.679 5.25 30.879 9.415 30.879 16.1V18.9C30.879 25.585 26.679 29.75 20.169 29.75ZM48.797 29.75H34.027V25.375H38.997V9.625H34.027V5.25H48.797V9.625H43.722V25.375H48.797V29.75ZM53.364 29.75H57.914V6.125L64.004 29.75H73.244V5.25H68.694V29.05L62.394 5.25H53.364V29.75ZM5.691 25.569C7.03 25.569 8.115 24.484 8.115 23.145C8.115 21.806 7.03 20.721 5.691 20.721C4.352 20.721 3.267 21.806 3.267 23.145C3.267 24.484 4.352 25.569 5.691 25.569Z" fill="white" style="fill:white;fill-opacity:1;"/>
</svg>
