<svg width="179" height="46" viewBox="0 0 179 46" fill="none" xmlns="http://www.w3.org/2000/svg">
    <g clip-path="url(#clip0_11_26)">
        <path d="M0.263977 35V1.4H6.40797L22.2 25.064V1.4H28.344V35H22.2L6.40797 11.384V35H0.263977ZM38.986 7.496C37.866 7.496 36.938 7.16 36.202 6.488C35.498 5.816 35.146 4.968 35.146 3.944C35.146 2.92 35.498 2.088 36.202 1.448C36.938 0.776002 37.866 0.440002 38.986 0.440002C40.106 0.440002 41.018 0.776002 41.722 1.448C42.458 2.088 42.826 2.92 42.826 3.944C42.826 4.968 42.458 5.816 41.722 6.488C41.018 7.16 40.106 7.496 38.986 7.496ZM35.914 35V11.192H42.058V35H35.914ZM50.535 35V16.328H47.271V11.192H50.535V8.408C50.535 5.528 51.255 3.48 52.695 2.264C54.167 1.048 56.151 0.440002 58.647 0.440002H61.287V5.672H59.607C58.551 5.672 57.799 5.88 57.351 6.296C56.903 6.712 56.679 7.416 56.679 8.408V11.192H61.815V16.328H56.679V35H50.535ZM78.249 35C75.753 35 73.753 34.392 72.249 33.176C70.745 31.96 69.993 29.8 69.993 26.696V16.328H65.913V11.192H69.993L70.713 4.808H76.137V11.192H82.569V16.328H76.137V26.744C76.137 27.896 76.377 28.696 76.857 29.144C77.369 29.56 78.233 29.768 79.449 29.768H82.425V35H78.249ZM91.78 45.56L97.3 33.416H95.86L86.596 11.192H93.268L99.94 27.944L106.9 11.192H113.428L98.308 45.56H91.78ZM118.548 35V1.4H124.692V14.984L137.124 1.4H144.708L132.324 14.744L145.044 35H137.508L127.908 19.448L124.692 22.952V35H118.548ZM153.379 7.496C152.259 7.496 151.331 7.16 150.595 6.488C149.891 5.816 149.539 4.968 149.539 3.944C149.539 2.92 149.891 2.088 150.595 1.448C151.331 0.776002 152.259 0.440002 153.379 0.440002C154.499 0.440002 155.411 0.776002 156.115 1.448C156.851 2.088 157.219 2.92 157.219 3.944C157.219 4.968 156.851 5.816 156.115 6.488C155.411 7.16 154.499 7.496 153.379 7.496ZM150.307 35V11.192H156.451V35H150.307ZM174.432 35C171.936 35 169.936 34.392 168.432 33.176C166.928 31.96 166.176 29.8 166.176 26.696V16.328H162.096V11.192H166.176L166.896 4.808H172.32V11.192H178.752V16.328H172.32V26.744C172.32 27.896 172.56 28.696 173.04 29.144C173.552 29.56 174.416 29.768 175.632 29.768H178.608V35H174.432Z" fill="black" style="fill:black;fill-opacity:1;"/>
    </g>
    <defs>
        <clipPath id="clip0_11_26">
            <rect width="179" height="46" fill="white" style="fill:white;fill-opacity:1;"/>
        </clipPath>
    </defs>
</svg>
