<svg viewBox="0 0 213 32" xmlns="http://www.w3.org/2000/svg"
    class="h-[2rem] lg:h-[2rem]">
    <g clip-path="url(#clip0_574_875)">
        <path
            d="M31.6966 10.5532C32.3248 12.2539 32.6687 14.0891 32.6687 16.0028C32.6687 24.8377 25.3694 32 16.3653 32C9.65241 32 3.88916 28.0177 1.39016 22.3312L9.89849 14.401L18.6697 23.1925L31.6966 10.5532ZM16.2672 0C21.9703 0 26.9842 2.86361 29.8884 7.19321L18.6071 18.0688L9.90569 9.40212L0.207407 18.383C0.0721856 17.5608 0 16.7187 0 15.8594C0 7.10053 7.28312 0 16.2672 0Z"
            fill="black"></path>
        <path
            d="M63.1388 30.4211V30.0307C62.5542 29.9266 61.8966 29.7704 61.1659 29.5622C60.4352 29.354 59.8706 28.9636 59.4721 28.391C59.2595 28.1047 59.1333 27.6167 59.0934 26.927C59.0536 26.2373 59.0336 25.5151 59.0336 24.7603V9.49564C59.0336 8.27238 59.0403 7.10118 59.0536 5.98204C59.0668 4.86289 59.0735 3.97798 59.0735 3.32732H61.704C62.076 3.32732 62.448 3.33382 62.8199 3.34684C63.1919 3.35985 63.6303 3.36636 64.1352 3.36636C65.1449 3.39238 65.9752 3.48998 66.6262 3.65916C67.2772 3.82833 67.8816 4.17318 68.4396 4.69372C68.6522 4.8759 68.9046 5.15569 69.1969 5.53308C69.4891 5.91046 69.7881 6.32038 70.0936 6.76284C70.3992 7.20529 70.6981 7.68028 70.9904 8.1878C71.2827 8.69532 71.5351 9.18332 71.7476 9.6518L72.1063 9.53468L70.831 1.92188C70.2198 2.10406 69.6286 2.25371 69.0574 2.37084C68.4861 2.48795 67.7621 2.55953 66.8852 2.58556C65.8756 2.58556 64.9722 2.59206 64.175 2.60508C63.3779 2.61809 62.6074 2.6311 61.8634 2.64412C61.1194 2.65713 60.3489 2.66364 59.5518 2.66364H51.9792C51.2352 2.66364 50.4646 2.65713 49.6675 2.64412C48.8704 2.6311 47.967 2.61158 46.9573 2.58556C45.9742 2.55953 45.2236 2.50748 44.7055 2.4294C44.1873 2.35132 43.6227 2.24721 43.0116 2.11708L41.8159 9.53468L42.1746 9.6518C42.334 9.18332 42.5532 8.70182 42.8322 8.20732C43.1112 7.71281 43.4035 7.25084 43.7091 6.8214C44.0146 6.39196 44.3069 5.99505 44.5859 5.63068C44.8649 5.2663 45.1107 4.99302 45.3232 4.81084C45.8812 4.2903 46.4857 3.92593 47.1367 3.71772C47.7877 3.5095 48.618 3.39238 49.6277 3.36636C50.1325 3.36636 50.5776 3.35985 50.9628 3.34684C51.3481 3.33382 51.7135 3.32732 52.0589 3.32732H54.6894V18.4748C54.6894 19.2556 54.6827 20.0104 54.6694 20.7392C54.6561 21.4679 54.6429 22.1316 54.6296 22.7302C54.6163 23.3288 54.6096 23.8103 54.6096 24.1747C54.6096 24.5911 54.603 25.0205 54.5897 25.463C54.5764 25.9055 54.5499 26.3154 54.51 26.6928C54.4701 27.0701 54.417 27.4085 54.3506 27.7078C54.2842 28.0071 54.1845 28.2218 54.0517 28.352C53.4405 29.0287 52.8161 29.4581 52.1784 29.6403C51.5407 29.8225 50.8765 29.9526 50.1856 30.0307V30.4211H63.1388ZM81.2732 21.6371V18.9043H72.0665V21.6371H81.2732ZM96.1793 30.4211V30.0307C95.0899 29.9786 94.2595 29.855 93.6883 29.6598C93.117 29.4646 92.7118 29.1848 92.4727 28.8204C92.2335 28.4561 92.0808 27.903 92.0143 27.1612C91.9479 26.4195 91.9014 25.6322 91.8748 24.7993C91.8748 24.3569 91.8682 23.8298 91.8549 23.2182C91.8438 22.7085 91.8374 22.1582 91.8355 21.5671L91.835 16.3667H93.7481C94.0138 16.3667 94.2928 16.3732 94.585 16.3862C94.8773 16.3992 95.2227 16.4187 95.6213 16.4448C96.3918 16.4968 97.0627 16.6334 97.634 16.8547C98.2053 17.0759 98.7433 17.4077 99.2482 17.8502C99.8062 18.3447 100.284 19.0539 100.683 19.9779C101.082 20.9018 101.387 21.7802 101.6 22.6131H102.078V10.0422H101.6C101.493 10.6929 101.374 11.298 101.241 11.8576C101.108 12.4171 100.882 12.9312 100.563 13.3996C100.245 13.8681 99.8062 14.2715 99.2482 14.6099C98.6902 14.9482 97.9329 15.2215 96.9764 15.4297C96.6044 15.5078 96.1394 15.5664 95.5814 15.6054C95.0235 15.6444 94.4854 15.677 93.9673 15.703C93.4491 15.729 92.9775 15.742 92.5524 15.742H91.835V12.0332C91.835 11.0702 91.8416 10.0487 91.8549 8.9686C91.8682 7.88849 91.8881 6.89297 91.9147 5.98204C91.9413 5.51356 91.9678 5.11665 91.9944 4.79132C92.021 4.46598 92.0476 4.19921 92.0741 3.99099C92.1007 3.78278 92.1339 3.6006 92.1738 3.44444C92.2136 3.28828 92.2468 3.13212 92.2734 2.97596C92.4062 2.97596 92.6122 2.96945 92.8912 2.95643C93.1702 2.94342 93.4691 2.93041 93.7879 2.9174C94.1068 2.90438 94.4389 2.89137 94.7843 2.87836C95.1297 2.86534 95.4353 2.85884 95.701 2.85884C97.2687 2.85884 98.6437 2.93041 99.8261 3.07356C101.008 3.2167 101.826 3.39238 102.277 3.6006C103.207 4.04305 104.164 4.73276 105.147 5.66972C106.13 6.60668 107.166 7.73884 108.256 9.0662L108.654 8.871L105.944 2.31227H83.7841V2.70267C84.5015 2.80678 85.0861 2.9174 85.5378 3.03452C85.9895 3.15164 86.4146 3.41841 86.8132 3.83484C86.9726 3.99099 87.0988 4.24476 87.1918 4.59612C87.2848 4.94748 87.3512 5.34438 87.3911 5.78683C87.4309 6.22929 87.4575 6.69777 87.4708 7.19228C87.4841 7.68678 87.4907 8.16828 87.4907 8.63676V18.5139C87.4907 19.2947 87.4841 20.056 87.4708 20.7977C87.4575 21.5395 87.4442 22.2227 87.4309 22.8473C87.4176 23.472 87.411 23.9665 87.411 24.3308C87.411 24.7473 87.3977 25.1702 87.3711 25.5996C87.3446 26.0291 87.2981 26.439 87.2316 26.8294C87.1652 27.2198 87.0921 27.5646 87.0124 27.864C86.9327 28.1633 86.8264 28.391 86.6936 28.5472C86.3216 28.9636 85.85 29.2889 85.2787 29.5232C84.7074 29.7574 84.0897 29.9266 83.4254 30.0307V30.4211H96.1793ZM122.524 30.4601C123.082 30.4601 123.593 30.3625 124.058 30.1673C124.523 29.9721 124.929 29.6858 125.274 29.3084C125.619 28.931 125.898 28.5081 126.111 28.0396C126.324 27.5712 126.443 27.0897 126.47 26.5952H126.231C126.124 26.9856 125.925 27.3044 125.633 27.5516C125.34 27.7989 124.889 27.9225 124.278 27.9225C123.746 27.9225 123.275 27.7338 122.863 27.3564C122.451 26.979 122.245 26.2048 122.245 25.0336C122.245 24.1486 122.252 23.3353 122.265 22.5936C122.278 21.8518 122.285 21.1296 122.285 20.4268C122.285 19.7241 122.291 18.9954 122.305 18.2406C122.318 17.4858 122.325 16.64 122.325 15.703C122.325 15.2605 122.311 14.8116 122.285 14.3561C122.258 13.9006 122.192 13.5818 122.086 13.3996C121.82 12.8791 121.381 12.4432 120.77 12.0918C120.159 11.7404 119.508 11.5648 118.817 11.5648C118.472 11.5648 118.027 11.6428 117.482 11.799C116.938 11.9552 116.34 12.1634 115.689 12.4236C115.038 12.6839 114.354 12.9962 113.636 13.3606C112.919 13.725 112.215 14.1024 111.524 14.4928C111.311 14.6229 111.065 14.766 110.786 14.9222C110.507 15.0784 110.248 15.2605 110.009 15.4688C109.77 15.677 109.571 15.9112 109.411 16.1715C109.252 16.4317 109.172 16.718 109.172 17.0304C109.172 17.4208 109.325 17.7656 109.631 18.0649C109.936 18.3642 110.302 18.5139 110.727 18.5139C111.178 18.5139 111.597 18.3707 111.982 18.0844C112.367 17.7981 112.56 17.4728 112.56 17.1084V15.3516C112.56 15.1955 112.653 15.0068 112.839 14.7856C113.025 14.5643 113.277 14.3431 113.596 14.1219C113.915 13.9006 114.28 13.7185 114.692 13.5753C115.104 13.4322 115.523 13.3606 115.948 13.3606C116.585 13.3606 117.104 13.4452 117.502 13.6144C117.901 13.7835 118.213 13.9722 118.439 14.1804C118.665 14.3886 118.824 14.5904 118.917 14.7856C119.01 14.9808 119.057 15.1044 119.057 15.1564V19.1776C118.791 19.3337 118.465 19.5094 118.08 19.7046C117.695 19.8998 117.25 20.134 116.745 20.4073C116.24 20.6806 115.649 21.0124 114.971 21.4028C114.294 21.7932 113.517 22.2617 112.64 22.8083C111.763 23.3548 111.026 23.9665 110.428 24.6432C109.83 25.3198 109.531 26.0226 109.531 26.7513C109.531 27.428 109.644 28.0006 109.87 28.4691C110.096 28.9376 110.388 29.3214 110.747 29.6208C111.105 29.9201 111.504 30.1283 111.942 30.2454C112.381 30.3625 112.812 30.4211 113.238 30.4211C113.955 30.4211 114.613 30.3105 115.21 30.0892C115.808 29.868 116.353 29.5752 116.845 29.2108C117.336 28.8465 117.761 28.4561 118.12 28.0396C118.479 27.6232 118.764 27.2458 118.977 26.9075L119.057 26.9465C119.057 28.2479 119.409 29.1588 120.113 29.6793C120.817 30.1999 121.621 30.4601 122.524 30.4601ZM115.27 28.0396C114.5 28.0396 113.875 27.7664 113.397 27.2198C112.919 26.6732 112.68 26.0616 112.68 25.3849C112.68 24.7082 112.925 24.1031 113.417 23.5696C113.908 23.036 114.493 22.548 115.171 22.1056C115.848 21.6631 116.546 21.2532 117.263 20.8758C117.98 20.4984 118.578 20.1405 119.057 19.8022V25.8144C119.057 26.2568 118.897 26.6212 118.578 26.9075C118.127 27.3499 117.635 27.6492 117.104 27.8054C116.572 27.9616 115.961 28.0396 115.27 28.0396ZM133.046 30.4992C134.029 30.4992 134.966 30.3951 135.856 30.1868C136.746 29.9786 137.536 29.6403 138.227 29.1718C138.918 28.7033 139.469 28.0982 139.881 27.3564C140.293 26.6147 140.499 25.7363 140.499 24.7212C140.499 23.3939 140.08 22.2747 139.243 21.3638C138.407 20.4529 137.39 19.8542 136.195 19.568C135.69 19.4378 135.092 19.3012 134.401 19.158C133.71 19.0149 133.072 18.8783 132.488 18.7481C131.638 18.5399 130.934 18.2276 130.376 17.8112C129.818 17.3947 129.539 16.705 129.539 15.742C129.539 15.1434 129.645 14.6164 129.857 14.1609C130.07 13.7055 130.342 13.3281 130.674 13.0288C131.007 12.7294 131.392 12.5017 131.83 12.3456C132.269 12.1894 132.714 12.1113 133.165 12.1113C133.909 12.1113 134.567 12.2414 135.138 12.5017C135.71 12.762 136.221 13.1329 136.673 13.6144C137.124 14.0958 137.536 14.6684 137.908 15.3321C138.28 15.9958 138.652 16.718 139.024 17.4988L139.343 17.4208L138.865 12.5798C138.094 12.2935 137.284 12.0528 136.434 11.8576C135.583 11.6624 134.6 11.5648 133.484 11.5648C132.607 11.5648 131.784 11.6884 131.013 11.9356C130.243 12.1829 129.565 12.5408 128.981 13.0092C128.396 13.4777 127.931 14.0373 127.586 14.688C127.24 15.3386 127.068 16.0674 127.068 16.8742C127.068 18.0454 127.38 19.0474 128.004 19.8803C128.629 20.7131 129.446 21.2987 130.455 21.6371C130.987 21.8193 131.585 21.9884 132.249 22.1446C132.913 22.3008 133.604 22.4439 134.321 22.574C135.225 22.7562 135.935 23.1141 136.454 23.6476C136.972 24.1812 137.231 24.8514 137.231 25.6582C137.231 27.1417 136.852 28.2413 136.095 28.9571C135.338 29.6728 134.321 30.0307 133.046 30.0307C132.169 30.0307 131.412 29.842 130.774 29.4646C130.136 29.0872 129.592 28.6057 129.14 28.0201C128.688 27.4345 128.303 26.7969 127.984 26.1072C127.665 25.4174 127.4 24.7603 127.187 24.1356H126.868V29.2889C127.745 29.6793 128.702 29.9786 129.738 30.1868C130.774 30.3951 131.877 30.4992 133.046 30.4992ZM149.945 30.4211V30.0307C149.679 29.9786 149.413 29.9396 149.148 29.9136C148.882 29.8875 148.643 29.842 148.43 29.7769C148.218 29.7118 148.045 29.6143 147.912 29.4841C147.779 29.354 147.713 29.1718 147.713 28.9376V16.9523C147.713 16.7441 147.759 16.5163 147.852 16.2691C147.945 16.0218 148.018 15.8592 148.072 15.7811C148.47 15.2085 149.002 14.753 149.666 14.4147C150.33 14.0763 151.14 13.9072 152.097 13.9072C152.841 13.9072 153.452 14.0373 153.93 14.2976C154.409 14.5578 154.787 14.9222 155.066 15.3907C155.345 15.8592 155.538 16.4187 155.644 17.0694C155.75 17.7201 155.804 18.4228 155.804 19.1776V28.9376C155.804 29.354 155.564 29.6208 155.086 29.7379C154.608 29.855 154.01 29.9396 153.293 29.9916V30.4211H161.503V30.0697C161.264 30.0437 161.011 30.0112 160.746 29.9721C160.48 29.9331 160.228 29.881 159.988 29.816C159.749 29.7509 159.55 29.6533 159.391 29.5232C159.231 29.393 159.151 29.2369 159.151 29.0547V17.5379C159.151 16.679 159.078 15.8852 158.932 15.1564C158.786 14.4277 158.534 13.7965 158.175 13.263C157.816 12.7294 157.338 12.313 156.74 12.0137C156.142 11.7144 155.405 11.5648 154.528 11.5648C153.625 11.5648 152.794 11.7144 152.037 12.0137C151.28 12.313 150.609 12.6709 150.024 13.0873C149.44 13.5037 148.955 13.9462 148.57 14.4147C148.184 14.8832 147.899 15.2996 147.713 15.664L147.633 15.6249L147.753 2.07803H147.434L142.093 4.45948V4.69372C142.439 4.90193 142.791 5.09062 143.149 5.2598C143.508 5.42897 143.794 5.60465 144.006 5.78683C144.192 5.91697 144.305 6.03409 144.345 6.1382C144.385 6.2423 144.405 6.39846 144.405 6.60668V28.7814C144.405 29.2759 144.159 29.5947 143.667 29.7379C143.176 29.881 142.625 29.9786 142.013 30.0307V30.4211H149.945ZM166.804 7.5046C167.415 7.5046 167.926 7.30289 168.338 6.89948C168.75 6.49606 168.956 5.99505 168.956 5.39644C168.956 4.79782 168.75 4.30332 168.338 3.91292C167.926 3.52252 167.415 3.32732 166.804 3.32732C166.193 3.32732 165.681 3.52252 165.269 3.91292C164.858 4.30332 164.652 4.79782 164.652 5.39644C164.652 5.96902 164.864 6.46353 165.289 6.87996C165.714 7.29638 166.219 7.5046 166.804 7.5046ZM171.188 30.4211V30.0307C170.922 29.9786 170.65 29.9461 170.371 29.9331C170.092 29.9201 169.833 29.8875 169.594 29.8355C169.355 29.7834 169.149 29.6988 168.976 29.5817C168.803 29.4646 168.69 29.2759 168.637 29.0156V11.5648H168.398L163.018 13.2825V13.5168C163.389 13.6469 163.742 13.79 164.074 13.9462C164.406 14.1024 164.691 14.2585 164.931 14.4147C165.117 14.5448 165.229 14.688 165.269 14.8441C165.309 15.0003 165.329 15.1825 165.329 15.3907V28.7814C165.329 29.0156 165.243 29.2108 165.07 29.367C164.897 29.5232 164.685 29.6468 164.432 29.7379C164.18 29.829 163.894 29.894 163.575 29.9331C163.257 29.9721 162.938 30.0046 162.619 30.0307V30.4211H171.188ZM182.308 30.5382C183.557 30.5382 184.746 30.2909 185.875 29.7964C187.004 29.3019 187.994 28.6122 188.844 27.7273C189.694 26.8424 190.372 25.8078 190.877 24.6236C191.382 23.4394 191.634 22.1836 191.634 20.8563C191.634 19.2947 191.348 17.9348 190.777 16.7766C190.206 15.6184 189.475 14.6554 188.585 13.8876C187.695 13.1198 186.705 12.5408 185.616 12.1504C184.526 11.76 183.45 11.5648 182.387 11.5648C180.953 11.5648 179.644 11.825 178.462 12.3456C177.279 12.8661 176.27 13.5558 175.433 14.4147C174.596 15.2736 173.945 16.2626 173.48 17.3817C173.015 18.5009 172.782 19.659 172.782 20.8563C172.782 22.522 173.081 23.973 173.679 25.2092C174.277 26.4455 175.047 27.4605 175.991 28.2544C176.934 29.0482 177.963 29.6273 179.079 29.9916C180.195 30.356 181.271 30.5382 182.308 30.5382ZM182.348 29.9916C181.311 29.9916 180.421 29.7509 179.677 29.2694C178.933 28.7879 178.322 28.1372 177.844 27.3174C177.366 26.4976 177.02 25.5541 176.808 24.487C176.595 23.4199 176.489 22.2877 176.489 21.0905C176.489 19.9974 176.615 18.9238 176.867 17.8697C177.12 16.8156 177.492 15.8657 177.983 15.0198C178.475 14.1739 179.066 13.4907 179.757 12.9702C180.448 12.4497 181.232 12.1894 182.108 12.1894C183.198 12.1894 184.115 12.4692 184.858 13.0288C185.602 13.5883 186.2 14.2976 186.652 15.1564C187.104 16.0153 187.429 16.9523 187.628 17.9673C187.828 18.9824 187.927 19.9323 187.927 20.8172C187.927 21.7282 187.828 22.7172 187.628 23.7843C187.429 24.8514 187.11 25.8469 186.672 26.7708C186.234 27.6948 185.662 28.4626 184.958 29.0742C184.254 29.6858 183.384 29.9916 182.348 29.9916ZM201.199 30.4211V30.0307C200.934 29.9786 200.681 29.9461 200.442 29.9331C200.203 29.9201 199.99 29.8875 199.804 29.8355C199.618 29.7834 199.459 29.6988 199.326 29.5817C199.193 29.4646 199.1 29.2759 199.047 29.0156V16.2105C199.765 15.5078 200.416 14.9742 201 14.6099C201.585 14.2455 202.315 14.0633 203.192 14.0633C204.574 14.0633 205.557 14.5253 206.141 15.4492C206.726 16.3732 207.018 17.5899 207.018 19.0995V28.9376C207.018 29.354 206.806 29.6208 206.381 29.7379C205.956 29.855 205.384 29.9396 204.667 29.9916V30.4211H212.797V30.0697C212.558 30.0437 212.299 30.0112 212.02 29.9721C211.741 29.9331 211.482 29.881 211.243 29.816C211.004 29.7509 210.798 29.6533 210.625 29.5232C210.453 29.393 210.366 29.2369 210.366 29.0547V17.5769C210.366 15.8071 209.954 14.3626 209.131 13.2435C208.307 12.1243 207.125 11.5648 205.584 11.5648C204.866 11.5648 204.175 11.7014 203.511 11.9747C202.847 12.248 202.236 12.5928 201.678 13.0092C201.12 13.4257 200.621 13.8876 200.183 14.3952C199.745 14.9027 199.379 15.3777 199.087 15.8201L199.007 15.7811V11.5648H198.768L193.547 13.3996V13.6339C193.866 13.764 194.185 13.9137 194.504 14.0828C194.822 14.252 195.101 14.4017 195.341 14.5318C195.527 14.6619 195.639 14.779 195.679 14.8832C195.719 14.9873 195.739 15.1434 195.739 15.3516V28.7814C195.739 29.1978 195.52 29.4971 195.082 29.6793C194.643 29.8615 194.118 29.9786 193.507 30.0307V30.4211H201.199Z"
            fill="black"></path>
    </g>
    <defs>
        <clipPath id="clip0_574_875">
            <rect width="213" height="32" fill="black"></rect>
        </clipPath>
    </defs>
</svg>