<svg xmlns="http://www.w3.org/2000/svg"
     viewBox="0 0 122.51 24"  height="16" >
    <path fill="#fff" d="M83.68.63h-7.04l-6.8 10.09V.66h-6.12v22.67h6.12V12.48l7.26 10.85h7.42l-8.51-11.86L83.68.63zM54.84 2.77C52.96 1.05 50.52 0 47.72 0 41.24 0 36.4 5.13 36.4 11.98S41.24 24 47.72 24c2.76 0 5.16-1.01 7-2.73l.52 2.06h4.94V.63h-4.74l-.6 2.14zM48.2 18.2c-3.4 0-5.88-2.69-5.88-6.22s2.48-6.22 5.88-6.22 5.88 2.65 5.88 6.22-2.48 6.22-5.88 6.22zM120.5.5c-2.94 0-4.95.92-6.58 2.94L112.83.62h-3.9v22.71h6.12V11.56c0-3.7 1.34-5.25 4.78-5.25h2.68V.5h-2.01zM25.74.13a8.58 8.58 0 00-7 3.61C17.4 1.47 15.05.13 12.16.13 9.48.13 7 1.43 5.41 3.45L4.28.63H0v22.7h6.12V11.05c0-3.53 1.64-5.55 4.4-5.55 2.18 0 3.35 1.6 3.35 4.62v13.2h5.95V11.05c0-3.53 1.64-5.55 4.36-5.55 2.22 0 3.4 1.6 3.4 4.62v13.2h6.12V9.12c.01-5.34-3.26-8.99-7.96-8.99z"></path>
    <path fill="#fff" d="M94.67 0c-6.71 0-11.74 5.17-11.74 11.98S88 24 94.67 24c5.28 0 9.6-3.15 11.24-8.11h-6.42c-.92 1.64-2.68 2.65-4.82 2.65-2.98 0-4.99-1.72-5.53-4.83h17.15c.08-.59.13-1.18.13-1.77C106.42 5.38 101.64 0 94.68 0zM89.3 9.54c.71-2.69 2.64-4.29 5.37-4.29s4.74 1.51 5.62 4.29H89.3z"></path>
</svg>
