<svg width="531" height="181" viewBox="0 0 531 181" fill="none" xmlns="http://www.w3.org/2000/svg">
<path d="M253.968 57V67.5963H232.208V123.321H220.855V67.5963H199V57H253.968Z" fill="#1D1D1D"/>
<path d="M297.976 99.4797V103.548H262.782C263.917 110.927 268.837 115.374 276.311 115.374C282.082 115.374 286.718 112.441 288.515 107.711L296.747 111.306C293.624 119.159 285.393 124.362 276.216 124.362C262.025 124.362 252.658 114.617 252.658 100.047C252.658 85.4775 261.836 75.7327 275.649 75.7327C289.083 75.7327 297.976 85.2883 297.976 99.4797ZM275.365 84.8152C268.269 84.8152 263.633 89.4511 262.687 97.1145H287.948C287.475 89.4511 282.839 84.8152 275.365 84.8152Z" fill="#1D1D1D"/>
<path d="M348.686 76.868L332.887 100.142L348.592 123.321H336.103L325.318 107.522L314.532 123.321H302.139L317.844 100.237L301.949 76.868H314.438L325.412 92.9517L336.293 76.868H348.686Z" fill="#1D1D1D"/>
<path d="M386.86 86.0452H372.952V109.13C372.952 112.063 374.845 113.86 378.345 113.86H386.86V123.321H376.358C367.465 123.321 362.356 118.307 362.356 109.603V86.0452H351.76V76.868H362.356V62.2981H372.952V76.868H386.86V86.0452Z" fill="#1D1D1D"/>
<path d="M428.4 76.868H438.901V123.321H429.913L428.4 115.658H428.116C426.318 120.861 420.547 124.362 413.546 124.362C403.233 124.362 396.421 117.266 396.421 106.575V76.868H406.923V102.886C406.923 109.887 410.991 114.617 417.141 114.617C423.858 114.617 428.4 109.508 428.4 101.75V76.868Z" fill="#1D1D1D"/>
<path d="M473.848 76.868H479.903V87.3697H472.808C466.374 87.3697 462.117 92.857 462.117 101.183V123.321H451.615V76.868H460.603L462.117 85.3829H462.211C463.536 80.274 468.172 76.868 473.848 76.868Z" fill="#1D1D1D"/>
<path d="M530.731 99.4797V103.548H495.536C496.671 110.927 501.591 115.374 509.065 115.374C514.836 115.374 519.472 112.441 521.27 107.711L529.501 111.306C526.379 119.159 518.148 124.362 508.971 124.362C494.779 124.362 485.413 114.617 485.413 100.047C485.413 85.4775 494.59 75.7327 508.403 75.7327C521.838 75.7327 530.731 85.2883 530.731 99.4797ZM508.119 84.8152C501.023 84.8152 496.388 89.4511 495.441 97.1145H520.702C520.229 89.4511 515.593 84.8152 508.119 84.8152Z" fill="#1D1D1D"/>
<path opacity="0.94" fill-rule="evenodd" clip-rule="evenodd" d="M71.878 10.7515C83.4014 4.09847 97.5987 4.09847 109.122 10.7515L150.253 34.4986C161.777 41.1516 168.875 53.4469 168.875 66.7529V114.247C168.875 127.553 161.777 139.848 150.253 146.501L109.122 170.249C97.5987 176.902 83.4014 176.902 71.878 170.249L30.7468 146.501C19.2234 139.848 12.1248 127.553 12.1248 114.247V66.7529C12.1248 53.4469 19.2234 41.1516 30.7468 34.4986L71.878 10.7515ZM72.9504 30.2815C72.9504 27.2407 75.4154 24.7757 78.4561 24.7757C81.4968 24.7757 83.9618 27.2407 83.9618 30.2815V96.3499C83.9618 99.3906 81.4968 101.856 78.4561 101.856C75.4154 101.856 72.9504 99.3906 72.9504 96.3499V30.2815ZM101.167 156.225C104.208 156.225 106.673 153.76 106.673 150.719L106.673 84.6505C106.673 81.6098 104.208 79.1448 101.167 79.1448C98.1265 79.1448 95.6615 81.6098 95.6615 84.6505L95.6615 150.719C95.6615 153.76 98.1265 156.225 101.167 156.225ZM98.7058 34.9631C96.0725 33.4427 95.1702 30.0755 96.6906 27.4422C98.211 24.8088 101.578 23.9066 104.212 25.4269L150.764 52.3043C153.398 53.8247 154.3 57.1919 152.78 59.8252C151.259 62.4586 147.892 63.3608 145.259 61.8405L98.7058 34.9631ZM27.8698 94.9242C26.3495 97.5575 27.2517 100.925 29.8851 102.445L76.438 129.322C79.0714 130.843 82.4386 129.941 83.959 127.307C85.4793 124.674 84.5771 121.307 81.9437 119.786L35.3908 92.9089C32.7574 91.3886 29.3902 92.2908 27.8698 94.9242ZM98.3649 61.1523C95.7315 59.6319 94.8293 56.2647 96.3497 53.6313C97.87 50.998 101.237 50.0958 103.871 51.6161L150.424 78.4935C153.057 80.0138 153.959 83.3811 152.439 86.0144C150.918 88.6478 147.551 89.55 144.918 88.0296L98.3649 61.1523ZM27.5289 121.113C26.0085 123.747 26.9108 127.114 29.5441 128.634L76.0971 155.512C78.7304 157.032 82.0977 156.13 83.618 153.496C85.1384 150.863 84.2361 147.496 81.6028 145.975L35.0498 119.098C32.4165 117.578 29.0493 118.48 27.5289 121.113ZM49.551 44.0457C49.551 41.005 52.016 38.54 55.0568 38.54C58.0975 38.54 60.5625 41.005 60.5625 44.0457V82.5857C60.5625 85.6264 58.0975 88.0914 55.0568 88.0914C52.016 88.0914 49.551 85.6264 49.551 82.5856V44.0457ZM124.567 142.46C127.608 142.46 130.073 139.995 130.073 136.955L130.073 98.4147C130.073 95.374 127.608 92.909 124.567 92.909C121.526 92.909 119.061 95.374 119.061 98.4147V136.955C119.061 139.995 121.526 142.46 124.567 142.46ZM26.1523 57.1217C26.1523 54.081 28.6173 51.616 31.658 51.616C34.6987 51.616 37.1637 54.081 37.1637 57.1217V69.5096C37.1637 72.5503 34.6987 75.0153 31.658 75.0153C28.6173 75.0153 26.1523 72.5503 26.1523 69.5096V57.1217ZM147.966 129.384C151.007 129.384 153.472 126.919 153.472 123.879V111.491C153.472 108.45 151.007 105.985 147.966 105.985C144.925 105.985 142.46 108.45 142.46 111.491V123.879C142.46 126.919 144.925 129.384 147.966 129.384Z" fill="#1D1D1D"/>
</svg>
