<svg width="760" height="182" viewBox="-11.941150665283203 -11.732124328613281 1167.806640625 279.425048828125" preserveAspectRatio="xMidYMid meet" style="max-width:100%;height:auto" id="container"  xmlns="http://www.w3.org/2000/svg" class="flowchart"   role="graphics-document document" aria-roledescription="flowchart-v2"><rect x="-11.941150665283203" y="-11.732124328613281" width="1167.806640625" height="279.425048828125" fill="#ffffff"/><style>#container{font-family:"trebuchet ms",verdana,arial,sans-serif;font-size:16px;fill:#333;}@keyframes edge-animation-frame{from{stroke-dashoffset:0;}}@keyframes dash{to{stroke-dashoffset:0;}}#container .edge-animation-slow{stroke-dasharray:9,5!important;stroke-dashoffset:900;animation:dash 50s linear infinite;stroke-linecap:round;}#container .edge-animation-fast{stroke-dasharray:9,5!important;stroke-dashoffset:900;animation:dash 20s linear infinite;stroke-linecap:round;}#container .error-icon{fill:#552222;}#container .error-text{fill:#552222;stroke:#552222;}#container .edge-thickness-normal{stroke-width:1px;}#container .edge-thickness-thick{stroke-width:3.5px;}#container .edge-pattern-solid{stroke-dasharray:0;}#container .edge-thickness-invisible{stroke-width:0;fill:none;}#container .edge-pattern-dashed{stroke-dasharray:3;}#container .edge-pattern-dotted{stroke-dasharray:2;}#container .marker{fill:#333333;stroke:#333333;}#container .marker.cross{stroke:#333333;}#container svg{font-family:"trebuchet ms",verdana,arial,sans-serif;font-size:16px;}#container p{margin:0;}#container .label{font-family:"trebuchet ms",verdana,arial,sans-serif;color:#333;}#container .cluster-label text{fill:#333;}#container .cluster-label span{color:#333;}#container .cluster-label span p{background-color:transparent;}#container .label text,#container span{fill:#333;color:#333;}#container .node rect,#container .node circle,#container .node ellipse,#container .node polygon,#container .node path{fill:#ECECFF;stroke:#9370DB;stroke-width:1px;}#container .rough-node .label text,#container .node .label text,#container .image-shape .label,#container .icon-shape .label{text-anchor:middle;}#container .node .katex path{fill:#000;stroke:#000;stroke-width:1px;}#container .rough-node .label,#container .node .label,#container .image-shape .label,#container .icon-shape .label{text-align:center;}#container .node.clickable{cursor:pointer;}#container .root .anchor path{fill:#333333!important;stroke-width:0;stroke:#333333;}#container .arrowheadPath{fill:#333333;}#container .edgePath .path{stroke:#333333;stroke-width:1px;}#container .flowchart-link{stroke:#333333;fill:none;}#container .edgeLabel{background-color:rgba(232,232,232, 0.8);text-align:center;}#container .edgeLabel p{background-color:rgba(232,232,232, 0.8);}#container .edgeLabel rect{opacity:0.5;background-color:rgba(232,232,232, 0.8);fill:rgba(232,232,232, 0.8);}#container .labelBkg{background-color:rgba(232, 232, 232, 0.5);}#container .cluster rect{fill:#ffffde;stroke:#aaaa33;stroke-width:1px;}#container .cluster text{fill:#333;}#container .cluster span{color:#333;}#container div.mermaidTooltip{position:absolute;text-align:center;max-width:200px;padding:2px;font-family:"trebuchet ms",verdana,arial,sans-serif;font-size:12px;background:hsl(80, 100%, 96.2745098039%);border:1px solid #aaaa33;border-radius:2px;pointer-events:none;z-index:100;}#container .flowchartTitleText{text-anchor:middle;font-size:18px;fill:#333;}#container rect.text{fill:none;stroke-width:0;}#container .icon-shape,#container .image-shape{background-color:rgba(232,232,232, 0.8);text-align:center;}#container .icon-shape p,#container .image-shape p{background-color:rgba(232,232,232, 0.8);padding:2px;}#container .icon-shape .label rect,#container .image-shape .label rect{opacity:0.5;background-color:rgba(232,232,232, 0.8);fill:rgba(232,232,232, 0.8);}#container .label-icon{display:inline-block;height:1em;overflow:visible;vertical-align:-0.125em;}#container .node .label-icon path{fill:currentColor;stroke:revert;stroke-width:revert;}#container .node .neo-node{stroke:#9370DB;}#container [data-look="neo"].node rect,#container [data-look="neo"].cluster rect,#container [data-look="neo"].node polygon{stroke:#9370DB;filter:drop-shadow(1px 2px 2px rgba(185, 185, 185, 1));}#container [data-look="neo"].node path{stroke:#9370DB;stroke-width:1px;}#container [data-look="neo"].node .outer-path{filter:drop-shadow(1px 2px 2px rgba(185, 185, 185, 1));}#container [data-look="neo"].node .neo-line path{stroke:#9370DB;filter:none;}#container [data-look="neo"].node circle{stroke:#9370DB;filter:drop-shadow(1px 2px 2px rgba(185, 185, 185, 1));}#container [data-look="neo"].node circle .state-start{fill:#000000;}#container [data-look="neo"].icon-shape .icon{fill:#9370DB;filter:drop-shadow(1px 2px 2px rgba(185, 185, 185, 1));}#container [data-look="neo"].icon-shape .icon-neo path{stroke:#9370DB;filter:drop-shadow(1px 2px 2px rgba(185, 185, 185, 1));}#container :root{--mermaid-font-family:"trebuchet ms",verdana,arial,sans-serif;}</style><g><marker id="container_flowchart-v2-pointEnd" class="marker flowchart-v2" viewBox="0 0 10 10" refX="5" refY="5" markerUnits="userSpaceOnUse" markerWidth="8" markerHeight="8" orient="auto"><path d="M 0 0 L 10 5 L 0 10 z" class="arrowMarkerPath" style="stroke-width: 1; stroke-dasharray: 1, 0;"></path></marker><marker id="container_flowchart-v2-pointStart" class="marker flowchart-v2" viewBox="0 0 10 10" refX="4.5" refY="5" markerUnits="userSpaceOnUse" markerWidth="8" markerHeight="8" orient="auto"><path d="M 0 5 L 10 10 L 10 0 z" class="arrowMarkerPath" style="stroke-width: 1; stroke-dasharray: 1, 0;"></path></marker><marker id="container_flowchart-v2-pointEnd-margin" class="marker flowchart-v2" viewBox="0 0 11.5 14" refX="11.5" refY="7" markerUnits="userSpaceOnUse" markerWidth="10.5" markerHeight="14" orient="auto"><path d="M 0 0 L 11.5 7 L 0 14 z" class="arrowMarkerPath" style="stroke-width: 0; stroke-dasharray: 1, 0;"></path></marker><marker id="container_flowchart-v2-pointStart-margin" class="marker flowchart-v2" viewBox="0 0 11.5 14" refX="1" refY="7" markerUnits="userSpaceOnUse" markerWidth="11.5" markerHeight="14" orient="auto"><polygon points="0,7 11.5,14 11.5,0" class="arrowMarkerPath" style="stroke-width: 0; stroke-dasharray: 1, 0;"></polygon></marker><marker id="container_flowchart-v2-circleEnd" class="marker flowchart-v2" viewBox="0 0 10 10" refX="11" refY="5" markerUnits="userSpaceOnUse" markerWidth="11" markerHeight="11" orient="auto"><circle cx="5" cy="5" r="5" class="arrowMarkerPath" style="stroke-width: 1; stroke-dasharray: 1, 0;"></circle></marker><marker id="container_flowchart-v2-circleStart" class="marker flowchart-v2" viewBox="0 0 10 10" refX="-1" refY="5" markerUnits="userSpaceOnUse" markerWidth="11" markerHeight="11" orient="auto"><circle cx="5" cy="5" r="5" class="arrowMarkerPath" style="stroke-width: 1; stroke-dasharray: 1, 0;"></circle></marker><marker id="container_flowchart-v2-circleEnd-margin" class="marker flowchart-v2" viewBox="0 0 10 10" refY="5" refX="12.25" markerUnits="userSpaceOnUse" markerWidth="14" markerHeight="14" orient="auto"><circle cx="5" cy="5" r="5" class="arrowMarkerPath" style="stroke-width: 0; stroke-dasharray: 1, 0;"></circle></marker><marker id="container_flowchart-v2-circleStart-margin" class="marker flowchart-v2" viewBox="0 0 10 10" refX="-2" refY="5" markerUnits="userSpaceOnUse" markerWidth="14" markerHeight="14" orient="auto"><circle cx="5" cy="5" r="5" class="arrowMarkerPath" style="stroke-width: 0; stroke-dasharray: 1, 0;"></circle></marker><marker id="container_flowchart-v2-crossEnd" class="marker cross flowchart-v2" viewBox="0 0 11 11" refX="12" refY="5.2" markerUnits="userSpaceOnUse" markerWidth="11" markerHeight="11" orient="auto"><path d="M 1,1 l 9,9 M 10,1 l -9,9" class="arrowMarkerPath" style="stroke-width: 2; stroke-dasharray: 1, 0;"></path></marker><marker id="container_flowchart-v2-crossStart" class="marker cross flowchart-v2" viewBox="0 0 11 11" refX="-1" refY="5.2" markerUnits="userSpaceOnUse" markerWidth="11" markerHeight="11" orient="auto"><path d="M 1,1 l 9,9 M 10,1 l -9,9" class="arrowMarkerPath" style="stroke-width: 2; stroke-dasharray: 1, 0;"></path></marker><marker id="container_flowchart-v2-crossEnd-margin" class="marker cross flowchart-v2" viewBox="0 0 15 15" refX="17.7" refY="7.5" markerUnits="userSpaceOnUse" markerWidth="12" markerHeight="12" orient="auto"><path d="M 1,1 L 14,14 M 1,14 L 14,1" class="arrowMarkerPath" style="stroke-width: 2.5;"></path></marker><marker id="container_flowchart-v2-crossStart-margin" class="marker cross flowchart-v2" viewBox="0 0 15 15" refX="-3.5" refY="7.5" markerUnits="userSpaceOnUse" markerWidth="12" markerHeight="12" orient="auto"><path d="M 1,1 L 14,14 M 1,14 L 14,1" class="arrowMarkerPath" style="stroke-width: 2.5; stroke-dasharray: 1, 0;"></path></marker><g class="root"><g class="clusters"></g><g class="edgePaths"><path d="M95.45455212909418 132.8081963387602 C96.97194270227425 131.9284724855561, 98.22455940487808 130.4045627653785, 102.29513394279569 127.25124830433771 M95.23266962756337 132.8802530737018 C96.91545333342204 131.46215125084078, 98.81720332570485 129.97028990701438, 102.19290723054503 127.28940537015146 M102.284 127.234 C109.86578779053926 122.00281370590808, 123.56086784277439 110.15827457001964, 134.25444263590268 104.91437218672456 M101.72030412013339 127.75965009477815 C109.23330145638889 121.23874223781816, 123.14630029841662 110.4855030201377, 133.48961763962802 104.67238144966832 M133.828 104.397 C144.9209393578299 99.09256153476755, 151.82582265591356 98.13429901686658, 154.88598154403988 98.68846028885008 M134.3647232112592 103.9599152167525 C143.95745412768088 99.01259686872994, 150.78915416941618 98.66551179474462, 154.3083715517792 99.05544192560244 M154.76447858477894 98.64732237556046 C155.65280968322162 98.75461877678089, 156.18409249838257 98.62311110065546, 158.2995814213778 98.74554363658802 M154.8081098608788 98.63815029789173 C156.11952079871847 98.64947236178587, 157.36232208536046 98.6844377001181, 158.3562645779169 98.70830711661316" stroke="#000" stroke-width="1" fill="none" id="container-L_A_B_0" class="edge-thickness-normal edge-pattern-solid transition edge-thickness-normal edge-pattern-solid flowchart-link" style="" data-edge="true" data-et="edge" data-id="L_A_B_0" data-points="W3sieCI6OTUuMjczNDE1NjcxMDE1ODQsInkiOjEzMi45NDM1MjcyMjE2Nzk3fSx7IngiOjEzNy4zMzg3Mjk4NTgzOTg0NCwieSI6OTguNjg3MjMyOTcxMTkxNH0seyJ4IjoxNjIuMzM4NzI5ODU4Mzk4NDQsInkiOjk4LjY4NzIzMjk3MTE5MTR9XQ==" data-look="handDrawn" marker-end="url(#container_flowchart-v2-pointEnd)"></path><path d="M347.85389166359363 98.65842976507471 C348.9235869273132 98.64253197026292, 350.1201371712429 98.73865856975993, 351.8938032530062 98.62604101390525 M347.77604696696903 98.62533972181407 C348.8728692017329 98.7176794597713, 350.0630038019102 98.65724167072683, 351.9355388806066 98.68001963444223 M351.901 98.687 C356.07125550750607 98.5535892243519, 364.3858126345522 98.60874482330622, 371.7575404965547 99.22258797513264 M351.3748162367626 98.39821193433853 C356.08808874819107 98.7680268182174, 364.541344869095 98.59927199828147, 372.3989250141633 98.42160678819032 M372.102 98.687 C379.59300605108933 98.93949087448598, 387.45949932618447 98.96330451483828, 390.95139217563957 98.92028493819637 M371.5355957489276 98.24021710936124 C379.80462601604484 98.59333217278878, 387.1737509967193 99.04706712016076, 389.86743936880856 99.13646584031207 M390.36158528411295 98.69756911696314 C391.74210225883166 98.78573673493123, 392.8847417641423 98.62162223100506, 393.93472034495807 98.72527201124117 M390.3889857236928 98.64217075579464 C391.34306535078184 98.69840345235698, 392.2453681572728 98.64092048957512, 393.98875710397886 98.6654589319466" stroke="#000" stroke-width="1" fill="none" id="container-L_B_C_0" class="edge-thickness-normal edge-pattern-solid transition edge-thickness-normal edge-pattern-solid flowchart-link" style="" data-edge="true" data-et="edge" data-id="L_B_C_0" data-points="W3sieCI6MzQ3LjczNDA2OTgyNDIxODc1LCJ5Ijo5OC42ODcyMzI5NzExOTE0fSx7IngiOjM3Mi43MzQwNjk4MjQyMTg3NSwieSI6OTguNjg3MjMyOTcxMTkxNH0seyJ4IjozOTcuOTQwOTk0MjYyNjk1MywieSI6OTguNjg3MjMyOTcxMTkxNH1d" data-look="handDrawn" marker-end="url(#container_flowchart-v2-pointEnd)"></path><path d="M555.8470701286466 75.06022664066481 C559.2422077567524 73.56887020905161, 563.123514696805 71.87933864952784, 569.7817817310465 69.72176541573242 M555.2281725146162 74.84660399618205 C558.8763135610667 73.59762428107618, 562.3950481330879 72.43353818764378, 569.3194538095255 70.0223614284239 M569.357 69.841 C583.2293743727906 64.53670915571121, 611.4813471026511 55.26822457417177, 634.053965560078 49.9929484778588 M569.1359445054331 70.04086732449204 C583.3089903617084 65.3236811847542, 611.5403111401397 54.236080046950825, 634.1212036084484 49.99212847130968 M634.256 49.951 C657.9824822594385 45.15487251468403, 675.4872826861391 44.520567917609846, 685.2250803755242 44.83626543060554 M633.8700841578858 49.626355528717845 C656.8670620787361 44.71923730782143, 675.3418469485227 44.39255826089799, 685.7536476934586 45.57934149333756 M685.2442851930568 44.9608821455226 C688.4043009544988 45.1196893730296, 691.1503986208938 45.105840115842476, 694.121028075653 45.027933760654165 M685.2057271632402 45.09176594072387 C687.6192158881898 45.025877132075074, 690.1099686537843 44.9486201429256, 694.222421641679 45.105921186332054" stroke="#000" stroke-width="1" fill="none" id="container-L_C_D_0" class="edge-thickness-normal edge-pattern-solid transition edge-thickness-normal edge-pattern-solid flowchart-link" style="" data-edge="true" data-et="edge" data-id="L_C_D_0" data-points="W3sieCI6NTU1LjQ0MTYwODc3NzU4MSwieSI6NzQuODEzMzgxNTQzNjk0MjZ9LHsieCI6NjM4LjkzNjQ0NzE0MzU1NDcsInkiOjQ0Ljk3ODg4ODUxMTY1NzcxNX0seyJ4Ijo2OTguMzUwNTA5NjQzNTU0NywieSI6NDQuOTc4ODg4NTExNjU3NzE1fV0=" data-look="handDrawn" marker-end="url(#container_flowchart-v2-pointEnd)"></path><path d="M556.0530857122133 122.51484311516828 C558.8898956418935 124.22050561966049, 562.5536128883109 124.85603561738749, 569.7111871715798 127.47448945914667 M555.6003114051184 122.59940440491252 C559.3721215447188 123.85565592244994, 563.4040775673685 125.30111408744416, 569.4182849334773 127.49612535104173 M569.611 127.624 C583.879089583769 133.0143569965695, 611.2553037552772 142.62504148751822, 634.311810971748 147.79952396803517 M569.4987130617584 127.42248802691134 C583.9934933864535 131.9461819025659, 611.6135061715364 142.75066290178194, 635.1459853843503 147.60598129235265 M634.526 147.441 C657.9622196447272 152.1894423391885, 677.2345684086577 152.40429686766186, 686.6265925776282 152.65634446139012 M634.7822179069731 147.7397283306478 C657.768825895838 152.43543366831523, 676.6045247452688 152.40124920128645, 685.9402231954125 152.28465805340196 M686.325145584546 152.2408893711489 C688.8049664739714 152.24711802913785, 691.4335320264747 152.5227711842725, 695.6213564402909 152.62626122826325 M686.1229399675861 152.26184309384047 C688.4905104970012 152.52196450477797, 690.7670830497191 152.5395478675353, 695.750528417885 152.5281347902666" stroke="#000" stroke-width="1" fill="none" id="container-L_C_E_0" class="edge-thickness-normal edge-pattern-solid transition edge-thickness-normal edge-pattern-solid flowchart-link" style="" data-edge="true" data-et="edge" data-id="L_C_E_0" data-points="W3sieCI6NTU1Ljc0NjUwOTk0MTg1MDUsInkiOjEyMi42NzAwMzIxMTEzNzIxMn0seyJ4Ijo2MzguOTM2NDQ3MTQzNTU0NywieSI6MTUyLjM5NTU3NzQzMDcyNTF9LHsieCI6Njk5LjY2MTk0OTE1NzcxNDgsInkiOjE1Mi4zOTU1Nzc0MzA3MjUxfV0=" data-look="handDrawn" marker-end="url(#container_flowchart-v2-pointEnd)"></path><path d="M883.5878177446633 45.02952290396501 C884.6651097618682 44.89935040947927, 885.5203257550041 44.936893660113526, 887.7717897855003 44.99860000501665 M883.4279079088885 44.9718250225545 C884.4062032781214 44.99467518970436, 885.2176617680207 45.02654850768736, 887.6594892452289 44.98113538962213 M887.653 44.979 C892.3117987985515 45.193159988471656, 899.7712943977364 45.114674914007786, 919.364536553047 58.93821269891032 M887.4368182295729 44.584082616129955 C891.4928437570662 44.88649398013839, 899.7418375305195 44.79470449001969, 919.6005538345161 58.943406976267894 M919.672 59.168 C939.0455928032358 73.45548572511903, 969.6616979561254 101.81762679374697, 985.1731173351923 115.83017515215762 M919.7442608275029 58.890951944757035 C938.9827087531513 72.79537218319778, 969.6815329758542 102.16221549331247, 985.8887941548229 115.66883585994643 M985.2738715548245 115.45314849276478 C988.3880762767328 119.34409420087349, 992.3202937369658 122.51815193470398, 1000.7756595651717 130.52582528994233 M985.3828816115687 116.06554633231008 C989.0566022144991 119.42441454566182, 993.0681529466362 123.3023892769307, 1000.5599882337834 130.36846231056222" stroke="#000" stroke-width="1" fill="none" id="container-L_D_F_0" class="edge-thickness-normal edge-pattern-solid transition edge-thickness-normal edge-pattern-solid flowchart-link" style="" data-edge="true" data-et="edge" data-id="L_D_F_0" data-points="W3sieCI6ODgzLjQ4NjI1MTgzMTA1NDcsInkiOjQ0Ljk3ODg4ODUxMTY1NzcxNX0seyJ4Ijo5MDguNDg2MjUxODMxMDU0NywieSI6NDQuOTc4ODg4NTExNjU3NzE1fSx7IngiOjEwMDMuNTQxMDI0MDY0NzI4NywieSI6MTMyLjgyNzQ1NTUyMDYyOTg4fV0=" data-look="handDrawn" marker-end="url(#container_flowchart-v2-pointEnd)"></path><path d="M992.4418422865538 190.32084823268303 C988.1051596187878 192.34918037531108, 984.4471709272444 195.73113592650492, 978.014104782309 199.53277062820794 M992.2202592685394 190.1643253441875 C988.5976827164119 192.6962020894409, 985.1226705624965 195.00365253589862, 978.5195585528173 199.83669611337277 M978.325 199.711 C963.8413591388289 209.20935945552955, 936.0537223658525 227.91600607381625, 903.335526898778 237.433966879698 M978.035684417827 199.96119069636046 C964.4590556647156 208.9494641410979, 935.7695829047292 228.42163839247857, 903.2965132399773 238.22535835347497 M902.859 237.617 C869.7125963747229 247.22930741759978, 829.9771706602058 246.89142572741557, 785.67100230901 247.27879126219196 M902.5089762634099 237.0963625325777 C869.6139125864897 247.7295991615947, 829.616255671504 246.6901140743703, 785.1297026616877 246.66530322617191 M785.183 247.094 C740.047682650807 247.21974941380012, 689.6421507703986 246.61032335147576, 639.2572294817273 246.51621944697058 M785.4172458441408 247.01387510672788 C740.2287231470598 246.86542024337948, 689.3215451851049 247.65589993385154, 639.2994808382283 246.81311827176867 M639.215 247.094 C588.5237102540708 246.6527801373978, 538.4904761314627 247.0806353092485, 494.1172881525186 247.69293736038048 M639.2340190326084 247.3915521442846 C588.9948573541664 246.8103312495056, 539.232499902738 247.24292078250272, 493.936341069934 247.32867482978406 M494.364 247.094 C450.1198444193174 247.62226097901024, 411.6158897716438 247.42121376140264, 372.1991437847566 247.1538227346983 M494.295925121229 246.57449594769284 C449.9350179414405 247.74002731712065, 411.6873193692086 246.96480866230908, 372.80330424603426 247.32751249110072 M372.433 247.094 C333.58169709941313 246.81072503352704, 294.543706406843 246.97137808451728, 255.24381164981924 247.5066399686928 M372.9866666290329 247.682913025552 C333.4761340629237 247.6432773676878, 293.7828936837008 247.57798933872832, 254.54287344099438 247.02316879730512 M255.036 247.094 C215.96093573552957 246.92305603667864, 177.03724648510573 247.60062559652616, 148.38680522468687 238.01929190714003 M254.5668022570548 246.63052201324692 C215.48851846033995 247.22742117202588, 177.25407718455443 246.5024213985413, 149.22593503584952 237.6293818210629 M148.837 238.093 C120.5212863538145 229.32248591485055, 105.07255891016993 210.87701620246239, 96.27384532822325 202.68727395561493 M148.72030935266648 238.59799159194196 C120.57903192570305 229.07011013050183, 105.39881235637493 210.80598447240013, 97.43842100812724 202.26480143268856 M96.82790136023448 201.8493229631092 C93.86549056017812 199.13142424000574, 91.09762840953546 196.33962873089735, 88.88751038944234 193.4272760507691 M96.8295126840133 202.05782839052887 C95.09832950414584 200.0944245734455, 93.27511729297278 198.45432412825758, 88.65265435700151 193.1981815344916" stroke="#000" stroke-width="1" fill="none" id="container-L_F_A_0" class="edge-thickness-normal edge-pattern-solid transition edge-thickness-normal edge-pattern-solid flowchart-link" style="" data-edge="true" data-et="edge" data-id="L_F_A_0" data-points="W3sieCI6OTkyLjI5MjU5ODc4NTg5ODMsInkiOjE5MC4yMzQyNDMzOTI5NDQzNH0seyJ4Ijo5MDguNDg2MjUxODMxMDU0NywieSI6MjQ3LjA5Mzk0MjY0MjIxMTl9LHsieCI6NzkwLjkxODM4MDczNzMwNDcsInkiOjI0Ny4wOTM5NDI2NDIyMTE5fSx7IngiOjYzOC45MzY0NDcxNDM1NTQ3LCJ5IjoyNDcuMDkzOTQyNjQyMjExOX0seyJ4Ijo0ODguNjI4MjI3MjMzODg2NywieSI6MjQ3LjA5Mzk0MjY0MjIxMTl9LHsieCI6MzcyLjczNDA2OTgyNDIxODc1LCJ5IjoyNDcuMDkzOTQyNjQyMjExOX0seyJ4IjoyNTUuMDM2Mzk5ODQxMzA4NiwieSI6MjQ3LjA5Mzk0MjY0MjIxMTl9LHsieCI6MTM3LjMzODcyOTg1ODM5ODQ0LCJ5IjoyNDcuMDkzOTQyNjQyMjExOX0seyJ4Ijo4NS45NTIyNzQ1OTAxMzAwNiwieSI6MTkwLjExODE3MTY5MTg5NDUzfV0=" data-look="handDrawn" marker-end="url(#container_flowchart-v2-pointEnd)"></path></g><g class="edgeLabels"><g class="edgeLabel"><g class="label" data-id="L_A_B_0" transform="translate(0, 0)"><foreignObject width="0" height="0"><div xmlns="http://www.w3.org/1999/xhtml" class="labelBkg" style="display: table-cell; white-space: nowrap; line-height: 1.5; max-width: 200px; text-align: center;"><span class="edgeLabel"></span></div></foreignObject></g></g><g class="edgeLabel"><g class="label" data-id="L_B_C_0" transform="translate(0, 0)"><foreignObject width="0" height="0"><div xmlns="http://www.w3.org/1999/xhtml" class="labelBkg" style="display: table-cell; white-space: nowrap; line-height: 1.5; max-width: 200px; text-align: center;"><span class="edgeLabel"></span></div></foreignObject></g></g><g class="edgeLabel" transform="translate(638.9364471435547, 44.978888511657715)"><g class="label" data-id="L_C_D_0" transform="translate(-28.4765625, -12)"><foreignObject width="56.953125" height="24"><div xmlns="http://www.w3.org/1999/xhtml" class="labelBkg" style="display: table-cell; white-space: nowrap; line-height: 1.5; max-width: 200px; text-align: center;"><span class="edgeLabel"><p>allowed</p></span></div></foreignObject></g></g><g class="edgeLabel" transform="translate(638.9364471435547, 152.3955774307251)"><g class="label" data-id="L_C_E_0" transform="translate(-34.4140625, -12)"><foreignObject width="68.828125" height="24"><div xmlns="http://www.w3.org/1999/xhtml" class="labelBkg" style="display: table-cell; white-space: nowrap; line-height: 1.5; max-width: 200px; text-align: center;"><span class="edgeLabel"><p>exceeded</p></span></div></foreignObject></g></g><g class="edgeLabel"><g class="label" data-id="L_D_F_0" transform="translate(0, 0)"><foreignObject width="0" height="0"><div xmlns="http://www.w3.org/1999/xhtml" class="labelBkg" style="display: table-cell; white-space: nowrap; line-height: 1.5; max-width: 200px; text-align: center;"><span class="edgeLabel"></span></div></foreignObject></g></g><g class="edgeLabel"><g class="label" data-id="L_F_A_0" transform="translate(0, 0)"><foreignObject width="0" height="0"><div xmlns="http://www.w3.org/1999/xhtml" class="labelBkg" style="display: table-cell; white-space: nowrap; line-height: 1.5; max-width: 200px; text-align: center;"><span class="edgeLabel"></span></div></foreignObject></g></g></g><g class="nodes"><g class="rough-node default" id="container-flowchart-A-0" data-look="handDrawn" transform="translate(60.16936492919922, 161.5308494567871)"><g class="basic label-container" style=""><path d="M-50.91070121996446 -27.030828469904947 C-50.91070121996446 -27.030828469904947, -50.91070121996446 -27.030828469904947, -50.91070121996446 -27.030828469904947 M-50.91070121996446 -27.030828469904947 C-50.91070121996446 -27.030828469904947, -50.91070121996446 -27.030828469904947, -50.91070121996446 -27.030828469904947 M-50.89526900284843 -19.18101545424412 C-49.83289443109272 -20.845342651560767, -47.6771678242947 -22.151951543061827, -44.32502978446884 -27.123774546425523 M-50.948083274595454 -19.56261787585406 C-49.32812298883994 -21.441811097917068, -47.36230599457429 -24.186278585728083, -44.528895516271604 -26.85560009447675 M-52.110514997872365 -10.294211844421177 C-46.074688491064315 -17.777869533949698, -43.12416293336232 -23.153068586739597, -36.36233677990397 -27.586522845679998 M-51.566739518116606 -11.00674786405435 C-47.96662667343713 -14.909730410361982, -43.535845925860784 -20.04490252457149, -37.13780137018048 -26.909053339004075 M-51.63979491884798 -3.690061250894069 C-42.05032922034154 -12.73061880911789, -36.46070112306245 -23.544772748306215, -30.547882417856 -26.581891644750037 M-50.49553490707835 -4.6855692617709925 C-44.926380677929004 -10.68201669235391, -39.836461984310056 -17.063131024569543, -30.450567263427928 -27.199958656787423 M-51.706429564658215 3.859387855822877 C-44.294375619585985 -3.2514805073567445, -36.668355694241455 -13.59463611919545, -25.645207406832576 -25.88248993071674 M-50.3256839027432 2.7887561354336823 C-44.30144193375143 -4.030577963860141, -37.59223449193036 -11.6552017794405, -24.381018757644878 -26.16189162117735 M-49.73936895588653 10.52715345485407 C-41.77821779946237 1.698461517343696, -32.89859046438633 -8.571465255807345, -17.29745709000463 -27.520071772964137 M-51.06536402635625 10.962764476678464 C-38.98421660440949 -3.4494082321591177, -27.073266312484552 -16.40324474358938, -17.952260048349263 -26.654350438668068 M-52.09896272705885 19.8092316807243 C-40.33362375288533 7.793640101434445, -29.405135987888755 -6.755305878429916, -10.661431971337313 -27.660284194623554 M-50.824183364018005 19.187427287282663 C-39.8126654310382 6.594035131330576, -29.794894352391033 -6.4509690976310345, -11.594526946582414 -27.2184317905732 M-52.01637020899364 25.369675219666515 C-35.76345905575237 10.263941118660723, -21.945621924797422 -6.968533994209628, -4.490090191188804 -25.721851324269878 M-51.01309184146586 26.127733811979457 C-35.501575700376826 10.10296941693449, -21.178800635699506 -6.587305295088883, -4.262869904267348 -26.790790278812604 M-45.947025654322005 27.441996948766942 C-31.65614487996462 10.128482961363725, -16.272603768447684 -4.067166675852334, 2.3710121467060112 -26.977569179067288 M-44.991343728678046 26.856726581611476 C-30.618960738021325 9.498209729648018, -14.574741295605236 -8.09685176342917, 2.690932602744117 -26.97241338617719 M-37.402207721144386 28.729356204834428 C-22.434116646425323 10.327448777590028, -9.652182572686856 -6.653459662640791, 9.33465499148356 -25.78541885746664 M-39.155965656566025 27.603847226162152 C-19.80454920891608 6.678918653229675, -2.085091270727845 -13.920271861900835, 8.85172450113341 -26.643582310887712 M-32.68960683222319 27.197820650004108 C-17.348546081441395 11.170506540779147, -2.3910090323360267 -8.893151950089536, 13.932294076091779 -27.24864764462924 M-32.64558576010366 26.99928601921372 C-22.3725847527555 15.496549896078907, -11.985623332124138 3.7280379121582286, 15.19768387029503 -27.29390067645909 M-24.643342473978485 26.7773992545992 C-13.587235766374292 15.939618898264438, -5.732885579717005 2.5676929102610275, 21.627952337195214 -26.07997576301903 M-24.860750273589098 27.012242836467376 C-9.079847807312804 9.236099845715566, 6.045274820397818 -9.473564034859702, 22.539605806968865 -27.523011610814308 M-19.045411228018867 27.51886678128888 C-0.5712783001095773 7.312605018066993, 19.61234715574109 -16.454691633401904, 27.243373155513208 -27.187830241428742 M-18.875326648207956 27.723064505310756 C-5.95980597957677 11.913316988487956, 7.223601474272757 -3.132530282349265, 28.07638557114728 -26.43113762291501 M-13.217486848133408 29.034019472284623 C-1.3509127041189863 12.509008847872005, 11.650780140085732 0.9025772604574457, 34.71294918502466 -26.103676218491657 M-11.712701852460025 27.63403140670872 C-1.882344947031098 17.00173237145692, 6.966062132674121 4.875586254591806, 34.53572312090162 -26.983465899248742 M-6.452329703289308 27.340299100011958 C8.782770157769008 12.360023834692132, 21.17460481030215 -4.392894808967925, 41.15344536580177 -26.696146766234406 M-4.670779395872429 27.570140803588504 C12.984105414341172 5.320537325533779, 32.106429883154185 -15.110226268138051, 42.47930181753845 -26.68105414531824 M0.18439598655886358 26.528942943196007 C19.31094774760514 8.228094292167219, 36.49404238506679 -13.385210140838723, 47.00154225859958 -27.555780983059503 M0.6006961842395961 27.44461637448911 C12.610979846407544 15.025062001303294, 23.435237897810314 2.379517287300226, 48.06089991214089 -26.491231709174297 M8.880566273106334 27.277357370291952 C17.152856060707766 18.83005493933841, 24.87396117441414 7.804618511863035, 51.21661980494662 -22.95644653750346 M7.358608029650677 27.683900679007994 C20.100873732581675 13.20842044831606, 32.54236260458269 -1.450347435822226, 51.01588761616208 -21.678123861241154 M15.671458542760194 26.970265106319413 C26.712556439936726 15.013003231124099, 37.28117081055294 1.3362762665784396, 50.96956566068587 -15.768055395380621 M14.435587308148726 27.38350497129271 C27.67054335932228 12.70992115336575, 40.99057733158409 -3.1108201171364676, 51.47055296577565 -14.654511714266214 M20.790079007054732 28.5176649431634 C27.294840690265367 19.84335392000911, 37.38678897983772 9.760934048043172, 50.2066721743489 -8.326476938024243 M21.59825651552574 27.290039561880114 C31.8519736751387 14.962790416977482, 43.07578331262501 2.789332243353673, 51.06797606225182 -6.550732291764637 M27.283471148510497 26.368672629578555 C34.59745355404442 17.07614912380285, 43.42017004958749 8.377236528046957, 50.485875178150906 1.4840218001066239 M27.094961874926764 28.12186938173573 C33.47888373492848 21.526073510561705, 39.17143149630754 14.193921700885479, 51.461152632364076 1.022103532078438 M34.83551508052491 27.91838898985683 C40.918841637031164 20.380141029359677, 45.39506585718159 16.315772736404174, 51.89757350084357 8.598844142959775 M34.9807625850904 27.138802656754752 C39.27272087472841 22.12013268356419, 44.30767496860863 15.597836272380691, 50.89574078655157 8.553502641867354 M40.93597272650026 26.77199496752028 C43.49808126965393 24.223692402434498, 45.95558749941107 22.4912425873092, 51.4731229247251 15.12511494251677 M41.1785610865604 27.999373216871277 C43.076248684356486 24.867749091451287, 44.98917908333997 22.581013799480722, 51.59312401576389 15.34174677160073 M47.562311317348836 27.106522719257242 C49.00277982256334 25.443292537240755, 50.294228316008514 24.168965776404455, 51.37889011105895 23.331021661123476 M47.92335006949584 27.077735139447277 C48.94700620955904 26.040137335522104, 49.774792122070394 24.762543446308086, 50.975404374777455 23.115315004865643" stroke="#ECECFF" stroke-width="4" fill="none" stroke-dasharray="0 0"></path><path d="M-51.73744194630743 -28.14061746121788 C-10.477865598520452 -25.640961568319987, 28.74001020554578 -27.276999568523728, 52.228209055661495 -27.605558188584478 M-50.35631765751799 -27.218401003474746 C-13.231299819061766 -26.874462882101103, 23.311533200550787 -27.463878999459535, 50.73962053736212 -27.472955113874445 M51.2765587576121 -27.54886430632628 C50.90170703264369 -11.6698495522378, 49.934866149736116 2.7324638720500625, 50.80148775446608 27.13847416640134 M51.175805897102286 -26.435152778195356 C50.2335284428862 -14.180602174790222, 50.216777667386474 -1.295856157019693, 51.20878355529609 26.42263100473563 M51.16601432294975 26.187201586439247 C17.4842387274128 26.978378733844334, -17.90729629962588 27.934788093674825, -49.99028364374623 26.954142658948637 M51.32867680965123 26.30586592078183 C24.55073325551083 28.31581135508082, -2.0844647986219282 27.52533167615374, -50.97661221015338 26.35448839955524 M-49.61212275073221 27.26136297212275 C-51.16989804825699 9.733367916138059, -50.18216909153357 -9.21122717002529, -51.50532103741021 -26.104000647758703 M-50.49108337266175 27.28812549447901 C-50.864464558219105 9.061390248972435, -50.813061990379595 -9.726781766182608, -50.487488093900986 -27.68765773027826" stroke="#9370DB" stroke-width="1.3" fill="none" stroke-dasharray="0 0"></path></g><g class="label" style="" transform="translate(-20.9375, -12)"><rect></rect><foreignObject width="41.875" height="24"><div xmlns="http://www.w3.org/1999/xhtml" style="display: table-cell; white-space: nowrap; line-height: 1.5; max-width: 200px; text-align: center;"><span class="nodeLabel"><p>Client</p></span></div></foreignObject></g></g><g class="rough-node default" id="container-flowchart-B-1" data-look="handDrawn" transform="translate(255.0363998413086, 98.6872329711914)"><g class="basic label-container" style=""><path d="M-91.63470166311636 -26.65631114554112 C-91.63470166311636 -26.65631114554112, -91.63470166311636 -26.65631114554112, -91.63470166311636 -26.65631114554112 M-91.63470166311636 -26.65631114554112 C-91.63470166311636 -26.65631114554112, -91.63470166311636 -26.65631114554112, -91.63470166311636 -26.65631114554112 M-91.39785312965388 -20.25918075933018 C-88.88375803394155 -21.380767592350352, -88.00023919220553 -23.370745805845058, -84.51086403709245 -27.19028975123496 M-90.80847133913647 -19.75238474637011 C-88.74271452319171 -22.394316546458583, -86.89128692725681 -25.03646363229312, -84.91437893096426 -27.128765085648546 M-91.18121621594757 -11.062594115117138 C-86.73641566580312 -18.265035684195595, -81.43463703397643 -23.34089468534987, -77.23477441887266 -27.805305404932515 M-90.79734889078654 -11.192024287113155 C-87.50806187975736 -15.439214512709816, -85.15668843414711 -19.33209527792849, -77.54839329890508 -27.28074439169803 M-91.92750240390507 -4.43657821824373 C-84.61936950436909 -10.636883461117922, -76.8725622499805 -18.560890762667043, -72.92722724309597 -27.02428755489425 M-91.27029581030855 -4.492701214028099 C-83.99931212134089 -12.321030346700436, -77.78102944522617 -20.317208812269858, -71.80598553395261 -27.00117024844534 M-90.81758504753495 2.6988392796598193 C-82.55035545880132 -8.324065047434768, -71.24511988003007 -20.75109146771241, -64.9454585652826 -27.07697554412902 M-91.99359691326042 3.863345690969408 C-84.97719011463583 -2.49994133204289, -79.52078653599438 -9.849791077030586, -64.16034959008886 -27.30230523172743 M-92.42154672389826 9.921772782859646 C-80.64716910426831 -2.082776877100599, -70.00768016485395 -14.140082073965257, -57.260542212092425 -26.655555061768528 M-90.89708934388257 11.397741186307476 C-79.34382899790434 -2.305024521010936, -68.92682994102248 -14.867429856060205, -58.75303143755399 -27.510370902420906 M-91.63848412848928 19.88322171166542 C-79.15850026633002 5.959872792475551, -69.12078568250696 -6.819106342262199, -51.624204319238515 -28.161128295736482 M-91.7824369076932 18.851489142922052 C-84.01484272105134 8.983038320120315, -74.42564125915203 0.13511144610853643, -51.493676927740545 -27.845624907731594 M-90.11813753181664 26.098033501556063 C-82.1866351721855 13.862459513027247, -72.81318233124271 3.4504344559525126, -44.080950214707435 -28.447561119655358 M-90.98784360512252 26.400240895069928 C-73.7889604475642 6.04008534511062, -56.33694193664401 -13.88152516794491, -44.783192583197525 -26.701033766873845 M-86.08475682074128 27.815674081642815 C-75.3523800357297 14.156690973496916, -63.11222866504968 2.226914542271993, -37.68778748754012 -27.79733888976505 M-85.77845670806329 26.919699467017253 C-72.12225852272628 12.090689435257815, -59.30020564154659 -3.7739105343534547, -38.99710665875628 -27.396797433535557 M-77.48356954868866 27.071859358240594 C-67.36228520181892 14.173213456261427, -54.86609656656483 0.08357940824575272, -31.454132826742935 -28.6582155629172 M-78.49346081248224 27.641439531239733 C-64.76684884756746 9.897349550352228, -49.31719572039451 -7.34064010330538, -31.152638050693486 -27.13806733608795 M-72.45475011789271 27.03867115128517 C-55.28517198350959 7.568866698206151, -35.867372041846345 -15.038708804772563, -26.119785980380733 -27.74664013132913 M-72.37590779435095 27.843630042136244 C-55.78959168993666 8.732420291518864, -38.57657388032827 -11.144830804386025, -25.482097436809358 -26.824301689306203 M-65.72362445684892 26.94517167521099 C-52.28894297670376 10.799980918769391, -38.74118488193063 -5.03713284908536, -18.53014791765242 -27.189246138897264 M-65.92423232502698 27.313312411815684 C-55.03105088677379 13.802777384537976, -42.836900084356834 1.149558367503313, -18.309323930054454 -26.71446684763624 M-57.892257646264646 25.88900596766167 C-40.03345033167728 6.516103046059962, -22.428068204995345 -15.171267897729427, -10.635303346685305 -27.210059771606613 M-59.11449740671875 27.2464646993982 C-41.23890743961852 7.078768728175436, -22.80767249731408 -13.341671525055647, -11.273751037245994 -27.044333275211507 M-51.085122844015174 26.645838989355664 C-36.481461133144464 10.381510711737167, -22.13653937847967 -7.454549409477666, -5.79483516681297 -27.462647146168806 M-52.251347026470555 27.38354190472564 C-36.85036067699915 8.795480439109411, -20.892489319018622 -7.907025352148515, -4.723683785958921 -26.521046532645943 M-45.93866268313768 27.276330360764163 C-32.65029310684548 9.02561241215449, -15.556292872667864 -7.942613744318775, 0.32811452316153267 -27.6401153021529 M-45.823765192122785 28.173834014861814 C-26.551061859053675 5.349191006099581, -8.2167777466871 -15.689387597332258, 0.8382913521474571 -26.827719062690445 M-38.492525344332705 26.396579397821835 C-22.929457228757066 7.265631736938913, -4.6794447429210635 -11.030960701976289, 9.619200313041942 -25.986456689339164 M-38.35200372848755 26.79552653469483 C-21.936607077684737 7.124371626595395, -5.110450396558224 -11.76396528599772, 8.730321640800689 -26.834323839726572 M-31.22482269295896 26.067092152771117 C-19.228161516289806 13.141176212657019, -7.2262469302742325 -1.6945884809708103, 15.262656960435692 -27.60712745639809 M-31.878979847353218 27.959072889582714 C-21.885203499897493 14.227843288572364, -11.820794541611123 1.519484703659086, 14.551098449932367 -26.452974278649744 M-26.03360513587606 26.695111149280176 C-9.86219244694949 10.004172768467669, 5.454284565887894 -7.702546600209867, 21.752396915066903 -27.26959976643873 M-26.36586160020245 27.906500408957058 C-16.333203831821546 16.820894862123488, -5.669619764689572 4.44534010007921, 21.3133867073558 -26.96837010437908 M-20.44544139019346 27.196885524226026 C-4.515559332214182 8.524790743513096, 9.899170997885276 -8.74523755708754, 27.78151787524524 -27.455280450893817 M-19.774492539585573 26.747850835018873 C-6.449894303465153 12.739563483086773, 6.820121218248441 -2.0047228304526734, 28.5161623231263 -26.641817693834454 M-13.440662166233713 27.716197995983233 C1.8981959569714402 9.971091318899594, 17.925844461298052 -7.413870461373896, 35.90948155342025 -27.71201905607907 M-12.721079594981113 26.714111611576374 C1.9855078870154155 10.81441711864286, 16.882326865866727 -5.652911418909618, 34.00251956075017 -27.548273919821852 M-7.181314796964347 27.264066557666478 C7.916122902680843 13.343287850073878, 18.351886525300703 -2.2215724940947106, 39.53674706527412 -27.521153502092243 M-6.165341556560175 27.781486855017185 C3.178776032819837 16.267238652645176, 12.802323063505616 4.385214729145493, 40.64791361537576 -26.447926023567188 M0.2122554776304597 26.994717088527697 C11.217491197535136 14.071954844481693, 23.08200029826308 2.0571846375371905, 47.08078582816807 -28.42194547117328 M1.2524518195646555 26.979847107023385 C10.778175386184037 14.956591688573132, 21.94101666380124 2.318276928502035, 47.71690004342319 -27.409929208583424 M7.27100493573297 26.946361577446492 C19.755765443013644 13.43188852941893, 32.1448175665029 -1.1332371581944642, 53.461456121602176 -25.995523836966193 M6.5634428630286745 27.867146047212966 C24.53705580815848 7.185418508267097, 41.98041156184133 -13.385994247270524, 54.51521888606867 -26.600328280598152 M14.522479420500765 26.542576300435446 C26.1651217885899 14.552740127067086, 36.96472252517306 -0.7627783212317802, 61.53426075974468 -27.10399507758446 M13.908265126873978 27.479604209632136 C25.709509966241423 13.935071486835367, 36.776189956948706 0.5913398073761735, 60.73096560403106 -26.70817572631222 M19.293897992672562 28.02012004171947 C31.45492199169681 15.993969312119935, 39.877362048721075 3.1600901204730905, 67.28728498311415 -26.687214654721497 M20.020200049808782 26.569064156210313 C33.08420642557882 13.835812870264242, 44.860283640337215 -0.4997103690122387, 67.69174642205502 -27.86857594755555 M26.194520165477215 26.859297039055573 C38.551449442281836 14.338744394535365, 48.72211623513709 -0.501435993669094, 74.46169658268062 -26.860766884654023 M27.05372423534693 27.279631402910766 C39.660468399083015 12.180347962120472, 53.9566830603131 -3.433336305849582, 74.48038075669476 -27.32489976548752 M34.70918519718004 27.843517761653285 C45.041559519501014 15.534539498526602, 55.27064021612803 1.8037187885112993, 79.76570698793235 -26.846802068568206 M32.85408781015741 28.250380650953144 C48.99938824235072 9.891716967310831, 64.46422478575624 -8.029474313193251, 80.59289022412959 -26.01977948556493 M41.06705535100303 28.352793972520487 C52.18212618418257 14.173303477529261, 64.06833005145153 1.546354682008791, 86.72240311045371 -26.629750118552654 M40.47063910380205 27.388269963911892 C55.069808343929274 10.238565258105123, 69.24678319171889 -6.820979931150865, 87.70767514663784 -27.351308755607626 M48.202033293480866 27.635843068441204 C60.02236277847793 13.0965802265896, 69.60076991942864 0.8320776430915444, 91.16258604336878 -24.736431595019436 M47.22037811827125 28.032177846283627 C63.279463033146214 9.056947959111183, 78.6774125248958 -8.790175062951779, 91.09848285842921 -24.291366519924303 M52.42274470149737 26.32471645644152 C67.33385226499391 10.71288358260882, 81.58395021117168 -6.176438147037527, 90.87579156497469 -16.07552167803445 M52.838011174541585 27.07882480291134 C67.22381647139035 11.216868239877744, 82.12738307892646 -4.421516102066483, 91.07928520492385 -15.484502666246986 M60.46666970311073 26.429561790287963 C71.1899051415546 13.77768533496796, 82.04951756680614 2.459973687536534, 89.97131769643897 -9.043915636133333 M59.90950043969612 26.562303551946712 C68.3314148970751 17.842319749679852, 76.39001215557592 9.22706880179444, 90.94304764619625 -8.750463581494 M65.34774727795208 27.19120856013533 C75.03010453796107 18.113952564084315, 82.98599327295449 10.602381961736727, 92.96900496727821 -0.24956158092149106 M67.12442996202071 26.8714783553062 C71.94387666207282 22.140582763199312, 76.48226372299845 15.104015791480986, 91.85371839655888 -1.759144534407772 M72.73675262592266 26.511791493888115 C78.6817657783204 21.423327387332385, 86.11412372017826 12.113998032458372, 90.27366386954455 7.60562691869813 M73.08863746149798 27.94178232009725 C79.49947284383869 20.51995898473071, 85.01380312285043 13.60024593058263, 90.92405318620044 7.22334832991997 M80.88760678656892 27.68242467935163 C82.74059594341848 24.79841498388336, 86.29127781884928 20.4301507429551, 91.27064933893172 13.432184904078579 M80.32848232514597 26.76740513202267 C83.39944210868474 22.689940773110056, 87.7780832478317 19.49200345680858, 90.88352225492731 14.33909774125843 M86.15155230676788 27.684657613062743 C88.23385408261254 26.106054027287428, 88.5907144273277 24.666251689227416, 91.14554706780888 22.581178997580682 M86.30985334117115 27.577249859275273 C87.57976023844806 25.89349692043945, 89.18180771463196 24.52099737771691, 91.13628783077118 22.218454222902842" stroke="#ECECFF" stroke-width="4" fill="none" stroke-dasharray="0 0"></path><path d="M-91.8527239110755 -26.239885005259517 C-53.71139979131369 -27.05883632123997, -16.594836512106014 -25.741541307378665, 91.34595031577437 -25.72830264558588 M-90.99491069701195 -26.9912771434533 C-36.14207467302196 -26.16900686186379, 19.64943398138615 -25.435435633063264, 91.17677186614307 -26.41470430774291 M90.32158270800072 -26.959954802667873 C90.62737815670805 -10.102275474912423, 91.22166176679954 5.450626569018939, 89.94374699015347 27.335509184361204 M91.33471155701507 -26.588596815504644 C92.1695496527192 -15.807525850293125, 91.957259663334 -4.161166400907714, 91.07499560946708 27.239554425987873 M92.35032381515607 27.28291576283141 C34.3683582305237 26.13764979551122, -22.13457293845251 24.61047987862869, -91.08835979208922 27.396307843788048 M91.04461684277334 26.965062904332946 C23.79583939147643 26.878816898809504, -45.26179999622524 27.30174725579725, -91.97262953926874 27.304067016491096 M-92.42586717688002 25.657827018373563 C-92.45253888070914 10.880151457162915, -91.3361219186058 -6.288233921448165, -90.06480741212489 -27.5889487883347 M-91.26378778384108 26.511226793275707 C-91.25563093011765 11.562650994847658, -91.51968908183784 -2.5643629676583384, -91.10047290180755 -27.01405795584229" stroke="#9370DB" stroke-width="1.3" fill="none" stroke-dasharray="0 0"></path></g><g class="label" style="" transform="translate(-61.3359375, -12)"><rect></rect><foreignObject width="122.671875" height="24"><div xmlns="http://www.w3.org/1999/xhtml" style="display: table-cell; white-space: nowrap; line-height: 1.5; max-width: 200px; text-align: center;"><span class="nodeLabel"><p>Edge Middleware</p></span></div></foreignObject></g></g><g class="rough-node default" id="container-flowchart-C-3" data-look="handDrawn" transform="translate(488.6282272338867, 98.6872329711914)"><g transform="translate(-89.7890625, 90.2890625)" style=""><path d="M-0.093173803826474 -90.18187829969742 C-0.093173803826474 -90.18187829969742, -0.093173803826474 -90.18187829969742, -0.093173803826474 -90.18187829969742 M-0.093173803826474 -90.18187829969742 C-0.093173803826474 -90.18187829969742, -0.093173803826474 -90.18187829969742, -0.093173803826474 -90.18187829969742 M4.8336361730523265 -86.06933151152299 C19.664133587481693 -104.87947340590715, 33.230908793723714 -122.46689263627368, 51.8990365203741 -140.3776838534999 M3.5870538964645813 -86.22156449540638 C17.105976445423003 -103.339009857046, 31.42689521894782 -118.06236477434803, 50.66232240239801 -141.55125100300376 M6.14479391872173 -83.52908258910179 C26.33778220527055 -107.22443895671536, 47.82592545906596 -131.40207523531538, 91.94769911131915 -179.58221410842904 M6.7362577872586735 -82.7698424907257 C31.625074370076725 -110.25001949964233, 56.44304965258706 -139.16990638767834, 90.66713430305477 -178.83507225922628 M9.243190782525849 -79.19953582853901 C40.492306505662 -113.1366669521694, 68.55573415246855 -145.67206528170632, 94.13050389586668 -176.8506290601185 M11.11364475754612 -80.14389486710914 C34.90983335501172 -106.51171757719328, 58.854611942573214 -133.49025200075275, 94.25761307809918 -175.823265700631 M13.861422438604682 -75.99630870982551 C48.00102092753 -114.80609393871, 81.49402763266653 -153.67528756729294, 99.02088412833592 -173.6807244673039 M14.472074015945175 -76.50972480522266 C42.09006968891855 -108.55247420638943, 71.43088077411207 -140.73198289806555, 98.63744648924987 -173.08298401051294 M18.161348854236216 -72.54933253937216 C49.89104666494966 -111.07862604964357, 84.11772202787 -147.2740355722356, 100.13195281630021 -168.35946529652855 M17.13834957799147 -72.88446689450892 C38.72528037002858 -98.07129474654381, 62.17537871606539 -123.32859714364947, 100.8823388457585 -169.43635849753719 M20.073026440059092 -68.88190265360242 C44.173791053540945 -95.16400906800277, 68.5569026807417 -124.5965027317274, 104.5939995202684 -165.89638488016527 M20.67025297801438 -68.30175041635367 C45.30423764916 -95.56621754812878, 68.34733741386535 -122.22338773167826, 105.83702093901607 -165.80252997479926 M25.996804688321163 -64.37846811609697 C54.19038848482697 -98.4384933901761, 83.78535376353334 -133.08758248698223, 109.56392284468559 -161.57588904436395 M24.639049759852554 -65.32008815402021 C43.25769012237036 -86.44739565383298, 62.751536761753144 -106.6586897548469, 109.50018635392485 -162.06355075941036 M28.39818824333519 -61.902879572259344 C56.69680253330576 -94.29461405018267, 84.94731213270721 -128.76017217100076, 112.65897824241706 -157.57303809983802 M28.55850510632866 -62.06681166276428 C55.18804141053982 -90.70472787559673, 81.61151253736843 -121.94353362362263, 111.60630765723336 -157.86643100961516 M32.06999695598112 -59.02342935924574 C51.71316757885628 -81.08107868731368, 72.59845164478104 -105.1415611471573, 115.6613549188916 -154.28001454169703 M32.46467731759076 -58.533120114547884 C62.120252184554424 -94.28497281045497, 94.33522038382443 -130.51146990675434, 116.50700561438627 -155.34734183105593 M34.97606515280516 -54.98597378031305 C60.769545605226085 -86.90152368902447, 88.29412842878905 -115.73403195267599, 118.93256308676895 -152.66624235254613 M35.787286676647774 -55.29589457978424 C65.68622307253027 -89.73986895651227, 95.90796879628985 -123.76920643458607, 119.78460146950138 -151.85706115994637 M38.314312165821775 -50.93389577341905 C66.67366329568793 -81.8028434851756, 94.12636429293029 -114.10038606839998, 121.4717226308419 -148.8444806404382 M39.06961362051391 -50.428991804200244 C56.49841517014943 -71.54741048117593, 74.77164900443142 -91.32681077577594, 122.95934379452908 -147.32305022406814 M41.676619255957824 -46.69099177788731 C71.92052004755399 -80.78112961278345, 100.49432528329926 -116.59979749998787, 127.32238052974363 -144.12446172899791 M42.199611510650875 -47.18269368270112 C70.87874750507993 -80.63662546264194, 100.45096890474059 -113.91828136063974, 126.56020360474746 -144.9163398567886 M46.06988736778697 -43.28028802194593 C63.0812748307654 -65.77130459813834, 80.95089210119139 -84.98566400875781, 131.69503423308902 -140.7820093203508 M45.74428206614151 -44.69637881177832 C65.36872320427936 -66.66624646918513, 85.1546835180513 -88.5628810335138, 129.7675006555461 -140.47169933924644 M49.91048079246955 -40.581380906458016 C67.84152497013092 -62.43218215987336, 87.69614929176777 -84.80156581130865, 133.34858090944982 -136.37797653798387 M49.883299775538674 -40.62579250154829 C77.37004659024434 -72.61692822742198, 106.03264215772101 -104.67659800563911, 134.0441179535749 -137.06237662243188 M54.22368620057866 -37.35173916035742 C74.51760109038224 -60.244580190970126, 93.31669293016198 -82.7076152390957, 137.8460777861938 -134.6548310039237 M52.931188443679986 -37.35309551584093 C84.54939234593317 -72.80773480686999, 116.12343785392903 -107.81922656475388, 137.2395445015577 -134.2997428751101 M58.24161973824594 -33.85457687610761 C83.53158495938058 -66.58125475993607, 111.88743087037012 -96.92900435391093, 141.59815952143651 -129.78781486292593 M57.3402333781257 -34.37980356930452 C83.61996232678794 -66.33544438020606, 110.95773670360177 -97.66335663473414, 140.50064305771775 -130.78313628078106 M59.256733833185024 -28.875818227545867 C79.82118542359648 -51.99706507909461, 102.42301082051783 -76.98603753699484, 143.2094820980112 -127.08913999578003 M59.521826644784106 -30.515884462285563 C92.39954230906595 -67.05031488338177, 123.91699922809072 -104.44244193144117, 144.34872162180858 -126.23206320240801 M63.9370570019355 -26.687696616475872 C83.42226666943002 -50.73014672216891, 103.66449244516703 -74.13667509377649, 148.97769326891947 -123.7463130448884 M64.08580418149518 -27.272727527903285 C96.0066148817872 -61.468457858096876, 125.86993568121864 -97.07550235739748, 148.15549204714657 -123.05975577221967 M67.46174230527483 -22.289382045422894 C92.80483961947515 -49.72383212205152, 116.58242011823259 -79.214176531426, 151.4851448274021 -119.0946813833005 M66.52333860282532 -22.76698175891216 C89.36501417141567 -48.641749108327026, 112.73926466232062 -75.52604311344173, 150.97997586307463 -120.23997829124737 M71.51581443450507 -18.867983718082296 C94.56489347773832 -47.486626406249265, 117.12072213310714 -72.67091018903726, 156.0644265470488 -116.34365199021548 M70.96460334592784 -19.107236157477733 C97.41157402145663 -49.68988330965955, 124.93792981251792 -80.58372946771776, 154.77882031712326 -115.93475845777002 M73.34085508454514 -16.043151529970498 C98.38813446119714 -44.65015283876368, 122.68764313756253 -69.81828485833215, 159.0041143985911 -112.79919305743047 M74.66305282471426 -16.37650881851307 C101.86977255577457 -47.56099173369413, 129.76710400504348 -79.89786464012138, 158.72561230625664 -112.15743511029527 M77.35421732595948 -10.847232012343348 C103.94241417661807 -42.33716454716898, 130.65819111603915 -73.28239641401184, 161.8353699046636 -108.0605075778384 M77.06690978799944 -11.352399899417675 C109.14828906114282 -47.71593205190935, 140.46089689859502 -84.49971440529113, 161.51271970122988 -108.09837004613505 M81.00022903433388 -7.865229718992849 C111.92080403743914 -43.819353047591626, 143.40204473719228 -81.91063681907478, 164.24888026657717 -105.02836067094694 M82.00127967106292 -8.674790962703899 C111.03267774898102 -41.901031267843145, 138.951664092955 -74.04504614572991, 165.9736262361412 -104.78750170612686 M85.09795096049271 -6.353411458132776 C107.80851701952562 -32.95163471872803, 131.21062584919244 -59.6707197996755, 169.76226974351522 -101.18118495795336 M85.89593349026607 -4.739292283915269 C105.08936010282844 -27.192827533201694, 123.47903510138845 -48.09887349075188, 169.25245842565613 -102.44758630225937 M87.24351250385078 -2.332085850443118 C112.37989429135926 -29.039129328519493, 137.94403869222378 -57.29176246540154, 171.4073605175256 -96.65656820616331 M88.98546849639119 -1.2303133016307197 C117.14352175256542 -35.8784632496553, 147.08329718728126 -69.09089018768132, 172.98724017312526 -98.53764737770288 M109.76900658799842 -19.52190448383117 C132.61480057940383 -44.922887896275796, 153.83815837271916 -69.98268377319862, 176.07862653162513 -95.95818700647769 M111.82618855370055 -19.841633723794292 C131.2568916157476 -42.93426913520012, 152.25839040806966 -66.86646529756295, 176.31356346525348 -94.58472786619431 M161.531654819698 -69.48569518680688 C165.5845161082784 -76.99626322363576, 171.6882681004979 -79.9057300264617, 179.8544814293054 -90.48953406592832 M162.1510000949077 -70.28334678720397 C165.63185630027758 -75.77707760077016, 170.4689921897001 -79.93403384522514, 180.0300896224363 -91.11001984279174" stroke="#ECECFF" stroke-width="4" fill="none" stroke-dasharray="0 0"></path><path d="M90.95891440411332 -0.8521040266085219 C119.66892498158592 -29.20450492886664, 150.90655757284875 -58.73199074897052, 179.60055731140207 -89.87705243479844 M90.834677570909 0.6660328902783531 C114.07929760544553 -23.241550962198616, 137.43798471389303 -46.592530424996944, 180.21688959854328 -90.64211834760036 M180.22741822746855 -90.76225999512513 C159.4657037694401 -111.3928345634005, 141.55759172601978 -129.03862107943533, 89.41412522956114 -180.207821982342 M180.54692022292798 -90.08150870085012 C161.49207374843544 -109.51738023849457, 140.54935783302753 -129.84042868459622, 90.47702082105744 -180.70841423893884 M89.49549776651985 -180.6617011438239 C56.30812225909378 -144.93189089713056, 18.30720503582636 -110.53026979659191, 1.2206130338876702 -91.46249331080863 M90.1243401277053 -180.0052754232806 C67.19465030209264 -156.5452393923138, 44.548557265101174 -133.9846562795376, 0.462001099616023 -90.29981244695729 M-1.241394569380951 -89.2292944116604 C26.160443889456083 -65.79191527146239, 50.51907892629171 -41.847303423497124, 91.58190407349201 0.12944991896824876 M0.6686230058193676 -89.91093430828525 C29.939745010922206 -60.82006036160387, 59.280951740258025 -30.85260919741435, 89.63808637897836 -0.10945410054123392" stroke="#9370DB" stroke-width="1.3" fill="none" stroke-dasharray="0 0"></path></g><g class="label" style="" transform="translate(-51.2890625, -24)"><rect></rect><foreignObject width="102.578125" height="48"><div xmlns="http://www.w3.org/1999/xhtml" style="display: table-cell; white-space: nowrap; line-height: 1.5; max-width: 200px; text-align: center;"><span class="nodeLabel"><p>Upstash Redis<br/>limit check</p></span></div></foreignObject></g></g><g class="rough-node default" id="container-flowchart-D-5" data-look="handDrawn" transform="translate(790.9183807373047, 44.978888511657715)"><g class="basic label-container" style=""><path d="M-91.66140103267011 -26.67952055340226 C-91.66140103267011 -26.67952055340226, -91.66140103267011 -26.67952055340226, -91.66140103267011 -26.67952055340226 M-91.66140103267011 -26.67952055340226 C-91.66140103267011 -26.67952055340226, -91.66140103267011 -26.67952055340226, -91.66140103267011 -26.67952055340226 M-91.69341990100219 -19.60200199421028 C-89.01335506489463 -21.899943573424274, -87.94677297506128 -23.862617643464148, -83.98222469122015 -26.835603151317994 M-91.1813280909216 -19.505764584141936 C-89.47766423125113 -21.63834486101151, -87.8259283454865 -23.703828119071204, -84.89555790903172 -26.903834016039937 M-90.40496597399171 -13.18311057466846 C-87.0401718763567 -16.878714439016377, -81.77720917259643 -23.470136346630635, -79.59525591073537 -26.351451924115974 M-91.46043158598148 -11.609444637387107 C-88.65758554458067 -16.126735480023893, -85.34374032644536 -19.32324161989341, -78.3522311949771 -26.792340099123773 M-91.98078155194419 -3.65021657377472 C-85.91315539618157 -10.409392805455036, -81.55045457300632 -17.14506670497773, -72.77517239804831 -26.58227021064453 M-91.24397161516443 -3.7102716737337467 C-87.51811571778765 -9.275056679268456, -83.33590459599884 -14.093152804227529, -71.72738130845795 -27.112861039322578 M-90.40135017813829 4.834963059342835 C-81.28187552722562 -9.365408745926002, -69.27612007004745 -20.598201494292255, -64.36973293580785 -28.231458158778707 M-91.03809390298503 4.381602396741536 C-85.33792819454494 -3.20848497143301, -78.76345286792998 -9.898748035973899, -64.78383633094289 -26.926486155683534 M-90.97039986316258 11.498283834765243 C-78.81566116448833 -2.1681450342545663, -67.31395038293732 -13.960036072665877, -59.69492879101272 -27.981089954039273 M-91.569638167958 11.196036311311435 C-78.43624560979185 -3.4283650729652577, -66.53153640470678 -17.036245084757056, -57.66580762184559 -26.720158265923143 M-90.81753653601437 18.834467389318597 C-78.25853591410282 5.587129108558933, -67.90630636000961 -8.123222454786982, -50.675333365786805 -26.999823823439407 M-90.95159665122873 18.45308259764818 C-81.41356118042688 5.871267533539425, -69.99506206746614 -5.8687989445118065, -50.64631618818615 -28.059785906186175 M-90.21700796002055 26.750190934937685 C-77.19341806634674 8.998081022978901, -62.98418708834496 -6.062824550740607, -44.39001841398425 -26.954406148516544 M-91.00183413514372 26.28883855295823 C-77.12945766299133 10.11403565362026, -62.69797279048635 -7.869026043638743, -45.10452564043707 -26.864004643360083 M-84.6647711271399 26.628195580684533 C-75.65667151840674 15.760965653872033, -62.930161953944115 1.3882772323991892, -37.224224316726996 -27.88717740311038 M-85.42085105764333 28.007892003868612 C-69.32750101365464 7.857713081080501, -51.80580566926588 -11.580477796325932, -39.0603909525652 -27.480173556860073 M-79.66216948305375 26.358253309459087 C-64.3909005726126 10.937976612055998, -52.311277164642185 -5.712616295226115, -31.14446287421797 -26.569292586533965 M-79.25887711584264 27.65937830469879 C-67.37303201424835 14.690499380046008, -57.323415602881205 1.9599125326791038, -31.974088157697167 -26.88234837765602 M-71.37326799493921 28.00837080078506 C-62.9536946386975 16.92525483176814, -50.754500067343365 4.413039503809351, -24.865356322873225 -28.21798713261001 M-71.65988839283094 26.95977799375554 C-61.80195298167904 15.14411190535716, -50.10014309400036 1.5561442190376198, -25.208353848541442 -27.16001849505229 M-64.60761534498883 28.089240470082384 C-46.29491112702068 6.591986194491999, -29.55727794101705 -16.48051231509646, -17.433455369395343 -27.345192909115895 M-66.21564158938874 27.74454814387272 C-53.54172281745139 13.742921378877687, -41.34839657386224 -0.8366543456181574, -18.33657758866891 -27.41256505454378 M-58.97643053557052 25.824917893560812 C-42.817965639100976 8.30295465769441, -26.08405417709077 -9.707506502101289, -12.777321016578115 -28.70360173990368 M-58.74667869994446 26.417771580156494 C-45.00599518403888 10.446224186609845, -30.589171301900574 -5.84212814090979, -12.239960510771915 -27.451764874955046 M-53.83692320750614 26.005607345796285 C-34.94934048945437 9.534074515062922, -20.03005607360464 -10.99628640699988, -5.5300633296843955 -27.554280234318593 M-52.17055186804698 27.214677376591347 C-37.74954108279232 10.697822408677688, -23.457470854361596 -6.4934476697430785, -5.20998574013548 -27.125018331906485 M-47.00873565502071 27.522568184426166 C-33.86322720298886 10.374520167459577, -18.510070961891117 -3.4365719533848518, 2.2530117881792724 -25.44808216943822 M-45.859814124244735 27.56515025070925 C-35.45514292585499 15.72094216361798, -26.447795088655905 5.257894680556404, 1.848273877745016 -26.604470578614166 M-38.72619324854237 26.41093997706469 C-23.889940592964855 10.016134346392441, -10.748646147925227 -6.3965982734556555, 7.137711708523953 -26.379508400325165 M-39.37218048993238 27.489365821885396 C-26.532220514724717 13.772661332245253, -15.052973054689165 -0.8429071492494713, 8.613790950805077 -27.928829531339847 M-31.75909712137718 26.190500024318737 C-12.52168483383641 6.223866555367575, 4.734266333928492 -15.235796284138264, 14.51772719566868 -25.941036162979984 M-33.12200313055523 27.797854636072135 C-15.704417890918286 8.452860186379251, 1.0980326084169998 -11.738066817235813, 14.28108777116864 -26.860511026247217 M-26.997236706977706 27.94585703150624 C-9.21473431014723 9.352998682042456, 4.2666382245756935 -8.23549220524878, 22.01753093003299 -27.471521519964337 M-26.08049138882313 27.382239120739527 C-14.526811440529453 13.74227781226598, -1.2991199055187168 -0.6461692632219248, 21.004516481698115 -26.175819885251016 M-19.451531216078333 27.812173858082303 C-2.8062323194508805 8.483850003422159, 9.679267258960493 -6.534484202997725, 29.45382962519581 -26.073255993006445 M-18.735342531215366 27.693100838983582 C-3.9289670878898897 9.264998541576572, 10.829810345339109 -8.623225832029096, 27.825235614644612 -27.038612628454597 M-12.439109257468221 28.12842974904691 C5.126480368515901 7.1333868613926175, 23.011858119689563 -11.233727440152176, 34.88438742634546 -26.897665121598273 M-12.557661745268064 26.939370281123924 C2.4551905832222767 10.171887567690987, 17.503544025416513 -7.645339238311148, 34.917062252205014 -27.64436872807255 M-7.393463749759553 27.47935023580521 C3.8147549111211396 15.66562984898061, 16.532451089712623 1.8764221160819843, 40.976853138954155 -26.848777414393147 M-5.658351315674014 27.962322209854246 C5.39601235822488 14.514281362041508, 15.741062430917827 2.8324419964698393, 40.93217517742678 -26.845190836393108 M1.1276449900996564 27.867331463892988 C19.523367864566264 7.192773817648908, 36.59227644372449 -13.757197805287811, 49.09947761122294 -28.06573534104147 M0.9860677260660383 27.70524934051141 C17.08193065734113 9.052806915786345, 32.464964719638445 -8.020968013009309, 47.532435189208876 -27.72826884374069 M7.0493809966907675 26.20286963396385 C20.238169375830527 13.403685391008176, 30.58734933345199 0.15172899191785372, 53.96606599628822 -25.84263497849547 M7.249131689945204 26.787472046743666 C21.826345463669732 10.47570771404118, 36.299530730558374 -5.075545197268193, 54.98739602485255 -27.514662606641036 M13.370206263814113 26.772813453835276 C32.81644499625337 5.9878975653457065, 51.35594817609973 -13.45683565752814, 61.5116887475973 -26.4139086369927 M13.761985388463613 27.907106557252142 C31.35668818406924 6.822253102342803, 50.938364228984696 -14.477259886691241, 61.23364371177806 -26.320186395178027 M20.44387297544491 27.467057573166468 C34.35050806217415 11.24273609586141, 50.61959290922188 -6.748389511515547, 66.90122548746587 -26.363325001727155 M20.69211903197294 26.456633626483388 C32.6247484181127 13.509393368548869, 45.421324731798045 -0.9377602491513514, 67.8642014488398 -27.598696953327956 M27.252974337230576 28.555418950525333 C43.483992579854565 9.67991477674733, 59.40133354520683 -10.332850656384506, 73.41754070772961 -26.023247060950823 M26.52807489011573 27.125232119474497 C45.66692926626263 6.246191860795128, 65.17012979301116 -16.618724457549334, 74.4326853249717 -26.979987258004225 M32.601289045922165 28.710780778776936 C44.10995970101759 16.29188054494871, 54.86311876245896 4.844167585759596, 80.4527957368084 -26.50288895473464 M34.009401533319135 27.572151237633406 C44.56844373570597 14.866718384961345, 56.03559752958117 1.5727136051183308, 80.0527387128857 -26.495847583133806 M40.586443732180484 28.533289459373513 C54.23185445861871 10.817566295651563, 66.12454371123589 -4.466292150293099, 88.30589828580293 -27.03595469601689 M40.01590435533284 27.455492830108838 C50.927394761209904 14.618974520134989, 60.82681810860152 2.336984770472599, 87.95441151719714 -26.711026804065995 M47.3315121638182 27.8863126647258 C63.97518438877607 8.121577153480143, 78.51502699511038 -10.738436199217968, 90.90058677199656 -24.88417107311346 M46.19933307350152 27.472503557596287 C62.33216363303749 9.339828519501907, 78.25385746677033 -8.443137616376827, 90.97968964567532 -23.861316716677344 M53.379372412544456 27.614902734915418 C62.290653258655176 15.700535111020285, 73.92834552308318 3.4189180559972545, 91.10013148467343 -17.368602256600674 M53.119601310888314 28.203799084064116 C63.539539153012505 15.940442821189846, 74.07437228687279 2.4911821428111383, 91.27176612869089 -15.384723309897243 M61.0634671931976 27.466387088633315 C71.99230052443112 16.129263853881998, 81.58433154339573 1.5664530727368604, 90.64166617606477 -7.81125246502782 M59.75612797436816 27.31603898099015 C72.36665572986381 14.05157951126401, 83.65604490656182 0.03284467321414147, 92.24064677451926 -9.591292686498132 M66.53382247487545 28.680596689673102 C73.04275753622902 20.73950792790614, 80.13769835924695 12.477208073392799, 91.27949153298144 -0.6094902676801454 M66.33472449863807 28.027037387961087 C72.97228772961222 20.44994354708228, 78.6251299328623 13.456656424157346, 92.14905287000747 -1.4864382847775326 M72.12752419558478 28.62984863251346 C77.77558560141973 22.6485937575164, 82.60493892567601 17.198796320205496, 90.53680205002861 6.982191040969349 M73.04049157203914 27.46806681063406 C80.68708012244721 19.895725474731744, 86.25798093290857 11.282155343016528, 91.18604528692389 6.020657854915107 M79.39287247674933 27.27216458583753 C85.63219420702058 22.076580949655483, 88.38392274020075 17.476289777369402, 90.88135547112643 13.886444960274446 M80.13295107804521 27.815822748718503 C82.84243984583715 23.565932143128627, 86.10449129087922 20.624345776002485, 91.03097967986623 14.37887767998864 M86.52664552088477 27.041437449867608 C87.23799714740595 26.07482661449553, 89.32703467351722 24.635838514839392, 92.08272672190436 21.04660346753 M86.47320973861277 27.37132186261913 C88.50088936309707 25.22057118319647, 90.32577216499666 22.683893215940625, 91.59723226371368 21.646907910099944" stroke="#ECECFF" stroke-width="4" fill="none" stroke-dasharray="0 0"></path><path d="M-91.25632742070121 -27.75733006556156 C-48.17076262749358 -25.341966327515912, -2.649616765488345 -27.097701431237628, 90.55543455826981 -25.97111062890694 M-91.2564625121806 -26.408190703530757 C-30.75422633008611 -27.721923533362574, 29.110080167682327 -27.061789343997397, 90.83373911407172 -27.441530804739195 M92.58727977934976 -28.37719670812723 C89.9499533695308 -9.094466227911536, 92.27598611133293 7.5898746157740655, 92.56095204278122 26.370881750793373 M90.82375803083686 -27.019722962324284 C90.9607137317574 -6.570421391999767, 91.50526665883619 13.269016412165607, 91.40429593721481 27.37878681662626 M92.72698314030953 28.31128989815821 C38.942654873321985 27.425240852359938, -9.749274288238302 25.48160191702648, -90.22989164391576 26.712463540933168 M90.7340112696254 27.697314053266254 C30.838344733535678 27.49041781789257, -29.02960413183641 28.24136105032311, -91.0095165479758 27.440498903768354 M-92.40875898504805 26.705529329051316 C-91.95553580583105 5.538521098314345, -90.27475106380253 -14.071146970434636, -90.05090615412237 -26.26834421793633 M-90.95162358016552 26.611764488060036 C-91.80295718660712 12.01878194742163, -91.45973069027202 -2.42095299101826, -91.83071239949373 -26.85550100329591" stroke="#9370DB" stroke-width="1.3" fill="none" stroke-dasharray="0 0"></path></g><g class="label" style="" transform="translate(-61.3828125, -12)"><rect></rect><foreignObject width="122.765625" height="24"><div xmlns="http://www.w3.org/1999/xhtml" style="display: table-cell; white-space: nowrap; line-height: 1.5; max-width: 200px; text-align: center;"><span class="nodeLabel"><p>AI Route Handler</p></span></div></foreignObject></g></g><g class="rough-node default" id="container-flowchart-E-7" data-look="handDrawn" transform="translate(790.9183807373047, 152.3955774307251)"><g class="basic label-container" style=""><path d="M-90.18656133736457 -26.722474959217028 C-90.18656133736457 -26.722474959217028, -90.18656133736457 -26.722474959217028, -90.18656133736457 -26.722474959217028 M-90.18656133736457 -26.722474959217028 C-90.18656133736457 -26.722474959217028, -90.18656133736457 -26.722474959217028, -90.18656133736457 -26.722474959217028 M-89.1826492848719 -19.883624533990623 C-88.26073347557589 -22.0039824112558, -86.61585396696289 -23.551675828184038, -83.5262606271575 -26.698527280747147 M-89.36630652703316 -19.86134427942059 C-87.56724895810103 -21.97460665840162, -86.12658346395783 -23.65737800572985, -83.22394883298891 -26.98357687986793 M-88.81540737855047 -11.379837467634797 C-84.72199344503423 -16.49322403168798, -81.24126500892282 -23.037058776754563, -77.54756801271904 -27.38665013883904 M-89.87604862669922 -11.268577094504238 C-85.00150729529238 -17.22298855274812, -79.87078706119097 -23.357511482688853, -76.41962579924962 -26.556375668791425 M-90.94810680444705 -4.015010954936073 C-84.0767636071949 -11.655013843207023, -76.71808894575314 -19.493492771333017, -70.9159926449672 -27.569888306531073 M-89.4984264728923 -4.043009292165042 C-84.14047594009189 -11.612665601671697, -77.54509842152892 -17.9838487229348, -70.1596682965238 -26.40516580577469 M-90.08348071200298 4.24201709169474 C-78.52859354086517 -8.835036455510549, -68.15865468953913 -19.938387049466456, -62.912654480109495 -27.253844561424785 M-89.706160655276 4.096044632236976 C-82.07702995362175 -6.237105945324838, -74.03280911606689 -14.527664709962854, -62.96620543902431 -26.85419614152697 M-91.0411429864332 10.453645759361175 C-78.43835175550848 -4.865017565403466, -64.1368208553146 -19.19927279948976, -56.574941677627294 -27.48010278676674 M-90.30445284609047 10.67872945425886 C-76.38452435491415 -4.321391836620677, -64.55675291356397 -18.602494746458426, -56.60384874072448 -26.653042477502268 M-89.42415297811728 19.59514068113257 C-79.45748535198581 8.23375841918567, -69.38930720502658 -3.5540387179591857, -49.50131342590454 -27.255542033885135 M-90.4768117111998 18.375756919407497 C-78.1143394312297 4.983257043535088, -66.13583899844309 -7.657297464106809, -49.93875390932115 -26.42645596348398 M-89.04641786161807 25.519139408031247 C-80.07596876572816 15.183776906171762, -70.26374189359225 4.983272323464376, -44.37477251374854 -26.15238934727306 M-90.0154466034085 27.10882558067381 C-80.93806404290363 15.61599151413518, -70.5177325883825 4.410373952911707, -43.606225878494506 -26.75697878017348 M-85.20197996887359 27.3924330830228 C-72.60490132871264 13.724835192185578, -60.4581833756573 -2.1770476211086285, -37.61879626454941 -25.71395500658508 M-83.81452968313589 27.01763117913224 C-67.75153854675646 9.062588981915834, -51.81652576918305 -9.773065357495003, -36.52799758978982 -27.43332034170714 M-76.50680861010795 26.79375694352207 C-65.61030508718612 15.217570459291409, -55.13934780833874 3.1060618459084486, -31.33927901207008 -25.76765384864823 M-77.82247128689515 27.19574974997294 C-62.748910218913664 10.561815184756847, -47.365882939801615 -7.466575140522748, -30.953640449229322 -27.223653595448347 M-71.96919291557833 27.523252798171395 C-59.19410120693888 13.17492684718969, -47.310512795862316 -1.2768450111745566, -22.702467364549896 -28.078087706287274 M-70.53248296829396 26.84986248040268 C-53.21349019694214 6.343393401622405, -34.362013399100555 -14.706596668249052, -24.077402589401807 -27.544104001999486 M-65.30816706581057 28.86470066042356 C-54.41915747424506 17.140826308234175, -44.318078942119335 3.7427075269261714, -15.953539224056962 -26.786572022207682 M-64.20579538594711 27.863543005109385 C-50.9209839645522 12.658601528190774, -38.19530425249686 -2.158823189309582, -17.494120461105506 -27.01956821470372 M-57.817772400207204 27.874692319440427 C-46.19240405146044 13.05066709453662, -33.17956330422448 -2.0351728324589464, -10.409109952300362 -28.162922872435935 M-57.80805532123217 27.060425307702033 C-40.66732648688375 8.115346376117834, -23.18037843194535 -12.648963642936723, -10.627281978575294 -27.2703803633006 M-50.25920074149951 26.236750136029645 C-39.13191431541308 14.202453238939405, -26.49526869435104 -1.0403991211819468, -2.7503214312913156 -27.26750573024284 M-51.562175457076364 27.39539750797907 C-33.31840085269129 7.02339082842584, -15.187559469016723 -12.843508885096346, -4.2658023926226365 -26.66310586245382 M-45.16766169437225 27.503561803630753 C-31.725446007463002 12.278827560946414, -18.782004128772037 -2.758974874278085, 1.2940903539359165 -27.02537041759428 M-44.52704461324443 27.19089316530341 C-28.477951326032997 7.750006608984811, -10.665731616883756 -11.474931829723573, 2.554352067494181 -27.531283098865973 M-38.32418894537151 27.129537168103035 C-24.935618309526788 12.096930130591522, -10.71974559813018 -3.0717055690998, 9.74666203692525 -27.52365148358996 M-37.93199138113586 27.13386378944797 C-24.020082479133777 10.82539121496643, -9.229694939900194 -6.289831913857547, 10.059448724763788 -27.361239025499152 M-30.292043392441144 27.72538819538188 C-14.407358112594837 7.041642423695147, 3.3682011137864953 -10.428479166268978, 14.947166663179123 -26.66675803166573 M-31.660811173235714 26.708701543396607 C-19.454936551115054 14.52911973099188, -9.127658723883108 1.0198443830113844, 16.754103976552184 -26.494165529821945 M-25.07132012053365 28.187733549514036 C-12.821210108117018 13.737997950419455, -1.0505821084930957 0.0055856101460173, 23.582864305297385 -25.528837515195345 M-24.02738744006547 27.02078394128342 C-15.140444198142877 16.230546225624405, -5.984324542801706 4.857195653793183, 22.56581153161838 -27.264847895727044 M-17.729094919685085 26.553135759973337 C-7.992646748725971 16.540668837887807, 1.2502970105570963 4.493082212506383, 29.304023558093302 -28.498336968163457 M-17.68220858010482 26.839871933965526 C0.6855874123146511 5.084468941665631, 18.649185707177633 -16.13902133794719, 29.079825858116834 -26.6924027903861 M-11.04285457547481 27.70023149469294 C-0.0010366652340957072 14.176606322093674, 12.565167194007635 0.8546030524644618, 36.51166545354502 -26.1195651328793 M-11.137178512989173 27.70056151787068 C7.898346033915757 5.473552970485535, 26.825181931760397 -15.313618791731985, 36.507630518389675 -26.74654387241018 M-4.473647027822003 28.416383417884344 C10.047502040279621 10.887916712116745, 25.064920828887825 -6.128891935840768, 42.93225395819569 -26.590507501727522 M-4.622405507974374 27.864445256084625 C6.6742202875044345 13.530688805259377, 19.676223653189933 0.2233078620821961, 42.52319035065119 -27.24588502595807 M3.3907492451255727 25.840395443987628 C16.64036721301011 10.318438310434408, 31.31486071161691 -8.53770399293405, 49.64808165522006 -27.180311920611704 M1.909262395534626 27.27512837181545 C16.615600828120545 11.515414014063678, 30.607559285778027 -4.6665094113802885, 49.95298987648428 -27.17968718040164 M9.467101076545195 26.198140785757438 C26.489541799447174 8.526098278594448, 43.18489072658691 -12.474894472461715, 55.58577702454412 -25.831660018617363 M8.918411200638687 26.841993080111216 C22.886025851164387 10.871235920682935, 36.762979212390725 -5.837726852846895, 56.34733562031297 -26.485561154187508 M15.963153790825299 28.106694637705633 C30.13146492437655 10.297480263401347, 45.18816965756588 -5.203103607526664, 61.81957106348681 -27.44683783559524 M14.981334817667838 27.02253319301823 C29.052786687227883 10.383443421082116, 45.13892700126017 -7.095764485076564, 61.8669986476039 -27.295969479757893 M21.142217652352493 27.729305053125607 C39.04210917457902 7.947049140634239, 58.82918396859023 -12.386267848418079, 69.8423396574597 -26.817663724566792 M21.89249856141102 26.4989717584442 C39.17917520827538 7.975308028656837, 54.75776629077434 -10.221134307839952, 69.58662070023139 -26.587273479012417 M29.10601948825184 28.65504215729416 C42.54173985233563 8.64968862302057, 60.02393018296379 -6.67667721264476, 75.02468670043221 -27.17276178291478 M27.833069430905397 27.21005743774758 C38.63098287979669 15.630329068868091, 48.55017815377298 4.209748990667867, 75.86427544311226 -27.261542247254162 M35.65005013646122 28.174808359290157 C53.812387913235426 6.306376516011745, 70.84489844782276 -14.593281296967165, 82.78309523339365 -26.692365222880007 M34.34508180617836 27.578401429365837 C48.60932886148358 12.23706764575175, 61.913282069899815 -3.8843410790067003, 82.60517281004661 -26.5107951204933 M41.89666800882816 28.16578821072521 C56.77675483360494 9.640453755906375, 71.90273435905178 -6.993838632046817, 90.42935208150448 -27.251040249711735 M42.480438124490874 26.996414687723732 C52.11012506981486 15.872793489337173, 62.086673285081005 4.771221263844136, 89.66905139247623 -27.44323726312341 M48.87523720525475 27.59388054606845 C62.43942083644622 12.003717959410833, 77.64538808850757 -5.2843062909129355, 91.0207310571072 -21.018541708937697 M48.25079488917391 27.640543657923832 C61.18868095508938 13.028166879826856, 73.43972410134768 -1.2561580876016265, 89.56981722104172 -21.411474186635196 M54.800370856280615 28.92065865729624 C68.70877863910556 10.539966869159814, 81.94322084525572 -3.517698412771165, 91.06476291133902 -13.48382880887556 M54.86067521717262 27.737947707618115 C66.7942835043235 13.111933116252967, 80.73159385095825 -2.023377793526197, 89.60789728240968 -12.601695979588827 M60.6052820533641 28.360031688637665 C71.3242576347953 16.452041033825793, 80.29289743009987 4.621105634594645, 89.92827422532213 -5.993337551397864 M61.68538864861627 27.391999822412654 C72.30971267938621 14.992061490305653, 83.30025730301679 1.7795668413024883, 90.11607924482166 -4.850865623065054 M66.81034565291489 27.186374540357356 C77.78475233333344 17.552952502890392, 84.70140419215369 8.391330554535747, 91.47169860220247 1.6348539741629868 M67.79033154922715 27.18689619635096 C74.04311501132106 21.199480406384875, 80.20087519279001 13.805307874172751, 91.00479801110136 2.3410415029536615 M74.58809648952058 27.398728520907973 C79.59225049331482 22.2801794374914, 84.81590522792123 13.605320041837144, 90.43133657381279 8.914924283203405 M74.72333038043686 27.236272214304986 C77.5864841701179 24.216665755720932, 81.00220227680322 20.788362480943775, 89.74039217893299 10.112686974468645 M81.42415750331418 27.884146553733185 C83.83743847516814 24.58368237142489, 87.9563201864596 19.717304537309847, 90.66709906024434 16.574239475769296 M81.86407597105342 26.818795781522915 C84.75838084909107 24.497371377758697, 86.57637930220992 21.163932486468187, 90.01530138800632 17.543934244831764 M87.79555275444999 27.467851229427765 C88.38963847239397 27.116778440229083, 88.94515555931805 26.513941522416328, 90.05678596497914 25.068015698813117 M87.8775374903597 27.481722809465822 C88.43377411752593 26.905852377871977, 88.77130236672397 26.602228394120367, 89.89472913685245 25.281693543430865" stroke="#ECECFF" stroke-width="4" fill="none" stroke-dasharray="0 0"></path><path d="M-90.784441883496 -28.300116541814628 C-23.60857618717822 -27.026330492190304, 43.853884033695415 -26.52290246140784, 91.04739987412768 -26.599968261380937 M-89.7284514722211 -26.70413615497236 C-18.90058356085063 -27.310684077358097, 53.11897750908029 -27.315936543704332, 90.3127620828192 -26.726536875658454 M91.25257901562358 -26.249732437452305 C91.24373817110457 -15.178924755856535, 91.15169019001083 -1.6244006192590044, 90.2338904767237 28.191031871284366 M90.34504713886494 -26.69087769843035 C90.13459089727552 -11.058238672486024, 90.05687127854182 3.93490055474672, 89.95520763835584 26.366968305685333 M90.99811310636987 26.215573809637498 C21.802649760489942 28.75776720201201, -46.26875887800694 28.887942906094327, -90.32355965846637 26.675281027774034 M90.18410172189189 27.434954285157872 C51.1648119722365 26.50547800593444, 11.103969258720065 26.226935190425827, -89.54699589833993 26.80903337634652 M-91.00885844341113 25.648903139884666 C-90.36620914275878 7.372786237829284, -90.73494796850125 -8.701967333872016, -89.93198043850717 -27.02380121412523 M-89.81097371846803 26.702749801243375 C-89.83189480529754 11.233676620023333, -89.57743110412247 -3.2376359777078974, -90.37414099095113 -26.69441246703231" stroke="#9370DB" stroke-width="1.3" fill="none" stroke-dasharray="0 0"></path></g><g class="label" style="" transform="translate(-59.9453125, -12)"><rect></rect><foreignObject width="119.890625" height="24"><div xmlns="http://www.w3.org/1999/xhtml" style="display: table-cell; white-space: nowrap; line-height: 1.5; max-width: 200px; text-align: center;"><span class="nodeLabel"><p>429 + Retry-After</p></span></div></foreignObject></g></g><g class="rough-node default" id="container-flowchart-F-9" data-look="handDrawn" transform="translate(1034.5989532470703, 161.5308494567871)"><g class="basic label-container" style=""><path d="M-99.78318185670292 -27.114611944440064 C-99.78318185670292 -27.114611944440064, -99.78318185670292 -27.114611944440064, -99.78318185670292 -27.114611944440064 M-99.78318185670292 -27.114611944440064 C-99.78318185670292 -27.114611944440064, -99.78318185670292 -27.114611944440064, -99.78318185670292 -27.114611944440064 M-99.70374134549243 -18.716497373426094 C-98.05995769039446 -21.595852073878014, -96.14292328413897 -23.206655000773434, -92.73640372331339 -26.447436837959174 M-100.01499578519237 -19.50544715462878 C-98.33222280380049 -21.005214528323563, -96.7567907535262 -22.8908935669255, -93.06369037848428 -27.130267959851054 M-99.49233644142974 -11.8227579221595 C-93.72919659194612 -18.45457247309666, -88.75011888505483 -25.269737260779547, -86.82649402967421 -28.60429322255202 M-99.98850979607722 -11.37442839059447 C-97.75531373516162 -14.786835294384359, -93.89557641298714 -18.02766158323288, -85.75059359576478 -27.603176979987857 M-100.58138840402518 -5.711917193607583 C-94.41431499504404 -12.073423682677525, -86.74067631416271 -18.08389367479315, -80.4686230413517 -25.792956071019837 M-100.13040713387463 -4.890472780199492 C-94.76139532183447 -9.594830058054825, -90.25725058403985 -14.636201404018156, -80.52565921913643 -27.3090492196271 M-99.07042104791321 2.8415545348136395 C-89.93564485609335 -9.34966962963021, -80.9415966075681 -20.27863624038493, -74.24933149827294 -27.12102857400949 M-99.68646715437707 2.832324339200395 C-90.56940575672162 -6.965867201698148, -82.23464164293857 -16.74487908035977, -74.16397321518463 -27.40694515726033 M-99.26694696432243 12.198521428858653 C-87.06280347796574 -4.019474981555049, -72.328781134814 -20.29950659006782, -66.07791938957153 -28.146908926447143 M-100.16414530723168 10.512266074236075 C-88.7946990142112 -2.950203492638873, -76.7120160785935 -15.527741499458243, -65.94277441708863 -27.16304306285279 M-100.95892117514273 17.99176448659507 C-84.13373680649875 0.7518610559924832, -69.44952853643507 -14.852448452013736, -61.065264028244044 -25.821534688413724 M-99.54230149059099 19.514162736682174 C-90.24625362322352 7.517158189138597, -80.82870775918383 -2.677218510807686, -60.56084753939121 -26.912996290970675 M-100.67246288780075 25.03156885305746 C-90.27501137535677 15.38748129088792, -80.2321454038326 4.197831350902938, -52.66499073470401 -26.218040530617326 M-99.10304812989891 26.287094485843024 C-83.02782541136568 6.9434038338450685, -67.5372363135783 -11.727207703534383, -53.10502673544138 -26.806300653766005 M-94.15615503614455 26.54177573501236 C-82.56313231552866 16.231709436601918, -74.26691471078178 4.716115231248939, -45.5272878681012 -26.612992015896502 M-93.80170401620238 27.535877361799002 C-76.31416959281097 5.7718950992014175, -57.452813352236674 -14.204723824835368, -46.09687849667224 -27.709523712778644 M-87.55413147836639 27.57100089989071 C-69.7613733241906 7.186041092630401, -52.484411593020994 -13.670023422432024, -40.7696316526602 -26.18641281161366 M-87.91490843670366 27.522199635952465 C-73.80430105353707 11.44243611532302, -59.7706159689897 -4.236363660498409, -40.49119297985445 -27.383700356939492 M-81.19146746655716 27.618945549902076 C-68.62029876577365 11.00394250208702, -54.05984880540186 -4.36635369018976, -34.28799839464724 -26.872989598981583 M-81.67613941604213 27.384402393535943 C-64.37641781321133 7.549337120860806, -45.999021099372584 -11.89975410403667, -34.51471972386021 -26.530131044891526 M-74.19521466924533 27.574070928527522 C-63.98870336666247 16.111351413125917, -51.62683205063593 3.5638638952392827, -26.781719125712442 -27.476031570391655 M-74.42934005767177 27.648025678779863 C-58.23734963548747 9.421016847596354, -43.97373509485117 -6.8278875781371395, -26.864746576790182 -27.552432308297504 M-67.28420646999786 25.98186379306717 C-57.21934903803824 14.622349517471259, -43.595832745999935 1.142511270736365, -19.619182922864223 -26.76335285184169 M-67.17403883066076 27.528868077946758 C-50.75685273221252 6.87159738947924, -33.374779952000274 -12.114818939554503, -19.71135215131407 -26.502493737294593 M-60.116727703575876 27.759577336458975 C-45.75908246182434 10.431870220778494, -29.030233373848006 -8.72135739903827, -14.221652830449587 -28.079067309801335 M-61.471817542101775 27.997428114528596 C-50.539132216541866 14.996247980010319, -39.13272588960418 3.1424524578750788, -13.56195523291695 -26.733609930381586 M-53.75915004744558 26.538634135799484 C-37.4739669179464 7.093015849204188, -21.031554197608312 -11.962415390717442, -5.715658792775361 -27.73675560347728 M-54.84029712947099 26.640676421582356 C-40.480749428205904 13.12629912573974, -27.67222658287262 -2.4836923424679784, -6.5620238255667145 -27.28380932744782 M-49.06013199855707 27.336816481296246 C-36.417556951239554 11.925341208600054, -21.03177478402008 -2.1872100114010506, -1.3313161460173946 -27.39782976762589 M-47.960629934308095 27.94882867752758 C-36.264925143088725 14.13113474583266, -24.368530038591473 1.1029234245277988, 0.0010661638851890975 -27.352317956184525 M-40.17913707900319 28.35590260453827 C-28.213375593728543 11.828452432492728, -13.345947460933111 -3.20473857314544, 5.8437158759881385 -25.522879676354506 M-41.79359872911043 27.32087506090523 C-25.239720211339748 9.311820405095068, -9.08203087183063 -10.006911779385772, 5.9235938482024855 -26.53889576554123 M-34.90119923974815 27.120705023047872 C-18.719410290683953 9.399276869389668, -3.0132340846275065 -9.02154534580688, 12.507358258610076 -26.46819678173342 M-34.1213443981127 27.16855182215448 C-21.705743283918267 12.784223475223797, -10.459756477465877 -1.7442373399696365, 12.579169760187662 -27.37200940804813 M-27.65412587645394 26.303501925784133 C-18.369895986298403 14.998766930342615, -7.65797448814139 4.856411929998233, 18.468730766578336 -26.488567478189804 M-27.745224445095932 27.43457946380274 C-10.267698266475719 8.618211829207613, 6.504604585046829 -12.324783664818415, 19.511506587583536 -26.384178230024105 M-20.711756045949084 26.459836816760326 C-9.47632341975489 13.240788614145494, 0.404659097129127 1.4947409449381872, 24.878608860272532 -26.55737140519449 M-21.742662654378485 27.765738665602125 C-6.881959170484568 10.531621082753759, 9.248009728120563 -7.849346043223272, 25.97036116226659 -26.007949953077137 M-13.534283548501886 26.394719651787153 C-1.3071344508336387 11.099068843514397, 12.069316854553186 -2.1993962779314504, 32.07602608730611 -27.06918247400045 M-14.792053771803982 26.5931678141906 C1.7591457536288735 8.572976652357218, 17.807037698551248 -8.971148758212694, 33.054422793808385 -27.491488758706577 M-9.033330263775753 28.109932686222415 C6.134509658273515 10.783122560728653, 20.338137243796496 -5.737459725778243, 39.44074520807567 -27.157731389206663 M-8.399569102286488 27.678131121100254 C10.315745532513166 6.861671649439929, 27.638095892856008 -14.099610228777202, 39.710794942596806 -27.13416797121858 M-1.603384195529991 26.990667340907827 C12.405467964378854 10.228356237848226, 28.918432381036766 -5.485170488197772, 46.15952170665448 -25.93649709224342 M-2.140077157422706 27.83731352599687 C15.601135506399173 8.81958211180877, 31.036515423154018 -9.97590089083132, 45.92442786766243 -26.691735636440317 M4.17105573426079 28.233137400275847 C22.911479329391828 4.26280536360257, 43.03295840818808 -16.758534703128987, 53.125779066792795 -26.718537587109694 M5.03108261487178 27.456018002775796 C17.86157148158245 12.712895790474645, 31.202764511977676 -1.5906657046391137, 52.33577841767968 -27.22402826879192 M11.167430411282485 28.14589325738415 C22.927076238960602 15.576526897023289, 33.93285552286384 1.5731909520694674, 60.19213386024481 -27.849681931638546 M11.352534677614557 27.700503982647305 C27.05809717700299 10.171324781427543, 42.83650085750627 -7.550436740881284, 58.51044894749148 -26.381878612903908 M16.81305421771724 26.50174584984842 C28.614172718075434 13.503835866571663, 42.43790328475599 2.3840682247837117, 65.41244752525287 -27.815654485016363 M17.52380791648761 27.798201437441314 C33.12911561802435 9.072119720485803, 49.64032309902747 -8.56909953046926, 66.53822987338012 -27.13598933749176 M24.369269360384017 26.895956095867724 C35.762627061260964 14.601542083852197, 47.30541763937454 2.3133574265549615, 73.79469344139557 -26.667411068849933 M25.739755773472332 26.931410848605175 C37.28586725748605 13.185300489740444, 50.42563611889314 -1.5424917917998802, 72.74772214676086 -27.393209817139624 M31.132251398190967 26.628972431122968 C46.15701660457031 11.002460590359512, 57.530717160051076 -4.11423331909634, 78.93468547801348 -25.514517876012672 M31.94777749744031 26.797140666295096 C42.34008563820203 14.994012073471982, 51.869448134603466 4.187790281744447, 78.420115650958 -26.640636733854727 M37.386634180706764 26.846422596161496 C55.33592221944444 7.575995071450145, 72.7615049425048 -10.501663524661721, 85.36635883841161 -27.354728822899173 M37.71221547427898 27.610049104913152 C55.078541052372096 7.825693227387788, 71.40272175612485 -11.39001763355754, 86.40857995776554 -27.08267136286171 M44.77732899560872 25.952855085100474 C61.48457008486771 9.930502340901205, 76.38769761671489 -8.78306925586757, 93.09424369898025 -28.41730667644976 M45.08352214255255 27.926246120729765 C60.3316708185105 9.265182260400701, 76.23398344640697 -9.010955212169097, 92.89543640785712 -26.83379785545809 M51.18577666931224 28.802488459210807 C68.20126842157863 9.03688537992385, 83.15717607407137 -7.406368477047343, 99.21518501090664 -27.413154347952148 M50.934788748822875 27.570045337080145 C65.84033253521733 10.200432937398316, 80.8134948693431 -6.5183193837592555, 98.23372496113367 -27.055190766185092 M57.5887175692856 25.65334702931527 C69.54359864475732 14.797023469155123, 80.20753666188023 1.192893946099025, 98.62403267459096 -21.689894843327025 M58.46490559935618 26.702723866675655 C69.48945680424275 15.542951073917036, 78.86845490855997 2.588823426608894, 100.38026533260373 -20.708901252010424 M65.7902730789174 28.1797854814847 C74.18760445139033 16.386326489137126, 85.34420637258563 4.30693008922913, 99.81919213035611 -13.34384495500869 M65.20917694825908 27.23994122685562 C73.0334531459719 18.031148356149938, 81.3783946680342 9.072852622124747, 100.91741382410227 -13.79651118045736 M70.93559086454594 28.219040255492228 C80.91852466648916 16.89754785935705, 89.56470741779631 5.241645599973854, 100.79125816275072 -5.064848517629589 M70.96921553048287 27.298316143842545 C80.07085460708498 16.916297056157035, 88.6936412750289 8.18228410154431, 99.83473032131069 -6.280051793344499 M78.86275211624353 26.281185964433497 C82.66772633108968 22.47464005936286, 90.13282956751831 14.994802211540799, 98.99859748639852 2.930462281526161 M78.05999595974853 26.47512412855356 C84.8818766735911 19.240586931675494, 92.05539823017456 12.600758061740834, 100.42643978031687 2.289197400226853 M85.25345850005014 26.07343390604154 C89.35658515988501 22.28013056765364, 94.43853378539643 13.719860946410463, 100.86648619417923 9.79836916287331 M85.20249214764867 27.56878463228684 C87.93523153737453 23.748932007868515, 91.15702000415617 19.933032541491908, 99.84775701824464 9.619295281894813 M90.56131682458114 26.837151271475282 C92.65095696209126 25.247379714501914, 95.19959816788746 23.814934804900343, 101.26648248549334 16.20402061570485 M90.93845124244525 27.815773685182585 C93.09657805571122 25.270592977303945, 95.41460498572289 22.390983728321984, 100.48068931239771 16.63987742281489 M98.15379681936498 27.14162173025566 C98.63346605608272 26.617122104361087, 98.95998857832429 25.885915077815355, 100.40049327523735 24.882173970083326 M98.26441398903496 27.18640990153081 C99.0666105357544 26.23598889758207, 99.66345702842194 25.328228721802397, 100.27415582291721 24.861332852104916" stroke="#ECECFF" stroke-width="4" fill="none" stroke-dasharray="0 0"></path><path d="M-100.3855694686152 -27.618491865625057 C-48.63897949396106 -25.73112729618957, 1.7430634692041773 -27.9635466692806, 100.50671724523079 -26.85750645791689 M-99.94401933119418 -26.684830089259403 C-42.19218171399828 -28.07292288042923, 14.975908638057767 -27.770790282585985, 99.54699840226006 -26.688974875048366 M100.47091455270433 -26.264584876771572 C100.77138784215236 -8.932523709722712, 100.70549041795823 5.4598172466222845, 100.6075791221411 27.376563060794414 M99.49433163443497 -26.33663979646234 C100.38018130524244 -12.626024012276371, 99.33119528756097 1.907384939259741, 99.74502902063782 27.010589683517413 M99.00279386540515 27.94546286952922 C48.44166219754693 25.314446202186854, -3.715531138338914 24.57104320849664, -100.11513845956875 27.162855779885426 M99.19111060285444 27.56335912273749 C51.27164097040161 26.675682255278417, 0.6182285374940883 27.759332558312405, -99.34610558854044 27.169093092607287 M-100.13041115229875 28.048994445514666 C-98.73117087258306 8.852993620111526, -100.99895813398896 -10.561212311818633, -99.2394659550255 -27.651594902362067 M-100.53436059815911 27.480826826300227 C-100.03079385987546 11.335754570103612, -99.69878321811427 -4.647134494392791, -100.47576875948275 -27.510942814033395" stroke="#9370DB" stroke-width="1.3" fill="none" stroke-dasharray="0 0"></path></g><g class="label" style="" transform="translate(-69.8828125, -12)"><rect></rect><foreignObject width="139.765625" height="24"><div xmlns="http://www.w3.org/1999/xhtml" style="display: table-cell; white-space: nowrap; line-height: 1.5; max-width: 200px; text-align: center;"><span class="nodeLabel"><p>OpenAI / Anthropic</p></span></div></foreignObject></g></g></g></g></g><defs><filter id="container-drop-shadow" height="130%" width="130%"><feDropShadow dx="4" dy="4" stdDeviation="0" flood-opacity="0.06" flood-color="#000000"></feDropShadow></filter></defs><defs><filter id="container-drop-shadow-small" height="150%" width="150%"><feDropShadow dx="2" dy="2" stdDeviation="0" flood-opacity="0.06" flood-color="#000000"></feDropShadow></filter></defs></svg>